<?xml version="1.0" encoding="UTF-8" standalone="no"?>
<svg
   version="1.1"
   width="750.0mm"
   height="460.0mm"
   viewBox="0 0 1935088 1186854"
   id="svg710"
   sodipodi:docname="ac-cut.svg"
   inkscape:version="1.2.2 (b0a8486541, 2022-12-01)"
   xmlns:inkscape="http://www.inkscape.org/namespaces/inkscape"
   xmlns:sodipodi="http://sodipodi.sourceforge.net/DTD/sodipodi-0.dtd"
   xmlns="http://www.w3.org/2000/svg"
   xmlns:svg="http://www.w3.org/2000/svg">
  <defs
     id="defs714" />
  <sodipodi:namedview
     id="namedview712"
     pagecolor="#ffffff"
     bordercolor="#000000"
     borderopacity="0.25"
     inkscape:showpageshadow="2"
     inkscape:pageopacity="0.0"
     inkscape:pagecheckerboard="0"
     inkscape:deskcolor="#d1d1d1"
     inkscape:document-units="mm"
     showgrid="false"
     inkscape:zoom="0.7189671"
     inkscape:cx="481.94138"
     inkscape:cy="353.28459"
     inkscape:window-width="1920"
     inkscape:window-height="1019"
     inkscape:window-x="0"
     inkscape:window-y="0"
     inkscape:window-maximized="1"
     inkscape:current-layer="svg710" />
  <g
     type="op image"
     label="Image ({percent}, {speed}mm/s)"
     speed="80.0"
     color="#00000000"
     frequency="30.0"
     id="I1"
     stopop="True"
     allowed_attributes="[]"
     power="500"
     hex_color="#00000000"
     output="True"
     dwell_time="50.0"
     raster_preference_top="False"
     dangerous="False"
     overrule_dpi="False"
     consider_laserspot="False"
     lock="False" />
  <g
     type="op raster"
     speed="150.0"
     dpi="500.0"
     color="#000000"
     frequency="30.0"
     id="meerk40t:23"
     stopop="False"
     allowed_attributes="[]"
     output="True"
     power="1000"
     dwell_time="50.0"
     raster_preference_top="False"
     dangerous="False"
     use_grayscale="True"
     consider_laserspot="False"
     lock="False"
     references="tspan1525 tspan1711 tspan1753 tspan1807 tspan1525-2" />
  <g
     type="op engrave"
     speed="35.0"
     color="#0000ff"
     frequency="30.0"
     id="meerk40t:12"
     allowed_attributes="['stroke']"
     power="1000"
     dwell_time="50.0"
     output="True"
     dangerous="False"
     lock="False"
     references="path1872" />
  <g
     type="op engrave"
     color="#5a943eff"
     speed="35.0"
     allowed_attributes="['stroke']"
     output="True"
     power="1000"
     dwell_time="50.0"
     dangerous="False"
     id="meerk40t:9"
     lock="False" />
  <g
     type="op cut"
     speed="8.0"
     color="#ff0000"
     frequency="30.0"
     id="meerk40t:6"
     dangerous="False"
     kerf="0.0"
     allowed_attributes="['stroke']"
     lock="False"
     power="1000"
     dwell_time="50.0"
     passes="2"
     passes_custom="True"
     hex_color="#ff0000ff"
     references="path2071 meerk40t:16 path2972 rect25847 path2486 path7989 path1611" />
  <path
     d="m 429847.36,11997.546 c 792.24,-0.124 1570.73,208.262 2256.97,604.142 686.23,395.88 1256.34,965.483 1652.83,1651.366 396.48,685.883 605.56,1464.188 606.13,2256.422 v 5.34 c -0.41,892.799 -265.61,1765.733 -761.9,2507.881 -496.3,742.147 -1201.74,1320.682 -2026.68,1662.092 -824.95,341.411 -1732.91,430.595 -2608.52,256.22 -875.61,-174.374 -1680.14,-604.594 -2311.35,-1235.993 -631.21,-631.398 -1061.19,-1436.049 -1235.31,-2311.706 -174.11,-875.656 -84.65,-1783.59 257,-2608.429 341.66,-824.84 920.41,-1530.104 1662.71,-2026.176 742.3,-496.072 1615.32,-761.01 2508.12,-761.149 v -0.01 M 373092.23,112880.14 c 792.39,-0.36 1571.09,207.88 2257.53,603.7 686.45,395.82 1256.76,965.45 1653.39,1651.43 396.63,685.97 605.78,1464.42 606.35,2256.81 v 5.41 c -0.41,892.74 -265.57,1765.62 -761.81,2507.74 -496.24,742.12 -1201.6,1320.66 -2026.47,1662.11 -824.86,341.44 -1732.76,430.71 -2608.33,256.44 -875.57,-174.26 -1680.1,-604.35 -2311.37,-1235.62 -631.26,-631.26 -1061.35,-1435.79 -1235.61,-2311.35 -174.27,-875.57 -85,-1783.46 256.45,-2608.33 341.45,-824.86 919.99,-1530.22 1662.12,-2026.45 742.12,-496.23 1615,-761.4 2507.75,-761.8 v -0.1 m 113510.25,0 c 792.24,-0.12 1570.73,208.26 2256.97,604.14 686.23,395.88 1256.34,965.49 1652.83,1651.37 396.49,685.89 605.56,1464.19 606.13,2256.43 v 5.41 c -0.41,892.8 -265.61,1765.73 -761.9,2507.88 -496.3,742.15 -1201.74,1320.68 -2026.68,1662.09 -824.95,341.41 -1732.91,430.6 -2608.52,256.22 -875.61,-174.37 -1680.14,-604.59 -2311.35,-1235.99 -631.21,-631.4 -1061.19,-1436.05 -1235.31,-2311.71 -174.11,-875.65 -84.65,-1783.59 257,-2608.43 341.66,-824.84 920.41,-1530.1 1662.71,-2026.17 742.3,-496.07 1615.32,-761.01 2508.12,-761.15 v -0.1 m -56308,-84497.357 c 9657.39,78.027 19128.22,2682.54 27467.44,7553.644 8339.21,4871.104 15259.91,11841.204 20071.48,20214.784 4811.56,8373.579 7348.45,17862.536 7357.54,27520.009 v 54.656 c 0.1,10805.739 -3164.74,21378.514 -9101.88,30407.114 -5937.18,9028.62 -14390.68,16123.75 -24312.16,20405.45 -9921.47,4281.72 -20883.1,5565.38 -31525.43,3691.83 -10642.34,-1873.58 -20506.46,-6823.58 -28369.08,-14236.17 -7862.62,-7412.57 -13384.67,-16968.07 -15881.32,-27481.432 -2496.65,-10513.375 -1860.26,-21531.275 1830.27,-31687.292 3690.54,-10156.017 10276.05,-19012.209 18939.84,-25470.26 8663.78,-6458.05 19032.25,-10239.478 29819.52,-10875.32 1233.16,-73.666 2468.45,-106.021 3703.78,-97.013 v 0"
     stroke_scale="True"
     mktablength="5160.23622047244"
     mktabpositions=""
     type="elem path"
     id="path7989"
     lock="False"
     hidden="False"
     label_display="False"
     stroke-linecap="butt"
     stroke-linejoin="miter"
     fill-rule="nonzero"
     stroke="#5a943e"
     stroke-width="258.012"
     fill="none"
     bounds="368579.3692530151, 11997.555764063603, 491118.81369415094, 139068.41921230132"
     paint_bounds="368450.3632784805, 11868.549789528972, 491247.81966868555, 139197.42518683596" />
  <path
     d="m 254202.56,86792.562 c 0,562.467 -148.09,1115.144 -429.32,1602.255 -281.24,487.111 -685.82,891.699 -1172.93,1172.933 -487.12,281.233 -1039.79,429.322 -1602.26,429.322 -562.47,0 -1115.14,-148.089 -1602.26,-429.322 -487.11,-281.234 -891.69,-685.822 -1172.93,-1172.933 -281.23,-487.111 -429.32,-1039.788 -429.32,-1602.255 0,-562.466 148.09,-1115.142 429.33,-1602.251 281.23,-487.109 685.82,-891.696 1172.93,-1172.928 487.11,-281.233 1039.78,-429.321 1602.25,-429.321 562.47,0 1115.14,148.088 1602.25,429.321 487.11,281.232 891.7,685.819 1172.93,1172.928 281.24,487.109 429.33,1039.785 429.33,1602.251 v 0 m 105052.14,0 c 0,562.467 -148.09,1115.144 -429.32,1602.255 -281.24,487.111 -685.82,891.699 -1172.93,1172.933 -487.12,281.233 -1039.79,429.322 -1602.26,429.322 -562.47,0 -1115.14,-148.089 -1602.26,-429.322 -487.11,-281.234 -891.69,-685.822 -1172.93,-1172.933 -281.23,-487.111 -429.32,-1039.788 -429.32,-1602.255 0,-562.466 148.09,-1115.142 429.33,-1602.251 281.23,-487.109 685.82,-891.696 1172.93,-1172.928 487.11,-281.233 1039.78,-429.321 1602.25,-429.321 562.47,0 1115.14,148.088 1602.25,429.321 487.11,281.232 891.7,685.819 1172.93,1172.928 281.24,487.109 429.33,1039.785 429.33,1602.251 v 0 m -33753.59,-65793.923 -43955.32,1.33 -12981.13,12982.47 V 143942.07 h 69918.92 V 33982.439 l -12982.47,-12983.8"
     stroke_scale="True"
     mktablength="5160.23622047244"
     mktabpositions=""
     type="elem path"
     id="path2486"
     lock="False"
     hidden="False"
     label_display="False"
     stroke-linecap="butt"
     stroke-linejoin="miter"
     fill-rule="nonzero"
     stroke="#5a943e"
     stroke-width="258.012"
     fill="none"
     bounds="247793.7445453292, 20998.656186299995, 359254.995770524, 143942.18780913978"
     paint_bounds="247664.73843974445, 20869.650080715255, 359384.00187610876, 144071.1939147245" />
  <g
     label_display="False"
     id="g697">
    <g
       label_display="False"
       id="g695" />
  </g>
  <rect
     x="-459252.12"
     y="334689.06"
     rx="0"
     ry="0"
     width="118427.48"
     height="233242.8"
     transform="rotate(-90)"
     stroke_scale="True"
     mktablength="5160.23622047244"
     mktabpositions=""
     type="elem rect"
     id="meerk40t:16"
     lock="False"
     hidden="False"
     label_display="False"
     stroke-linecap="butt"
     stroke-linejoin="miter"
     fill-rule="evenodd"
     stroke="#000000"
     stroke-width="258.012"
     fill="none"
     bounds="309614.1732283465, 387017.71653543314, 542856.8365553697, 504155.07331692526"
     paint_bounds="309485.1671988515, 386888.7105059381, 542985.8425848647, 504284.0793464203" />
</svg>
