<?xml version="1.0" encoding="UTF-8" standalone="no"?>
<!-- Created with Inkscape (http://www.inkscape.org/) -->

<svg
   width="210mm"
   height="297mm"
   viewBox="0 0 210 297"
   version="1.1"
   id="svg5"
   inkscape:version="1.2.2 (b0a8486541, 2022-12-01)"
   sodipodi:docname="dr-no.svg"
   xmlns:inkscape="http://www.inkscape.org/namespaces/inkscape"
   xmlns:sodipodi="http://sodipodi.sourceforge.net/DTD/sodipodi-0.dtd"
   xmlns="http://www.w3.org/2000/svg"
   xmlns:svg="http://www.w3.org/2000/svg">
  <sodipodi:namedview
     id="namedview7"
     pagecolor="#ffffff"
     bordercolor="#666666"
     borderopacity="1.0"
     inkscape:showpageshadow="2"
     inkscape:pageopacity="0.0"
     inkscape:pagecheckerboard="0"
     inkscape:deskcolor="#d1d1d1"
     inkscape:document-units="mm"
     showgrid="false"
     inkscape:zoom="15.009091"
     inkscape:cx="172.42883"
     inkscape:cy="128.32223"
     inkscape:window-width="2560"
     inkscape:window-height="1368"
     inkscape:window-x="0"
     inkscape:window-y="0"
     inkscape:window-maximized="1"
     inkscape:current-layer="layer1" />
  <defs
     id="defs2" />
  <g
     inkscape:label="Layer 1"
     inkscape:groupmode="layer"
     id="layer1">
    <g
       id="g1058"
       transform="matrix(1.0018978,0,0,1,-0.0727469,0)"
       style="stroke-width:0.999052">
      <path
         style="fill:none;fill-rule:evenodd;stroke:#000000;stroke-width:0.599432;stroke-linecap:butt;stroke-linejoin:miter;stroke-dasharray:none;stroke-opacity:1"
         d="m 43.335758,36.957802 2.044443,-2.262273 2.150589,2.682665"
         id="path353" />
      <path
         id="path236"
         style="fill:none;stroke:#000000;stroke-width:0.599432;stroke-linejoin:bevel;stroke-dasharray:none;stroke-dashoffset:13.8943;stroke-opacity:1;stop-color:#000000"
         d="m 50.946221,35.943094 a 0.6582383,0.78261976 0 0 1 -0.658453,0.782278 0.6582383,0.78261976 0 0 1 -0.658023,-0.782791 0.6582383,0.78261976 0 0 1 0.658309,-0.782449 0.6582383,0.78261976 0 0 1 0.658167,0.78262" />
      <g
         id="g1045"
         transform="translate(-1.471996,-2.4914214)"
         style="stroke-width:0.999052">
        <path
           id="path234"
           style="fill:none;stroke:#000000;stroke-width:0.599432;stroke-linejoin:bevel;stroke-dasharray:none;stroke-dashoffset:13.8943;stroke-opacity:1;stop-color:#000000"
           d="m 42.078918,34.933968 a 0.89152845,1.0599927 0 0 1 -0.89182,1.05953 0.89152845,1.0599927 0 0 1 -0.891237,-1.060224 0.89152845,1.0599927 0 0 1 0.891626,-1.059761 0.89152845,1.0599927 0 0 1 0.891431,1.059992" />
        <path
           style="fill:none;fill-rule:evenodd;stroke:#000000;stroke-width:0.599432;stroke-linecap:butt;stroke-linejoin:miter;stroke-dasharray:none;stroke-opacity:1"
           d="m 41.272202,36.023321 -7.69e-4,3.620793 -1.154166,1.323246"
           id="path294" />
        <path
           style="fill:none;fill-rule:evenodd;stroke:#000000;stroke-width:0.599432;stroke-linecap:butt;stroke-linejoin:miter;stroke-dasharray:none;stroke-opacity:1"
           d="m 41.245715,39.57057 1.564393,1.508208"
           id="path296" />
        <path
           style="fill:none;fill-rule:evenodd;stroke:#000000;stroke-width:0.599432;stroke-linecap:butt;stroke-linejoin:miter;stroke-dasharray:none;stroke-opacity:1"
           d="m 40.12025,37.668118 0.08678,-1.070594 2.649476,0.01666 0.03869,1.365324"
           id="path298" />
      </g>
      <path
         style="fill:none;fill-rule:evenodd;stroke:#000000;stroke-width:0.599432;stroke-linecap:butt;stroke-linejoin:miter;stroke-dasharray:none;stroke-opacity:1"
         d="m 49.61562,36.788923 0.704788,0.896379 2.665738,-0.241504"
         id="path300" />
      <path
         style="fill:none;fill-rule:evenodd;stroke:#000000;stroke-width:0.599432;stroke-linecap:butt;stroke-linejoin:miter;stroke-dasharray:none;stroke-opacity:1"
         d="m 49.430762,36.610033 -0.569501,-0.833176 1.51108,-1.78421"
         id="path302" />
      <path
         style="fill:none;fill-rule:evenodd;stroke:#ff0200;stroke-width:0.599432;stroke-linecap:butt;stroke-linejoin:miter;stroke-dasharray:none;stroke-opacity:1"
         d="m 38.332237,26.134753 c 0.09895,0.399792 6.936924,12.099117 6.936924,12.099117"
         id="path304"
         sodipodi:nodetypes="cc" />
      <path
         style="fill:none;fill-rule:evenodd;stroke:#000000;stroke-width:0.599432;stroke-linecap:butt;stroke-linejoin:miter;stroke-dasharray:none;stroke-opacity:1"
         d="m 49.834844,36.690418 -2.429064,0.711778 c 0,0 0.694449,0.465286 0,0 C 46.711329,36.93691 45.378878,35.78978 45.378878,35.78978 l -1.185935,3.350622"
         id="path292" />
    </g>
  </g>
</svg>
