<?xml version="1.0" encoding="UTF-8" standalone="no"?>
<!-- Created with Inkscape (http://www.inkscape.org/) -->

<svg
   xml:space="preserve"
   width="16in"
   height="12in"
   viewBox="0 0 406.4 304.8"
   version="1.1"
   id="svg43966"
   inkscape:version="1.2.2 (b0a8486541, 2022-12-01)"
   sodipodi:docname="panel-split.svg"
   inkscape:export-filename="drno"
   inkscape:export-xdpi="96"
   inkscape:export-ydpi="96"
   xmlns:inkscape="http://www.inkscape.org/namespaces/inkscape"
   xmlns:sodipodi="http://sodipodi.sourceforge.net/DTD/sodipodi-0.dtd"
   xmlns="http://www.w3.org/2000/svg"
   xmlns:svg="http://www.w3.org/2000/svg"><sodipodi:namedview
     id="namedview43968"
     pagecolor="#ffffff"
     bordercolor="#000000"
     borderopacity="0.25"
     inkscape:showpageshadow="2"
     inkscape:pageopacity="0.0"
     inkscape:pagecheckerboard="0"
     inkscape:deskcolor="#d1d1d1"
     inkscape:document-units="mm"
     showgrid="false"
     inkscape:zoom="0.8158602"
     inkscape:cx="767.28831"
     inkscape:cy="310.10215"
     inkscape:window-width="1920"
     inkscape:window-height="1019"
     inkscape:window-x="0"
     inkscape:window-y="0"
     inkscape:window-maximized="1"
     inkscape:current-layer="layer1" /><defs
     id="defs43963"><rect
       x="67.096764"
       y="211.56648"
       width="142.78036"
       height="156.61008"
       id="rect44870" /></defs><g
     inkscape:label="Layer 1"
     inkscape:groupmode="layer"
     id="layer1"
     transform="translate(-266.842,40.9934)"><rect
       style="fill:#000000;fill-opacity:1;stroke:#ffffff;stroke-width:0.0999996;stroke-dasharray:none;stroke-opacity:1"
       id="rect3991"
       width="393.60001"
       height="76.200005"
       x="273.19199"
       y="41.556599" /><path
       style="fill:#000000;fill-opacity:1;stroke:#ffffff;stroke-width:0.1;stroke-dasharray:none;stroke-opacity:1"
       d="m 273.192,-34.6434 v 76.2 h 292.1 v -76.2 z"
       id="rect7800" /><path
       style="fill:#ff7676;fill-opacity:0.908609;stroke:none;stroke-width:0.1;stroke-dasharray:none;stroke-opacity:1"
       d="m 457.89752,-15.161902 h 3.73517 v 0.66921 a 10.367708,10.367709 0 0 1 8.33076,8.3307577 h 0.66921 v 3.7351725 h -0.67645 a 10.367708,10.367709 0 0 1 -8.32352,8.3235229 v 0.6764445 h -3.73517 V 5.8967611 A 10.367708,10.367709 0 0 1 449.574,-2.4267618 h -0.67645 v -3.7351725 h 0.67645 a 10.367708,10.367709 0 0 1 8.32352,-8.3235227 z"
       id="path4101" /><path
       style="fill:#ff7676;fill-opacity:0.908609;stroke:none;stroke-width:0.1;stroke-dasharray:none;stroke-opacity:1"
       d="m 426.59607,-15.161902 h 3.73517 v 0.66921 a 10.367708,10.367709 0 0 1 8.33076,8.3307577 h 0.66921 v 3.7351725 h -0.67644 a 10.367708,10.367709 0 0 1 -8.32353,8.3235229 v 0.6764445 h -3.73517 V 5.8967611 a 10.367708,10.367709 0 0 1 -8.32352,-8.3235229 h -0.67645 v -3.7351725 h 0.67645 a 10.367708,10.367709 0 0 1 8.32352,-8.3235227 z"
       id="path4099" /><path
       style="fill:#ff7676;fill-opacity:0.908609;stroke:none;stroke-width:0.1;stroke-dasharray:none;stroke-opacity:1"
       d="m 395.29514,-15.161902 h 3.73517 v 0.66921 a 10.367708,10.367709 0 0 1 8.33076,8.3307577 h 0.66921 v 3.7351725 h -0.67645 a 10.367708,10.367709 0 0 1 -8.32352,8.3235229 v 0.6764445 h -3.73517 V 5.8967611 a 10.367708,10.367709 0 0 1 -8.32352,-8.3235229 h -0.67645 v -3.7351725 h 0.67645 a 10.367708,10.367709 0 0 1 8.32352,-8.3235227 z"
       id="path4097" /><path
       style="fill:#ff7676;fill-opacity:0.908609;stroke:none;stroke-width:0.1;stroke-dasharray:none;stroke-opacity:1"
       d="m 363.99369,-15.161902 h 3.73517 v 0.66921 a 10.367708,10.367709 0 0 1 8.33076,8.3307577 h 0.66921 v 3.7351725 h -0.67644 a 10.367708,10.367709 0 0 1 -8.32353,8.3235229 v 0.6764445 h -3.73517 V 5.8967611 a 10.367708,10.367709 0 0 1 -8.32352,-8.3235229 h -0.67645 v -3.7351725 h 0.67645 a 10.367708,10.367709 0 0 1 8.32352,-8.3235227 z"
       id="path4095" /><path
       style="fill:#ff7676;fill-opacity:0.908609;stroke:none;stroke-width:0.1;stroke-dasharray:none;stroke-opacity:1"
       d="m 329.90585,-15.161902 h 3.73517 v 0.66921 a 10.367708,10.367709 0 0 1 8.33076,8.3307577 h 0.66921 v 3.7351725 h -0.67645 a 10.367708,10.367709 0 0 1 -8.32352,8.3235229 v 0.6764445 h -3.73517 V 5.8967611 a 10.367708,10.367709 0 0 1 -8.32352,-8.3235229 h -0.67645 v -3.7351725 h 0.67645 a 10.367708,10.367709 0 0 1 8.32352,-8.3235227 z"
       id="path4093" /><path
       style="fill:#ff7676;fill-opacity:0.908609;stroke:none;stroke-width:0.1;stroke-dasharray:none;stroke-opacity:1"
       d="m 300.72985,-19.162174 a 14.867708,14.867708 0 0 1 12.95012,7.580415 V 2.9915121 A 14.867708,14.867708 0 0 1 300.72985,10.573478 14.867708,14.867708 0 0 1 287.78025,2.9920289 V -11.580725 a 14.867708,14.867708 0 0 1 12.9496,-7.581449 z"
       id="path4091" /><g
       id="g7358"
       transform="translate(14.041309)"
       style="fill:#ffffff;fill-opacity:1;stroke:#000000;stroke-width:0.0001;stroke-dasharray:none;stroke-opacity:1"><path
         d="m 406.24508,12.238141 q 0,-0.06752 0.0289,-0.135048 0.0386,-0.06752 0.0868,-0.115755 0.0579,-0.05788 0.1254,-0.08682 0.0675,-0.02894 0.13505,-0.02894 h 3.84886 q 0.0289,0 0.0675,0.0096 0.0482,0.0096 0.0868,0.02894 0.0386,0.0096 0.0579,0.03858 0.0289,0.02894 0.0289,0.06752 v 0.424436 q 0,0.03858 -0.0193,0.07717 -0.0193,0.03859 -0.0579,0.06752 -0.0289,0.02894 -0.0772,0.04823 -0.0386,0.01929 -0.0772,0.01929 h -3.27009 q -0.0289,0 -0.0579,0.0096 -0.0193,0.0096 -0.0386,0.03858 -0.0193,0.01929 -0.0386,0.04823 -0.01,0.01929 -0.01,0.04823 v 2.045009 q 0,0.02894 0.01,0.05788 0.0193,0.02894 0.0386,0.05788 0.0289,0.01929 0.0579,0.03858 0.0289,0.0096 0.0579,0.0096 h 3.25079 q 0.0386,0 0.0772,0.01929 0.0386,0.0096 0.0675,0.02894 0.0289,0.01929 0.0482,0.04823 0.0289,0.02894 0.0289,0.06752 v 0.366558 q 0,0.03858 -0.0193,0.08682 -0.0193,0.03858 -0.0579,0.07717 -0.0289,0.02894 -0.0675,0.05788 -0.0386,0.01929 -0.0772,0.01929 h -2.75883 q -0.0289,0 -0.0675,0.01929 -0.0289,0.0096 -0.0579,0.03858 -0.0193,0.01929 -0.0386,0.05788 -0.01,0.02894 -0.01,0.05788 v 2.594846 q 0,0.04823 -0.0289,0.106109 -0.0193,0.04823 -0.0579,0.09646 -0.0289,0.04823 -0.0772,0.07717 -0.0482,0.02894 -0.0965,0.02894 h -0.66559 q -0.0579,0 -0.1254,-0.01929 -0.0675,-0.02894 -0.1254,-0.06752 -0.0579,-0.03859 -0.0965,-0.08682 -0.0289,-0.05788 -0.0289,-0.125401 z"
         id="path7316"
         style="font-size:9.87778px;line-height:125%;font-family:Bitwise;-inkscape-font-specification:'Bitwise, Normal';letter-spacing:0px;word-spacing:0px;fill:#ffffff;fill-opacity:1;stroke:#000000;stroke-width:0.0001;stroke-dasharray:none;stroke-opacity:1" /><path
         d="m 412.0394,15.980894 q 0,-0.07717 0.0386,-0.144694 0.0386,-0.06752 0.0965,-0.115755 0.0675,-0.05788 0.13505,-0.08682 0.0772,-0.02894 0.14469,-0.02894 h 2.91318 q 0.0386,0 0.0675,-0.02894 0.0289,-0.02894 0.0289,-0.06752 v -0.56913 q 0,-0.03858 -0.0482,-0.06752 -0.0482,-0.03858 -0.0868,-0.03858 h -3.09645 q -0.0289,0 -0.0675,-0.0096 -0.0289,-0.0096 -0.0579,-0.02894 -0.0289,-0.02894 -0.0482,-0.04823 -0.0193,-0.02894 -0.0193,-0.05788 V 14.23497 q 0,-0.02894 0.0193,-0.05788 0.0193,-0.03858 0.0482,-0.05788 0.0289,-0.02894 0.0675,-0.04823 0.0386,-0.01929 0.0675,-0.01929 h 3.66558 q 0.0579,0 0.11575,0.03858 0.0675,0.02894 0.11576,0.08682 0.0579,0.04823 0.0868,0.115756 0.0289,0.05788 0.0289,0.115755 v 3.434072 q 0,0.03858 0.01,0.07717 0.0193,0.02894 0.0386,0.05788 0.0193,0.02894 0.0386,0.04823 0.0289,0.0096 0.0675,0.0096 h 0.24116 q 0.0289,0 0.0579,0.01929 0.0386,0.0096 0.0675,0.03858 0.0289,0.01929 0.0482,0.04823 0.0193,0.02894 0.0193,0.05788 v 0.463021 q 0,0.03859 -0.0289,0.07717 -0.0193,0.02894 -0.0579,0.05788 -0.0386,0.02894 -0.0868,0.04823 -0.0386,0.0096 -0.0772,0.0096 h -4.1286 q -0.0675,0 -0.14469,-0.02894 -0.0772,-0.03859 -0.1447,-0.08682 -0.0579,-0.05788 -0.0965,-0.125402 -0.0386,-0.07717 -0.0386,-0.144694 z m 1.55305,0.414789 q -0.0579,0 -0.10611,0.04823 -0.0386,0.03859 -0.0386,0.09646 v 1.321539 q 0,0.05788 0.0386,0.106109 0.0482,0.03858 0.10611,0.03858 h 1.71704 q 0.0579,0 0.0965,-0.03858 0.0482,-0.04823 0.0482,-0.106109 v -1.321539 q 0,-0.05788 -0.0482,-0.09646 -0.0386,-0.04823 -0.0965,-0.04823 z"
         id="path7318"
         style="font-size:9.87778px;line-height:125%;font-family:Bitwise;-inkscape-font-specification:'Bitwise, Normal';letter-spacing:0px;word-spacing:0px;fill:#ffffff;fill-opacity:1;stroke:#000000;stroke-width:0.0001;stroke-dasharray:none;stroke-opacity:1" /><path
         d="m 418.17262,14.360321 q 0,-0.163987 0.0675,-0.231511 0.0772,-0.07717 0.27974,-0.07717 h 3.64629 q 0.10611,0 0.18328,0.01929 0.0772,0.0096 0.1254,0.04823 0.0579,0.02894 0.0772,0.09646 0.0289,0.05788 0.0386,0.144695 l 0.01,4.331175 q 0,0.05788 -0.0193,0.09646 -0.01,0.02894 -0.0193,0.04823 -0.01,0.0096 -0.0289,0.01929 -0.01,0 -0.0193,0 h -0.61736 q -0.0193,0 -0.0482,-0.0096 -0.0289,-0.0096 -0.0579,-0.02894 -0.0193,-0.02894 -0.0386,-0.04823 -0.01,-0.02894 -0.01,-0.05788 v -3.72346 q 0,-0.05788 -0.01,-0.08682 0,-0.03859 -0.0193,-0.04823 -0.01,-0.01929 -0.0386,-0.01929 -0.0193,-0.0096 -0.0579,-0.0096 h -2.41157 q -0.0579,0 -0.0868,0.0096 -0.0193,0 -0.0386,0.01929 -0.01,0.0096 -0.01,0.03858 0,0.02894 0,0.06752 v 1.070736 q 0,0.05788 0.0193,0.125402 0.0193,0.05788 0.0579,0.115755 0.0386,0.05788 0.0772,0.115755 0.0482,0.04823 0.0965,0.106109 0.0482,0.04823 0.0868,0.106109 0.0482,0.04823 0.0772,0.106109 0.0386,0.05788 0.0579,0.115755 0.0289,0.05788 0.0289,0.125402 v 1.765267 q 0,0.02894 -0.0193,0.05788 -0.01,0.01929 -0.0386,0.04823 -0.0193,0.01929 -0.0482,0.02894 -0.0193,0.0096 -0.0482,0.0096 h -1.11897 q -0.0193,0 -0.0482,-0.0096 -0.0193,-0.0096 -0.0386,-0.02894 -0.0193,-0.01929 -0.0289,-0.03859 -0.01,-0.02894 -0.01,-0.05788 z"
         id="path7320"
         style="font-size:9.87778px;line-height:125%;font-family:Bitwise;-inkscape-font-specification:'Bitwise, Normal';letter-spacing:0px;word-spacing:0px;fill:#ffffff;fill-opacity:1;stroke:#000000;stroke-width:0.0001;stroke-dasharray:none;stroke-opacity:1" /></g><path
       style="fill:#ffffff;fill-opacity:1;stroke:#000000;stroke-width:0.0001;stroke-dasharray:none;stroke-opacity:1"
       d="m 427.45145,-21.016947 c -0.55315,-0.05576 -1.15016,-0.259851 -1.47704,-0.504923 -0.48251,-0.361745 -0.71313,-0.795717 -0.71183,-1.339501 9.7e-4,-0.40707 0.13534,-0.764698 0.41969,-1.11695 0.16757,-0.207591 0.33136,-0.344061 0.62289,-0.518978 0.27966,-0.167799 0.42583,-0.283052 0.62847,-0.495565 0.33739,-0.353811 0.59153,-0.841307 0.67079,-1.286704 l 0.021,-0.11804 -0.12479,-0.05713 c -0.20618,-0.0944 -0.49446,-0.299605 -0.66176,-0.471071 l -0.15756,-0.161484 -0.24005,0.116992 c -1.38256,0.673793 -2.77596,0.852755 -3.84512,0.493849 -0.59933,-0.201189 -1.09803,-0.614448 -1.35399,-1.12202 -0.19673,-0.390137 -0.27818,-0.781792 -0.27832,-1.338315 -3.4e-4,-1.386162 0.49743,-2.371617 1.35524,-2.683054 0.15038,-0.0546 0.19458,-0.05999 0.49186,-0.06004 0.29593,-4.5e-5 0.34358,0.0057 0.50685,0.06102 0.45156,0.153015 0.84193,0.489724 1.12634,0.971506 0.26219,0.444151 0.53894,0.731056 0.92359,0.957498 0.24517,0.144332 0.41377,0.216172 0.66561,0.283641 0.30666,0.08216 0.31828,0.08035 0.38367,-0.05939 0.11391,-0.243432 0.30435,-0.492318 0.53669,-0.701377 l 0.0954,-0.08581 -0.14567,-0.297142 c -0.43114,-0.879404 -0.64604,-1.745251 -0.64571,-2.601648 2.5e-4,-0.710414 0.15534,-1.311111 0.46132,-1.786932 0.1298,-0.201856 0.51692,-0.588899 0.6918,-0.691662 0.43128,-0.253429 0.8756,-0.362345 1.48236,-0.363364 0.63547,-0.0011 1.21287,0.111135 1.68518,0.32747 1.05152,0.481632 1.39142,1.568255 0.77926,2.491247 -0.19922,0.300388 -0.39008,0.463276 -0.95822,0.817805 -0.17412,0.108655 -0.47864,0.396879 -0.63063,0.596898 -0.20369,0.268047 -0.40903,0.753209 -0.45855,1.083438 -0.0148,0.09879 -0.0136,0.101403 0.0599,0.127968 0.1568,0.0567 0.45725,0.265012 0.65371,0.453235 l 0.2042,0.195636 0.23447,-0.120285 c 0.67521,-0.346381 1.46458,-0.584183 2.19037,-0.659861 0.31424,-0.03277 0.9063,-0.01575 1.17951,0.03389 1.04666,0.190182 1.78963,0.820665 2.03131,1.723754 0.0856,0.319935 0.11075,0.589481 0.0965,1.034796 -0.0201,0.628028 -0.12545,1.104088 -0.34198,1.545805 -0.26457,0.539712 -0.65669,0.879465 -1.16053,1.005542 -0.15739,0.03938 -0.23298,0.04568 -0.42802,0.03566 -0.59768,-0.0307 -1.14487,-0.368008 -1.48711,-0.916702 -0.26401,-0.423282 -0.33696,-0.521363 -0.52823,-0.710192 -0.23179,-0.228837 -0.44478,-0.379489 -0.71665,-0.506889 -0.19408,-0.09095 -0.49668,-0.186519 -0.66988,-0.211565 l -0.10137,-0.01466 -0.05,0.109171 c -0.0866,0.189197 -0.26857,0.447028 -0.44792,0.634752 l -0.17314,0.181208 0.12963,0.273999 c 0.16664,0.35223 0.31023,0.710191 0.39467,0.983909 0.43686,1.416021 0.32968,2.722517 -0.292,3.559405 -0.28096,0.378199 -0.73265,0.687963 -1.19952,0.822604 -0.33354,0.09619 -0.93529,0.129092 -1.43663,0.07855 z"
       id="path2037" /><g
       id="g7365"
       transform="translate(13.942494)"
       style="fill:#ffffff;fill-opacity:1;stroke:#000000;stroke-width:0.0001;stroke-dasharray:none;stroke-opacity:1"><path
         d="m 435.37503,11.881229 h 0.51125 q 0.0289,0 0.0579,0.01929 0.0289,0.0096 0.0579,0.03858 0.0289,0.01929 0.0386,0.04823 0.0193,0.02894 0.0193,0.05788 v 5.864932 q 0,0.02894 0.01,0.05788 0.0193,0.01929 0.0386,0.04823 0.0193,0.01929 0.0482,0.02894 0.0289,0.0096 0.0482,0.0096 h 3.31831 q 0.0386,0 0.0772,0.01929 0.0386,0.01929 0.0675,0.04823 0.0289,0.02894 0.0482,0.06752 0.0289,0.03859 0.0289,0.07717 v 0.424436 q 0,0.02894 -0.0193,0.05788 -0.01,0.02894 -0.0386,0.05788 -0.0193,0.01929 -0.0482,0.03858 -0.0289,0.0096 -0.0579,0.0096 h -4.67844 q -0.0482,0 -0.0965,-0.0096 -0.0482,-0.01929 -0.0868,-0.04823 -0.0386,-0.02894 -0.0675,-0.06752 -0.0289,-0.03858 -0.0289,-0.08682 v -2.691309 q 0,-0.08682 0.0193,-0.173633 0.0289,-0.09646 0.0675,-0.183279 0.0386,-0.09646 0.0868,-0.183279 0.0579,-0.08682 0.10611,-0.173633 0.0579,-0.08682 0.10611,-0.163987 0.0579,-0.07717 0.0965,-0.144694 0.0386,-0.07717 0.0579,-0.144694 0.0289,-0.06752 0.0289,-0.115755 v -2.594846 q 0,-0.02894 0.0193,-0.05788 0.0193,-0.03859 0.0386,-0.06752 0.0289,-0.02894 0.0579,-0.04823 0.0289,-0.01929 0.0675,-0.01929 z"
         id="path7323"
         style="font-size:9.87778px;line-height:125%;font-family:Bitwise;-inkscape-font-specification:'Bitwise, Normal';letter-spacing:0px;word-spacing:0px;fill:#ffffff;fill-opacity:1;stroke:#000000;stroke-width:0.0001;stroke-dasharray:none;stroke-opacity:1" /><path
         d="m 441.01341,14.061286 h 0.56913 q 0.0289,0 0.0579,0.01929 0.0289,0.0096 0.0482,0.03858 0.0193,0.01929 0.0289,0.04823 0.0193,0.02894 0.0193,0.05788 v 1.360124 q 0,0.04823 0.0193,0.125401 0.0289,0.06752 0.0675,0.154341 0.0386,0.07717 0.0868,0.173632 0.0482,0.08682 0.0965,0.173633 0.0579,0.08682 0.10611,0.173633 0.0579,0.08682 0.0965,0.163987 0.0386,0.07717 0.0579,0.144694 0.0289,0.05788 0.0289,0.09646 v 1.842438 q 0,0.03859 -0.0193,0.07717 -0.0193,0.03858 -0.0482,0.07717 -0.0289,0.02894 -0.0675,0.04823 -0.0289,0.01929 -0.0675,0.01929 h -0.94533 q -0.0386,0 -0.0965,-0.0096 -0.0482,-0.01929 -0.0868,-0.04823 -0.0386,-0.03859 -0.0675,-0.07717 -0.0289,-0.03859 -0.0289,-0.08682 V 14.23495 q 0,-0.02894 0.01,-0.05788 0.01,-0.02894 0.0289,-0.05788 0.0289,-0.02894 0.0482,-0.03858 0.0289,-0.01929 0.0579,-0.01929 z m 0.27974,-0.655946 q -0.10611,0 -0.20257,-0.03859 -0.0965,-0.04823 -0.16399,-0.115755 -0.0675,-0.06752 -0.11575,-0.163987 -0.0386,-0.09646 -0.0386,-0.192925 0,-0.106109 0.0386,-0.202572 0.0482,-0.09646 0.11575,-0.163987 0.0675,-0.06752 0.16399,-0.106109 0.0965,-0.04823 0.20257,-0.04823 0.0965,0 0.19293,0.04823 0.0965,0.03859 0.16398,0.106109 0.0675,0.06752 0.10611,0.163987 0.0482,0.09646 0.0482,0.202572 0,0.09646 -0.0482,0.192925 -0.0386,0.09646 -0.10611,0.163987 -0.0675,0.06752 -0.16398,0.115755 -0.0965,0.03859 -0.19293,0.03859 z"
         id="path7325"
         style="font-size:9.87778px;line-height:125%;font-family:Bitwise;-inkscape-font-specification:'Bitwise, Normal';letter-spacing:0px;word-spacing:0px;fill:#ffffff;fill-opacity:1;stroke:#000000;stroke-width:0.0001;stroke-dasharray:none;stroke-opacity:1" /><path
         d="m 443.32363,14.369967 q 0,-0.05788 0.0289,-0.115755 0.0386,-0.05788 0.0868,-0.09646 0.0579,-0.04823 0.1254,-0.06752 0.0675,-0.02894 0.12541,-0.02894 h 4.10931 q 0.0289,0 0.0579,0.01929 0.0289,0.0096 0.0482,0.03858 0.0193,0.02894 0.0289,0.05788 0.01,0.02894 0.01,0.05788 v 0.424436 q 0,0.02894 -0.01,0.05788 -0.01,0.02894 -0.0289,0.05788 -0.01,0.01929 -0.0386,0.03858 -0.0193,0.0096 -0.0386,0.0096 h -0.57878 v 2.440507 q 0,0.03859 -0.0193,0.07717 -0.01,0.03859 -0.0482,0.07717 -0.0289,0.02894 -0.0675,0.04823 -0.0289,0.01929 -0.0675,0.01929 h -2.16077 v 0.762055 h 2.29582 q 0.0482,0 0.0965,0.02894 0.0579,0.01929 0.0965,0.06752 0.0386,0.03859 0.0579,0.09646 0.0289,0.04823 0.0289,0.09646 v 2.160765 q 0,0.04823 -0.0193,0.106109 -0.0193,0.05788 -0.0579,0.09646 -0.0386,0.04823 -0.0965,0.07717 -0.0482,0.02894 -0.0965,0.02894 h -3.54983 q -0.0482,0 -0.1061,-0.01929 -0.0579,-0.01929 -0.10611,-0.05788 -0.0482,-0.03859 -0.0772,-0.08682 -0.0289,-0.04823 -0.0289,-0.09646 v -2.218642 q 0,-0.05788 0.0289,-0.106109 0.0386,-0.04823 0.0868,-0.08682 0.0482,-0.03859 0.10611,-0.05788 0.0675,-0.02894 0.1254,-0.02894 h 0.3955 v -0.762055 h -0.43408 q -0.0482,0 -0.10611,-0.0096 -0.0482,-0.01929 -0.0965,-0.04823 -0.0482,-0.03859 -0.0772,-0.07717 -0.0289,-0.03858 -0.0289,-0.08682 z m 1.03215,0.463021 q -0.0579,0 -0.0965,0.03858 -0.0289,0.03858 -0.0289,0.08682 v 1.620574 q 0,0.04823 0.0289,0.08682 0.0386,0.03859 0.0965,0.03859 h 1.90996 q 0.0482,0 0.0772,-0.03859 0.0386,-0.03859 0.0386,-0.08682 v -1.620574 q 0,-0.04823 -0.0386,-0.08682 -0.0289,-0.03858 -0.0772,-0.03858 z m 0.48231,4.109311 q -0.0386,0 -0.0772,0.01929 -0.0289,0.02894 -0.0289,0.06752 v 1.167199 q 0,0.03858 0.0289,0.05788 0.0386,0.02894 0.0772,0.02894 h 1.65916 q 0.0482,0 0.0772,-0.02894 0.0386,-0.01929 0.0386,-0.05788 v -1.167199 q 0,-0.03859 -0.0386,-0.06752 -0.0289,-0.01929 -0.0772,-0.01929 z"
         id="path7327"
         style="font-size:9.87778px;line-height:125%;font-family:Bitwise;-inkscape-font-specification:'Bitwise, Normal';letter-spacing:0px;word-spacing:0px;fill:#ffffff;fill-opacity:1;stroke:#000000;stroke-width:0.0001;stroke-dasharray:none;stroke-opacity:1" /><path
         d="m 448.9716,18.633618 v -6.540171 q 0,-0.03858 0.01,-0.07717 0.0193,-0.03859 0.0386,-0.06752 0.0289,-0.02894 0.0579,-0.04823 0.0386,-0.01929 0.0772,-0.01929 h 0.47267 q 0.0386,0 0.0675,0.01929 0.0289,0.01929 0.0482,0.05788 0.0289,0.02894 0.0386,0.06752 0.0193,0.02894 0.0193,0.06752 v 1.794206 q 0,0.02894 0.01,0.06752 0.0193,0.02894 0.0482,0.05788 0.0289,0.01929 0.0579,0.03859 0.0386,0.0096 0.0675,0.0096 h 2.88424 q 0.0772,0 0.15434,0.03858 0.0772,0.03858 0.13504,0.106109 0.0675,0.05788 0.10611,0.135048 0.0386,0.07717 0.0386,0.15434 v 4.167189 q 0,0.03859 -0.0193,0.07717 -0.0193,0.02894 -0.0579,0.05788 -0.0289,0.02894 -0.0675,0.04823 -0.0386,0.0096 -0.0675,0.0096 h -0.47267 q -0.0386,0 -0.0772,-0.0096 -0.0386,-0.01929 -0.0772,-0.04823 -0.0289,-0.02894 -0.0482,-0.05788 -0.0193,-0.03858 -0.0193,-0.07717 v -3.655936 q 0,-0.02894 -0.0193,-0.04823 -0.01,-0.02894 -0.0386,-0.04823 -0.0193,-0.01929 -0.0482,-0.02894 -0.0193,-0.0096 -0.0482,-0.0096 h -1.70739 q -0.0289,0 -0.0675,0.01929 -0.0289,0.0096 -0.0579,0.03858 -0.0193,0.01929 -0.0386,0.05788 -0.01,0.02894 -0.01,0.05788 v 3.588412 q 0,0.03859 -0.0193,0.08682 -0.0193,0.03858 -0.0579,0.06752 -0.0289,0.02894 -0.0675,0.04823 -0.0386,0.01929 -0.0772,0.01929 h -0.94533 q -0.0386,0 -0.0772,-0.01929 -0.0386,-0.01929 -0.0772,-0.04823 -0.0289,-0.02894 -0.0482,-0.06752 -0.0193,-0.04823 -0.0193,-0.08682 z"
         id="path7329"
         style="font-size:9.87778px;line-height:125%;font-family:Bitwise;-inkscape-font-specification:'Bitwise, Normal';letter-spacing:0px;word-spacing:0px;fill:#ffffff;fill-opacity:1;stroke:#000000;stroke-width:0.0001;stroke-dasharray:none;stroke-opacity:1" /><path
         d="m 455.07345,12.633638 h 0.48232 q 0.0868,0 0.14469,0.05788 0.0579,0.05788 0.0579,0.135048 v 1.234722 h 1.05144 q 0.0386,0 0.0772,0.02894 0.0386,0.01929 0.0675,0.05788 0.0289,0.02894 0.0482,0.06752 0.0193,0.03859 0.0193,0.07717 v 1.012858 q 0,0.02894 -0.0193,0.06752 -0.01,0.02894 -0.0386,0.05788 -0.0193,0.01929 -0.0482,0.03859 -0.0289,0.01929 -0.0579,0.01929 h -1.09967 v 2.459799 q 0,0.01929 0.01,0.04823 0.01,0.02894 0.0289,0.05788 0.0289,0.01929 0.0482,0.03858 0.0289,0.0096 0.0579,0.0096 h 0.5209 q 0.0289,0 0.0579,0.01929 0.0289,0.0096 0.0482,0.03859 0.0289,0.01929 0.0386,0.05788 0.0193,0.02894 0.0193,0.05788 v 0.376204 q 0,0.08682 -0.0482,0.144694 -0.0482,0.05788 -0.12541,0.05788 h -1.34083 q -0.0772,0 -0.13504,-0.05788 -0.0579,-0.05788 -0.0579,-0.135047 V 14.85228 h -0.3955 q -0.0289,0 -0.0579,-0.0096 -0.0193,-0.0096 -0.0482,-0.02894 -0.0193,-0.02894 -0.0386,-0.04823 -0.01,-0.02894 -0.01,-0.05788 v -0.511252 q 0,-0.01929 0.01,-0.03858 0.01,-0.02894 0.0193,-0.04823 0.0193,-0.01929 0.0386,-0.02894 0.0289,-0.01929 0.0482,-0.01929 h 0.43408 v -1.234722 q 0,-0.07717 0.0579,-0.135048 0.0579,-0.05788 0.13504,-0.05788 z"
         id="path7331"
         style="font-size:9.87778px;line-height:125%;font-family:Bitwise;-inkscape-font-specification:'Bitwise, Normal';letter-spacing:0px;word-spacing:0px;fill:#ffffff;fill-opacity:1;stroke:#000000;stroke-width:0.0001;stroke-dasharray:none;stroke-opacity:1" /></g><path
       style="fill:#ffff00;fill-opacity:1;stroke:#000000;stroke-width:0.001;stroke-dasharray:none;stroke-opacity:1"
       d="m 459.62404,-21.000138 c -0.44243,-0.10446 -0.73102,-0.40264 -0.77235,-0.798 l -0.0115,-0.11052 h 0.9246 0.92459 l -0.0115,0.11052 c -0.0347,0.33231 -0.27244,0.62697 -0.60665,0.75202 -0.10432,0.039 -0.3636,0.0657 -0.44709,0.046 z m -1.59462,-1.58796 c -0.24409,-0.0862 -0.38628,-0.33514 -0.33143,-0.58023 0.0298,-0.13318 0.1348,-0.26951 0.25639,-0.33292 l 0.0938,-0.0489 h 1.71656 1.71655 l 0.0938,0.0489 c 0.1216,0.0634 0.22659,0.19974 0.25639,0.33292 0.0559,0.24988 -0.0965,0.50889 -0.34291,0.58272 -0.0935,0.028 -3.37951,0.0256 -3.45916,-0.002 z m -0.0573,-1.63507 c -0.37367,-0.174 -0.38036,-0.70701 -0.0112,-0.88832 l 0.106,-0.0521 h 1.6978 1.69779 l 0.10601,0.0521 c 0.15563,0.0764 0.2549,0.22097 0.27314,0.39773 0.0204,0.19758 -0.0996,0.40457 -0.2843,0.49059 l -0.0949,0.0442 h -1.69779 -1.6978 z m 0.20562,-1.70894 c -0.13951,-0.0307 -0.2914,-0.0933 -0.3936,-0.16215 -0.12639,-0.0851 -0.28368,-0.27036 -0.35322,-0.41597 -0.0967,-0.2024 -0.12286,-0.32799 -0.14221,-0.68174 -0.0214,-0.39059 -0.0509,-0.54067 -0.14634,-0.74298 -0.0963,-0.20416 -0.19062,-0.33935 -0.56651,-0.81179 -0.33065,-0.41559 -0.44682,-0.57926 -0.58731,-0.82746 -0.25519,-0.45082 -0.44077,-1.01529 -0.51004,-1.55135 -0.0371,-0.28703 -0.0369,-0.81076 3.6e-4,-1.09555 0.16549,-1.26406 0.85275,-2.36465 1.9127,-3.06304 1.07407,-0.70769 2.41384,-0.89747 3.64885,-0.51687 0.93327,0.28761 1.76994,0.90839 2.30433,1.70973 0.49273,0.73886 0.73518,1.5452 0.73468,2.44339 -3.6e-4,0.65482 -0.14897,1.286 -0.44211,1.87784 -0.17073,0.34471 -0.31995,0.5681 -0.68355,1.02331 -0.36276,0.45417 -0.46952,0.60599 -0.5626,0.8001 -0.0989,0.20629 -0.1281,0.3523 -0.14944,0.74761 -0.0207,0.38449 -0.0574,0.54094 -0.17518,0.74823 -0.0927,0.16317 -0.27952,0.34563 -0.42835,0.41843 -0.24765,0.12114 -0.17608,0.11642 -1.83595,0.12115 -1.20733,0.003 -1.53312,-7.5e-4 -1.62454,-0.0209 z"
       id="path6453"
       sodipodi:nodetypes="scccccssscsscccssscccsccccsscccccssssssscssssssscssccc" /><g
       id="g7455"
       transform="translate(12.655364)"
       style="fill:#ffffff;fill-opacity:1;stroke:#000000;stroke-width:0.0001;stroke-dasharray:none;stroke-opacity:1"><path
         d="m 304.4965,12.247787 q 0,-0.06752 0.0289,-0.135047 0.0386,-0.06752 0.0868,-0.115756 0.0579,-0.05788 0.12541,-0.08682 0.0675,-0.03859 0.13504,-0.03859 h 5.12217 q 0.0675,0 0.13505,0.02894 0.0675,0.02894 0.11575,0.07717 0.0579,0.04823 0.0868,0.115755 0.0386,0.06752 0.0386,0.125402 v 3.183269 q 0,0.06752 -0.0386,0.144694 -0.0289,0.06752 -0.0868,0.125401 -0.0482,0.04823 -0.11575,0.08682 -0.0675,0.02894 -0.13505,0.02894 h -3.91638 q -0.0289,0 -0.0675,0.01929 -0.0289,0.0096 -0.0579,0.03858 -0.0193,0.02894 -0.0386,0.05788 -0.01,0.02894 -0.01,0.05788 v 2.5852 q 0,0.04823 -0.0289,0.106109 -0.0193,0.04823 -0.0579,0.09646 -0.0289,0.04823 -0.0772,0.07717 -0.0386,0.02894 -0.0868,0.02894 h -0.84887 q -0.0579,0 -0.11576,-0.02894 -0.0579,-0.03859 -0.10611,-0.08682 -0.0386,-0.04823 -0.0675,-0.106109 -0.0193,-0.05788 -0.0193,-0.115755 z m 1.05144,0.41479 q -0.0193,0 -0.0482,0.01929 -0.0289,0.0096 -0.0482,0.02894 -0.0193,0.0096 -0.0386,0.03859 -0.01,0.01929 -0.01,0.04823 v 2.131825 q 0,0.04823 0.0386,0.07717 0.0482,0.02894 0.0965,0.02894 h 3.86815 q 0.0386,0 0.0772,-0.03858 0.0386,-0.03858 0.0386,-0.07717 v -2.122179 q 0,-0.02894 -0.01,-0.04823 -0.01,-0.01929 -0.0289,-0.03859 -0.0193,-0.01929 -0.0482,-0.02894 -0.0193,-0.01929 -0.0482,-0.01929 z"
         id="path7276"
         style="font-size:9.87778px;line-height:125%;font-family:Bitwise;-inkscape-font-specification:'Bitwise, Normal';letter-spacing:0px;word-spacing:0px;fill:#ffffff;fill-opacity:1;stroke:#000000;stroke-width:0.0001;stroke-dasharray:none;stroke-opacity:1" /><path
         d="m 311.94433,14.05164 h 3.79099 q 0.0579,0 0.0965,0.01929 0.0482,0.01929 0.0868,0.05788 0.0386,0.03859 0.0579,0.08682 0.0193,0.03859 0.0193,0.09646 v 4.282944 q 0,0.05788 -0.0193,0.106109 -0.0193,0.03858 -0.0579,0.07717 -0.0386,0.02894 -0.0868,0.05788 -0.0386,0.01929 -0.0965,0.01929 h -3.79099 q -0.0482,0 -0.0965,-0.01929 -0.0482,-0.02894 -0.0868,-0.05788 -0.0289,-0.03859 -0.0482,-0.07717 -0.0193,-0.04823 -0.0193,-0.106109 V 14.31209 q 0,-0.05788 0.0193,-0.09646 0.0193,-0.04823 0.0482,-0.08682 0.0386,-0.03858 0.0868,-0.05788 0.0482,-0.01929 0.0965,-0.01929 z m 0.68489,0.781348 q -0.0482,0 -0.0772,0.02894 -0.0289,0.02894 -0.0289,0.06752 v 3.038575 q 0,0.03858 0.0289,0.06752 0.0289,0.02894 0.0772,0.02894 h 1.86173 q 0.0386,0 0.0675,-0.02894 0.0386,-0.02894 0.0386,-0.06752 l -0.01,-1.041797 q 0,-0.115755 0.0193,-0.221864 0.0289,-0.115755 0.0675,-0.212218 0.0386,-0.106109 0.0868,-0.202572 0.0579,-0.106109 0.10611,-0.192925 0.0579,-0.08682 0.10611,-0.163987 0.0579,-0.07717 0.0965,-0.144694 0.0386,-0.06752 0.0579,-0.125401 0.0289,-0.05788 0.0289,-0.106109 V 14.92945 q 0,-0.03858 -0.0289,-0.06752 -0.0289,-0.02894 -0.0675,-0.02894 z"
         id="path7278"
         style="font-size:9.87778px;line-height:125%;font-family:Bitwise;-inkscape-font-specification:'Bitwise, Normal';letter-spacing:0px;word-spacing:0px;fill:#ffffff;fill-opacity:1;stroke:#000000;stroke-width:0.0001;stroke-dasharray:none;stroke-opacity:1" /><path
         d="m 317.31834,14.225273 q 0,-0.02894 0.01,-0.05788 0.0193,-0.02894 0.0386,-0.04823 0.0289,-0.02894 0.0579,-0.04823 0.0386,-0.01929 0.0675,-0.01929 h 0.52089 q 0.0289,0 0.0579,0.01929 0.0289,0.0096 0.0482,0.02894 0.0289,0.01929 0.0482,0.04823 0.0193,0.02894 0.0193,0.05788 v 1.591635 q 0,0.02894 0.0193,0.08682 0.0289,0.04823 0.0675,0.125402 0.0386,0.06752 0.0868,0.15434 0.0482,0.08682 0.0965,0.183279 0.0579,0.09646 0.10611,0.192925 0.0482,0.08682 0.0868,0.173633 0.0482,0.08682 0.0675,0.163987 0.0289,0.06752 0.0289,0.125401 v 0.897103 q 0,0.04823 0.0386,0.08682 0.0386,0.03859 0.0868,0.03859 h 0.77171 q 0.0386,0 0.0772,-0.01929 0.0482,-0.01929 0.0482,-0.05788 v -3.762045 q 0,-0.01929 0,-0.03858 0.01,-0.01929 0.0193,-0.03859 0.0193,-0.02894 0.0386,-0.03859 0.0193,-0.0096 0.0386,-0.0096 h 0.6463 q 0.01,0 0.0193,0.01929 0.0193,0.0096 0.0289,0.02894 0.01,0.01929 0.0193,0.04823 0.01,0.01929 0.01,0.02894 v 3.713813 q 0,0.02894 0.01,0.04823 0.01,0.01929 0.0289,0.03858 0.0193,0.01929 0.0386,0.02894 0.0289,0.0096 0.0579,0.0096 h 1.42765 q 0.0289,0 0.0482,-0.01929 0.0289,-0.02894 0.0289,-0.05788 v -3.771692 q 0,-0.01929 0.01,-0.03858 0.0193,-0.02894 0.0386,-0.04823 0.0289,-0.01929 0.0482,-0.02894 0.0289,-0.01929 0.0579,-0.01929 h 0.53054 q 0.0386,0 0.0772,0.03858 0.0482,0.02894 0.0482,0.06752 v 4.360113 q 0,0.05788 -0.0289,0.115756 -0.0193,0.05788 -0.0579,0.115755 -0.0289,0.04823 -0.0772,0.08682 -0.0482,0.02894 -0.10611,0.02894 h -2.07395 q -0.0579,0 -0.1254,-0.0096 -0.0675,-0.01929 -0.1254,-0.03858 -0.0579,-0.02894 -0.10611,-0.07717 -0.0386,-0.04823 -0.0482,-0.125402 -0.0482,0.135048 -0.1447,0.192925 -0.0965,0.05788 -0.20257,0.05788 h -2.24758 q -0.0579,0 -0.1254,-0.02894 -0.0675,-0.03859 -0.1254,-0.08682 -0.0579,-0.04823 -0.0965,-0.106109 -0.0289,-0.05788 -0.0289,-0.125402 z"
         id="path7280"
         style="font-size:9.87778px;line-height:125%;font-family:Bitwise;-inkscape-font-specification:'Bitwise, Normal';letter-spacing:0px;word-spacing:0px;fill:#ffffff;fill-opacity:1;stroke:#000000;stroke-width:0.0001;stroke-dasharray:none;stroke-opacity:1" /><path
         d="m 324.36236,14.360321 q 0,-0.05788 0.0289,-0.115756 0.0386,-0.05788 0.0965,-0.09646 0.0579,-0.04823 0.11576,-0.06752 0.0675,-0.02894 0.13505,-0.02894 h 3.69452 q 0.0579,0 0.1254,0.02894 0.0675,0.02894 0.11575,0.07717 0.0579,0.03858 0.0965,0.106109 0.0386,0.05788 0.0386,0.125401 v 1.881023 q 0,0.04823 -0.0289,0.09646 -0.0289,0.03858 -0.0772,0.07717 -0.0386,0.03859 -0.0868,0.06752 -0.0482,0.01929 -0.0965,0.01929 h -2.65272 q -0.0482,0 -0.0868,0.03859 -0.0386,0.03858 -0.0386,0.08682 v 1.321539 q 0,0.02894 0.0193,0.06752 0.0289,0.02894 0.0675,0.02894 h 1.99678 q 0.0289,0 0.0579,-0.02894 0.0386,-0.03859 0.0386,-0.06752 v -0.482314 q 0,-0.03859 0.0386,-0.07717 0.0386,-0.03859 0.0772,-0.03859 h 0.62701 q 0.0289,0 0.0482,0.0096 0.0289,0.0096 0.0482,0.02894 0.0193,0.01929 0.0289,0.04823 0.0193,0.01929 0.0193,0.04823 v 1.061089 q 0,0.04823 -0.0289,0.09646 -0.0289,0.04823 -0.0675,0.09646 -0.0386,0.03859 -0.0868,0.06752 -0.0482,0.01929 -0.0965,0.01929 h -3.79098 q -0.0675,0 -0.13505,-0.02894 -0.0675,-0.02894 -0.1254,-0.06752 -0.0482,-0.04823 -0.0868,-0.106109 -0.0289,-0.06752 -0.0289,-0.125401 z m 1.46623,0.443728 q -0.0386,0 -0.0675,0.02894 -0.0193,0.02894 -0.0193,0.05788 v 0.800641 q 0,0.03858 0.0193,0.06752 0.0289,0.01929 0.0675,0.01929 h 1.98714 q 0.0289,0 0.0579,-0.01929 0.0289,-0.02894 0.0289,-0.06752 v -0.800641 q 0,-0.02894 -0.0289,-0.05788 -0.0289,-0.02894 -0.0579,-0.02894 z"
         id="path7282"
         style="font-size:9.87778px;line-height:125%;font-family:Bitwise;-inkscape-font-specification:'Bitwise, Normal';letter-spacing:0px;word-spacing:0px;fill:#ffffff;fill-opacity:1;stroke:#000000;stroke-width:0.0001;stroke-dasharray:none;stroke-opacity:1" /><path
         d="m 330.13272,14.427844 q 0,-0.06752 0.0289,-0.125401 0.0386,-0.06752 0.0965,-0.115755 0.0579,-0.05788 0.1254,-0.08682 0.0675,-0.03858 0.13505,-0.03858 h 2.88424 q 0.0579,0 0.11575,0.02894 0.0579,0.02894 0.10611,0.07717 0.0579,0.03858 0.0868,0.09646 0.0289,0.05788 0.0289,0.115755 v 0.916396 q 0,0.03858 -0.01,0.07717 -0.01,0.03858 -0.0289,0.07717 -0.0193,0.02894 -0.0482,0.04823 -0.0289,0.01929 -0.0675,0.01929 h -0.56913 q -0.0289,0 -0.0675,-0.0096 -0.0289,-0.01929 -0.0579,-0.03858 -0.0289,-0.01929 -0.0482,-0.04823 -0.01,-0.02894 -0.01,-0.05788 v -0.453375 q 0,-0.03858 -0.0482,-0.06752 -0.0386,-0.03859 -0.0868,-0.03859 h -1.5627 q -0.0289,0 -0.0482,0.01929 -0.0193,0.0096 -0.0386,0.02894 -0.01,0.01929 -0.0193,0.04823 -0.01,0.02894 -0.01,0.04823 v 0.665593 q 0,0.08682 0.0193,0.173632 0.0193,0.07717 0.0579,0.163987 0.0386,0.07717 0.0868,0.163987 0.0482,0.07717 0.0965,0.163986 0.0482,0.07717 0.0965,0.15434 0.0482,0.07717 0.0772,0.163987 0.0386,0.07717 0.0579,0.163987 0.0289,0.08682 0.0289,0.173632 v 1.678451 q 0,0.03858 -0.0289,0.08682 -0.0193,0.03858 -0.0579,0.07717 -0.0289,0.02894 -0.0772,0.05788 -0.0386,0.01929 -0.0868,0.01929 h -0.91639 q -0.0482,0 -0.0965,-0.02894 -0.0386,-0.02894 -0.0772,-0.06752 -0.0289,-0.03858 -0.0482,-0.08682 -0.0193,-0.04823 -0.0193,-0.09646 z"
         id="path7284"
         style="font-size:9.87778px;line-height:125%;font-family:Bitwise;-inkscape-font-specification:'Bitwise, Normal';letter-spacing:0px;word-spacing:0px;fill:#ffffff;fill-opacity:1;stroke:#000000;stroke-width:0.0001;stroke-dasharray:none;stroke-opacity:1" /></g><g
       id="g5697"
       transform="matrix(1.5515165,0,0,1.5532644,-175.53643,13.999593)"
       style="fill:#ffffff;fill-opacity:1;stroke:#000000;stroke-width:6.442e-05;stroke-dasharray:none;stroke-opacity:1"><path
         style="fill:#ffffff;fill-opacity:1;stroke:#000000;stroke-width:6.442e-05;stroke-dasharray:none;stroke-opacity:1"
         d="m 326.7413,-26.78038 c -0.2418,-0.05481 -0.47889,-0.235957 -0.56148,-0.429234 -0.0357,-0.08343 -0.0381,-0.237649 -0.0381,-2.273353 v -2.183851 l 0.0693,-0.119945 c 0.1245,-0.215651 0.34692,-0.35292 0.63324,-0.390769 0.35844,-0.04738 0.7158,0.112147 0.87474,0.390458 l 0.0585,0.102356 v 2.219651 2.219652 l -0.0636,0.103208 c -0.0789,0.128044 -0.2577,0.26918 -0.41625,0.328765 -0.1533,0.05762 -0.38637,0.07148 -0.55599,0.03306 z"
         id="path5673" /><path
         style="fill:#ffffff;fill-opacity:1;stroke:#000000;stroke-width:6.442e-05;stroke-dasharray:none;stroke-opacity:1"
         d="m 326.534,-22.54219 c -2.0937,-0.217657 -3.76774,-1.666818 -4.26367,-3.690968 -0.1044,-0.4255 -0.138,-0.770625 -0.1248,-1.271648 0.021,-0.77983 0.1656,-1.35665 0.51876,-2.063721 0.30864,-0.618041 0.89653,-1.327794 1.26361,-1.525549 0.1374,-0.07405 0.1491,-0.07637 0.38163,-0.07637 0.2214,0 0.2499,0.005 0.37047,0.06414 0.1662,0.0817 0.31251,0.227945 0.39417,0.394342 0.0585,0.119369 0.0642,0.1504 0.0642,0.35974 0,0.318848 -0.0378,0.39399 -0.37677,0.748557 -0.39393,0.412065 -0.61842,0.776937 -0.77739,1.263452 -0.1077,0.329334 -0.1497,0.605964 -0.1491,0.977232 6.6e-4,0.380319 0.0414,0.633453 0.1581,0.984513 0.2673,0.803457 0.81648,1.441579 1.56573,1.818918 0.49608,0.249834 0.99129,0.355401 1.5534,0.331135 0.80872,-0.03491 1.50955,-0.343815 2.08405,-0.918598 0.5745,-0.574784 0.88326,-1.275936 0.91815,-2.085053 0.0411,-0.954125 -0.2892,-1.75008 -1.029,-2.479669 -0.1092,-0.107646 -0.1809,-0.202076 -0.2313,-0.305011 -0.0678,-0.137766 -0.0735,-0.164879 -0.0732,-0.356836 1.5e-4,-0.179129 0.009,-0.224927 0.0585,-0.332506 0.069,-0.147749 0.2241,-0.320629 0.35868,-0.399497 0.1446,-0.08472 0.37956,-0.127737 0.54207,-0.0992 0.2211,0.03884 0.3687,0.128539 0.61986,0.376967 0.77343,0.764963 1.24848,1.702886 1.4124,2.788436 0.0519,0.342827 0.0507,1.009323 -0.002,1.352795 -0.141,0.918295 -0.51174,1.743497 -1.09827,2.443759 -0.74799,0.893013 -1.83105,1.494465 -3.00382,1.668096 -0.294,0.04355 -0.8694,0.06005 -1.13406,0.03254 z"
         id="path5671" /></g><g
       id="g7348"
       transform="translate(12.829579)"
       style="fill:#ffffff;fill-opacity:1;stroke:#000000;stroke-width:0.0001;stroke-dasharray:none;stroke-opacity:1"><path
         d="m 345.49478,11.881229 h 4.81349 q 0.0579,0 0.16398,0.05788 0.10611,0.04823 0.20258,0.135048 0.0965,0.07717 0.16398,0.163986 0.0675,0.08682 0.0675,0.163987 v 5.942102 q 0,0.09646 -0.0579,0.192925 -0.0579,0.08682 -0.1447,0.163987 -0.0868,0.06752 -0.20257,0.115755 -0.10611,0.03858 -0.21222,0.03858 h -4.79419 q -0.10611,0 -0.20257,-0.03858 -0.0868,-0.03859 -0.15434,-0.106109 -0.0675,-0.07717 -0.11576,-0.163987 -0.0386,-0.09646 -0.0386,-0.202571 V 12.40213 q 0,-0.250803 0.11575,-0.385851 0.11576,-0.135048 0.3955,-0.135048 z m 0.36656,0.993566 v 1.823145 q 0,0.04823 0.0193,0.115755 0.0289,0.06752 0.0675,0.144694 0.0386,0.06752 0.0868,0.154341 0.0482,0.07717 0.0965,0.173632 0.0579,0.08682 0.10611,0.18328 0.0579,0.08682 0.0965,0.183279 0.0386,0.09646 0.0579,0.192925 0.0289,0.08682 0.0289,0.183279 v 1.813499 q 0,0.03858 0.0193,0.08682 0.0193,0.04823 0.0482,0.09646 0.0289,0.03859 0.0675,0.06752 0.0482,0.02894 0.0965,0.02894 h 3.12539 q 0.0579,0 0.10611,-0.03859 0.0482,-0.03859 0.0868,-0.08682 0.0386,-0.04823 0.0579,-0.106109 0.0289,-0.06752 0.0289,-0.125401 v -4.958183 q 0,-0.02894 -0.0289,-0.06752 -0.0193,-0.03858 -0.0579,-0.05788 -0.0289,-0.02894 -0.0772,-0.03858 -0.0386,-0.01929 -0.0772,-0.01929 h -3.73311 q -0.0482,0 -0.0868,0.01929 -0.0386,0.01929 -0.0675,0.05788 -0.0289,0.03858 -0.0482,0.08682 -0.0193,0.03858 -0.0193,0.08682 z"
         id="path7299"
         style="font-size:9.87778px;line-height:125%;font-family:Bitwise;-inkscape-font-specification:'Bitwise, Normal';letter-spacing:0px;word-spacing:0px;fill:#ffffff;fill-opacity:1;stroke:#000000;stroke-width:0.0001;stroke-dasharray:none;stroke-opacity:1" /><path
         d="m 352.00481,14.427844 q 0,-0.06752 0.0289,-0.125401 0.0386,-0.06752 0.0965,-0.115755 0.0579,-0.05788 0.1254,-0.08682 0.0675,-0.03858 0.13505,-0.03858 h 2.88423 q 0.0579,0 0.11575,0.02894 0.0579,0.02894 0.10611,0.07717 0.0579,0.03858 0.0868,0.09646 0.0289,0.05788 0.0289,0.115755 v 0.916396 q 0,0.03858 -0.01,0.07717 -0.01,0.03858 -0.0289,0.07717 -0.0193,0.02894 -0.0482,0.04823 -0.0289,0.01929 -0.0675,0.01929 h -0.56913 q -0.0289,0 -0.0675,-0.0096 -0.0289,-0.01929 -0.0579,-0.03858 -0.0289,-0.01929 -0.0482,-0.04823 -0.01,-0.02894 -0.01,-0.05788 v -0.453375 q 0,-0.03858 -0.0482,-0.06752 -0.0386,-0.03859 -0.0868,-0.03859 h -1.5627 q -0.0289,0 -0.0482,0.01929 -0.0193,0.0096 -0.0386,0.02894 -0.01,0.01929 -0.0193,0.04823 -0.01,0.02894 -0.01,0.04823 v 0.665593 q 0,0.08682 0.0193,0.173632 0.0193,0.07717 0.0579,0.163987 0.0386,0.07717 0.0868,0.163987 0.0482,0.07717 0.0965,0.163986 0.0482,0.07717 0.0965,0.15434 0.0482,0.07717 0.0772,0.163987 0.0386,0.07717 0.0579,0.163987 0.0289,0.08682 0.0289,0.173632 v 1.678451 q 0,0.03858 -0.0289,0.08682 -0.0193,0.03858 -0.0579,0.07717 -0.0289,0.02894 -0.0772,0.05788 -0.0386,0.01929 -0.0868,0.01929 h -0.9164 q -0.0482,0 -0.0965,-0.02894 -0.0386,-0.02894 -0.0772,-0.06752 -0.0289,-0.03858 -0.0482,-0.08682 -0.0193,-0.04823 -0.0193,-0.09646 z"
         id="path7301"
         style="font-size:9.87778px;line-height:125%;font-family:Bitwise;-inkscape-font-specification:'Bitwise, Normal';letter-spacing:0px;word-spacing:0px;fill:#ffffff;fill-opacity:1;stroke:#000000;stroke-width:0.0001;stroke-dasharray:none;stroke-opacity:1" /><path
         d="m 356.7101,14.234919 q 0,-0.02894 0.01,-0.04823 0.01,-0.02894 0.0289,-0.04823 0.0193,-0.02894 0.0386,-0.04823 0.0193,-0.01929 0.0482,-0.01929 h 0.55949 q 0.0289,0 0.0482,0.01929 0.0289,0.01929 0.0482,0.03858 0.0193,0.01929 0.0289,0.04823 0.0193,0.02894 0.0193,0.05788 v 3.655936 q 0,0.02894 0.0193,0.06752 0.0193,0.02894 0.0482,0.05788 0.0386,0.01929 0.0772,0.03859 0.0386,0.0096 0.0772,0.0096 h 2.28617 q 0.0193,0 0.0482,-0.0096 0.0386,-0.01929 0.0579,-0.03859 0.0289,-0.01929 0.0482,-0.03859 0.0193,-0.02894 0.0193,-0.05788 V 14.23491 q 0,-0.02894 0.01,-0.05788 0.0193,-0.03858 0.0386,-0.05788 0.0289,-0.02894 0.0579,-0.03858 0.0386,-0.01929 0.0675,-0.01929 h 0.50161 q 0.0386,0 0.0675,0.01929 0.0289,0.0096 0.0482,0.03858 0.0289,0.01929 0.0482,0.05788 0.0193,0.02894 0.0193,0.05788 v 6.540171 q 0,0.03859 -0.0193,0.07717 -0.0193,0.03858 -0.0482,0.06752 -0.0289,0.03859 -0.0675,0.05788 -0.0386,0.02894 -0.0772,0.02894 h -0.90675 q -0.0386,0 -0.0772,-0.01929 -0.0386,-0.01929 -0.0772,-0.04823 -0.0386,-0.02894 -0.0579,-0.06752 -0.0193,-0.03859 -0.0193,-0.07717 V 19.03876 q 0,-0.03859 -0.0193,-0.07717 -0.0193,-0.02894 -0.0579,-0.05788 -0.0289,-0.01929 -0.0675,-0.03859 -0.0289,-0.0096 -0.0675,-0.0096 h -2.3151 q -0.0772,0 -0.16399,-0.02894 -0.0868,-0.02894 -0.16398,-0.07717 -0.0675,-0.05788 -0.11576,-0.125401 -0.0482,-0.06752 -0.0482,-0.144694 z"
         id="path7303"
         style="font-size:9.87778px;line-height:125%;font-family:Bitwise;-inkscape-font-specification:'Bitwise, Normal';letter-spacing:0px;word-spacing:0px;fill:#ffffff;fill-opacity:1;stroke:#000000;stroke-width:0.0001;stroke-dasharray:none;stroke-opacity:1" /></g><g
       id="g5287"
       transform="matrix(0.93359461,0,0,1.0605995,32.692373,1.8003426)"
       style="fill:#ff0000;fill-opacity:1;stroke:#000000;stroke-width:0.00100495;stroke-dasharray:none;stroke-opacity:1"><path
         id="path5099"
         style="fill:#ff0000;fill-opacity:1;stroke:#000000;stroke-width:0.00100495;stroke-dasharray:none;stroke-opacity:1"
         d="m 359.80859,-35.224609 c -1.4324,1.403642 -1.80239,3.837932 -0.56283,5.483168 0.52463,0.635658 1.17496,1.310756 1.01971,2.21626 -0.0218,0.722684 -0.58883,1.235087 -0.98031,1.784947 0.48384,0.448828 0.9213,0.954873 1.48046,1.314453 1.0381,-0.474424 1.53538,-1.687118 1.74511,-2.749126 0.30419,-1.493429 -0.57004,-2.885989 -1.49577,-3.956517 -0.54464,-0.945894 -0.13331,-2.118272 0.60301,-2.839161 0.0785,-0.433193 -0.71204,-0.811458 -0.98715,-1.220859 -0.35512,-0.413643 -0.48602,-0.573522 -0.82223,-0.03317 z" /><path
         id="path5097"
         style="fill:#ff0000;fill-opacity:1;stroke:#000000;stroke-width:0.00100495;stroke-dasharray:none;stroke-opacity:1"
         d="m 356.01758,-35.216797 c -1.46589,1.417098 -1.79094,3.896829 -0.51126,5.539688 0.59551,0.660176 1.22936,1.474864 0.92923,2.425156 -0.0627,0.593271 -0.7768,1.010841 -0.758,1.550429 0.36097,0.518141 0.83309,0.951435 1.35956,1.297227 1.34562,-0.828629 1.901,-2.592264 1.64791,-4.108177 -0.10246,-1.085115 -0.91541,-1.853425 -1.49557,-2.698464 -0.59555,-1.019385 0.0356,-2.166063 0.78711,-2.898437 -0.53295,-0.502768 -1.06489,-1.006595 -1.59375,-1.513672 -0.12174,0.135417 -0.24349,0.270833 -0.36523,0.40625 z" /><path
         id="path5095"
         style="fill:#ff0000;fill-opacity:1;stroke:#000000;stroke-width:0.00100495;stroke-dasharray:none;stroke-opacity:1"
         d="m 352.21484,-35.228516 c -1.40772,1.407367 -1.75278,3.827787 -0.55822,5.467893 0.51603,0.669566 1.15996,1.239924 1.04065,2.178592 0.0131,0.735433 -0.57438,1.241931 -0.98047,1.78125 0.50885,0.515378 1.0247,1.021339 1.53906,1.53125 1.12753,-0.994934 1.90964,-2.474549 1.67344,-4.009163 -0.0787,-1.151181 -0.8526,-2.038595 -1.52305,-2.902947 -0.52045,-0.88363 -0.10444,-1.917128 0.48242,-2.642578 0.18385,-0.781733 -0.78932,-1.193738 -1.19332,-1.721833 -0.16423,-0.295446 -0.32936,0.238277 -0.48051,0.317536 z" /><path
         id="path5093"
         style="fill:#ff0000;fill-opacity:1;stroke:#000000;stroke-width:0.00100495;stroke-dasharray:none;stroke-opacity:1"
         d="m 363.36523,-25.210938 c -0.75709,0.01795 -0.81552,0.87646 -0.76562,1.453126 -3.84896,0 -7.69792,-10e-7 -11.54688,0 0.0532,-0.57486 0.0113,-1.471573 -0.76958,-1.43981 -0.47452,-0.04288 -0.94606,0.06322 -1.41792,0.09801 -0.0469,1.192133 -0.0266,2.385401 -0.0312,3.578125 5.3555,0.0683 10.71083,-0.0024 16.06641,0.0059 -0.0179,-1.214848 -0.0358,-2.429698 -0.0547,-3.644531 -0.49305,-0.01958 -0.98717,-0.0658 -1.48047,-0.05078 z" /></g><g
       id="g7353"
       style="fill:#ffffff;fill-opacity:1;stroke:#000000;stroke-width:0.0001;stroke-dasharray:none;stroke-opacity:1"
       transform="translate(13.189894)"><path
         d="m 382.23643,11.881229 q 0.0675,0 0.13504,0.02894 0.0772,0.02894 0.13505,0.07717 0.0675,0.04823 0.10611,0.106109 0.0386,0.05788 0.0386,0.125402 v 1.244368 q 0,0.03859 -0.0193,0.07717 -0.0193,0.03858 -0.0579,0.07717 -0.0289,0.03858 -0.0675,0.05788 -0.0386,0.01929 -0.0772,0.01929 h -0.99356 q -0.0386,0 -0.0868,-0.01929 -0.0386,-0.01929 -0.0772,-0.04823 -0.0289,-0.02894 -0.0579,-0.06752 -0.0193,-0.04823 -0.0193,-0.08682 v -0.6463 q 0,-0.03858 -0.0193,-0.07717 -0.01,-0.03859 -0.0386,-0.06752 -0.0289,-0.03858 -0.0675,-0.05788 -0.0386,-0.01929 -0.0772,-0.01929 h -3.22186 q -0.0386,0 -0.0772,0.02894 -0.0289,0.01929 -0.0579,0.05788 -0.0193,0.02894 -0.0386,0.07717 -0.01,0.03858 -0.01,0.06752 v 1.9389 q 0,0.01929 0.0193,0.06752 0.0289,0.03858 0.0675,0.106109 0.0386,0.05788 0.0868,0.135048 0.0482,0.06752 0.0965,0.15434 0.0579,0.07717 0.10611,0.173633 0.0482,0.09646 0.0868,0.202572 0.0386,0.09646 0.0579,0.212217 0.0289,0.106109 0.0289,0.212218 v 1.803853 q 0,0.06752 0.0193,0.106109 0.0193,0.03858 0.0482,0.06752 0.0289,0.01929 0.0579,0.02894 0.0386,0 0.0772,0 h 3.27974 q 0.0386,0 0.0772,-0.01929 0.0386,-0.02894 0.0579,-0.05788 0.0289,-0.03859 0.0386,-0.07717 0.0193,-0.04823 0.0193,-0.08682 v -1.350478 q 0,-0.03859 0.0193,-0.08682 0.0193,-0.04823 0.0482,-0.07717 0.0386,-0.03859 0.0772,-0.05788 0.0386,-0.02894 0.0772,-0.02894 h 0.36655 q 0.0386,0 0.0772,0.02894 0.0482,0.01929 0.0772,0.05788 0.0289,0.03858 0.0482,0.08682 0.0193,0.04823 0.0193,0.08682 v 1.967839 q 0,0.06752 -0.0386,0.144694 -0.0386,0.07717 -0.10611,0.144694 -0.0579,0.05788 -0.13504,0.09646 -0.0675,0.03858 -0.1447,0.03858 h -5.06429 q -0.0675,0 -0.15434,-0.02894 -0.0772,-0.03859 -0.14469,-0.09646 -0.0579,-0.05788 -0.0965,-0.125402 -0.0386,-0.07717 -0.0386,-0.144694 v -6.1929 q 0,-0.06752 0.0289,-0.135048 0.0386,-0.06752 0.0965,-0.125401 0.0579,-0.05788 0.1254,-0.08682 0.0772,-0.03859 0.1447,-0.03859 z"
         id="path7309"
         style="font-size:9.87778px;line-height:125%;font-family:Bitwise;-inkscape-font-specification:'Bitwise, Normal';letter-spacing:0px;word-spacing:0px;fill:#ffffff;fill-opacity:1;stroke:#000000;stroke-width:0.0001;stroke-dasharray:none;stroke-opacity:1" /><path
         d="m 384.03962,14.215626 q 0,-0.01929 0,-0.04823 0.01,-0.02894 0.0289,-0.04823 0.0193,-0.02894 0.0386,-0.03858 0.0193,-0.01929 0.0386,-0.01929 h 0.71382 q 0.0386,0 0.0772,0.04823 0.0386,0.03859 0.0386,0.07717 V 15.8555 q 0,0.05788 0.0193,0.115756 0.0193,0.05788 0.0579,0.125401 0.0386,0.05788 0.0772,0.125402 0.0482,0.05788 0.0965,0.135047 0.0482,0.06752 0.0965,0.154341 0.0482,0.07717 0.0772,0.173632 0.0386,0.09646 0.0579,0.212218 0.0289,0.106109 0.0289,0.241157 v 0.877811 q 0,0.02894 0.0289,0.05788 0.0386,0.02894 0.0675,0.02894 h 1.90997 q 0.0386,0 0.0772,-0.03858 0.0386,-0.03859 0.0386,-0.07717 V 14.20598 q 0,-0.01929 0.01,-0.04823 0.01,-0.02894 0.0289,-0.04823 0.0289,-0.02894 0.0482,-0.03859 0.0289,-0.01929 0.0579,-0.01929 h 0.59807 q 0.0193,0 0.0386,0.01929 0.0193,0.0096 0.0386,0.02894 0.0193,0.01929 0.0289,0.04823 0.01,0.01929 0.01,0.03858 v 4.475869 q 0,0.03859 -0.0289,0.07717 -0.0193,0.02894 -0.0579,0.05788 -0.0289,0.02894 -0.0772,0.04823 -0.0386,0.0096 -0.0772,0.0096 h -3.90674 q -0.0482,0 -0.0965,-0.0096 -0.0482,-0.01929 -0.0965,-0.04823 -0.0386,-0.02894 -0.0675,-0.05788 -0.0193,-0.03858 -0.0193,-0.08682 z"
         id="path7311"
         style="font-size:9.87778px;line-height:125%;font-family:Bitwise;-inkscape-font-specification:'Bitwise, Normal';letter-spacing:0px;word-spacing:0px;fill:#ffffff;fill-opacity:1;stroke:#000000;stroke-width:0.0001;stroke-dasharray:none;stroke-opacity:1" /><path
         d="m 390.59929,12.633638 h 0.48231 q 0.0868,0 0.14469,0.05788 0.0579,0.05788 0.0579,0.135048 v 1.234722 h 1.05144 q 0.0386,0 0.0772,0.02894 0.0386,0.01929 0.0675,0.05788 0.0289,0.02894 0.0482,0.06752 0.0193,0.03859 0.0193,0.07717 v 1.012858 q 0,0.02894 -0.0193,0.06752 -0.01,0.02894 -0.0386,0.05788 -0.0193,0.01929 -0.0482,0.03859 -0.0289,0.01929 -0.0579,0.01929 h -1.09968 v 2.459799 q 0,0.01929 0.01,0.04823 0.01,0.02894 0.0289,0.05788 0.0289,0.01929 0.0482,0.03858 0.0289,0.0096 0.0579,0.0096 h 0.5209 q 0.0289,0 0.0579,0.01929 0.0289,0.0096 0.0482,0.03859 0.0289,0.01929 0.0386,0.05788 0.0193,0.02894 0.0193,0.05788 v 0.376204 q 0,0.08682 -0.0482,0.144694 -0.0482,0.05788 -0.1254,0.05788 h -1.34083 q -0.0772,0 -0.13505,-0.05788 -0.0579,-0.05788 -0.0579,-0.135047 V 14.85228 h -0.3955 q -0.0289,0 -0.0579,-0.0096 -0.0193,-0.0096 -0.0482,-0.02894 -0.0193,-0.02894 -0.0386,-0.04823 -0.01,-0.02894 -0.01,-0.05788 v -0.511252 q 0,-0.01929 0.01,-0.03858 0.01,-0.02894 0.0193,-0.04823 0.0193,-0.01929 0.0386,-0.02894 0.0289,-0.01929 0.0482,-0.01929 h 0.43408 v -1.234722 q 0,-0.07717 0.0579,-0.135048 0.0579,-0.05788 0.13505,-0.05788 z"
         id="path7313"
         style="font-size:9.87778px;line-height:125%;font-family:Bitwise;-inkscape-font-specification:'Bitwise, Normal';letter-spacing:0px;word-spacing:0px;fill:#ffffff;fill-opacity:1;stroke:#000000;stroke-width:0.0001;stroke-dasharray:none;stroke-opacity:1" /></g><path
       id="path6560"
       style="fill:#ffffff;fill-opacity:1;stroke:#000000;stroke-width:0.0001;stroke-dasharray:none;stroke-opacity:1"
       d="m 399.0447,-33.993284 c -0.009,-0.0086 -0.64934,0.35821 -1.42369,0.815455 -1.53224,0.904748 -1.62301,0.942479 -1.92339,0.799951 -0.21407,-0.101555 -0.26592,-0.248425 -0.31213,-0.885218 -0.0224,-0.308328 -0.0479,-0.567913 -0.0568,-0.576709 -0.0151,-0.01421 -0.6346,0.757933 -1.91306,2.381767 -0.22906,0.290929 -0.47933,0.596874 -0.55656,0.679545 -0.25228,0.270071 -0.60001,0.287019 -0.82889,0.04031 -0.0561,-0.06045 -0.24332,-0.363271 -0.41651,-0.67231 -0.25964,-0.463371 -0.32086,-0.548154 -0.34933,-0.483692 -0.0195,0.04299 -0.22329,0.819757 -0.45372,1.725993 -0.39414,1.55016 -0.4267,1.655762 -0.55036,1.783354 -0.15076,0.155458 -0.33434,0.204505 -0.5271,0.14056 -0.0734,-0.02438 -0.33922,-0.218175 -0.59066,-0.430465 -0.25142,-0.212296 -0.4671,-0.376283 -0.47904,-0.364319 -0.013,0.01212 0.0198,0.335571 0.0677,0.718819 0.29493,2.30614 0.36483,2.881408 0.36483,3.003434 0,0.294827 -0.22689,0.497912 -0.55035,0.492477 -0.0853,-0.0015 -0.40947,-0.08072 -0.71985,-0.1757 -0.31039,-0.09498 -0.57004,-0.167949 -0.57723,-0.162264 -0.006,0.0056 0.10158,0.220023 0.24185,0.476457 l 0.25476,0.466638 3.4494,0.001 3.4494,0.001 0.0718,-0.231511 c 0.53052,-1.706097 2.47221,-2.559186 4.06126,-1.784387 0.73601,0.35886 1.36148,1.097325 1.56269,1.844849 l 0.046,0.171049 h 3.12229 c 1.71737,0 3.12281,-0.0086 3.12281,-0.01964 0,-0.01077 -0.0998,-0.198711 -0.22169,-0.417029 -0.24247,-0.434115 -0.28306,-0.658681 -0.16072,-0.895036 0.0984,-0.190477 0.24751,-0.239148 0.87644,-0.28577 0.31563,-0.02339 0.57899,-0.04737 0.58497,-0.05323 0.006,-0.0059 -0.69417,-0.583413 -1.55597,-1.283643 -1.10634,-0.898915 -1.58216,-1.309575 -1.61851,-1.39733 -0.0644,-0.155285 -0.0316,-0.425113 0.0677,-0.558106 0.041,-0.05477 0.33338,-0.249713 0.65009,-0.433048 0.3167,-0.183328 0.57577,-0.347676 0.57567,-0.365353 -1.3e-4,-0.01766 -0.72212,-0.21608 -1.60455,-0.4408 -0.88241,-0.224723 -1.67287,-0.431216 -1.75648,-0.458887 -0.2704,-0.08949 -0.42045,-0.421948 -0.31523,-0.698665 0.0195,-0.05294 0.21062,-0.303271 0.42323,-0.556038 0.21258,-0.252771 0.38654,-0.471663 0.38654,-0.486792 0,-0.01508 -0.0315,-0.02037 -0.0703,-0.01137 -0.16584,0.03846 -3.56791,0.45992 -3.71243,0.45992 -0.19987,0 -0.3806,-0.156469 -0.45062,-0.390157 -0.0454,-0.151302 -0.0346,-0.212184 0.14159,-0.816488 0.10478,-0.359174 0.18277,-0.660073 0.17415,-0.668693 z m -1.88412,10.904761 c -5.34227,0 -8.66026,-7.92e-4 -10.86549,0.0057 v 2.08256 c 2.19923,0.0068 5.51723,0.0061 10.87376,0.0067 5.38827,5.7e-4 8.63563,-0.0017 10.86135,-0.0072 v -2.080493 c -2.16896,-0.0053 -5.3026,-0.0072 -10.86962,-0.0072 z" /><text
       xml:space="preserve"
       transform="scale(0.26458333)"
       id="text44868"
       style="font-style:normal;font-variant:normal;font-weight:normal;font-stretch:normal;font-size:16px;font-family:'Abyssinica SIL';-inkscape-font-specification:'Abyssinica SIL, Normal';font-variant-ligatures:normal;font-variant-caps:normal;font-variant-numeric:normal;font-variant-east-asian:normal;white-space:pre;shape-inside:url(#rect44870);display:inline;fill:#000000;fill-opacity:1;stroke:none" /><text
       xml:space="preserve"
       style="font-size:4.23333px;line-height:125%;font-family:Bravura;-inkscape-font-specification:Bravura;letter-spacing:0px;word-spacing:0px;fill:none;stroke:#000000;stroke-width:0.264583px;stroke-linecap:butt;stroke-linejoin:miter;stroke-opacity:1"
       x="41.288353"
       y="15.023044"
       id="text3677"><tspan
         sodipodi:role="line"
         id="tspan3675"
         style="stroke-width:0.264583px"
         x="41.288353"
         y="15.023044" /></text><rect
       style="fill:#ff5555;stroke:#ff0000;stroke-width:0.499999"
       id="rect1506"
       width="109.50001"
       height="66.500008"
       x="416.07263"
       y="45.656067" /><g
       id="g3753"
       transform="translate(-213.58057,-18.802598)"><ellipse
         style="fill:#000000;fill-opacity:1;stroke:#ffffff;stroke-width:0.499999;stroke-opacity:1"
         id="path1560"
         cx="584.12219"
         cy="97.086342"
         rx="29.75"
         ry="29.750002" /><circle
         style="fill:#000000;fill-opacity:1;stroke:#ffffff;stroke-width:0.499999;stroke-opacity:1"
         id="path3632"
         cx="584.12219"
         cy="97.086342"
         r="20.75" /></g><circle
       style="fill:#000000;fill-opacity:1;stroke:#ffffff;stroke-width:0.499999;stroke-opacity:1"
       id="path3727"
       cx="628.17487"
       cy="10.191023"
       r="20.75" /><circle
       style="fill:none;fill-opacity:1;stroke:#000000;stroke-width:0.499999;stroke-opacity:1"
       id="path3727-2"
       cx="628.17487"
       cy="10.191023"
       r="25.15" /><circle
       style="fill:#000000;fill-opacity:1;stroke:none;stroke-width:0.499999;stroke-opacity:1"
       id="path3897"
       cx="592.0036"
       cy="25.257051"
       r="1.5000005" /><circle
       style="fill:#000000;fill-opacity:1;stroke:none;stroke-width:0.499999;stroke-opacity:1"
       id="path3897-6"
       cx="628.17487"
       cy="-15.458696"
       r="1.5000005" /><path
       style="fill:#bc6561;fill-opacity:1;stroke:none;stroke-width:0.1;stroke-dasharray:none;stroke-opacity:1"
       d="m 559.47587,27.53575 a 1.855,1.855 0 0 1 1.85518,1.854668 1.855,1.855 0 0 1 -1.85518,1.855183 1.855,1.855 0 0 1 -1.85467,-1.855183 1.855,1.855 0 0 1 1.85467,-1.854668 z"
       id="path4192" /><path
       style="fill:#ad5d59;fill-opacity:1;stroke:none;stroke-width:0.1;stroke-dasharray:none;stroke-opacity:1"
       d="m 559.47587,-31.418274 a 1.855,1.855 0 0 1 1.85518,1.854667 1.855,1.855 0 0 1 -1.85518,1.855184 1.855,1.855 0 0 1 -1.85467,-1.855184 1.855,1.855 0 0 1 1.85467,-1.854667 z"
       id="path4188" /><path
       style="fill:#ad5d59;fill-opacity:1;stroke:none;stroke-width:0.1;stroke-dasharray:none;stroke-opacity:1"
       d="m 282.71752,-31.417757 a 1.855,1.855 0 0 1 1.85518,1.854667 1.855,1.855 0 0 1 -1.85518,1.855184 1.855,1.855 0 0 1 -1.85467,-1.855184 1.855,1.855 0 0 1 1.85467,-1.854667 z"
       id="path4190" /><path
       style="fill:#bc6561;fill-opacity:1;stroke:none;stroke-width:0.1;stroke-dasharray:none;stroke-opacity:1"
       d="m 654.72587,106.57673 a 1.855,1.855 0 0 1 1.85518,1.85467 1.855,1.855 0 0 1 -1.85518,1.85518 1.855,1.855 0 0 1 -1.85467,-1.85518 1.855,1.855 0 0 1 1.85467,-1.85467 z"
       id="path6435" /><path
       style="fill:#bc6561;fill-opacity:1;stroke:none;stroke-width:0.1;stroke-dasharray:none;stroke-opacity:1"
       d="m 654.72587,49.42622 a 1.855,1.855 0 0 1 1.85518,1.85518 1.855,1.855 0 0 1 -1.85518,1.85518 1.855,1.855 0 0 1 -1.85467,-1.85518 1.855,1.855 0 0 1 1.85467,-1.85518 z"
       id="path6415" /><g
       id="g7838"
       transform="translate(17.191262)"><path
         style="fill:#da6767;fill-opacity:1;stroke:none;stroke-width:0.1;stroke-dasharray:none;stroke-opacity:1"
         d="M 550.40973,66.14768 A 11.117709,11.117709 0 0 1 561.52792,77.26534 11.117709,11.117709 0 0 1 550.40973,88.38301 11.117709,11.117709 0 0 1 539.29206,77.26534 11.117709,11.117709 0 0 1 550.40973,66.14768 Z"
         id="path6423" /><path
         style="fill:#da6767;fill-opacity:1;stroke:none;stroke-width:0.1;stroke-dasharray:none;stroke-opacity:1"
         d="m 601.64485,64.25529 c 5.63131,0.56492 10.46542,4.25148 12.50001,9.53275 v 10.75593 c -2.03211,5.2845 -6.86671,8.97464 -12.50001,9.54102 v -1.78956 h -3.00034 v 1.78956 c -5.63335,-0.56638 -10.4679,-4.25651 -12.50001,-9.54102 V 73.79682 c 2.03211,-5.2845 6.86666,-8.97464 12.50001,-9.54102 v 1.78956 h 3.00034 z"
         id="path6419" /><path
         d="m 514.32227,53.05066 q 0,-0.14883 0.0661,-0.29766 0.0827,-0.14883 0.1819,-0.26458 0.11576,-0.1323 0.26459,-0.21498 0.14883,-0.0827 0.29765,-0.0827 h 8.51628 q 0.13229,0 0.26458,0.0661 0.13229,0.0496 0.23151,0.14883 0.11576,0.0992 0.1819,0.23151 0.0827,0.11576 0.0827,0.23151 v 2.1332 q 0,0.0496 -0.0331,0.0992 -0.0165,0.0496 -0.0496,0.0992 -0.0331,0.0496 -0.0827,0.0827 -0.0496,0.0165 -0.0992,0.0165 h -0.92604 q -0.0496,0 -0.0992,-0.0165 -0.0496,-0.0331 -0.0992,-0.0827 -0.0496,-0.0496 -0.0827,-0.0992 -0.0165,-0.0496 -0.0165,-0.0992 v -1.19062 q 0,-0.0661 -0.0331,-0.11576 -0.0331,-0.0661 -0.0827,-0.0992 -0.0496,-0.0496 -0.11575,-0.0827 -0.0661,-0.0331 -0.11576,-0.0331 h -6.49883 q -0.0496,0 -0.0992,0.0331 -0.0496,0.0331 -0.0992,0.0992 -0.0331,0.0496 -0.0496,0.11576 -0.0165,0.0496 -0.0165,0.0992 v 3.48919 q 0,0.0661 0.0661,0.13229 0.0661,0.0496 0.1323,0.0496 h 7.63984 q 0.13229,0 0.26458,0.0661 0.13229,0.0661 0.23151,0.1819 0.11576,0.0992 0.1819,0.24805 0.0827,0.13229 0.0827,0.26458 v 5.17592 q 0,0.11575 -0.0661,0.24804 -0.0661,0.13229 -0.16536,0.23151 -0.0827,0.0992 -0.21498,0.16537 -0.11575,0.0661 -0.23151,0.0661 h -8.54935 q -0.14882,0 -0.31419,-0.0661 -0.14883,-0.0661 -0.28112,-0.1819 -0.13229,-0.11576 -0.21497,-0.24805 -0.0661,-0.14883 -0.0661,-0.28112 v -2.03398 q 0,-0.0661 0.0331,-0.1323 0.0331,-0.0661 0.0827,-0.13229 0.0496,-0.0661 0.11575,-0.0992 0.0661,-0.0331 0.13229,-0.0331 h 0.76068 q 0.0661,0 0.13229,0.0331 0.0661,0.0165 0.11576,0.0661 0.0496,0.0496 0.0827,0.11576 0.0496,0.0496 0.0496,0.11575 v 1.20715 q 0,0.0496 0.0165,0.11575 0.0331,0.0496 0.0661,0.0992 0.0331,0.0331 0.0827,0.0662 0.0496,0.0165 0.0992,0.0165 h 5.63893 q 0.0496,0 0.0992,-0.0165 0.0496,-0.0165 0.0827,-0.0496 0.0496,-0.0496 0.0661,-0.0827 0.0331,-0.0496 0.0331,-0.0992 v -3.40651 q 0,-0.0496 -0.0331,-0.0827 -0.0165,-0.0496 -0.0496,-0.0827 -0.0331,-0.0496 -0.0827,-0.0661 -0.0496,-0.0165 -0.0827,-0.0165 h -6.64766 q -0.13229,0 -0.26458,-0.0661 -0.13229,-0.0661 -0.24805,-0.14883 -0.11575,-0.0992 -0.19844,-0.21497 -0.0661,-0.13229 -0.0661,-0.26458 z"
         style="font-size:16.9333px;line-height:125%;font-family:Bitwise;-inkscape-font-specification:'Bitwise, Normal';letter-spacing:0px;word-spacing:0px;fill:#ffffff;fill-opacity:1;stroke:#000000;stroke-width:0.0001;stroke-dasharray:none;stroke-opacity:1"
         id="path5788-8" /><path
         d="m 514.37188,66.63822 h 9.31002 q 0.0992,0 0.19844,0.0496 0.11576,0.0331 0.19844,0.11576 0.0992,0.0661 0.16536,0.16536 0.0661,0.0827 0.0661,0.19844 v 1.53789 q 0,0.0827 -0.0496,0.16536 -0.0496,0.0827 -0.13229,0.14883 -0.0827,0.0661 -0.1819,0.0992 -0.0827,0.0331 -0.16537,0.0331 h -3.32383 q -0.0827,0 -0.1819,0.0331 -0.0992,0.0331 -0.1819,0.0827 -0.0827,0.0496 -0.13229,0.11576 -0.0496,0.0661 -0.0496,0.14883 v 8.64856 q 0,0.0661 -0.0331,0.14883 -0.0165,0.0662 -0.0661,0.13229 -0.0331,0.0661 -0.0992,0.11576 -0.0496,0.0331 -0.11575,0.0331 h -0.84336 q -0.0827,0 -0.14883,-0.0331 -0.0662,-0.0496 -0.11575,-0.11576 -0.0496,-0.0661 -0.0827,-0.13229 -0.0331,-0.0827 -0.0331,-0.14883 v -9.85573 q 0,-0.0827 -0.0496,-0.16536 -0.0331,-0.0827 -0.0992,-0.14883 -0.0496,-0.0827 -0.13229,-0.11575 -0.0662,-0.0496 -0.14883,-0.0496 h -3.57187 q -0.0496,0 -0.11576,-0.0165 -0.0661,-0.0331 -0.11575,-0.0662 -0.0496,-0.0331 -0.0827,-0.0827 -0.0331,-0.0496 -0.0331,-0.11576 V 66.9359 q 0,-0.0661 0.0331,-0.11576 0.0331,-0.0496 0.0827,-0.0827 0.0496,-0.0496 0.11575,-0.0662 0.0662,-0.0331 0.11576,-0.0331 z"
         style="font-size:16.9333px;line-height:125%;font-family:Bitwise;-inkscape-font-specification:'Bitwise, Normal';letter-spacing:0px;word-spacing:0px;fill:#ffffff;fill-opacity:1;stroke:#000000;stroke-width:0.0001;stroke-dasharray:none;stroke-opacity:1"
         id="path5790-7" /><path
         d="m 515.33099,81.10218 h 8.46667 q 0.1819,0 0.33073,0.0661 0.16536,0.0661 0.28112,0.18191 0.11575,0.11575 0.1819,0.28112 0.0661,0.14882 0.0661,0.33072 V 92.1981 q 0,0.1819 -0.0661,0.34727 -0.0661,0.14883 -0.1819,0.26458 -0.11576,0.11576 -0.28112,0.1819 -0.14883,0.0661 -0.33073,0.0661 h -8.46667 q -0.1819,0 -0.34726,-0.0661 -0.14883,-0.0662 -0.26459,-0.1819 -0.11575,-0.11575 -0.1819,-0.26458 -0.0661,-0.16537 -0.0661,-0.34727 V 81.96208 q 0,-0.1819 0.0661,-0.33073 0.0661,-0.16536 0.1819,-0.28112 0.11576,-0.11575 0.26459,-0.1819 0.16536,-0.0661 0.34726,-0.0661 z m 1.27331,1.24024 q -0.19844,0 -0.31419,0.0331 -0.11576,0.0331 -0.1819,0.11575 -0.0661,0.0661 -0.0827,0.19844 -0.0165,0.13229 -0.0165,0.33073 v 7.97057 q 0,0.24805 0.0165,0.38034 0.0331,0.13229 0.0992,0.19844 0.0827,0.0661 0.1819,0.0827 0.11576,0.0165 0.29766,0.0165 h 5.25859 q 0.13229,0 0.19844,-0.0165 0.0827,-0.0165 0.11576,-0.0662 0.0331,-0.0496 0.0496,-0.13229 0.0165,-0.0827 0.0165,-0.21498 V 88.0971 q 0,-0.1323 0.0331,-0.28112 0.0331,-0.16537 0.0992,-0.3142 0.0661,-0.14882 0.13229,-0.29765 0.0827,-0.16537 0.14883,-0.3142 0.0827,-0.14882 0.16537,-0.28112 0.0827,-0.13229 0.13229,-0.23151 0.0661,-0.0992 0.0992,-0.1819 0.0331,-0.0827 0.0331,-0.11575 v -3.05924 q 0,-0.21497 -0.0165,-0.34726 0,-0.13229 -0.0496,-0.19844 -0.0496,-0.0827 -0.1819,-0.0992 -0.11575,-0.0331 -0.34726,-0.0331 z"
         style="font-size:16.9333px;line-height:125%;font-family:Bitwise;-inkscape-font-specification:'Bitwise, Normal';letter-spacing:0px;word-spacing:0px;fill:#ffffff;fill-opacity:1;stroke:#000000;stroke-width:0.0001;stroke-dasharray:none;stroke-opacity:1"
         id="path5792-9" /><path
         d="m 514.50417,96.19455 q 0,-0.11575 0.0496,-0.23151 0.0661,-0.11576 0.14883,-0.19844 0.0992,-0.0992 0.21497,-0.14883 0.11576,-0.0661 0.23151,-0.0661 h 8.78086 q 0.11575,0 0.23151,0.0496 0.11576,0.0496 0.19844,0.1323 0.0992,0.0827 0.14883,0.19843 0.0661,0.11576 0.0661,0.21498 v 5.45703 q 0,0.11576 -0.0661,0.24805 -0.0496,0.11575 -0.14883,0.21497 -0.0827,0.0827 -0.19844,0.14883 -0.11576,0.0496 -0.23151,0.0496 h -6.7138 q -0.0496,0 -0.11576,0.0331 -0.0496,0.0165 -0.0992,0.0662 -0.0331,0.0496 -0.0661,0.0992 -0.0165,0.0496 -0.0165,0.0992 v 4.43177 q 0,0.0827 -0.0496,0.1819 -0.0331,0.0827 -0.0992,0.16536 -0.0496,0.0827 -0.13229,0.13229 -0.0661,0.0496 -0.14883,0.0496 h -1.4552 q -0.0992,0 -0.19844,-0.0496 -0.0992,-0.0661 -0.1819,-0.14882 -0.0661,-0.0827 -0.11576,-0.18191 -0.0331,-0.0992 -0.0331,-0.19843 z m 1.80247,0.71107 q -0.0331,0 -0.0827,0.0331 -0.0496,0.0165 -0.0827,0.0496 -0.0331,0.0165 -0.0661,0.0661 -0.0165,0.0331 -0.0165,0.0827 v 3.65456 q 0,0.0827 0.0661,0.13229 0.0827,0.0496 0.16537,0.0496 h 6.63112 q 0.0661,0 0.13229,-0.0662 0.0661,-0.0661 0.0661,-0.13229 v -3.63802 q 0,-0.0496 -0.0165,-0.0827 -0.0165,-0.0331 -0.0496,-0.0662 -0.0331,-0.0331 -0.0827,-0.0496 -0.0331,-0.0331 -0.0827,-0.0331 z"
         style="font-size:16.9333px;line-height:125%;font-family:Bitwise;-inkscape-font-specification:'Bitwise, Normal';letter-spacing:0px;word-spacing:0px;fill:#ffffff;fill-opacity:1;stroke:#000000;stroke-width:0.0001;stroke-dasharray:none;stroke-opacity:1"
         id="path5794-2" /><ellipse
         style="fill:none;fill-opacity:1;stroke:#ff0000;stroke-width:0.499999;stroke-opacity:1"
         id="path43044"
         cx="550.40997"
         cy="77.265366"
         rx="19.75"
         ry="19.750002" /><path
         d="m 625.46108,52.81915 q 0,-0.11576 0.0496,-0.23151 0.0661,-0.11576 0.14883,-0.19844 0.0992,-0.0992 0.21497,-0.14883 0.11576,-0.0496 0.23151,-0.0496 h 6.59805 q 0.0496,0 0.11575,0.0165 0.0827,0.0165 0.14883,0.0496 0.0661,0.0165 0.0992,0.0661 0.0496,0.0496 0.0496,0.11576 v 0.7276 q 0,0.0661 -0.0331,0.13229 -0.0331,0.0661 -0.0992,0.11576 -0.0496,0.0496 -0.13229,0.0827 -0.0662,0.0331 -0.1323,0.0331 h -5.60585 q -0.0496,0 -0.0992,0.0165 -0.0331,0.0165 -0.0661,0.0661 -0.0331,0.0331 -0.0661,0.0827 -0.0165,0.0331 -0.0165,0.0827 v 3.50573 q 0,0.0496 0.0165,0.0992 0.0331,0.0496 0.0661,0.0992 0.0496,0.0331 0.0992,0.0661 0.0496,0.0165 0.0992,0.0165 h 5.57278 q 0.0661,0 0.1323,0.0331 0.0661,0.0165 0.11575,0.0496 0.0496,0.0331 0.0827,0.0827 0.0496,0.0496 0.0496,0.11575 v 0.62839 q 0,0.0662 -0.0331,0.14883 -0.0331,0.0662 -0.0992,0.13229 -0.0496,0.0496 -0.11575,0.0992 -0.0662,0.0331 -0.1323,0.0331 h -4.72942 q -0.0496,0 -0.11576,0.0331 -0.0496,0.0165 -0.0992,0.0661 -0.0331,0.0331 -0.0661,0.0992 -0.0165,0.0496 -0.0165,0.0992 v 4.4483 q 0,0.0827 -0.0496,0.18191 -0.0331,0.0827 -0.0992,0.16536 -0.0496,0.0827 -0.13229,0.13229 -0.0827,0.0496 -0.16536,0.0496 h -1.14102 q -0.0992,0 -0.21497,-0.0331 -0.11576,-0.0496 -0.21498,-0.11575 -0.0992,-0.0661 -0.16536,-0.14883 -0.0496,-0.0992 -0.0496,-0.21498 z"
         id="path5873-3"
         style="font-size:16.9333px;font-family:Bitwise;-inkscape-font-specification:'Bitwise, Normal';letter-spacing:0px;word-spacing:0px;fill:#ffffff;fill-opacity:1;stroke:#000000;stroke-width:0.0001;stroke-dasharray:none;stroke-opacity:1" /><path
         d="m 626.00678,66.65481 h 0.90951 q 0.0496,0 0.0992,0.0331 0.0661,0.0165 0.0992,0.0661 0.0496,0.0496 0.0661,0.0992 0.0331,0.0496 0.0331,0.0992 v 4.38216 q 0,0.19844 0.0331,0.3638 0.0331,0.16537 0.0992,0.3142 0.0661,0.13229 0.13229,0.26458 0.0827,0.13229 0.16536,0.26458 0.0827,0.11576 0.14883,0.23151 0.0827,0.11576 0.13229,0.24805 0.0661,0.11576 0.0992,0.24805 0.0496,0.13229 0.0496,0.28112 v 4.69635 q 0,0.0661 -0.0331,0.13229 -0.0331,0.0661 -0.0827,0.11576 -0.0496,0.0496 -0.11576,0.0827 -0.0661,0.0331 -0.11576,0.0331 h -1.71979 q -0.0496,0 -0.11575,-0.0165 -0.0661,-0.0331 -0.13229,-0.0661 -0.0496,-0.0331 -0.0992,-0.0827 -0.0331,-0.0496 -0.0331,-0.11576 V 67.01868 q 0,-0.0661 0.0331,-0.13229 0.0496,-0.0662 0.0992,-0.11575 0.0496,-0.0496 0.11575,-0.0827 0.0662,-0.0331 0.13229,-0.0331 z"
         id="path5875-7"
         style="font-size:16.9333px;font-family:Bitwise;-inkscape-font-specification:'Bitwise, Normal';letter-spacing:0px;word-spacing:0px;fill:#ffffff;fill-opacity:1;stroke:#000000;stroke-width:0.0001;stroke-dasharray:none;stroke-opacity:1" /><path
         d="M 625.42801,92.64475 V 81.73069 q 0,-0.0992 0.0496,-0.21497 0.0496,-0.11576 0.13229,-0.19844 0.0827,-0.0992 0.1819,-0.14883 0.11575,-0.0661 0.21497,-0.0661 h 7.44141 q 0.11575,0 0.24805,0.0661 0.13229,0.0496 0.23151,0.14883 0.11575,0.0827 0.1819,0.21497 0.0661,0.11576 0.0661,0.23151 v 4.16719 q 0,0.11575 0.0661,0.19844 0.0661,0.0661 0.16536,0.11575 0.11576,0.0496 0.24805,0.0827 0.13229,0.0331 0.26458,0.0827 0.14883,0.0331 0.28112,0.0827 0.1323,0.0496 0.23151,0.14883 0.0992,0.0827 0.16537,0.21497 0.0661,0.11576 0.0661,0.3142 v 5.55625 q 0,0.0496 -0.0165,0.11575 -0.0165,0.0496 -0.0496,0.0992 -0.0165,0.0496 -0.0496,0.0827 -0.0331,0.0331 -0.0827,0.0331 h -0.77722 q -0.0661,0 -0.13229,-0.0165 -0.0496,-0.0331 -0.11575,-0.0661 -0.0496,-0.0496 -0.0827,-0.0992 -0.0331,-0.0661 -0.0331,-0.11575 v -4.66328 q 0,-0.0662 -0.0496,-0.1323 -0.0496,-0.0827 -0.13229,-0.13229 -0.0661,-0.0496 -0.14882,-0.0661 -0.0827,-0.0331 -0.16537,-0.0331 h -5.49011 q -0.0661,0 -0.14882,0.0331 -0.0827,0.0331 -0.16537,0.0827 -0.0661,0.0496 -0.11575,0.13229 -0.0331,0.0662 -0.0331,0.14883 v 4.56406 q 0,0.0661 -0.0496,0.1323 -0.0331,0.0662 -0.0992,0.11575 -0.0496,0.0496 -0.13229,0.0827 -0.0661,0.0331 -0.13229,0.0331 h -1.60403 q -0.0661,0 -0.14883,-0.0331 -0.0827,-0.0331 -0.14883,-0.0827 -0.0496,-0.0662 -0.0992,-0.13229 -0.0331,-0.0827 -0.0331,-0.16536 z m 1.71979,-10.0707 q -0.0992,0 -0.16537,0.0661 -0.0661,0.0662 -0.0661,0.14883 v 3.22461 q 0,0.0827 0.0661,0.14882 0.0661,0.0661 0.16537,0.0661 h 5.34127 q 0.0992,0 0.16537,-0.0661 0.0661,-0.0661 0.0661,-0.14882 v -3.22461 q 0,-0.0827 -0.0661,-0.14883 -0.0661,-0.0661 -0.16537,-0.0661 z"
         id="path5877-5"
         style="font-size:16.9333px;font-family:Bitwise;-inkscape-font-specification:'Bitwise, Normal';letter-spacing:0px;word-spacing:0px;fill:#ffffff;fill-opacity:1;stroke:#000000;stroke-width:0.0001;stroke-dasharray:none;stroke-opacity:1" /><path
         d="m 625.46108,96.17818 q 0,-0.11576 0.0496,-0.23151 0.0661,-0.11576 0.14883,-0.19844 0.0992,-0.0992 0.21497,-0.14883 0.11576,-0.0496 0.23151,-0.0496 h 6.59805 q 0.0496,0 0.11575,0.0165 0.0827,0.0165 0.14883,0.0496 0.0661,0.0165 0.0992,0.0662 0.0496,0.0496 0.0496,0.11576 v 0.7276 q 0,0.0661 -0.0331,0.13229 -0.0331,0.0661 -0.0992,0.11576 -0.0496,0.0496 -0.13229,0.0827 -0.0662,0.0331 -0.1323,0.0331 h -5.60585 q -0.0496,0 -0.0992,0.0165 -0.0331,0.0165 -0.0661,0.0662 -0.0331,0.0331 -0.0661,0.0827 -0.0165,0.0331 -0.0165,0.0827 v 3.50573 q 0,0.0496 0.0165,0.0992 0.0331,0.0496 0.0661,0.0992 0.0496,0.0331 0.0992,0.0661 0.0496,0.0165 0.0992,0.0165 h 5.57278 q 0.0661,0 0.1323,0.0331 0.0661,0.0165 0.11575,0.0496 0.0496,0.0331 0.0827,0.0827 0.0496,0.0496 0.0496,0.11576 v 0.62838 q 0,0.0661 -0.0331,0.14883 -0.0331,0.0661 -0.0992,0.13229 -0.0496,0.0496 -0.11575,0.0992 -0.0662,0.0331 -0.1323,0.0331 h -4.72942 q -0.0496,0 -0.11576,0.0331 -0.0496,0.0165 -0.0992,0.0661 -0.0331,0.0331 -0.0661,0.0992 -0.0165,0.0496 -0.0165,0.0992 v 3.30729 q 0,0.0496 0.0165,0.0992 0.0331,0.0496 0.0827,0.0827 0.0496,0.0331 0.0992,0.0496 0.0496,0.0165 0.0992,0.0165 h 4.81211 q 0.0661,0 0.13229,0.0331 0.0827,0.0165 0.14883,0.0496 0.0661,0.0331 0.11575,0.0827 0.0496,0.0496 0.0496,0.11576 v 0.8599 q 0,0.0496 -0.0331,0.0992 -0.0165,0.0496 -0.0496,0.0992 -0.0331,0.0331 -0.0827,0.0662 -0.0331,0.0165 -0.0827,0.0165 h -6.8957 q -0.0992,0 -0.21497,-0.0331 -0.11576,-0.0496 -0.21498,-0.11575 -0.0992,-0.0662 -0.16536,-0.14883 -0.0496,-0.0992 -0.0496,-0.21498 z"
         id="path5879-9"
         style="font-size:16.9333px;font-family:Bitwise;-inkscape-font-specification:'Bitwise, Normal';letter-spacing:0px;word-spacing:0px;fill:#ffffff;fill-opacity:1;stroke:#000000;stroke-width:0.0001;stroke-dasharray:none;stroke-opacity:1" /><ellipse
         style="fill:none;fill-opacity:1;stroke:#ff0000;stroke-width:0.499999;stroke-opacity:1"
         id="path43044-0"
         cx="600.14465"
         cy="79.170166"
         rx="19.75"
         ry="19.750002" /></g></g></svg>
