<?xml version="1.0" encoding="UTF-8" standalone="no"?>
<!-- Created with Inkscape (http://www.inkscape.org/) -->

<svg
   xml:space="preserve"
   width="12in"
   height="8in"
   viewBox="0 0 304.8 203.2"
   version="1.1"
   id="svg43966"
   inkscape:version="1.2.2 (b0a8486541, 2022-12-01)"
   sodipodi:docname="panel.svg"
   xmlns:inkscape="http://www.inkscape.org/namespaces/inkscape"
   xmlns:sodipodi="http://sodipodi.sourceforge.net/DTD/sodipodi-0.dtd"
   xmlns="http://www.w3.org/2000/svg"
   xmlns:svg="http://www.w3.org/2000/svg"><sodipodi:namedview
     id="namedview43968"
     pagecolor="#ffffff"
     bordercolor="#000000"
     borderopacity="0.25"
     inkscape:showpageshadow="2"
     inkscape:pageopacity="0.0"
     inkscape:pagecheckerboard="0"
     inkscape:deskcolor="#d1d1d1"
     inkscape:document-units="mm"
     showgrid="false"
     inkscape:zoom="0.65922976"
     inkscape:cx="540.02416"
     inkscape:cy="197.19984"
     inkscape:window-width="1920"
     inkscape:window-height="1008"
     inkscape:window-x="0"
     inkscape:window-y="0"
     inkscape:window-maximized="1"
     inkscape:current-layer="layer1" /><defs
     id="defs43963"><rect
       x="67.096764"
       y="211.56648"
       width="142.78036"
       height="156.61008"
       id="rect44870" /></defs><g
     inkscape:label="Layer 1"
     inkscape:groupmode="layer"
     id="layer1"
     transform="translate(-266.842,40.9934)"><text
       xml:space="preserve"
       transform="scale(0.26458333)"
       id="text44868"
       style="font-style:normal;font-variant:normal;font-weight:normal;font-stretch:normal;font-size:16px;font-family:'Abyssinica SIL';-inkscape-font-specification:'Abyssinica SIL, Normal';font-variant-ligatures:normal;font-variant-caps:normal;font-variant-numeric:normal;font-variant-east-asian:normal;white-space:pre;shape-inside:url(#rect44870);display:inline;fill:#000000;fill-opacity:1;stroke:none" /><text
       xml:space="preserve"
       style="font-size:4.23333px;line-height:125%;font-family:Bravura;-inkscape-font-specification:Bravura;letter-spacing:0px;word-spacing:0px;fill:none;stroke:#000000;stroke-width:0.264583px;stroke-linecap:butt;stroke-linejoin:miter;stroke-opacity:1"
       x="41.288353"
       y="15.023044"
       id="text3677"><tspan
         sodipodi:role="line"
         id="tspan3675"
         style="stroke-width:0.264583px"
         x="41.288353"
         y="15.023044" /></text><path
       id="path44203"
       style="fill:#ffffff;stroke:#000000;stroke-width:0.264583"
       d="m 302.1382,-18.936439 a 14.867708,14.867708 0 0 0 -12.9496,7.581449 V 3.2177635 a 14.867708,14.867708 0 0 0 12.9496,7.5814495 14.867708,14.867708 0 0 0 12.95011,-7.5819663 V -11.356024 a 14.867708,14.867708 0 0 0 -12.95011,-7.580415 z" /><path
       id="path44193"
       style="fill:#ffffff;stroke:#000000;stroke-width:0.264584"
       d="m 373.35032,-14.936168 v 0.67645 a 10.367708,10.367709 0 0 0 -8.32352,8.3235197 h -0.67644 v 3.73517 h 0.67644 a 10.367708,10.367709 0 0 0 8.32352,8.3235301 v 0.67644 h 3.73517 v -0.67644 a 10.367708,10.367709 0 0 0 8.32352,-8.3235301 h 0.67645 v -3.73517 h -0.66921 a 10.367708,10.367709 0 0 0 -8.33076,-8.3307597 v -0.66921 z" /><path
       id="path44193-7"
       style="fill:#ffffff;stroke:#000000;stroke-width:0.264584"
       d="m 343.44651,-14.936168 v 0.67645 a 10.367708,10.367709 0 0 0 -8.32353,8.3235197 h -0.67644 v 3.73517 h 0.67644 a 10.367708,10.367709 0 0 0 8.32353,8.3235301 v 0.67644 h 3.73517 v -0.67644 a 10.367708,10.367709 0 0 0 8.32352,-8.3235301 h 0.67645 v -3.73517 h -0.66921 a 10.367708,10.367709 0 0 0 -8.33076,-8.3307597 v -0.66921 z" /><path
       id="path44193-8"
       style="fill:#ffffff;stroke:#000000;stroke-width:0.264584"
       d="m 403.25414,-14.936168 v 0.67645 a 10.367708,10.367709 0 0 0 -8.32352,8.3235197 h -0.67644 v 3.73517 h 0.67644 a 10.367708,10.367709 0 0 0 8.32352,8.3235301 v 0.67644 h 3.73517 v -0.67644 a 10.367708,10.367709 0 0 0 8.32352,-8.3235301 h 0.67644 v -3.73517 h -0.66921 a 10.367708,10.367709 0 0 0 -8.33075,-8.3307597 v -0.66921 z" /><path
       id="path44193-4"
       style="fill:#ffffff;stroke:#000000;stroke-width:0.264584"
       d="m 433.15796,-14.936168 v 0.67645 a 10.367708,10.367709 0 0 0 -8.32353,8.3235197 h -0.67644 v 3.73517 h 0.67644 a 10.367708,10.367709 0 0 0 8.32353,8.3235301 v 0.67644 h 3.73517 v -0.67644 a 10.367708,10.367709 0 0 0 8.32352,-8.3235301 h 0.67645 v -3.73517 h -0.66921 a 10.367708,10.367709 0 0 0 -8.33076,-8.3307597 v -0.66921 z" /><path
       id="path44193-5"
       style="fill:#ffffff;stroke:#000000;stroke-width:0.264584"
       d="m 463.06178,-14.936168 v 0.67645 a 10.367708,10.367709 0 0 0 -8.32352,8.3235197 h -0.67645 v 3.73517 h 0.67645 a 10.367708,10.367709 0 0 0 8.32352,8.3235301 v 0.67644 h 3.73517 v -0.67644 a 10.367708,10.367709 0 0 0 8.32353,-8.3235301 h 0.67644 v -3.73517 h -0.66921 a 10.367708,10.367709 0 0 0 -8.33076,-8.3307597 v -0.66921 z" /><path
       style="fill:none;stroke:#000000;stroke-width:0.1;stroke-dasharray:none;stroke-dashoffset:0"
       d="m 266.842,27.0526 h 304.8"
       id="path1673" /><path
       style="fill:none;stroke:#000000;stroke-width:0.1;stroke-dasharray:none;stroke-dashoffset:0"
       d="m 266.842,94.4386 h 304.8"
       id="path1673-7" /><path
       id="path45203"
       style="fill:none;fill-opacity:1;stroke:#000000;stroke-width:0.264583;stroke-opacity:1"
       d="m 383.50056,59.388896 a 11.117709,11.117709 0 0 0 -11.11767,11.11767 11.117709,11.117709 0 0 0 11.11767,11.11766 11.117709,11.117709 0 0 0 11.11818,-11.11766 11.117709,11.117709 0 0 0 -11.11818,-11.11767 z" /><path
       id="rect45015-9"
       style="fill:none;fill-opacity:1;stroke:#000000;stroke-width:0.264583;stroke-opacity:1"
       d="m 460.10028,55.591695 v 1.79007 h -3.00033 v -1.78955 c -5.6334,0.56638 -10.46791,4.25646 -12.50002,9.54101 v 10.74715 c 2.03211,5.28456 6.86662,8.97464 12.50002,9.54102 v -1.78955 h 3.00033 v 1.78955 c 5.6334,-0.56638 10.4679,-4.25647 12.50001,-9.54102 v -10.75593 c -2.03459,-5.28132 -6.8686,-8.96783 -12.50001,-9.53275 z"
       sodipodi:nodetypes="ccccccccccccccc" /><circle
       style="fill:none;stroke:#000000;stroke-width:0.1;stroke-dasharray:none;stroke-dashoffset:0"
       id="path4059"
       cx="564.02197"
       cy="-29.5634"
       r="1.855" /><circle
       style="fill:none;stroke:#000000;stroke-width:0.1;stroke-dasharray:none;stroke-dashoffset:0"
       id="path4059-5"
       cx="564.02197"
       cy="19.119934"
       r="1.855" /><circle
       style="fill:none;stroke:#000000;stroke-width:0.1;stroke-dasharray:none;stroke-dashoffset:0"
       id="path4059-3"
       cx="278.272"
       cy="-29.5634"
       r="1.855" /><circle
       style="fill:none;stroke:#000000;stroke-width:0.1;stroke-dasharray:none;stroke-dashoffset:0"
       id="path4059-56"
       cx="278.272"
       cy="19.119934"
       r="1.855" /><circle
       style="fill:none;stroke:#000000;stroke-width:0.1;stroke-dasharray:none;stroke-dashoffset:0"
       id="path4059-9"
       cx="564.02197"
       cy="38.169933"
       r="1.855" /><circle
       style="fill:none;stroke:#000000;stroke-width:0.1;stroke-dasharray:none;stroke-dashoffset:0"
       id="path4059-5-1"
       cx="564.02197"
       cy="86.853271"
       r="1.855" /><circle
       style="fill:none;stroke:#000000;stroke-width:0.1;stroke-dasharray:none;stroke-dashoffset:0"
       id="path4059-3-2"
       cx="278.272"
       cy="38.169933"
       r="1.855" /><circle
       style="fill:none;stroke:#000000;stroke-width:0.1;stroke-dasharray:none;stroke-dashoffset:0"
       id="path4059-56-7"
       cx="278.272"
       cy="86.853271"
       r="1.855" /><path
       style="fill:#000000;stroke:none;stroke-width:0.999999"
       d="m 487.0876,48.30908 c -0.26617,-0.02917 -0.64525,-0.112019 -0.85409,-0.186662 -0.26702,-0.09544 -0.4968,-0.236096 -0.6788,-0.415523 -0.17292,-0.170484 -0.25381,-0.300404 -0.33173,-0.532816 l -0.0537,-0.160172 0.003,-3.596478 c 0.002,-2.320333 0.01,-3.664378 0.0234,-3.787836 0.0793,-0.728611 0.35804,-1.331413 0.82309,-1.779722 0.0951,-0.09166 0.24065,-0.214682 0.32349,-0.273378 0.14282,-0.101192 0.52504,-0.303725 0.62011,-0.328588 0.044,-0.01152 0.0441,-0.01285 0.0441,-0.547218 v -0.535673 h -0.77373 c -0.84508,0 -0.926,0.0076 -1.25798,0.118872 -0.87739,0.293952 -1.47129,0.996219 -1.67286,1.978114 -0.0467,0.227412 -0.0823,0.533566 -0.0823,0.707516 0,0.08212 0.1532,0.925238 0.43295,2.382692 0.23813,1.240583 0.43301,2.266938 0.43308,2.280786 7e-5,0.0199 -0.28921,0.02518 -1.37968,0.02518 -0.75888,0 -1.37979,-0.0039 -1.37979,-0.0087 0,-0.0048 0.21194,-1.022259 0.47097,-2.26104 0.42657,-2.039975 0.4722,-2.277019 0.48393,-2.514188 0.0732,-1.479617 0.56875,-2.512163 1.50065,-3.126794 0.41497,-0.273694 0.95255,-0.45498 1.51003,-0.509231 0.10667,-0.01038 0.53514,-0.01911 0.95217,-0.01939 0.84247,-5.78e-4 0.78269,0.01011 0.78269,-0.139945 0,-0.112723 0.0693,-0.362455 0.14748,-0.531743 0.30107,-0.651608 0.9598,-1.105002 1.74543,-1.201334 0.0939,-0.01151 0.54483,-0.02093 1.00211,-0.02093 h 0.83142 v 0.443144 0.443144 h -0.84685 c -0.96369,0 -1.04428,0.0088 -1.32655,0.144362 -0.19567,0.09399 -0.41796,0.299649 -0.51031,0.472115 -0.0672,0.125554 -0.12381,0.337281 -0.1075,0.402268 l 0.012,0.04787 1.38959,-0.01289 1.3896,-0.01289 v 0.446442 0.446441 h -0.95678 -0.95679 v 0.544906 0.544907 l 0.0621,0.02165 c 0.0342,0.01191 0.14379,0.06141 0.24363,0.109998 0.83738,0.407565 1.37853,1.12271 1.56017,2.061833 0.0349,0.180582 0.0373,0.394324 0.0428,3.795669 0.006,3.568451 0.005,3.605926 -0.0352,3.766438 -0.0643,0.254104 -0.18285,0.471691 -0.35932,0.659286 -0.31996,0.340119 -0.72128,0.53023 -1.34301,0.636206 -0.21498,0.03665 -1.64299,0.05396 -1.92262,0.02332 z"
       id="path2688" /><path
       style="fill:#000000;stroke:none;stroke-width:0.999997"
       d="m 434.01311,-19.911069 c -0.55315,-0.05576 -1.15016,-0.259851 -1.47704,-0.504923 -0.4825,-0.361745 -0.71312,-0.795717 -0.71182,-1.339501 9.7e-4,-0.40707 0.13534,-0.764698 0.41968,-1.11695 0.16757,-0.207591 0.33136,-0.344061 0.62289,-0.518978 0.27966,-0.167799 0.42583,-0.283052 0.62847,-0.495565 0.33739,-0.353811 0.59153,-0.841307 0.67079,-1.286704 l 0.021,-0.11804 -0.12479,-0.05713 c -0.20618,-0.0944 -0.49446,-0.299605 -0.66176,-0.471071 l -0.15756,-0.161484 -0.24005,0.116992 c -1.38255,0.673793 -2.77595,0.852755 -3.84511,0.493849 -0.59933,-0.201189 -1.09803,-0.614448 -1.35398,-1.12202 -0.19673,-0.390137 -0.27818,-0.781792 -0.27832,-1.338315 -3.4e-4,-1.386162 0.49742,-2.371617 1.35523,-2.683054 0.15038,-0.0546 0.19458,-0.05999 0.49186,-0.06004 0.29593,-4.5e-5 0.34358,0.0057 0.50685,0.06102 0.45156,0.153015 0.84193,0.489724 1.12634,0.971506 0.26219,0.444151 0.53894,0.731056 0.92359,0.957498 0.24517,0.144332 0.41376,0.216172 0.6656,0.283641 0.30666,0.08216 0.31828,0.08035 0.38367,-0.05939 0.11391,-0.243432 0.30435,-0.492318 0.53669,-0.701377 l 0.0954,-0.08581 -0.14567,-0.297142 c -0.43114,-0.879404 -0.64604,-1.745251 -0.64571,-2.601648 2.5e-4,-0.710414 0.15534,-1.311111 0.46132,-1.786932 0.1298,-0.201856 0.51692,-0.588899 0.6918,-0.691662 0.43128,-0.253429 0.8756,-0.362345 1.48236,-0.363364 0.63547,-0.0011 1.21286,0.111135 1.68517,0.32747 1.05152,0.481632 1.39142,1.568255 0.77926,2.491247 -0.19922,0.300388 -0.39008,0.463276 -0.95822,0.817805 -0.17412,0.108655 -0.47863,0.396879 -0.63062,0.596898 -0.20369,0.268047 -0.40903,0.753209 -0.45855,1.083438 -0.0148,0.09879 -0.0136,0.101403 0.0599,0.127968 0.1568,0.0567 0.45725,0.265012 0.6537,0.453235 l 0.2042,0.195636 0.23447,-0.120285 c 0.67521,-0.346381 1.46458,-0.584183 2.19037,-0.659861 0.31424,-0.03277 0.9063,-0.01575 1.17951,0.03389 1.04665,0.190182 1.78962,0.820665 2.0313,1.723754 0.0856,0.319935 0.11075,0.589481 0.0965,1.034796 -0.0201,0.628028 -0.12545,1.104088 -0.34198,1.545805 -0.26457,0.539712 -0.65669,0.879465 -1.16053,1.005542 -0.15738,0.03938 -0.23297,0.04568 -0.42801,0.03566 -0.59768,-0.0307 -1.14487,-0.368008 -1.48711,-0.916702 -0.26401,-0.423282 -0.33696,-0.521363 -0.52823,-0.710192 -0.23179,-0.228837 -0.44478,-0.379489 -0.71665,-0.506889 -0.19408,-0.09095 -0.49668,-0.186519 -0.66988,-0.211565 l -0.10137,-0.01466 -0.05,0.109171 c -0.0866,0.189197 -0.26857,0.447028 -0.44792,0.634752 l -0.17313,0.181208 0.12963,0.273999 c 0.16663,0.35223 0.31022,0.710191 0.39466,0.983909 0.43686,1.416021 0.32968,2.722517 -0.292,3.559405 -0.28095,0.378199 -0.73264,0.687963 -1.19951,0.822604 -0.33354,0.09619 -0.93529,0.129092 -1.43663,0.07855 z"
       id="path2037"
       sodipodi:nodetypes="ssssssscsscsssssssssssscsssssssssssscsssssssssssscsscssssss" /><path
       style="fill:#000000;stroke:none;stroke-width:1"
       d="m 401.3618,-19.948265 c 0,-0.03337 0.14475,-1.072658 0.32167,-2.309532 0.17692,-1.236874 0.32167,-2.267206 0.32167,-2.289626 0,-0.02242 -0.0648,-0.05141 -0.1439,-0.06442 -0.0791,-0.01301 -0.25521,-0.06177 -0.39125,-0.108347 -0.13603,-0.04658 -0.25398,-0.07805 -0.2621,-0.06993 -0.008,0.0081 -0.25845,0.512648 -0.55629,1.121172 -0.29784,0.608524 -0.55187,1.106407 -0.56451,1.106407 -0.0597,0 -0.75475,-0.416244 -0.73864,-0.442321 0.0101,-0.01636 0.32927,-0.490372 0.70924,-1.053366 l 0.69085,-1.023625 -0.14126,-0.120141 c -0.0777,-0.06608 -0.21016,-0.192484 -0.29438,-0.280904 l -0.15313,-0.160763 -1.85848,1.456909 c -1.02217,0.8013 -1.86265,1.45265 -1.86775,1.447445 -0.005,-0.0052 -0.24617,-0.420011 -0.53572,-0.921791 l -0.52646,-0.912327 2.19104,-0.878119 c 1.20508,-0.482966 2.19609,-0.882485 2.20226,-0.88782 0.006,-0.0053 -0.007,-0.04346 -0.0289,-0.08471 -0.0221,-0.04126 -0.0682,-0.211869 -0.10245,-0.379135 -0.0343,-0.167266 -0.0687,-0.310524 -0.0765,-0.318351 -0.0132,-0.01321 -1.75194,0.09679 -2.2666,0.143394 l -0.22855,0.0207 v -0.443617 c 0,-0.399949 0.006,-0.443609 0.0593,-0.443537 0.0326,3.4e-5 0.59113,0.03829 1.2412,0.08499 0.65007,0.0467 1.18801,0.07884 1.19543,0.07141 0.007,-0.0074 0.0415,-0.150349 0.0758,-0.317615 0.0343,-0.167267 0.0804,-0.337877 0.10245,-0.379135 0.0221,-0.04126 0.0351,-0.0799 0.0289,-0.08587 -0.006,-0.006 -0.9902,-0.40237 -2.18675,-0.880887 l -2.17554,-0.87003 0.11008,-0.192899 c 0.68372,-1.198173 0.96034,-1.653962 0.98998,-1.631216 0.0189,0.01448 0.84452,0.660926 1.83477,1.436548 0.99025,0.775621 1.81243,1.410221 1.82707,1.410221 0.0146,0 0.0882,-0.06541 0.16343,-0.145358 0.0753,-0.07995 0.20216,-0.198365 0.28202,-0.263152 l 0.14521,-0.117794 -0.68238,-1.013945 c -0.37532,-0.557671 -0.6882,-1.029687 -0.6953,-1.048925 -0.0117,-0.03158 0.72592,-0.477759 0.74737,-0.452106 0.005,0.0059 0.24935,0.506009 0.54305,1.111257 0.29371,0.605248 0.5386,1.105834 0.5442,1.112412 0.006,0.0066 0.12925,-0.02697 0.27476,-0.07455 0.14551,-0.04758 0.3217,-0.09656 0.39154,-0.108844 0.0698,-0.01228 0.12697,-0.0327 0.12697,-0.04538 0,-0.01267 -0.14475,-1.03503 -0.32167,-2.271904 -0.17692,-1.236873 -0.32167,-2.276163 -0.32167,-2.309532 0,-0.05702 0.0632,-0.06067 1.04966,-0.06067 0.98644,0 1.04967,0.0037 1.04967,0.06067 0,0.03337 -0.14476,1.072659 -0.32167,2.309532 -0.17692,1.236874 -0.32168,2.259587 -0.32168,2.272696 0,0.01311 0.0635,0.03456 0.14105,0.04766 0.0776,0.01311 0.24785,0.06016 0.37839,0.104556 0.13054,0.0444 0.24215,0.08073 0.24802,0.08073 0.006,0 0.25705,-0.502822 0.55818,-1.117382 0.30113,-0.61456 0.55945,-1.117381 0.57404,-1.117381 0.0275,0 0.66807,0.36401 0.72012,0.409227 0.0162,0.0141 -0.0994,0.213483 -0.25687,0.443078 -0.1575,0.229596 -0.47278,0.695709 -0.70061,1.035809 l -0.41423,0.618362 0.27759,0.261999 c 0.15267,0.144099 0.29059,0.266986 0.30649,0.273082 0.0159,0.0061 0.84056,-0.625012 1.83257,-1.402462 0.99202,-0.77745 1.82099,-1.426645 1.84218,-1.442656 0.0264,-0.01996 0.20498,0.260024 0.56812,0.890771 0.29129,0.505935 0.52536,0.923803 0.52018,0.928596 -0.005,0.0048 -0.98461,0.400558 -2.17648,0.879479 -1.19187,0.478921 -2.17041,0.873692 -2.17452,0.877268 -0.004,0.0036 0.0179,0.08567 0.0488,0.182437 l 0.0563,0.175935 h 4.85246 4.85245 v 0.711061 0.711061 h -4.85245 -4.85246 l -0.0547,0.171103 c -0.0539,0.168538 -0.0536,0.171527 0.0189,0.199441 0.25199,0.09696 4.27458,1.707416 4.28454,1.715323 0.012,0.0096 -0.94398,1.681868 -1.02427,1.791663 -0.0363,0.04959 -0.26061,-0.115911 -1.88189,-1.388246 l -1.84072,-1.444552 -0.17219,0.182411 c -0.0947,0.100326 -0.23118,0.229619 -0.30328,0.287317 l -0.13111,0.104905 0.70111,1.039613 c 0.38561,0.571787 0.6884,1.051872 0.67286,1.066856 -0.0155,0.01498 -0.18555,0.119811 -0.37782,0.23295 l -0.34957,0.205707 -0.55667,-1.137598 c -0.47266,-0.965904 -0.56555,-1.13388 -0.61544,-1.112957 -0.1666,0.06986 -0.56273,0.185387 -0.63568,0.185387 -0.0458,0 -0.0834,0.01206 -0.0834,0.02681 0,0.01475 0.14476,1.038798 0.32168,2.275672 0.17691,1.236875 0.32167,2.283783 0.32167,2.326462 v 0.0776 h -1.04967 c -0.98643,0 -1.04966,-0.0037 -1.04966,-0.06067 z"
       id="path2365" /><path
       style="fill:#000000;stroke:none;stroke-width:1"
       d="m 370.77889,-19.903126 c -0.53021,-0.06182 -1.0652,-0.260981 -1.53265,-0.57054 -0.26189,-0.173439 -0.72,-0.620642 -0.89735,-0.875995 -0.74561,-1.073526 -0.84235,-2.446036 -0.25449,-3.610576 0.22882,-0.45329 0.71051,-0.99704 1.12881,-1.27424 0.35626,-0.23609 0.76356,-0.42011 1.10969,-0.50136 l 0.16556,-0.0389 0.0243,-0.11963 c 0.0475,-0.23386 0.21771,-0.70337 0.3624,-0.9994 0.51929,-1.0625 1.3859,-1.88124 2.47357,-2.33693 0.39641,-0.16608 0.75893,-0.2639 1.25038,-0.33739 0.25083,-0.0375 0.97076,-0.0376 1.22309,-2.5e-4 1.08172,0.16035 1.97494,0.58864 2.71216,1.30047 0.65513,0.63255 1.08754,1.35742 1.32364,2.21887 0.0403,0.14707 0.0757,0.26928 0.0787,0.27159 0.003,0.002 0.0778,0.0215 0.16632,0.0426 0.47234,0.11265 1.01802,0.39842 1.41324,0.74011 0.34891,0.30165 0.62497,0.6649 0.83982,1.10504 0.28014,0.5739 0.39597,1.17677 0.34521,1.79681 -0.028,0.34243 -0.0656,0.52985 -0.16869,0.84248 -0.16661,0.505006 -0.43612,0.934844 -0.84171,1.342417 -0.50461,0.507081 -1.03739,0.794519 -1.79399,0.967867 l -0.2123,0.04864 -4.37737,0.0035 c -2.40755,0.0019 -4.44978,-0.0049 -4.5383,-0.01523 z m 9.50576,-9.646411 c -0.50106,-0.0789 -0.86174,-0.25187 -1.19795,-0.57442 -0.29265,-0.28076 -0.47875,-0.59847 -0.58612,-1.00063 -0.0658,-0.24655 -0.0664,-0.64236 -0.001,-0.88206 0.0951,-0.35031 0.16179,-0.46655 0.90209,-1.57337 0.39469,-0.59009 0.74764,-1.10512 0.78435,-1.14451 0.11116,-0.11927 0.216,-0.16204 0.39952,-0.163 0.13657,-7.3e-4 0.17578,0.008 0.25749,0.056 0.053,0.0312 0.12153,0.0842 0.15227,0.11774 0.11346,0.1237 1.46672,2.16928 1.53792,2.32471 0.3435,0.74993 0.20043,1.57936 -0.37835,2.19348 -0.41379,0.43905 -0.97017,0.66645 -1.60861,0.65747 -0.11421,-0.002 -0.2318,-0.007 -0.2613,-0.0114 z"
       id="path3015"
       sodipodi:nodetypes="cssssccscsscssccssccsscccccsccssscccsccc" /><path
       style="fill:#000000;stroke:none;stroke-width:0.999998"
       d="m 344.38281,-20.857542 v -0.96987 l -0.11515,-0.0225 c -0.73395,-0.14307 -1.48403,-0.44961 -2.0824,-0.85102 l -0.13526,-0.0907 -0.69118,0.69097 -0.69118,0.69097 -0.65577,-0.65599 c -0.36067,-0.3608 -0.65576,-0.66491 -0.65576,-0.6758 0,-0.0109 0.30618,-0.32627 0.68041,-0.70083 l 0.68041,-0.68101 -0.13064,-0.1991 c -0.38926,-0.59322 -0.69571,-1.36391 -0.81072,-2.03888 l -0.023,-0.13518 h -0.96924 -0.96924 v -0.91122 -0.91121 h 0.97039 0.97039 l 0.0131,-0.0751 c 0.12215,-0.70099 0.42161,-1.45209 0.82371,-2.06598 l 0.14968,-0.22852 -0.68748,-0.68769 -0.68748,-0.6877 0.65064,-0.65088 0.65065,-0.65087 0.69156,0.69135 0.69157,0.69136 0.0696,-0.0518 c 0.11335,-0.0844 0.47633,-0.29815 0.67469,-0.39726 0.44365,-0.2217 1.03499,-0.41782 1.51269,-0.5017 l 0.0751,-0.0132 v -0.97039 -0.97038 h 0.93124 0.93125 v 0.97129 c 0,0.53421 0.007,0.97144 0.015,0.97161 0.008,1.5e-4 0.10063,0.0183 0.20527,0.0404 0.72085,0.15185 1.50275,0.48481 2.03181,0.86522 l 0.0792,0.057 0.69193,-0.69172 0.69194,-0.69172 0.65576,0.65599 c 0.36067,0.36079 0.65577,0.6649 0.65577,0.6758 0,0.0109 -0.30635,0.32626 -0.68078,0.70082 l -0.68077,0.68101 0.0807,0.12017 c 0.36642,0.54524 0.67248,1.25771 0.80866,1.88251 0.0288,0.13217 0.0569,0.26059 0.0624,0.28538 l 0.01,0.0451 h 0.97091 0.97091 v 0.91121 0.91122 h -0.96848 -0.96849 l -0.0448,0.2253 c -0.13076,0.65722 -0.39337,1.30866 -0.76897,1.90754 l -0.15073,0.24032 0.67973,0.68101 c 0.37384,0.37456 0.67972,0.69085 0.67972,0.70285 0,0.012 -0.28929,0.30841 -0.64286,0.65867 l -0.64286,0.63683 -0.68574,-0.68553 -0.68573,-0.68552 -0.18681,0.12267 c -0.44262,0.29064 -0.86345,0.49519 -1.33208,0.64747 -0.25976,0.0844 -0.59786,0.17316 -0.77552,0.20357 l -0.0751,0.0129 v 0.97039 0.97039 h -0.93125 -0.93124 z m 1.59213,-3.7235 c 0.39189,-0.0979 0.66656,-0.21839 0.98744,-0.43303 0.43514,-0.29105 0.83115,-0.76523 1.03306,-1.23695 0.29336,-0.68541 0.32331,-1.39502 0.0885,-2.09625 -0.14022,-0.4187 -0.3756,-0.79327 -0.7063,-1.12397 -0.44504,-0.44504 -0.95302,-0.7062 -1.58292,-0.81382 -0.30371,-0.0519 -0.75602,-0.0432 -1.0514,0.0201 -1.14259,0.24505 -2.01837,1.12312 -2.2668,2.2727 -0.0595,0.27553 -0.0636,0.79013 -0.009,1.08522 0.10784,0.57807 0.3707,1.08621 0.77898,1.50586 0.3899,0.40075 0.81567,0.6541 1.33616,0.79506 0.27983,0.0758 0.43051,0.0907 0.83111,0.0825 0.30095,-0.006 0.39355,-0.0157 0.56075,-0.0575 z"
       id="path3477" /><g
       id="g4614"
       transform="translate(0,2.4331458)"><text
         xml:space="preserve"
         style="font-style:normal;font-variant:normal;font-weight:normal;font-stretch:normal;font-size:8.46667px;line-height:125%;font-family:Bitwise;-inkscape-font-specification:'Bitwise, Normal';font-variant-ligatures:normal;font-variant-caps:normal;font-variant-numeric:normal;font-variant-east-asian:normal;letter-spacing:0px;word-spacing:0px;fill:#000000;fill-opacity:1;stroke:none;stroke-width:0.264583px;stroke-linecap:butt;stroke-linejoin:miter;stroke-opacity:1"
         x="331.51855"
         y="17.11042"
         id="text3899"><tspan
           sodipodi:role="line"
           id="tspan3897"
           style="font-style:normal;font-variant:normal;font-weight:normal;font-stretch:normal;font-size:8.46667px;font-family:Bitwise;-inkscape-font-specification:'Bitwise, Normal';font-variant-ligatures:normal;font-variant-caps:normal;font-variant-numeric:normal;font-variant-east-asian:normal;fill:#000000;fill-opacity:1;stroke:none;stroke-width:0.264583px"
           x="331.51855"
           y="17.11042">System</tspan></text><text
         xml:space="preserve"
         style="font-style:normal;font-variant:normal;font-weight:normal;font-stretch:normal;font-size:8.46667px;line-height:125%;font-family:Bitwise;-inkscape-font-specification:'Bitwise, Normal';font-variant-ligatures:normal;font-variant-caps:normal;font-variant-numeric:normal;font-variant-east-asian:normal;letter-spacing:0px;word-spacing:0px;fill:#000000;fill-opacity:1;stroke:none;stroke-width:0.264583px;stroke-linecap:butt;stroke-linejoin:miter;stroke-opacity:1"
         x="368.23953"
         y="17.11042"
         id="text3903"><tspan
           sodipodi:role="line"
           id="tspan3901"
           style="font-style:normal;font-variant:normal;font-weight:normal;font-stretch:normal;font-size:8.46667px;font-family:Bitwise;-inkscape-font-specification:'Bitwise, Normal';font-variant-ligatures:normal;font-variant-caps:normal;font-variant-numeric:normal;font-variant-east-asian:normal;fill:#000000;fill-opacity:1;stroke:none;stroke-width:0.264583px"
           x="368.23953"
           y="17.11042">Dry</tspan></text><text
         xml:space="preserve"
         style="font-style:normal;font-variant:normal;font-weight:normal;font-stretch:normal;font-size:8.46667px;line-height:125%;font-family:Bitwise;-inkscape-font-specification:'Bitwise, Normal';font-variant-ligatures:normal;font-variant-caps:normal;font-variant-numeric:normal;font-variant-east-asian:normal;letter-spacing:0px;word-spacing:0px;fill:#000000;fill-opacity:1;stroke:none;stroke-width:0.264583px;stroke-linecap:butt;stroke-linejoin:miter;stroke-opacity:1"
         x="394.17044"
         y="17.11042"
         id="text3907"><tspan
           sodipodi:role="line"
           id="tspan3905"
           style="font-style:normal;font-variant:normal;font-weight:normal;font-stretch:normal;font-size:8.46667px;font-family:Bitwise;-inkscape-font-specification:'Bitwise, Normal';font-variant-ligatures:normal;font-variant-caps:normal;font-variant-numeric:normal;font-variant-east-asian:normal;fill:#000000;fill-opacity:1;stroke:none;stroke-width:0.264583px"
           x="394.17044"
           y="17.11042">Laser</tspan></text><text
         xml:space="preserve"
         style="font-style:normal;font-variant:normal;font-weight:normal;font-stretch:normal;font-size:8.46667px;line-height:125%;font-family:Bitwise;-inkscape-font-specification:'Bitwise, Normal';font-variant-ligatures:normal;font-variant-caps:normal;font-variant-numeric:normal;font-variant-east-asian:normal;letter-spacing:0px;word-spacing:0px;fill:#000000;fill-opacity:1;stroke:none;stroke-width:0.264583px;stroke-linecap:butt;stroke-linejoin:miter;stroke-opacity:1"
         x="428.35721"
         y="17.11042"
         id="text3911"><tspan
           sodipodi:role="line"
           id="tspan3909"
           style="font-style:normal;font-variant:normal;font-weight:normal;font-stretch:normal;font-size:8.46667px;font-family:Bitwise;-inkscape-font-specification:'Bitwise, Normal';font-variant-ligatures:normal;font-variant-caps:normal;font-variant-numeric:normal;font-variant-east-asian:normal;fill:#000000;fill-opacity:1;stroke:none;stroke-width:0.264583px"
           x="428.35721"
           y="17.11042">Fan</tspan></text><text
         xml:space="preserve"
         style="font-style:normal;font-variant:normal;font-weight:normal;font-stretch:normal;font-size:8.46667px;line-height:125%;font-family:Bitwise;-inkscape-font-specification:'Bitwise, Normal';font-variant-ligatures:normal;font-variant-caps:normal;font-variant-numeric:normal;font-variant-east-asian:normal;letter-spacing:0px;word-spacing:0px;fill:#000000;fill-opacity:1;stroke:none;stroke-width:0.264583px;stroke-linecap:butt;stroke-linejoin:miter;stroke-opacity:1"
         x="455.67722"
         y="17.11042"
         id="text3915"><tspan
           sodipodi:role="line"
           id="tspan3913"
           style="font-style:normal;font-variant:normal;font-weight:normal;font-stretch:normal;font-size:8.46667px;font-family:Bitwise;-inkscape-font-specification:'Bitwise, Normal';font-variant-ligatures:normal;font-variant-caps:normal;font-variant-numeric:normal;font-variant-east-asian:normal;fill:#000000;fill-opacity:1;stroke:none;stroke-width:0.264583px"
           x="455.67722"
           y="17.11042">Light</tspan></text></g><text
       xml:space="preserve"
       style="font-style:normal;font-variant:normal;font-weight:normal;font-stretch:normal;font-size:10.5833px;line-height:125%;font-family:Bitwise;-inkscape-font-specification:'Bitwise, Normal';font-variant-ligatures:normal;font-variant-caps:normal;font-variant-numeric:normal;font-variant-east-asian:normal;letter-spacing:0px;word-spacing:0px;fill:#000000;fill-opacity:1;stroke:none;stroke-width:0.264583px;stroke-linecap:butt;stroke-linejoin:miter;stroke-opacity:1"
       x="363.97745"
       y="44.31683"
       id="text3919"><tspan
         sodipodi:role="line"
         id="tspan3917"
         style="font-style:normal;font-variant:normal;font-weight:normal;font-stretch:normal;font-size:10.5833px;font-family:Bitwise;-inkscape-font-specification:'Bitwise, Normal';font-variant-ligatures:normal;font-variant-caps:normal;font-variant-numeric:normal;font-variant-east-asian:normal;fill:#000000;fill-opacity:1;stroke:none;stroke-width:0.264583px"
         x="363.97745"
         y="44.31683">E-STOP</tspan></text><text
       xml:space="preserve"
       style="font-style:normal;font-variant:normal;font-weight:normal;font-stretch:normal;font-size:10.5833px;line-height:125%;font-family:Bitwise;-inkscape-font-specification:'Bitwise, Normal';font-variant-ligatures:normal;font-variant-caps:normal;font-variant-numeric:normal;font-variant-east-asian:normal;letter-spacing:0px;word-spacing:0px;fill:#000000;fill-opacity:1;stroke:none;stroke-width:0.264583px;stroke-linecap:butt;stroke-linejoin:miter;stroke-opacity:1"
       x="448.03229"
       y="44.31683"
       id="text3973"><tspan
         sodipodi:role="line"
         id="tspan3971"
         style="font-style:normal;font-variant:normal;font-weight:normal;font-stretch:normal;font-size:10.5833px;font-family:Bitwise;-inkscape-font-specification:'Bitwise, Normal';font-variant-ligatures:normal;font-variant-caps:normal;font-variant-numeric:normal;font-variant-east-asian:normal;fill:#000000;fill-opacity:1;stroke:none;stroke-width:0.264583px"
         x="448.03229"
         y="44.31683">FIRE</tspan></text><path
       style="fill:none;fill-opacity:1;stroke:#000000;stroke-width:0.2;stroke-linejoin:bevel;stroke-dasharray:2.4, 2.4;stroke-dashoffset:2;stroke-opacity:1;stop-color:#000000"
       id="path5094"
       sodipodi:type="arc"
       sodipodi:cx="383.5007"
       sodipodi:cy="70.507141"
       sodipodi:rx="20"
       sodipodi:ry="20"
       sodipodi:start="0.00043633231"
       sodipodi:end="6.2831853"
       sodipodi:open="true"
       sodipodi:arc-type="arc"
       d="M 403.5007,70.515868 A 20,20 0 0 1 383.49416,90.50714 20,20 0 0 1 363.5007,70.502778 a 20,20 0 0 1 20.00218,-19.995637 20,20 0 0 1 19.99782,20" /><path
       style="fill:none;fill-opacity:1;stroke:#000000;stroke-width:0.2;stroke-linejoin:bevel;stroke-dasharray:2.4, 2.4;stroke-dashoffset:2;stroke-opacity:1;stop-color:#000000"
       id="path5094-1"
       sodipodi:type="arc"
       sodipodi:cx="458.60001"
       sodipodi:cy="70.507141"
       sodipodi:rx="20"
       sodipodi:ry="20"
       sodipodi:start="0.00043633231"
       sodipodi:end="6.2831853"
       sodipodi:open="true"
       sodipodi:arc-type="arc"
       d="m 478.6,70.515868 a 20,20 0 0 1 -20.00654,19.991272 20,20 0 0 1 -19.99345,-20.004362 20,20 0 0 1 20.00218,-19.995637 20,20 0 0 1 19.99782,20" /><path
       style="fill:#000000;stroke-width:0.999999"
       d="m 348.29888,48.291415 c -0.0663,-0.01607 -0.19092,-0.06329 -0.27685,-0.104926 -0.14488,-0.0702 -0.2976,-0.216758 -2.1011,-2.01633 -1.06967,-1.067346 -1.9792,-1.992538 -2.02117,-2.055982 -0.042,-0.06345 -0.10114,-0.177644 -0.13149,-0.253777 l -0.0552,-0.138424 -0.006,-2.812279 c -0.004,-1.863606 0.002,-2.855871 0.0175,-2.941504 0.0131,-0.07107 0.0606,-0.207087 0.10555,-0.302254 0.0797,-0.16878 0.13027,-0.221519 2.05882,-2.147443 2.14383,-2.140916 2.07043,-2.075197 2.40606,-2.154309 0.22235,-0.05241 5.58715,-0.05241 5.8095,0 0.33535,0.07905 0.26241,0.01371 2.4051,2.15441 1.75038,1.748748 1.98433,1.99076 2.04773,2.118267 0.14526,0.292137 0.13965,0.164714 0.14003,3.180833 1.7e-4,1.76392 -0.008,2.792525 -0.0231,2.872292 -0.0129,0.06835 -0.0601,0.202133 -0.10483,0.297299 -0.0795,0.168945 -0.12807,0.219667 -2.0587,2.148776 -1.93171,1.930199 -1.98129,1.977616 -2.15033,2.056816 -0.0952,0.04459 -0.22804,0.09246 -0.29528,0.106377 -0.18735,0.03878 -5.604,0.03142 -5.76601,-0.0078 z"
       id="path6026" /><path
       style="fill:#000000;stroke-width:1"
       d="m 464.78829,-19.89426 c -0.44243,-0.10446 -0.73102,-0.40264 -0.77235,-0.798 l -0.0115,-0.11052 h 0.9246 0.92459 l -0.0115,0.11052 c -0.0347,0.33231 -0.27244,0.62697 -0.60665,0.75202 -0.10432,0.039 -0.3636,0.0657 -0.44709,0.046 z m -1.59462,-1.58796 c -0.24409,-0.0862 -0.38628,-0.33514 -0.33143,-0.58023 0.0298,-0.13318 0.1348,-0.26951 0.25639,-0.33292 l 0.0938,-0.0489 h 1.71656 1.71655 l 0.0938,0.0489 c 0.1216,0.0634 0.22659,0.19974 0.25639,0.33292 0.0559,0.24988 -0.0965,0.50889 -0.3429,0.58272 -0.0935,0.028 -3.37951,0.0256 -3.45916,-0.002 z m -0.0573,-1.63507 c -0.37367,-0.174 -0.38036,-0.70701 -0.0112,-0.88832 l 0.106,-0.0521 h 1.6978 1.69779 l 0.106,0.0521 c 0.15563,0.0764 0.2549,0.22097 0.27314,0.39773 0.0204,0.19758 -0.0996,0.40457 -0.28429,0.49059 l -0.0949,0.0442 h -1.69779 -1.6978 z m 0.20562,-1.70894 c -0.13951,-0.0307 -0.2914,-0.0933 -0.3936,-0.16215 -0.12639,-0.0851 -0.28368,-0.27036 -0.35322,-0.41597 -0.0967,-0.2024 -0.12286,-0.32799 -0.14221,-0.68174 -0.0214,-0.39059 -0.0509,-0.54067 -0.14633,-0.74298 -0.0963,-0.20416 -0.19062,-0.33935 -0.56651,-0.81179 -0.33065,-0.41559 -0.44682,-0.57926 -0.58731,-0.82746 -0.25519,-0.45082 -0.44077,-1.01529 -0.51004,-1.55135 -0.0371,-0.28703 -0.0369,-0.81076 3.6e-4,-1.09555 0.16549,-1.26406 0.85275,-2.36465 1.91269,-3.06304 1.07407,-0.70769 2.41384,-0.89747 3.64885,-0.51687 0.93326,0.28761 1.76993,0.90839 2.30432,1.70973 0.49273,0.73886 0.73518,1.5452 0.73468,2.44339 -3.6e-4,0.65482 -0.14897,1.286 -0.44211,1.87784 -0.17073,0.34471 -0.31995,0.5681 -0.68355,1.02331 -0.36276,0.45417 -0.46952,0.60599 -0.5626,0.8001 -0.0989,0.20629 -0.1281,0.3523 -0.14944,0.74761 -0.0207,0.38449 -0.0574,0.54094 -0.17518,0.74823 -0.0927,0.16317 -0.27952,0.34563 -0.42835,0.41843 -0.24764,0.12114 -0.17607,0.11642 -1.83594,0.12115 -1.20733,0.003 -1.53312,-7.5e-4 -1.62454,-0.0209 z"
       id="path6453"
       sodipodi:nodetypes="scccccssscsscccssscccsccccsscccccssssssscssssssscssccc" /></g></svg>
