<?xml version="1.0" encoding="UTF-8" standalone="no"?>
<!-- Created with Inkscape (http://www.inkscape.org/) -->

<svg
   xml:space="preserve"
   width="8in"
   height="8in"
   viewBox="0 0 203.2 203.2"
   version="1.1"
   id="svg43966"
   inkscape:version="1.2.2 (b0a8486541, 2022-12-01)"
   sodipodi:docname="panel.svg"
   inkscape:export-filename="panel.png"
   inkscape:export-xdpi="96"
   inkscape:export-ydpi="96"
   xmlns:inkscape="http://www.inkscape.org/namespaces/inkscape"
   xmlns:sodipodi="http://sodipodi.sourceforge.net/DTD/sodipodi-0.dtd"
   xmlns="http://www.w3.org/2000/svg"
   xmlns:svg="http://www.w3.org/2000/svg"><sodipodi:namedview
     id="namedview43968"
     pagecolor="#ffffff"
     bordercolor="#000000"
     borderopacity="0.25"
     inkscape:showpageshadow="2"
     inkscape:pageopacity="0.0"
     inkscape:pagecheckerboard="0"
     inkscape:deskcolor="#d1d1d1"
     inkscape:document-units="mm"
     showgrid="false"
     inkscape:zoom="0.70710678"
     inkscape:cx="299.10617"
     inkscape:cy="439.82042"
     inkscape:window-width="1920"
     inkscape:window-height="1019"
     inkscape:window-x="0"
     inkscape:window-y="0"
     inkscape:window-maximized="1"
     inkscape:current-layer="layer1" /><defs
     id="defs43963"><rect
       x="67.096764"
       y="211.56648"
       width="142.78036"
       height="156.61008"
       id="rect44870" /></defs><g
     inkscape:label="Layer 1"
     inkscape:groupmode="layer"
     id="layer1"
     transform="translate(-266.842,40.9934)"><path
       id="rect7800"
       style="fill:#000000;fill-opacity:1;stroke:none;stroke-width:0.1;stroke-dasharray:none;stroke-opacity:1"
       d="m 266.89213,-40.943274 v 67.633081 h 203.09974 v -67.633081 z m 11.37966,9.525 a 1.855,1.855 0 0 1 1.85519,1.854667 1.855,1.855 0 0 1 -1.85519,1.855184 1.855,1.855 0 0 1 -1.85466,-1.855184 1.855,1.855 0 0 1 1.85466,-1.854667 z m 184.15,0 a 1.855,1.855 0 0 1 1.85519,1.854667 1.855,1.855 0 0 1 -1.85519,1.855184 1.855,1.855 0 0 1 -1.85466,-1.855184 1.855,1.855 0 0 1 1.85466,-1.854667 z m -174.88183,12.2561 a 14.867708,14.867708 0 0 1 12.95012,7.580415 V 2.9915121 A 14.867708,14.867708 0 0 1 287.53996,10.573478 14.867708,14.867708 0 0 1 274.59036,2.9920289 V -11.580725 a 14.867708,14.867708 0 0 1 12.9496,-7.581449 z m 29.176,4.000272 h 3.73517 v 0.66921 a 10.367708,10.367709 0 0 1 8.33076,8.3307577 h 0.66921 v 3.7351725 h -0.67645 a 10.367708,10.367709 0 0 1 -8.32352,8.3235229 v 0.6764445 h -3.73517 V 5.8967611 a 10.367708,10.367709 0 0 1 -8.32352,-8.3235229 h -0.67645 v -3.7351725 h 0.67645 a 10.367708,10.367709 0 0 1 8.32352,-8.3235227 z m 34.08784,0 h 3.73517 v 0.66921 a 10.367708,10.367709 0 0 1 8.33076,8.3307577 h 0.66921 v 3.7351725 h -0.67644 a 10.367708,10.367709 0 0 1 -8.32353,8.3235229 V 6.5732056 H 350.8038 V 5.8967611 a 10.367708,10.367709 0 0 1 -8.32352,-8.3235229 h -0.67645 v -3.7351725 h 0.67645 a 10.367708,10.367709 0 0 1 8.32352,-8.3235227 z m 31.30145,0 h 3.73517 v 0.66921 a 10.367708,10.367709 0 0 1 8.33076,8.3307577 h 0.66921 v 3.7351725 h -0.67645 a 10.367708,10.367709 0 0 1 -8.32352,8.3235229 v 0.6764445 h -3.73517 V 5.8967611 a 10.367708,10.367709 0 0 1 -8.32352,-8.3235229 h -0.67645 v -3.7351725 h 0.67645 a 10.367708,10.367709 0 0 1 8.32352,-8.3235227 z m 31.30093,0 h 3.73517 v 0.66921 a 10.367708,10.367709 0 0 1 8.33076,8.3307577 h 0.66921 v 3.7351725 h -0.67644 a 10.367708,10.367709 0 0 1 -8.32353,8.3235229 v 0.6764445 h -3.73517 V 5.8967611 a 10.367708,10.367709 0 0 1 -8.32352,-8.3235229 h -0.67645 v -3.7351725 h 0.67645 a 10.367708,10.367709 0 0 1 8.32352,-8.3235227 z m 31.30145,0 h 3.73517 v 0.66921 a 10.367708,10.367709 0 0 1 8.33076,8.3307577 h 0.66921 v 3.7351725 h -0.67645 a 10.367708,10.367709 0 0 1 -8.32352,8.3235229 v 0.6764445 h -3.73517 V 5.8967611 a 10.367708,10.367709 0 0 1 -8.32352,-8.3235229 h -0.67645 v -3.7351725 h 0.67645 a 10.367708,10.367709 0 0 1 8.32352,-8.3235227 z M 278.27179,17.265059 a 1.855,1.855 0 0 1 1.85519,1.854668 1.855,1.855 0 0 1 -1.85519,1.855184 1.855,1.855 0 0 1 -1.85466,-1.855184 1.855,1.855 0 0 1 1.85466,-1.854668 z m 184.15,0 a 1.855,1.855 0 0 1 1.85519,1.854668 1.855,1.855 0 0 1 -1.85519,1.855184 1.855,1.855 0 0 1 -1.85466,-1.855184 1.855,1.855 0 0 1 1.85466,-1.854668 z" /><g
       id="g7358"
       transform="translate(0.851415)"
       style="fill:#ffffff;fill-opacity:1;stroke:#000000;stroke-width:0.0001;stroke-dasharray:none;stroke-opacity:1"><path
         d="m 406.24508,12.238141 q 0,-0.06752 0.0289,-0.135048 0.0386,-0.06752 0.0868,-0.115755 0.0579,-0.05788 0.1254,-0.08682 0.0675,-0.02894 0.13505,-0.02894 h 3.84886 q 0.0289,0 0.0675,0.0096 0.0482,0.0096 0.0868,0.02894 0.0386,0.0096 0.0579,0.03858 0.0289,0.02894 0.0289,0.06752 v 0.424436 q 0,0.03858 -0.0193,0.07717 -0.0193,0.03859 -0.0579,0.06752 -0.0289,0.02894 -0.0772,0.04823 -0.0386,0.01929 -0.0772,0.01929 h -3.27009 q -0.0289,0 -0.0579,0.0096 -0.0193,0.0096 -0.0386,0.03858 -0.0193,0.01929 -0.0386,0.04823 -0.01,0.01929 -0.01,0.04823 v 2.045009 q 0,0.02894 0.01,0.05788 0.0193,0.02894 0.0386,0.05788 0.0289,0.01929 0.0579,0.03858 0.0289,0.0096 0.0579,0.0096 h 3.25079 q 0.0386,0 0.0772,0.01929 0.0386,0.0096 0.0675,0.02894 0.0289,0.01929 0.0482,0.04823 0.0289,0.02894 0.0289,0.06752 v 0.366558 q 0,0.03858 -0.0193,0.08682 -0.0193,0.03858 -0.0579,0.07717 -0.0289,0.02894 -0.0675,0.05788 -0.0386,0.01929 -0.0772,0.01929 h -2.75883 q -0.0289,0 -0.0675,0.01929 -0.0289,0.0096 -0.0579,0.03858 -0.0193,0.01929 -0.0386,0.05788 -0.01,0.02894 -0.01,0.05788 v 2.594846 q 0,0.04823 -0.0289,0.106109 -0.0193,0.04823 -0.0579,0.09646 -0.0289,0.04823 -0.0772,0.07717 -0.0482,0.02894 -0.0965,0.02894 h -0.66559 q -0.0579,0 -0.1254,-0.01929 -0.0675,-0.02894 -0.1254,-0.06752 -0.0579,-0.03859 -0.0965,-0.08682 -0.0289,-0.05788 -0.0289,-0.125401 z"
         id="path7316"
         style="font-size:9.87778px;line-height:125%;font-family:Bitwise;-inkscape-font-specification:'Bitwise, Normal';letter-spacing:0px;word-spacing:0px;fill:#ffffff;fill-opacity:1;stroke:#000000;stroke-width:0.0001;stroke-dasharray:none;stroke-opacity:1" /><path
         d="m 412.0394,15.980894 q 0,-0.07717 0.0386,-0.144694 0.0386,-0.06752 0.0965,-0.115755 0.0675,-0.05788 0.13505,-0.08682 0.0772,-0.02894 0.14469,-0.02894 h 2.91318 q 0.0386,0 0.0675,-0.02894 0.0289,-0.02894 0.0289,-0.06752 v -0.56913 q 0,-0.03858 -0.0482,-0.06752 -0.0482,-0.03858 -0.0868,-0.03858 h -3.09645 q -0.0289,0 -0.0675,-0.0096 -0.0289,-0.0096 -0.0579,-0.02894 -0.0289,-0.02894 -0.0482,-0.04823 -0.0193,-0.02894 -0.0193,-0.05788 V 14.23497 q 0,-0.02894 0.0193,-0.05788 0.0193,-0.03858 0.0482,-0.05788 0.0289,-0.02894 0.0675,-0.04823 0.0386,-0.01929 0.0675,-0.01929 h 3.66558 q 0.0579,0 0.11575,0.03858 0.0675,0.02894 0.11576,0.08682 0.0579,0.04823 0.0868,0.115756 0.0289,0.05788 0.0289,0.115755 v 3.434072 q 0,0.03858 0.01,0.07717 0.0193,0.02894 0.0386,0.05788 0.0193,0.02894 0.0386,0.04823 0.0289,0.0096 0.0675,0.0096 h 0.24116 q 0.0289,0 0.0579,0.01929 0.0386,0.0096 0.0675,0.03858 0.0289,0.01929 0.0482,0.04823 0.0193,0.02894 0.0193,0.05788 v 0.463021 q 0,0.03859 -0.0289,0.07717 -0.0193,0.02894 -0.0579,0.05788 -0.0386,0.02894 -0.0868,0.04823 -0.0386,0.0096 -0.0772,0.0096 h -4.1286 q -0.0675,0 -0.14469,-0.02894 -0.0772,-0.03859 -0.1447,-0.08682 -0.0579,-0.05788 -0.0965,-0.125402 -0.0386,-0.07717 -0.0386,-0.144694 z m 1.55305,0.414789 q -0.0579,0 -0.10611,0.04823 -0.0386,0.03859 -0.0386,0.09646 v 1.321539 q 0,0.05788 0.0386,0.106109 0.0482,0.03858 0.10611,0.03858 h 1.71704 q 0.0579,0 0.0965,-0.03858 0.0482,-0.04823 0.0482,-0.106109 v -1.321539 q 0,-0.05788 -0.0482,-0.09646 -0.0386,-0.04823 -0.0965,-0.04823 z"
         id="path7318"
         style="font-size:9.87778px;line-height:125%;font-family:Bitwise;-inkscape-font-specification:'Bitwise, Normal';letter-spacing:0px;word-spacing:0px;fill:#ffffff;fill-opacity:1;stroke:#000000;stroke-width:0.0001;stroke-dasharray:none;stroke-opacity:1" /><path
         d="m 418.17262,14.360321 q 0,-0.163987 0.0675,-0.231511 0.0772,-0.07717 0.27974,-0.07717 h 3.64629 q 0.10611,0 0.18328,0.01929 0.0772,0.0096 0.1254,0.04823 0.0579,0.02894 0.0772,0.09646 0.0289,0.05788 0.0386,0.144695 l 0.01,4.331175 q 0,0.05788 -0.0193,0.09646 -0.01,0.02894 -0.0193,0.04823 -0.01,0.0096 -0.0289,0.01929 -0.01,0 -0.0193,0 h -0.61736 q -0.0193,0 -0.0482,-0.0096 -0.0289,-0.0096 -0.0579,-0.02894 -0.0193,-0.02894 -0.0386,-0.04823 -0.01,-0.02894 -0.01,-0.05788 v -3.72346 q 0,-0.05788 -0.01,-0.08682 0,-0.03859 -0.0193,-0.04823 -0.01,-0.01929 -0.0386,-0.01929 -0.0193,-0.0096 -0.0579,-0.0096 h -2.41157 q -0.0579,0 -0.0868,0.0096 -0.0193,0 -0.0386,0.01929 -0.01,0.0096 -0.01,0.03858 0,0.02894 0,0.06752 v 1.070736 q 0,0.05788 0.0193,0.125402 0.0193,0.05788 0.0579,0.115755 0.0386,0.05788 0.0772,0.115755 0.0482,0.04823 0.0965,0.106109 0.0482,0.04823 0.0868,0.106109 0.0482,0.04823 0.0772,0.106109 0.0386,0.05788 0.0579,0.115755 0.0289,0.05788 0.0289,0.125402 v 1.765267 q 0,0.02894 -0.0193,0.05788 -0.01,0.01929 -0.0386,0.04823 -0.0193,0.01929 -0.0482,0.02894 -0.0193,0.0096 -0.0482,0.0096 h -1.11897 q -0.0193,0 -0.0482,-0.0096 -0.0193,-0.0096 -0.0386,-0.02894 -0.0193,-0.01929 -0.0289,-0.03859 -0.01,-0.02894 -0.01,-0.05788 z"
         id="path7320"
         style="font-size:9.87778px;line-height:125%;font-family:Bitwise;-inkscape-font-specification:'Bitwise, Normal';letter-spacing:0px;word-spacing:0px;fill:#ffffff;fill-opacity:1;stroke:#000000;stroke-width:0.0001;stroke-dasharray:none;stroke-opacity:1" /></g><path
       style="fill:#ffffff;fill-opacity:1;stroke:#000000;stroke-width:0.0001;stroke-dasharray:none;stroke-opacity:1"
       d="m 414.26156,-21.016947 c -0.55315,-0.05576 -1.15016,-0.259851 -1.47704,-0.504923 -0.48251,-0.361745 -0.71313,-0.795717 -0.71183,-1.339501 9.7e-4,-0.40707 0.13534,-0.764698 0.41969,-1.11695 0.16757,-0.207591 0.33136,-0.344061 0.62289,-0.518978 0.27966,-0.167799 0.42583,-0.283052 0.62847,-0.495565 0.33739,-0.353811 0.59153,-0.841307 0.67079,-1.286704 l 0.021,-0.11804 -0.12479,-0.05713 c -0.20618,-0.0944 -0.49446,-0.299605 -0.66176,-0.471071 l -0.15756,-0.161484 -0.24005,0.116992 c -1.38256,0.673793 -2.77596,0.852755 -3.84512,0.493849 -0.59933,-0.201189 -1.09803,-0.614448 -1.35399,-1.12202 -0.19673,-0.390137 -0.27818,-0.781792 -0.27832,-1.338315 -3.4e-4,-1.386162 0.49743,-2.371617 1.35524,-2.683054 0.15038,-0.0546 0.19458,-0.05999 0.49186,-0.06004 0.29593,-4.5e-5 0.34358,0.0057 0.50685,0.06102 0.45156,0.153015 0.84193,0.489724 1.12634,0.971506 0.26219,0.444151 0.53894,0.731056 0.92359,0.957498 0.24517,0.144332 0.41377,0.216172 0.66561,0.283641 0.30666,0.08216 0.31828,0.08035 0.38367,-0.05939 0.11391,-0.243432 0.30435,-0.492318 0.53669,-0.701377 l 0.0954,-0.08581 -0.14567,-0.297142 c -0.43114,-0.879404 -0.64604,-1.745251 -0.64571,-2.601648 2.5e-4,-0.710414 0.15534,-1.311111 0.46132,-1.786932 0.1298,-0.201856 0.51692,-0.588899 0.6918,-0.691662 0.43128,-0.253429 0.8756,-0.362345 1.48236,-0.363364 0.63547,-0.0011 1.21287,0.111135 1.68518,0.32747 1.05152,0.481632 1.39142,1.568255 0.77926,2.491247 -0.19922,0.300388 -0.39008,0.463276 -0.95822,0.817805 -0.17412,0.108655 -0.47864,0.396879 -0.63063,0.596898 -0.20369,0.268047 -0.40903,0.753209 -0.45855,1.083438 -0.0148,0.09879 -0.0136,0.101403 0.0599,0.127968 0.1568,0.0567 0.45725,0.265012 0.65371,0.453235 l 0.2042,0.195636 0.23447,-0.120285 c 0.67521,-0.346381 1.46458,-0.584183 2.19037,-0.659861 0.31424,-0.03277 0.9063,-0.01575 1.17951,0.03389 1.04666,0.190182 1.78963,0.820665 2.03131,1.723754 0.0856,0.319935 0.11075,0.589481 0.0965,1.034796 -0.0201,0.628028 -0.12545,1.104088 -0.34198,1.545805 -0.26457,0.539712 -0.65669,0.879465 -1.16053,1.005542 -0.15739,0.03938 -0.23298,0.04568 -0.42802,0.03566 -0.59768,-0.0307 -1.14487,-0.368008 -1.48711,-0.916702 -0.26401,-0.423282 -0.33696,-0.521363 -0.52823,-0.710192 -0.23179,-0.228837 -0.44478,-0.379489 -0.71665,-0.506889 -0.19408,-0.09095 -0.49668,-0.186519 -0.66988,-0.211565 l -0.10137,-0.01466 -0.05,0.109171 c -0.0866,0.189197 -0.26857,0.447028 -0.44792,0.634752 l -0.17314,0.181208 0.12963,0.273999 c 0.16664,0.35223 0.31023,0.710191 0.39467,0.983909 0.43686,1.416021 0.32968,2.722517 -0.292,3.559405 -0.28096,0.378199 -0.73265,0.687963 -1.19952,0.822604 -0.33354,0.09619 -0.93529,0.129092 -1.43663,0.07855 z"
       id="path2037" /><g
       id="g7365"
       transform="translate(0.7526)"
       style="fill:#ffffff;fill-opacity:1;stroke:#000000;stroke-width:0.0001;stroke-dasharray:none;stroke-opacity:1"><path
         d="m 435.37503,11.881229 h 0.51125 q 0.0289,0 0.0579,0.01929 0.0289,0.0096 0.0579,0.03858 0.0289,0.01929 0.0386,0.04823 0.0193,0.02894 0.0193,0.05788 v 5.864932 q 0,0.02894 0.01,0.05788 0.0193,0.01929 0.0386,0.04823 0.0193,0.01929 0.0482,0.02894 0.0289,0.0096 0.0482,0.0096 h 3.31831 q 0.0386,0 0.0772,0.01929 0.0386,0.01929 0.0675,0.04823 0.0289,0.02894 0.0482,0.06752 0.0289,0.03859 0.0289,0.07717 v 0.424436 q 0,0.02894 -0.0193,0.05788 -0.01,0.02894 -0.0386,0.05788 -0.0193,0.01929 -0.0482,0.03858 -0.0289,0.0096 -0.0579,0.0096 h -4.67844 q -0.0482,0 -0.0965,-0.0096 -0.0482,-0.01929 -0.0868,-0.04823 -0.0386,-0.02894 -0.0675,-0.06752 -0.0289,-0.03858 -0.0289,-0.08682 v -2.691309 q 0,-0.08682 0.0193,-0.173633 0.0289,-0.09646 0.0675,-0.183279 0.0386,-0.09646 0.0868,-0.183279 0.0579,-0.08682 0.10611,-0.173633 0.0579,-0.08682 0.10611,-0.163987 0.0579,-0.07717 0.0965,-0.144694 0.0386,-0.07717 0.0579,-0.144694 0.0289,-0.06752 0.0289,-0.115755 v -2.594846 q 0,-0.02894 0.0193,-0.05788 0.0193,-0.03859 0.0386,-0.06752 0.0289,-0.02894 0.0579,-0.04823 0.0289,-0.01929 0.0675,-0.01929 z"
         id="path7323"
         style="font-size:9.87778px;line-height:125%;font-family:Bitwise;-inkscape-font-specification:'Bitwise, Normal';letter-spacing:0px;word-spacing:0px;fill:#ffffff;fill-opacity:1;stroke:#000000;stroke-width:0.0001;stroke-dasharray:none;stroke-opacity:1" /><path
         d="m 441.01341,14.061286 h 0.56913 q 0.0289,0 0.0579,0.01929 0.0289,0.0096 0.0482,0.03858 0.0193,0.01929 0.0289,0.04823 0.0193,0.02894 0.0193,0.05788 v 1.360124 q 0,0.04823 0.0193,0.125401 0.0289,0.06752 0.0675,0.154341 0.0386,0.07717 0.0868,0.173632 0.0482,0.08682 0.0965,0.173633 0.0579,0.08682 0.10611,0.173633 0.0579,0.08682 0.0965,0.163987 0.0386,0.07717 0.0579,0.144694 0.0289,0.05788 0.0289,0.09646 v 1.842438 q 0,0.03859 -0.0193,0.07717 -0.0193,0.03858 -0.0482,0.07717 -0.0289,0.02894 -0.0675,0.04823 -0.0289,0.01929 -0.0675,0.01929 h -0.94533 q -0.0386,0 -0.0965,-0.0096 -0.0482,-0.01929 -0.0868,-0.04823 -0.0386,-0.03859 -0.0675,-0.07717 -0.0289,-0.03859 -0.0289,-0.08682 V 14.23495 q 0,-0.02894 0.01,-0.05788 0.01,-0.02894 0.0289,-0.05788 0.0289,-0.02894 0.0482,-0.03858 0.0289,-0.01929 0.0579,-0.01929 z m 0.27974,-0.655946 q -0.10611,0 -0.20257,-0.03859 -0.0965,-0.04823 -0.16399,-0.115755 -0.0675,-0.06752 -0.11575,-0.163987 -0.0386,-0.09646 -0.0386,-0.192925 0,-0.106109 0.0386,-0.202572 0.0482,-0.09646 0.11575,-0.163987 0.0675,-0.06752 0.16399,-0.106109 0.0965,-0.04823 0.20257,-0.04823 0.0965,0 0.19293,0.04823 0.0965,0.03859 0.16398,0.106109 0.0675,0.06752 0.10611,0.163987 0.0482,0.09646 0.0482,0.202572 0,0.09646 -0.0482,0.192925 -0.0386,0.09646 -0.10611,0.163987 -0.0675,0.06752 -0.16398,0.115755 -0.0965,0.03859 -0.19293,0.03859 z"
         id="path7325"
         style="font-size:9.87778px;line-height:125%;font-family:Bitwise;-inkscape-font-specification:'Bitwise, Normal';letter-spacing:0px;word-spacing:0px;fill:#ffffff;fill-opacity:1;stroke:#000000;stroke-width:0.0001;stroke-dasharray:none;stroke-opacity:1" /><path
         d="m 443.32363,14.369967 q 0,-0.05788 0.0289,-0.115755 0.0386,-0.05788 0.0868,-0.09646 0.0579,-0.04823 0.1254,-0.06752 0.0675,-0.02894 0.12541,-0.02894 h 4.10931 q 0.0289,0 0.0579,0.01929 0.0289,0.0096 0.0482,0.03858 0.0193,0.02894 0.0289,0.05788 0.01,0.02894 0.01,0.05788 v 0.424436 q 0,0.02894 -0.01,0.05788 -0.01,0.02894 -0.0289,0.05788 -0.01,0.01929 -0.0386,0.03858 -0.0193,0.0096 -0.0386,0.0096 h -0.57878 v 2.440507 q 0,0.03859 -0.0193,0.07717 -0.01,0.03859 -0.0482,0.07717 -0.0289,0.02894 -0.0675,0.04823 -0.0289,0.01929 -0.0675,0.01929 h -2.16077 v 0.762055 h 2.29582 q 0.0482,0 0.0965,0.02894 0.0579,0.01929 0.0965,0.06752 0.0386,0.03859 0.0579,0.09646 0.0289,0.04823 0.0289,0.09646 v 2.160765 q 0,0.04823 -0.0193,0.106109 -0.0193,0.05788 -0.0579,0.09646 -0.0386,0.04823 -0.0965,0.07717 -0.0482,0.02894 -0.0965,0.02894 h -3.54983 q -0.0482,0 -0.1061,-0.01929 -0.0579,-0.01929 -0.10611,-0.05788 -0.0482,-0.03859 -0.0772,-0.08682 -0.0289,-0.04823 -0.0289,-0.09646 v -2.218642 q 0,-0.05788 0.0289,-0.106109 0.0386,-0.04823 0.0868,-0.08682 0.0482,-0.03859 0.10611,-0.05788 0.0675,-0.02894 0.1254,-0.02894 h 0.3955 v -0.762055 h -0.43408 q -0.0482,0 -0.10611,-0.0096 -0.0482,-0.01929 -0.0965,-0.04823 -0.0482,-0.03859 -0.0772,-0.07717 -0.0289,-0.03858 -0.0289,-0.08682 z m 1.03215,0.463021 q -0.0579,0 -0.0965,0.03858 -0.0289,0.03858 -0.0289,0.08682 v 1.620574 q 0,0.04823 0.0289,0.08682 0.0386,0.03859 0.0965,0.03859 h 1.90996 q 0.0482,0 0.0772,-0.03859 0.0386,-0.03859 0.0386,-0.08682 v -1.620574 q 0,-0.04823 -0.0386,-0.08682 -0.0289,-0.03858 -0.0772,-0.03858 z m 0.48231,4.109311 q -0.0386,0 -0.0772,0.01929 -0.0289,0.02894 -0.0289,0.06752 v 1.167199 q 0,0.03858 0.0289,0.05788 0.0386,0.02894 0.0772,0.02894 h 1.65916 q 0.0482,0 0.0772,-0.02894 0.0386,-0.01929 0.0386,-0.05788 v -1.167199 q 0,-0.03859 -0.0386,-0.06752 -0.0289,-0.01929 -0.0772,-0.01929 z"
         id="path7327"
         style="font-size:9.87778px;line-height:125%;font-family:Bitwise;-inkscape-font-specification:'Bitwise, Normal';letter-spacing:0px;word-spacing:0px;fill:#ffffff;fill-opacity:1;stroke:#000000;stroke-width:0.0001;stroke-dasharray:none;stroke-opacity:1" /><path
         d="m 448.9716,18.633618 v -6.540171 q 0,-0.03858 0.01,-0.07717 0.0193,-0.03859 0.0386,-0.06752 0.0289,-0.02894 0.0579,-0.04823 0.0386,-0.01929 0.0772,-0.01929 h 0.47267 q 0.0386,0 0.0675,0.01929 0.0289,0.01929 0.0482,0.05788 0.0289,0.02894 0.0386,0.06752 0.0193,0.02894 0.0193,0.06752 v 1.794206 q 0,0.02894 0.01,0.06752 0.0193,0.02894 0.0482,0.05788 0.0289,0.01929 0.0579,0.03859 0.0386,0.0096 0.0675,0.0096 h 2.88424 q 0.0772,0 0.15434,0.03858 0.0772,0.03858 0.13504,0.106109 0.0675,0.05788 0.10611,0.135048 0.0386,0.07717 0.0386,0.15434 v 4.167189 q 0,0.03859 -0.0193,0.07717 -0.0193,0.02894 -0.0579,0.05788 -0.0289,0.02894 -0.0675,0.04823 -0.0386,0.0096 -0.0675,0.0096 h -0.47267 q -0.0386,0 -0.0772,-0.0096 -0.0386,-0.01929 -0.0772,-0.04823 -0.0289,-0.02894 -0.0482,-0.05788 -0.0193,-0.03858 -0.0193,-0.07717 v -3.655936 q 0,-0.02894 -0.0193,-0.04823 -0.01,-0.02894 -0.0386,-0.04823 -0.0193,-0.01929 -0.0482,-0.02894 -0.0193,-0.0096 -0.0482,-0.0096 h -1.70739 q -0.0289,0 -0.0675,0.01929 -0.0289,0.0096 -0.0579,0.03858 -0.0193,0.01929 -0.0386,0.05788 -0.01,0.02894 -0.01,0.05788 v 3.588412 q 0,0.03859 -0.0193,0.08682 -0.0193,0.03858 -0.0579,0.06752 -0.0289,0.02894 -0.0675,0.04823 -0.0386,0.01929 -0.0772,0.01929 h -0.94533 q -0.0386,0 -0.0772,-0.01929 -0.0386,-0.01929 -0.0772,-0.04823 -0.0289,-0.02894 -0.0482,-0.06752 -0.0193,-0.04823 -0.0193,-0.08682 z"
         id="path7329"
         style="font-size:9.87778px;line-height:125%;font-family:Bitwise;-inkscape-font-specification:'Bitwise, Normal';letter-spacing:0px;word-spacing:0px;fill:#ffffff;fill-opacity:1;stroke:#000000;stroke-width:0.0001;stroke-dasharray:none;stroke-opacity:1" /><path
         d="m 455.07345,12.633638 h 0.48232 q 0.0868,0 0.14469,0.05788 0.0579,0.05788 0.0579,0.135048 v 1.234722 h 1.05144 q 0.0386,0 0.0772,0.02894 0.0386,0.01929 0.0675,0.05788 0.0289,0.02894 0.0482,0.06752 0.0193,0.03859 0.0193,0.07717 v 1.012858 q 0,0.02894 -0.0193,0.06752 -0.01,0.02894 -0.0386,0.05788 -0.0193,0.01929 -0.0482,0.03859 -0.0289,0.01929 -0.0579,0.01929 h -1.09967 v 2.459799 q 0,0.01929 0.01,0.04823 0.01,0.02894 0.0289,0.05788 0.0289,0.01929 0.0482,0.03858 0.0289,0.0096 0.0579,0.0096 h 0.5209 q 0.0289,0 0.0579,0.01929 0.0289,0.0096 0.0482,0.03859 0.0289,0.01929 0.0386,0.05788 0.0193,0.02894 0.0193,0.05788 v 0.376204 q 0,0.08682 -0.0482,0.144694 -0.0482,0.05788 -0.12541,0.05788 h -1.34083 q -0.0772,0 -0.13504,-0.05788 -0.0579,-0.05788 -0.0579,-0.135047 V 14.85228 h -0.3955 q -0.0289,0 -0.0579,-0.0096 -0.0193,-0.0096 -0.0482,-0.02894 -0.0193,-0.02894 -0.0386,-0.04823 -0.01,-0.02894 -0.01,-0.05788 v -0.511252 q 0,-0.01929 0.01,-0.03858 0.01,-0.02894 0.0193,-0.04823 0.0193,-0.01929 0.0386,-0.02894 0.0289,-0.01929 0.0482,-0.01929 h 0.43408 v -1.234722 q 0,-0.07717 0.0579,-0.135048 0.0579,-0.05788 0.13504,-0.05788 z"
         id="path7331"
         style="font-size:9.87778px;line-height:125%;font-family:Bitwise;-inkscape-font-specification:'Bitwise, Normal';letter-spacing:0px;word-spacing:0px;fill:#ffffff;fill-opacity:1;stroke:#000000;stroke-width:0.0001;stroke-dasharray:none;stroke-opacity:1" /></g><path
       style="fill:#ffff00;fill-opacity:1;stroke:#000000;stroke-width:0.001;stroke-opacity:1;stroke-dasharray:none"
       d="m 446.43415,-21.000138 c -0.44243,-0.10446 -0.73102,-0.40264 -0.77235,-0.798 l -0.0115,-0.11052 h 0.9246 0.92459 l -0.0115,0.11052 c -0.0347,0.33231 -0.27244,0.62697 -0.60665,0.75202 -0.10432,0.039 -0.3636,0.0657 -0.44709,0.046 z m -1.59462,-1.58796 c -0.24409,-0.0862 -0.38628,-0.33514 -0.33143,-0.58023 0.0298,-0.13318 0.1348,-0.26951 0.25639,-0.33292 l 0.0938,-0.0489 h 1.71656 1.71655 l 0.0938,0.0489 c 0.1216,0.0634 0.22659,0.19974 0.25639,0.33292 0.0559,0.24988 -0.0965,0.50889 -0.34291,0.58272 -0.0935,0.028 -3.37951,0.0256 -3.45916,-0.002 z m -0.0573,-1.63507 c -0.37367,-0.174 -0.38036,-0.70701 -0.0112,-0.88832 l 0.106,-0.0521 h 1.6978 1.69779 l 0.10601,0.0521 c 0.15563,0.0764 0.2549,0.22097 0.27314,0.39773 0.0204,0.19758 -0.0996,0.40457 -0.2843,0.49059 l -0.0949,0.0442 h -1.69779 -1.6978 z m 0.20562,-1.70894 c -0.13951,-0.0307 -0.2914,-0.0933 -0.3936,-0.16215 -0.12639,-0.0851 -0.28368,-0.27036 -0.35322,-0.41597 -0.0967,-0.2024 -0.12286,-0.32799 -0.14221,-0.68174 -0.0214,-0.39059 -0.0509,-0.54067 -0.14634,-0.74298 -0.0963,-0.20416 -0.19062,-0.33935 -0.56651,-0.81179 -0.33065,-0.41559 -0.44682,-0.57926 -0.58731,-0.82746 -0.25519,-0.45082 -0.44077,-1.01529 -0.51004,-1.55135 -0.0371,-0.28703 -0.0369,-0.81076 3.6e-4,-1.09555 0.16549,-1.26406 0.85275,-2.36465 1.9127,-3.06304 1.07407,-0.70769 2.41384,-0.89747 3.64885,-0.51687 0.93327,0.28761 1.76994,0.90839 2.30433,1.70973 0.49273,0.73886 0.73518,1.5452 0.73468,2.44339 -3.6e-4,0.65482 -0.14897,1.286 -0.44211,1.87784 -0.17073,0.34471 -0.31995,0.5681 -0.68355,1.02331 -0.36276,0.45417 -0.46952,0.60599 -0.5626,0.8001 -0.0989,0.20629 -0.1281,0.3523 -0.14944,0.74761 -0.0207,0.38449 -0.0574,0.54094 -0.17518,0.74823 -0.0927,0.16317 -0.27952,0.34563 -0.42835,0.41843 -0.24765,0.12114 -0.17608,0.11642 -1.83595,0.12115 -1.20733,0.003 -1.53312,-7.5e-4 -1.62454,-0.0209 z"
       id="path6453"
       sodipodi:nodetypes="scccccssscsscccssscccsccccsscccccssssssscssssssscssccc" /><g
       id="g7455"
       transform="translate(-0.53453)"
       style="fill:#ffffff;fill-opacity:1;stroke:#000000;stroke-width:0.0001;stroke-dasharray:none;stroke-opacity:1"><path
         d="m 304.4965,12.247787 q 0,-0.06752 0.0289,-0.135047 0.0386,-0.06752 0.0868,-0.115756 0.0579,-0.05788 0.12541,-0.08682 0.0675,-0.03859 0.13504,-0.03859 h 5.12217 q 0.0675,0 0.13505,0.02894 0.0675,0.02894 0.11575,0.07717 0.0579,0.04823 0.0868,0.115755 0.0386,0.06752 0.0386,0.125402 v 3.183269 q 0,0.06752 -0.0386,0.144694 -0.0289,0.06752 -0.0868,0.125401 -0.0482,0.04823 -0.11575,0.08682 -0.0675,0.02894 -0.13505,0.02894 h -3.91638 q -0.0289,0 -0.0675,0.01929 -0.0289,0.0096 -0.0579,0.03858 -0.0193,0.02894 -0.0386,0.05788 -0.01,0.02894 -0.01,0.05788 v 2.5852 q 0,0.04823 -0.0289,0.106109 -0.0193,0.04823 -0.0579,0.09646 -0.0289,0.04823 -0.0772,0.07717 -0.0386,0.02894 -0.0868,0.02894 h -0.84887 q -0.0579,0 -0.11576,-0.02894 -0.0579,-0.03859 -0.10611,-0.08682 -0.0386,-0.04823 -0.0675,-0.106109 -0.0193,-0.05788 -0.0193,-0.115755 z m 1.05144,0.41479 q -0.0193,0 -0.0482,0.01929 -0.0289,0.0096 -0.0482,0.02894 -0.0193,0.0096 -0.0386,0.03859 -0.01,0.01929 -0.01,0.04823 v 2.131825 q 0,0.04823 0.0386,0.07717 0.0482,0.02894 0.0965,0.02894 h 3.86815 q 0.0386,0 0.0772,-0.03858 0.0386,-0.03858 0.0386,-0.07717 v -2.122179 q 0,-0.02894 -0.01,-0.04823 -0.01,-0.01929 -0.0289,-0.03859 -0.0193,-0.01929 -0.0482,-0.02894 -0.0193,-0.01929 -0.0482,-0.01929 z"
         id="path7276"
         style="font-size:9.87778px;line-height:125%;font-family:Bitwise;-inkscape-font-specification:'Bitwise, Normal';letter-spacing:0px;word-spacing:0px;fill:#ffffff;fill-opacity:1;stroke:#000000;stroke-width:0.0001;stroke-dasharray:none;stroke-opacity:1" /><path
         d="m 311.94433,14.05164 h 3.79099 q 0.0579,0 0.0965,0.01929 0.0482,0.01929 0.0868,0.05788 0.0386,0.03859 0.0579,0.08682 0.0193,0.03859 0.0193,0.09646 v 4.282944 q 0,0.05788 -0.0193,0.106109 -0.0193,0.03858 -0.0579,0.07717 -0.0386,0.02894 -0.0868,0.05788 -0.0386,0.01929 -0.0965,0.01929 h -3.79099 q -0.0482,0 -0.0965,-0.01929 -0.0482,-0.02894 -0.0868,-0.05788 -0.0289,-0.03859 -0.0482,-0.07717 -0.0193,-0.04823 -0.0193,-0.106109 V 14.31209 q 0,-0.05788 0.0193,-0.09646 0.0193,-0.04823 0.0482,-0.08682 0.0386,-0.03858 0.0868,-0.05788 0.0482,-0.01929 0.0965,-0.01929 z m 0.68489,0.781348 q -0.0482,0 -0.0772,0.02894 -0.0289,0.02894 -0.0289,0.06752 v 3.038575 q 0,0.03858 0.0289,0.06752 0.0289,0.02894 0.0772,0.02894 h 1.86173 q 0.0386,0 0.0675,-0.02894 0.0386,-0.02894 0.0386,-0.06752 l -0.01,-1.041797 q 0,-0.115755 0.0193,-0.221864 0.0289,-0.115755 0.0675,-0.212218 0.0386,-0.106109 0.0868,-0.202572 0.0579,-0.106109 0.10611,-0.192925 0.0579,-0.08682 0.10611,-0.163987 0.0579,-0.07717 0.0965,-0.144694 0.0386,-0.06752 0.0579,-0.125401 0.0289,-0.05788 0.0289,-0.106109 V 14.92945 q 0,-0.03858 -0.0289,-0.06752 -0.0289,-0.02894 -0.0675,-0.02894 z"
         id="path7278"
         style="font-size:9.87778px;line-height:125%;font-family:Bitwise;-inkscape-font-specification:'Bitwise, Normal';letter-spacing:0px;word-spacing:0px;fill:#ffffff;fill-opacity:1;stroke:#000000;stroke-width:0.0001;stroke-dasharray:none;stroke-opacity:1" /><path
         d="m 317.31834,14.225273 q 0,-0.02894 0.01,-0.05788 0.0193,-0.02894 0.0386,-0.04823 0.0289,-0.02894 0.0579,-0.04823 0.0386,-0.01929 0.0675,-0.01929 h 0.52089 q 0.0289,0 0.0579,0.01929 0.0289,0.0096 0.0482,0.02894 0.0289,0.01929 0.0482,0.04823 0.0193,0.02894 0.0193,0.05788 v 1.591635 q 0,0.02894 0.0193,0.08682 0.0289,0.04823 0.0675,0.125402 0.0386,0.06752 0.0868,0.15434 0.0482,0.08682 0.0965,0.183279 0.0579,0.09646 0.10611,0.192925 0.0482,0.08682 0.0868,0.173633 0.0482,0.08682 0.0675,0.163987 0.0289,0.06752 0.0289,0.125401 v 0.897103 q 0,0.04823 0.0386,0.08682 0.0386,0.03859 0.0868,0.03859 h 0.77171 q 0.0386,0 0.0772,-0.01929 0.0482,-0.01929 0.0482,-0.05788 v -3.762045 q 0,-0.01929 0,-0.03858 0.01,-0.01929 0.0193,-0.03859 0.0193,-0.02894 0.0386,-0.03859 0.0193,-0.0096 0.0386,-0.0096 h 0.6463 q 0.01,0 0.0193,0.01929 0.0193,0.0096 0.0289,0.02894 0.01,0.01929 0.0193,0.04823 0.01,0.01929 0.01,0.02894 v 3.713813 q 0,0.02894 0.01,0.04823 0.01,0.01929 0.0289,0.03858 0.0193,0.01929 0.0386,0.02894 0.0289,0.0096 0.0579,0.0096 h 1.42765 q 0.0289,0 0.0482,-0.01929 0.0289,-0.02894 0.0289,-0.05788 v -3.771692 q 0,-0.01929 0.01,-0.03858 0.0193,-0.02894 0.0386,-0.04823 0.0289,-0.01929 0.0482,-0.02894 0.0289,-0.01929 0.0579,-0.01929 h 0.53054 q 0.0386,0 0.0772,0.03858 0.0482,0.02894 0.0482,0.06752 v 4.360113 q 0,0.05788 -0.0289,0.115756 -0.0193,0.05788 -0.0579,0.115755 -0.0289,0.04823 -0.0772,0.08682 -0.0482,0.02894 -0.10611,0.02894 h -2.07395 q -0.0579,0 -0.1254,-0.0096 -0.0675,-0.01929 -0.1254,-0.03858 -0.0579,-0.02894 -0.10611,-0.07717 -0.0386,-0.04823 -0.0482,-0.125402 -0.0482,0.135048 -0.1447,0.192925 -0.0965,0.05788 -0.20257,0.05788 h -2.24758 q -0.0579,0 -0.1254,-0.02894 -0.0675,-0.03859 -0.1254,-0.08682 -0.0579,-0.04823 -0.0965,-0.106109 -0.0289,-0.05788 -0.0289,-0.125402 z"
         id="path7280"
         style="font-size:9.87778px;line-height:125%;font-family:Bitwise;-inkscape-font-specification:'Bitwise, Normal';letter-spacing:0px;word-spacing:0px;fill:#ffffff;fill-opacity:1;stroke:#000000;stroke-width:0.0001;stroke-dasharray:none;stroke-opacity:1" /><path
         d="m 324.36236,14.360321 q 0,-0.05788 0.0289,-0.115756 0.0386,-0.05788 0.0965,-0.09646 0.0579,-0.04823 0.11576,-0.06752 0.0675,-0.02894 0.13505,-0.02894 h 3.69452 q 0.0579,0 0.1254,0.02894 0.0675,0.02894 0.11575,0.07717 0.0579,0.03858 0.0965,0.106109 0.0386,0.05788 0.0386,0.125401 v 1.881023 q 0,0.04823 -0.0289,0.09646 -0.0289,0.03858 -0.0772,0.07717 -0.0386,0.03859 -0.0868,0.06752 -0.0482,0.01929 -0.0965,0.01929 h -2.65272 q -0.0482,0 -0.0868,0.03859 -0.0386,0.03858 -0.0386,0.08682 v 1.321539 q 0,0.02894 0.0193,0.06752 0.0289,0.02894 0.0675,0.02894 h 1.99678 q 0.0289,0 0.0579,-0.02894 0.0386,-0.03859 0.0386,-0.06752 v -0.482314 q 0,-0.03859 0.0386,-0.07717 0.0386,-0.03859 0.0772,-0.03859 h 0.62701 q 0.0289,0 0.0482,0.0096 0.0289,0.0096 0.0482,0.02894 0.0193,0.01929 0.0289,0.04823 0.0193,0.01929 0.0193,0.04823 v 1.061089 q 0,0.04823 -0.0289,0.09646 -0.0289,0.04823 -0.0675,0.09646 -0.0386,0.03859 -0.0868,0.06752 -0.0482,0.01929 -0.0965,0.01929 h -3.79098 q -0.0675,0 -0.13505,-0.02894 -0.0675,-0.02894 -0.1254,-0.06752 -0.0482,-0.04823 -0.0868,-0.106109 -0.0289,-0.06752 -0.0289,-0.125401 z m 1.46623,0.443728 q -0.0386,0 -0.0675,0.02894 -0.0193,0.02894 -0.0193,0.05788 v 0.800641 q 0,0.03858 0.0193,0.06752 0.0289,0.01929 0.0675,0.01929 h 1.98714 q 0.0289,0 0.0579,-0.01929 0.0289,-0.02894 0.0289,-0.06752 v -0.800641 q 0,-0.02894 -0.0289,-0.05788 -0.0289,-0.02894 -0.0579,-0.02894 z"
         id="path7282"
         style="font-size:9.87778px;line-height:125%;font-family:Bitwise;-inkscape-font-specification:'Bitwise, Normal';letter-spacing:0px;word-spacing:0px;fill:#ffffff;fill-opacity:1;stroke:#000000;stroke-width:0.0001;stroke-dasharray:none;stroke-opacity:1" /><path
         d="m 330.13272,14.427844 q 0,-0.06752 0.0289,-0.125401 0.0386,-0.06752 0.0965,-0.115755 0.0579,-0.05788 0.1254,-0.08682 0.0675,-0.03858 0.13505,-0.03858 h 2.88424 q 0.0579,0 0.11575,0.02894 0.0579,0.02894 0.10611,0.07717 0.0579,0.03858 0.0868,0.09646 0.0289,0.05788 0.0289,0.115755 v 0.916396 q 0,0.03858 -0.01,0.07717 -0.01,0.03858 -0.0289,0.07717 -0.0193,0.02894 -0.0482,0.04823 -0.0289,0.01929 -0.0675,0.01929 h -0.56913 q -0.0289,0 -0.0675,-0.0096 -0.0289,-0.01929 -0.0579,-0.03858 -0.0289,-0.01929 -0.0482,-0.04823 -0.01,-0.02894 -0.01,-0.05788 v -0.453375 q 0,-0.03858 -0.0482,-0.06752 -0.0386,-0.03859 -0.0868,-0.03859 h -1.5627 q -0.0289,0 -0.0482,0.01929 -0.0193,0.0096 -0.0386,0.02894 -0.01,0.01929 -0.0193,0.04823 -0.01,0.02894 -0.01,0.04823 v 0.665593 q 0,0.08682 0.0193,0.173632 0.0193,0.07717 0.0579,0.163987 0.0386,0.07717 0.0868,0.163987 0.0482,0.07717 0.0965,0.163986 0.0482,0.07717 0.0965,0.15434 0.0482,0.07717 0.0772,0.163987 0.0386,0.07717 0.0579,0.163987 0.0289,0.08682 0.0289,0.173632 v 1.678451 q 0,0.03858 -0.0289,0.08682 -0.0193,0.03858 -0.0579,0.07717 -0.0289,0.02894 -0.0772,0.05788 -0.0386,0.01929 -0.0868,0.01929 h -0.91639 q -0.0482,0 -0.0965,-0.02894 -0.0386,-0.02894 -0.0772,-0.06752 -0.0289,-0.03858 -0.0482,-0.08682 -0.0193,-0.04823 -0.0193,-0.09646 z"
         id="path7284"
         style="font-size:9.87778px;line-height:125%;font-family:Bitwise;-inkscape-font-specification:'Bitwise, Normal';letter-spacing:0px;word-spacing:0px;fill:#ffffff;fill-opacity:1;stroke:#000000;stroke-width:0.0001;stroke-dasharray:none;stroke-opacity:1" /></g><g
       id="g5697"
       transform="matrix(1.5515165,0,0,1.5532644,-188.72632,13.999593)"
       style="fill:#ffffff;fill-opacity:1;stroke:#000000;stroke-width:0.00006442;stroke-dasharray:none;stroke-opacity:1"><path
         style="fill:#ffffff;fill-opacity:1;stroke:#000000;stroke-width:0.00006442;stroke-dasharray:none;stroke-opacity:1"
         d="m 326.7413,-26.78038 c -0.2418,-0.05481 -0.47889,-0.235957 -0.56148,-0.429234 -0.0357,-0.08343 -0.0381,-0.237649 -0.0381,-2.273353 v -2.183851 l 0.0693,-0.119945 c 0.1245,-0.215651 0.34692,-0.35292 0.63324,-0.390769 0.35844,-0.04738 0.7158,0.112147 0.87474,0.390458 l 0.0585,0.102356 v 2.219651 2.219652 l -0.0636,0.103208 c -0.0789,0.128044 -0.2577,0.26918 -0.41625,0.328765 -0.1533,0.05762 -0.38637,0.07148 -0.55599,0.03306 z"
         id="path5673" /><path
         style="fill:#ffffff;fill-opacity:1;stroke:#000000;stroke-width:0.00006442;stroke-dasharray:none;stroke-opacity:1"
         d="m 326.534,-22.54219 c -2.0937,-0.217657 -3.76774,-1.666818 -4.26367,-3.690968 -0.1044,-0.4255 -0.138,-0.770625 -0.1248,-1.271648 0.021,-0.77983 0.1656,-1.35665 0.51876,-2.063721 0.30864,-0.618041 0.89653,-1.327794 1.26361,-1.525549 0.1374,-0.07405 0.1491,-0.07637 0.38163,-0.07637 0.2214,0 0.2499,0.005 0.37047,0.06414 0.1662,0.0817 0.31251,0.227945 0.39417,0.394342 0.0585,0.119369 0.0642,0.1504 0.0642,0.35974 0,0.318848 -0.0378,0.39399 -0.37677,0.748557 -0.39393,0.412065 -0.61842,0.776937 -0.77739,1.263452 -0.1077,0.329334 -0.1497,0.605964 -0.1491,0.977232 6.6e-4,0.380319 0.0414,0.633453 0.1581,0.984513 0.2673,0.803457 0.81648,1.441579 1.56573,1.818918 0.49608,0.249834 0.99129,0.355401 1.5534,0.331135 0.80872,-0.03491 1.50955,-0.343815 2.08405,-0.918598 0.5745,-0.574784 0.88326,-1.275936 0.91815,-2.085053 0.0411,-0.954125 -0.2892,-1.75008 -1.029,-2.479669 -0.1092,-0.107646 -0.1809,-0.202076 -0.2313,-0.305011 -0.0678,-0.137766 -0.0735,-0.164879 -0.0732,-0.356836 1.5e-4,-0.179129 0.009,-0.224927 0.0585,-0.332506 0.069,-0.147749 0.2241,-0.320629 0.35868,-0.399497 0.1446,-0.08472 0.37956,-0.127737 0.54207,-0.0992 0.2211,0.03884 0.3687,0.128539 0.61986,0.376967 0.77343,0.764963 1.24848,1.702886 1.4124,2.788436 0.0519,0.342827 0.0507,1.009323 -0.002,1.352795 -0.141,0.918295 -0.51174,1.743497 -1.09827,2.443759 -0.74799,0.893013 -1.83105,1.494465 -3.00382,1.668096 -0.294,0.04355 -0.8694,0.06005 -1.13406,0.03254 z"
         id="path5671" /></g><g
       id="g7348"
       transform="translate(-0.360315)"
       style="fill:#ffffff;fill-opacity:1;stroke:#000000;stroke-width:0.0001;stroke-dasharray:none;stroke-opacity:1"><path
         d="m 345.49478,11.881229 h 4.81349 q 0.0579,0 0.16398,0.05788 0.10611,0.04823 0.20258,0.135048 0.0965,0.07717 0.16398,0.163986 0.0675,0.08682 0.0675,0.163987 v 5.942102 q 0,0.09646 -0.0579,0.192925 -0.0579,0.08682 -0.1447,0.163987 -0.0868,0.06752 -0.20257,0.115755 -0.10611,0.03858 -0.21222,0.03858 h -4.79419 q -0.10611,0 -0.20257,-0.03858 -0.0868,-0.03859 -0.15434,-0.106109 -0.0675,-0.07717 -0.11576,-0.163987 -0.0386,-0.09646 -0.0386,-0.202571 V 12.40213 q 0,-0.250803 0.11575,-0.385851 0.11576,-0.135048 0.3955,-0.135048 z m 0.36656,0.993566 v 1.823145 q 0,0.04823 0.0193,0.115755 0.0289,0.06752 0.0675,0.144694 0.0386,0.06752 0.0868,0.154341 0.0482,0.07717 0.0965,0.173632 0.0579,0.08682 0.10611,0.18328 0.0579,0.08682 0.0965,0.183279 0.0386,0.09646 0.0579,0.192925 0.0289,0.08682 0.0289,0.183279 v 1.813499 q 0,0.03858 0.0193,0.08682 0.0193,0.04823 0.0482,0.09646 0.0289,0.03859 0.0675,0.06752 0.0482,0.02894 0.0965,0.02894 h 3.12539 q 0.0579,0 0.10611,-0.03859 0.0482,-0.03859 0.0868,-0.08682 0.0386,-0.04823 0.0579,-0.106109 0.0289,-0.06752 0.0289,-0.125401 v -4.958183 q 0,-0.02894 -0.0289,-0.06752 -0.0193,-0.03858 -0.0579,-0.05788 -0.0289,-0.02894 -0.0772,-0.03858 -0.0386,-0.01929 -0.0772,-0.01929 h -3.73311 q -0.0482,0 -0.0868,0.01929 -0.0386,0.01929 -0.0675,0.05788 -0.0289,0.03858 -0.0482,0.08682 -0.0193,0.03858 -0.0193,0.08682 z"
         id="path7299"
         style="font-size:9.87778px;line-height:125%;font-family:Bitwise;-inkscape-font-specification:'Bitwise, Normal';letter-spacing:0px;word-spacing:0px;fill:#ffffff;fill-opacity:1;stroke:#000000;stroke-width:0.0001;stroke-dasharray:none;stroke-opacity:1" /><path
         d="m 352.00481,14.427844 q 0,-0.06752 0.0289,-0.125401 0.0386,-0.06752 0.0965,-0.115755 0.0579,-0.05788 0.1254,-0.08682 0.0675,-0.03858 0.13505,-0.03858 h 2.88423 q 0.0579,0 0.11575,0.02894 0.0579,0.02894 0.10611,0.07717 0.0579,0.03858 0.0868,0.09646 0.0289,0.05788 0.0289,0.115755 v 0.916396 q 0,0.03858 -0.01,0.07717 -0.01,0.03858 -0.0289,0.07717 -0.0193,0.02894 -0.0482,0.04823 -0.0289,0.01929 -0.0675,0.01929 h -0.56913 q -0.0289,0 -0.0675,-0.0096 -0.0289,-0.01929 -0.0579,-0.03858 -0.0289,-0.01929 -0.0482,-0.04823 -0.01,-0.02894 -0.01,-0.05788 v -0.453375 q 0,-0.03858 -0.0482,-0.06752 -0.0386,-0.03859 -0.0868,-0.03859 h -1.5627 q -0.0289,0 -0.0482,0.01929 -0.0193,0.0096 -0.0386,0.02894 -0.01,0.01929 -0.0193,0.04823 -0.01,0.02894 -0.01,0.04823 v 0.665593 q 0,0.08682 0.0193,0.173632 0.0193,0.07717 0.0579,0.163987 0.0386,0.07717 0.0868,0.163987 0.0482,0.07717 0.0965,0.163986 0.0482,0.07717 0.0965,0.15434 0.0482,0.07717 0.0772,0.163987 0.0386,0.07717 0.0579,0.163987 0.0289,0.08682 0.0289,0.173632 v 1.678451 q 0,0.03858 -0.0289,0.08682 -0.0193,0.03858 -0.0579,0.07717 -0.0289,0.02894 -0.0772,0.05788 -0.0386,0.01929 -0.0868,0.01929 h -0.9164 q -0.0482,0 -0.0965,-0.02894 -0.0386,-0.02894 -0.0772,-0.06752 -0.0289,-0.03858 -0.0482,-0.08682 -0.0193,-0.04823 -0.0193,-0.09646 z"
         id="path7301"
         style="font-size:9.87778px;line-height:125%;font-family:Bitwise;-inkscape-font-specification:'Bitwise, Normal';letter-spacing:0px;word-spacing:0px;fill:#ffffff;fill-opacity:1;stroke:#000000;stroke-width:0.0001;stroke-dasharray:none;stroke-opacity:1" /><path
         d="m 356.7101,14.234919 q 0,-0.02894 0.01,-0.04823 0.01,-0.02894 0.0289,-0.04823 0.0193,-0.02894 0.0386,-0.04823 0.0193,-0.01929 0.0482,-0.01929 h 0.55949 q 0.0289,0 0.0482,0.01929 0.0289,0.01929 0.0482,0.03858 0.0193,0.01929 0.0289,0.04823 0.0193,0.02894 0.0193,0.05788 v 3.655936 q 0,0.02894 0.0193,0.06752 0.0193,0.02894 0.0482,0.05788 0.0386,0.01929 0.0772,0.03859 0.0386,0.0096 0.0772,0.0096 h 2.28617 q 0.0193,0 0.0482,-0.0096 0.0386,-0.01929 0.0579,-0.03859 0.0289,-0.01929 0.0482,-0.03859 0.0193,-0.02894 0.0193,-0.05788 V 14.23491 q 0,-0.02894 0.01,-0.05788 0.0193,-0.03858 0.0386,-0.05788 0.0289,-0.02894 0.0579,-0.03858 0.0386,-0.01929 0.0675,-0.01929 h 0.50161 q 0.0386,0 0.0675,0.01929 0.0289,0.0096 0.0482,0.03858 0.0289,0.01929 0.0482,0.05788 0.0193,0.02894 0.0193,0.05788 v 6.540171 q 0,0.03859 -0.0193,0.07717 -0.0193,0.03858 -0.0482,0.06752 -0.0289,0.03859 -0.0675,0.05788 -0.0386,0.02894 -0.0772,0.02894 h -0.90675 q -0.0386,0 -0.0772,-0.01929 -0.0386,-0.01929 -0.0772,-0.04823 -0.0386,-0.02894 -0.0579,-0.06752 -0.0193,-0.03859 -0.0193,-0.07717 V 19.03876 q 0,-0.03859 -0.0193,-0.07717 -0.0193,-0.02894 -0.0579,-0.05788 -0.0289,-0.01929 -0.0675,-0.03859 -0.0289,-0.0096 -0.0675,-0.0096 h -2.3151 q -0.0772,0 -0.16399,-0.02894 -0.0868,-0.02894 -0.16398,-0.07717 -0.0675,-0.05788 -0.11576,-0.125401 -0.0482,-0.06752 -0.0482,-0.144694 z"
         id="path7303"
         style="font-size:9.87778px;line-height:125%;font-family:Bitwise;-inkscape-font-specification:'Bitwise, Normal';letter-spacing:0px;word-spacing:0px;fill:#ffffff;fill-opacity:1;stroke:#000000;stroke-width:0.0001;stroke-dasharray:none;stroke-opacity:1" /></g><g
       id="g5287"
       transform="matrix(0.93359461,0,0,1.0605995,19.502479,1.8003426)"
       style="fill:#ff0000;fill-opacity:1;stroke:#000000;stroke-width:0.00100495;stroke-opacity:1;stroke-dasharray:none"><path
         id="path5099"
         style="fill:#ff0000;fill-opacity:1;stroke:#000000;stroke-width:0.00100495;stroke-opacity:1;stroke-dasharray:none"
         d="m 359.80859,-35.224609 c -1.4324,1.403642 -1.80239,3.837932 -0.56283,5.483168 0.52463,0.635658 1.17496,1.310756 1.01971,2.21626 -0.0218,0.722684 -0.58883,1.235087 -0.98031,1.784947 0.48384,0.448828 0.9213,0.954873 1.48046,1.314453 1.0381,-0.474424 1.53538,-1.687118 1.74511,-2.749126 0.30419,-1.493429 -0.57004,-2.885989 -1.49577,-3.956517 -0.54464,-0.945894 -0.13331,-2.118272 0.60301,-2.839161 0.0785,-0.433193 -0.71204,-0.811458 -0.98715,-1.220859 -0.35512,-0.413643 -0.48602,-0.573522 -0.82223,-0.03317 z" /><path
         id="path5097"
         style="fill:#ff0000;fill-opacity:1;stroke:#000000;stroke-width:0.00100495;stroke-opacity:1;stroke-dasharray:none"
         d="m 356.01758,-35.216797 c -1.46589,1.417098 -1.79094,3.896829 -0.51126,5.539688 0.59551,0.660176 1.22936,1.474864 0.92923,2.425156 -0.0627,0.593271 -0.7768,1.010841 -0.758,1.550429 0.36097,0.518141 0.83309,0.951435 1.35956,1.297227 1.34562,-0.828629 1.901,-2.592264 1.64791,-4.108177 -0.10246,-1.085115 -0.91541,-1.853425 -1.49557,-2.698464 -0.59555,-1.019385 0.0356,-2.166063 0.78711,-2.898437 -0.53295,-0.502768 -1.06489,-1.006595 -1.59375,-1.513672 -0.12174,0.135417 -0.24349,0.270833 -0.36523,0.40625 z" /><path
         id="path5095"
         style="fill:#ff0000;fill-opacity:1;stroke:#000000;stroke-width:0.00100495;stroke-opacity:1;stroke-dasharray:none"
         d="m 352.21484,-35.228516 c -1.40772,1.407367 -1.75278,3.827787 -0.55822,5.467893 0.51603,0.669566 1.15996,1.239924 1.04065,2.178592 0.0131,0.735433 -0.57438,1.241931 -0.98047,1.78125 0.50885,0.515378 1.0247,1.021339 1.53906,1.53125 1.12753,-0.994934 1.90964,-2.474549 1.67344,-4.009163 -0.0787,-1.151181 -0.8526,-2.038595 -1.52305,-2.902947 -0.52045,-0.88363 -0.10444,-1.917128 0.48242,-2.642578 0.18385,-0.781733 -0.78932,-1.193738 -1.19332,-1.721833 -0.16423,-0.295446 -0.32936,0.238277 -0.48051,0.317536 z" /><path
         id="path5093"
         style="fill:#ff0000;fill-opacity:1;stroke:#000000;stroke-width:0.00100495;stroke-opacity:1;stroke-dasharray:none"
         d="m 363.36523,-25.210938 c -0.75709,0.01795 -0.81552,0.87646 -0.76562,1.453126 -3.84896,0 -7.69792,-10e-7 -11.54688,0 0.0532,-0.57486 0.0113,-1.471573 -0.76958,-1.43981 -0.47452,-0.04288 -0.94606,0.06322 -1.41792,0.09801 -0.0469,1.192133 -0.0266,2.385401 -0.0312,3.578125 5.3555,0.0683 10.71083,-0.0024 16.06641,0.0059 -0.0179,-1.214848 -0.0358,-2.429698 -0.0547,-3.644531 -0.49305,-0.01958 -0.98717,-0.0658 -1.48047,-0.05078 z" /></g><g
       id="g7353"
       style="fill:#ffffff;fill-opacity:1;stroke:#000000;stroke-width:0.0001;stroke-dasharray:none;stroke-opacity:1"><path
         d="m 382.23643,11.881229 q 0.0675,0 0.13504,0.02894 0.0772,0.02894 0.13505,0.07717 0.0675,0.04823 0.10611,0.106109 0.0386,0.05788 0.0386,0.125402 v 1.244368 q 0,0.03859 -0.0193,0.07717 -0.0193,0.03858 -0.0579,0.07717 -0.0289,0.03858 -0.0675,0.05788 -0.0386,0.01929 -0.0772,0.01929 h -0.99356 q -0.0386,0 -0.0868,-0.01929 -0.0386,-0.01929 -0.0772,-0.04823 -0.0289,-0.02894 -0.0579,-0.06752 -0.0193,-0.04823 -0.0193,-0.08682 v -0.6463 q 0,-0.03858 -0.0193,-0.07717 -0.01,-0.03859 -0.0386,-0.06752 -0.0289,-0.03858 -0.0675,-0.05788 -0.0386,-0.01929 -0.0772,-0.01929 h -3.22186 q -0.0386,0 -0.0772,0.02894 -0.0289,0.01929 -0.0579,0.05788 -0.0193,0.02894 -0.0386,0.07717 -0.01,0.03858 -0.01,0.06752 v 1.9389 q 0,0.01929 0.0193,0.06752 0.0289,0.03858 0.0675,0.106109 0.0386,0.05788 0.0868,0.135048 0.0482,0.06752 0.0965,0.15434 0.0579,0.07717 0.10611,0.173633 0.0482,0.09646 0.0868,0.202572 0.0386,0.09646 0.0579,0.212217 0.0289,0.106109 0.0289,0.212218 v 1.803853 q 0,0.06752 0.0193,0.106109 0.0193,0.03858 0.0482,0.06752 0.0289,0.01929 0.0579,0.02894 0.0386,0 0.0772,0 h 3.27974 q 0.0386,0 0.0772,-0.01929 0.0386,-0.02894 0.0579,-0.05788 0.0289,-0.03859 0.0386,-0.07717 0.0193,-0.04823 0.0193,-0.08682 v -1.350478 q 0,-0.03859 0.0193,-0.08682 0.0193,-0.04823 0.0482,-0.07717 0.0386,-0.03859 0.0772,-0.05788 0.0386,-0.02894 0.0772,-0.02894 h 0.36655 q 0.0386,0 0.0772,0.02894 0.0482,0.01929 0.0772,0.05788 0.0289,0.03858 0.0482,0.08682 0.0193,0.04823 0.0193,0.08682 v 1.967839 q 0,0.06752 -0.0386,0.144694 -0.0386,0.07717 -0.10611,0.144694 -0.0579,0.05788 -0.13504,0.09646 -0.0675,0.03858 -0.1447,0.03858 h -5.06429 q -0.0675,0 -0.15434,-0.02894 -0.0772,-0.03859 -0.14469,-0.09646 -0.0579,-0.05788 -0.0965,-0.125402 -0.0386,-0.07717 -0.0386,-0.144694 v -6.1929 q 0,-0.06752 0.0289,-0.135048 0.0386,-0.06752 0.0965,-0.125401 0.0579,-0.05788 0.1254,-0.08682 0.0772,-0.03859 0.1447,-0.03859 z"
         id="path7309"
         style="font-size:9.87778px;line-height:125%;font-family:Bitwise;-inkscape-font-specification:'Bitwise, Normal';letter-spacing:0px;word-spacing:0px;fill:#ffffff;fill-opacity:1;stroke:#000000;stroke-width:0.0001;stroke-dasharray:none;stroke-opacity:1" /><path
         d="m 384.03962,14.215626 q 0,-0.01929 0,-0.04823 0.01,-0.02894 0.0289,-0.04823 0.0193,-0.02894 0.0386,-0.03858 0.0193,-0.01929 0.0386,-0.01929 h 0.71382 q 0.0386,0 0.0772,0.04823 0.0386,0.03859 0.0386,0.07717 V 15.8555 q 0,0.05788 0.0193,0.115756 0.0193,0.05788 0.0579,0.125401 0.0386,0.05788 0.0772,0.125402 0.0482,0.05788 0.0965,0.135047 0.0482,0.06752 0.0965,0.154341 0.0482,0.07717 0.0772,0.173632 0.0386,0.09646 0.0579,0.212218 0.0289,0.106109 0.0289,0.241157 v 0.877811 q 0,0.02894 0.0289,0.05788 0.0386,0.02894 0.0675,0.02894 h 1.90997 q 0.0386,0 0.0772,-0.03858 0.0386,-0.03859 0.0386,-0.07717 V 14.20598 q 0,-0.01929 0.01,-0.04823 0.01,-0.02894 0.0289,-0.04823 0.0289,-0.02894 0.0482,-0.03859 0.0289,-0.01929 0.0579,-0.01929 h 0.59807 q 0.0193,0 0.0386,0.01929 0.0193,0.0096 0.0386,0.02894 0.0193,0.01929 0.0289,0.04823 0.01,0.01929 0.01,0.03858 v 4.475869 q 0,0.03859 -0.0289,0.07717 -0.0193,0.02894 -0.0579,0.05788 -0.0289,0.02894 -0.0772,0.04823 -0.0386,0.0096 -0.0772,0.0096 h -3.90674 q -0.0482,0 -0.0965,-0.0096 -0.0482,-0.01929 -0.0965,-0.04823 -0.0386,-0.02894 -0.0675,-0.05788 -0.0193,-0.03858 -0.0193,-0.08682 z"
         id="path7311"
         style="font-size:9.87778px;line-height:125%;font-family:Bitwise;-inkscape-font-specification:'Bitwise, Normal';letter-spacing:0px;word-spacing:0px;fill:#ffffff;fill-opacity:1;stroke:#000000;stroke-width:0.0001;stroke-dasharray:none;stroke-opacity:1" /><path
         d="m 390.59929,12.633638 h 0.48231 q 0.0868,0 0.14469,0.05788 0.0579,0.05788 0.0579,0.135048 v 1.234722 h 1.05144 q 0.0386,0 0.0772,0.02894 0.0386,0.01929 0.0675,0.05788 0.0289,0.02894 0.0482,0.06752 0.0193,0.03859 0.0193,0.07717 v 1.012858 q 0,0.02894 -0.0193,0.06752 -0.01,0.02894 -0.0386,0.05788 -0.0193,0.01929 -0.0482,0.03859 -0.0289,0.01929 -0.0579,0.01929 h -1.09968 v 2.459799 q 0,0.01929 0.01,0.04823 0.01,0.02894 0.0289,0.05788 0.0289,0.01929 0.0482,0.03858 0.0289,0.0096 0.0579,0.0096 h 0.5209 q 0.0289,0 0.0579,0.01929 0.0289,0.0096 0.0482,0.03859 0.0289,0.01929 0.0386,0.05788 0.0193,0.02894 0.0193,0.05788 v 0.376204 q 0,0.08682 -0.0482,0.144694 -0.0482,0.05788 -0.1254,0.05788 h -1.34083 q -0.0772,0 -0.13505,-0.05788 -0.0579,-0.05788 -0.0579,-0.135047 V 14.85228 h -0.3955 q -0.0289,0 -0.0579,-0.0096 -0.0193,-0.0096 -0.0482,-0.02894 -0.0193,-0.02894 -0.0386,-0.04823 -0.01,-0.02894 -0.01,-0.05788 v -0.511252 q 0,-0.01929 0.01,-0.03858 0.01,-0.02894 0.0193,-0.04823 0.0193,-0.01929 0.0386,-0.02894 0.0289,-0.01929 0.0482,-0.01929 h 0.43408 v -1.234722 q 0,-0.07717 0.0579,-0.135048 0.0579,-0.05788 0.13505,-0.05788 z"
         id="path7313"
         style="font-size:9.87778px;line-height:125%;font-family:Bitwise;-inkscape-font-specification:'Bitwise, Normal';letter-spacing:0px;word-spacing:0px;fill:#ffffff;fill-opacity:1;stroke:#000000;stroke-width:0.0001;stroke-dasharray:none;stroke-opacity:1" /></g><path
       id="path6560"
       style="fill:#ffffff;fill-opacity:1;stroke:#000000;stroke-width:0.0001;stroke-dasharray:none;stroke-opacity:1"
       d="m 385.85481,-33.993284 c -0.009,-0.0086 -0.64934,0.35821 -1.42369,0.815455 -1.53224,0.904748 -1.62301,0.942479 -1.92339,0.799951 -0.21407,-0.101555 -0.26592,-0.248425 -0.31213,-0.885218 -0.0224,-0.308328 -0.0479,-0.567913 -0.0568,-0.576709 -0.0151,-0.01421 -0.6346,0.757933 -1.91306,2.381767 -0.22906,0.290929 -0.47933,0.596874 -0.55656,0.679545 -0.25228,0.270071 -0.60001,0.287019 -0.82889,0.04031 -0.0561,-0.06045 -0.24332,-0.363271 -0.41651,-0.67231 -0.25964,-0.463371 -0.32086,-0.548154 -0.34933,-0.483692 -0.0195,0.04299 -0.22329,0.819757 -0.45372,1.725993 -0.39414,1.55016 -0.4267,1.655762 -0.55036,1.783354 -0.15076,0.155458 -0.33434,0.204505 -0.5271,0.14056 -0.0734,-0.02438 -0.33922,-0.218175 -0.59066,-0.430465 -0.25142,-0.212296 -0.4671,-0.376283 -0.47904,-0.364319 -0.013,0.01212 0.0198,0.335571 0.0677,0.718819 0.29493,2.30614 0.36483,2.881408 0.36483,3.003434 0,0.294827 -0.22689,0.497912 -0.55035,0.492477 -0.0853,-0.0015 -0.40947,-0.08072 -0.71985,-0.1757 -0.31039,-0.09498 -0.57004,-0.167949 -0.57723,-0.162264 -0.006,0.0056 0.10158,0.220023 0.24185,0.476457 l 0.25476,0.466638 3.4494,0.001 3.4494,0.001 0.0718,-0.231511 c 0.53052,-1.706097 2.47221,-2.559186 4.06126,-1.784387 0.73601,0.35886 1.36148,1.097325 1.56269,1.844849 l 0.046,0.171049 h 3.12229 c 1.71737,0 3.12281,-0.0086 3.12281,-0.01964 0,-0.01077 -0.0998,-0.198711 -0.22169,-0.417029 -0.24247,-0.434115 -0.28306,-0.658681 -0.16072,-0.895036 0.0984,-0.190477 0.24751,-0.239148 0.87644,-0.28577 0.31563,-0.02339 0.57899,-0.04737 0.58497,-0.05323 0.006,-0.0059 -0.69417,-0.583413 -1.55597,-1.283643 -1.10634,-0.898915 -1.58216,-1.309575 -1.61851,-1.39733 -0.0644,-0.155285 -0.0316,-0.425113 0.0677,-0.558106 0.041,-0.05477 0.33338,-0.249713 0.65009,-0.433048 0.3167,-0.183328 0.57577,-0.347676 0.57567,-0.365353 -1.3e-4,-0.01766 -0.72212,-0.21608 -1.60455,-0.4408 -0.88241,-0.224723 -1.67287,-0.431216 -1.75648,-0.458887 -0.2704,-0.08949 -0.42045,-0.421948 -0.31523,-0.698665 0.0195,-0.05294 0.21062,-0.303271 0.42323,-0.556038 0.21258,-0.252771 0.38654,-0.471663 0.38654,-0.486792 0,-0.01508 -0.0315,-0.02037 -0.0703,-0.01137 -0.16584,0.03846 -3.56791,0.45992 -3.71243,0.45992 -0.19987,0 -0.3806,-0.156469 -0.45062,-0.390157 -0.0454,-0.151302 -0.0346,-0.212184 0.14159,-0.816488 0.10478,-0.359174 0.18277,-0.660073 0.17415,-0.668693 z m -1.88412,10.904761 c -5.34227,0 -8.66026,-7.92e-4 -10.86549,0.0057 v 2.08256 c 2.19923,0.0068 5.51723,0.0061 10.87376,0.0067 5.38827,5.7e-4 8.63563,-0.0017 10.86135,-0.0072 v -2.080493 c -2.16896,-0.0053 -5.3026,-0.0072 -10.86962,-0.0072 z" /><path
       id="rect7800-2"
       style="fill:#000000;fill-opacity:1;stroke:none;stroke-width:0.1;stroke-dasharray:none;stroke-opacity:1"
       d="M 266.89213 26.790059 L 266.89213 94.423141 L 469.99187 94.423141 L 469.99187 26.790059 L 266.89213 26.790059 z M 278.27179 36.315059 A 1.855 1.855 0 0 1 280.12698 38.169727 A 1.855 1.855 0 0 1 278.27179 40.024911 A 1.855 1.855 0 0 1 276.41713 38.169727 A 1.855 1.855 0 0 1 278.27179 36.315059 z M 462.42179 36.315059 A 1.855 1.855 0 0 1 464.27698 38.169727 A 1.855 1.855 0 0 1 462.42179 40.024911 A 1.855 1.855 0 0 1 460.56713 38.169727 A 1.855 1.855 0 0 1 462.42179 36.315059 z M 395.28739 47.596541 C 400.91875 48.161461 405.75281 51.847998 407.7874 57.129293 L 407.7874 67.885225 C 405.75529 73.16975 400.92074 76.85987 395.28739 77.426245 L 395.28739 75.63669 L 392.28706 75.63669 L 392.28706 77.426245 C 386.65366 76.85987 381.81915 73.16976 379.78704 67.885225 L 379.78704 57.138078 C 381.81915 51.853553 386.65366 48.163438 392.28706 47.597058 L 392.28706 49.386613 L 395.28739 49.386613 L 395.28739 47.596541 z M 344.05227 51.393726 A 11.117709 11.117709 0 0 1 355.17046 62.511393 A 11.117709 11.117709 0 0 1 344.05227 73.629061 A 11.117709 11.117709 0 0 1 332.93461 62.511393 A 11.117709 11.117709 0 0 1 344.05227 51.393726 z M 278.27179 84.998393 A 1.855 1.855 0 0 1 280.12698 86.85306 A 1.855 1.855 0 0 1 278.27179 88.708244 A 1.855 1.855 0 0 1 276.41713 86.85306 A 1.855 1.855 0 0 1 278.27179 84.998393 z M 462.42179 84.998393 A 1.855 1.855 0 0 1 464.27698 86.85306 A 1.855 1.855 0 0 1 462.42179 88.708244 A 1.855 1.855 0 0 1 460.56713 86.85306 A 1.855 1.855 0 0 1 462.42179 84.998393 z " /><text
       xml:space="preserve"
       transform="scale(0.26458333)"
       id="text44868"
       style="font-style:normal;font-variant:normal;font-weight:normal;font-stretch:normal;font-size:16px;font-family:'Abyssinica SIL';-inkscape-font-specification:'Abyssinica SIL, Normal';font-variant-ligatures:normal;font-variant-caps:normal;font-variant-numeric:normal;font-variant-east-asian:normal;white-space:pre;shape-inside:url(#rect44870);display:inline;fill:#000000;fill-opacity:1;stroke:none" /><text
       xml:space="preserve"
       style="font-size:4.23333px;line-height:125%;font-family:Bravura;-inkscape-font-specification:Bravura;letter-spacing:0px;word-spacing:0px;fill:none;stroke:#000000;stroke-width:0.264583px;stroke-linecap:butt;stroke-linejoin:miter;stroke-opacity:1"
       x="41.288353"
       y="15.023044"
       id="text3677"><tspan
         sodipodi:role="line"
         id="tspan3675"
         style="stroke-width:0.264583px"
         x="41.288353"
         y="15.023044" /></text><g
       id="g7547"
       style="stroke-width:0.0001;stroke-dasharray:none;stroke:#000000;stroke-opacity:1"><path
         d="m 307.96481,36.391887 q 0,-0.148828 0.0661,-0.297656 0.0827,-0.148828 0.1819,-0.264583 0.11576,-0.132292 0.26459,-0.214974 0.14883,-0.08268 0.29765,-0.08268 h 8.51628 q 0.13229,0 0.26458,0.06615 0.13229,0.04961 0.23151,0.148828 0.11576,0.09922 0.1819,0.231511 0.0827,0.115755 0.0827,0.23151 v 2.133203 q 0,0.04961 -0.0331,0.09922 -0.0165,0.04961 -0.0496,0.09922 -0.0331,0.04961 -0.0827,0.08268 -0.0496,0.01654 -0.0992,0.01654 h -0.92604 q -0.0496,0 -0.0992,-0.01654 -0.0496,-0.03307 -0.0992,-0.08268 -0.0496,-0.04961 -0.0827,-0.09922 -0.0165,-0.04961 -0.0165,-0.09922 v -1.190625 q 0,-0.06615 -0.0331,-0.115755 -0.0331,-0.06615 -0.0827,-0.09922 -0.0496,-0.04961 -0.11575,-0.08268 -0.0661,-0.03307 -0.11576,-0.03307 h -6.49883 q -0.0496,0 -0.0992,0.03307 -0.0496,0.03307 -0.0992,0.09922 -0.0331,0.04961 -0.0496,0.115755 -0.0165,0.04961 -0.0165,0.09922 v 3.489192 q 0,0.06615 0.0661,0.132292 0.0661,0.04961 0.1323,0.04961 h 7.63984 q 0.13229,0 0.26458,0.06615 0.13229,0.06615 0.23151,0.181901 0.11576,0.09922 0.1819,0.248047 0.0827,0.132292 0.0827,0.264583 v 5.175912 q 0,0.115755 -0.0661,0.248046 -0.0661,0.132292 -0.16536,0.231511 -0.0827,0.09922 -0.21498,0.165364 -0.11575,0.06615 -0.23151,0.06615 h -8.54935 q -0.14882,0 -0.31419,-0.06615 -0.14883,-0.06615 -0.28112,-0.181901 -0.13229,-0.115755 -0.21497,-0.248047 -0.0661,-0.148828 -0.0661,-0.281119 v -2.033985 q 0,-0.06614 0.0331,-0.132291 0.0331,-0.06615 0.0827,-0.132292 0.0496,-0.06615 0.11575,-0.09922 0.0661,-0.03307 0.13229,-0.03307 h 0.76068 q 0.0661,0 0.13229,0.03307 0.0661,0.01654 0.11576,0.06615 0.0496,0.04961 0.0827,0.115755 0.0496,0.04961 0.0496,0.115756 v 1.207143 q 0,0.04961 0.0165,0.115755 0.0331,0.04961 0.0661,0.09922 0.0331,0.03307 0.0827,0.06615 0.0496,0.01654 0.0992,0.01654 h 5.63893 q 0.0496,0 0.0992,-0.01654 0.0496,-0.01654 0.0827,-0.04961 0.0496,-0.04961 0.0661,-0.08268 0.0331,-0.04961 0.0331,-0.09922 v -3.40651 q 0,-0.04961 -0.0331,-0.08268 -0.0165,-0.04961 -0.0496,-0.08268 -0.0331,-0.04961 -0.0827,-0.06615 -0.0496,-0.01654 -0.0827,-0.01654 h -6.64766 q -0.13229,0 -0.26458,-0.06615 -0.13229,-0.06614 -0.24805,-0.148828 -0.11575,-0.09922 -0.19844,-0.214974 -0.0661,-0.132291 -0.0661,-0.264583 z"
         style="font-size:16.9333px;line-height:125%;font-family:Bitwise;-inkscape-font-specification:'Bitwise, Normal';letter-spacing:0px;word-spacing:0px;fill:#ffffff;fill-opacity:1;stroke:#000000;stroke-width:0.0001;stroke-dasharray:none;stroke-opacity:1"
         id="path5788" /><path
         d="m 308.01442,49.979453 h 9.31002 q 0.0992,0 0.19844,0.04961 0.11576,0.03307 0.19844,0.115755 0.0992,0.06615 0.16536,0.165365 0.0661,0.08268 0.0661,0.198437 v 1.537891 q 0,0.08268 -0.0496,0.165364 -0.0496,0.08268 -0.13229,0.148829 -0.0827,0.06615 -0.1819,0.09922 -0.0827,0.03307 -0.16537,0.03307 h -3.32383 q -0.0827,0 -0.1819,0.03307 -0.0992,0.03307 -0.1819,0.08268 -0.0827,0.04961 -0.13229,0.115756 -0.0496,0.06615 -0.0496,0.148828 v 8.648567 q 0,0.06615 -0.0331,0.148828 -0.0165,0.06615 -0.0661,0.132292 -0.0331,0.06615 -0.0992,0.115755 -0.0496,0.03307 -0.11575,0.03307 h -0.84336 q -0.0827,0 -0.14883,-0.03307 -0.0662,-0.04961 -0.11575,-0.115755 -0.0496,-0.06615 -0.0827,-0.132292 -0.0331,-0.08268 -0.0331,-0.148828 v -9.855729 q 0,-0.08268 -0.0496,-0.165364 -0.0331,-0.08268 -0.0992,-0.148828 -0.0496,-0.08268 -0.13229,-0.115756 -0.0662,-0.04961 -0.14883,-0.04961 h -3.57187 q -0.0496,0 -0.11576,-0.01654 -0.0661,-0.03307 -0.11575,-0.06615 -0.0496,-0.03307 -0.0827,-0.08268 -0.0331,-0.04961 -0.0331,-0.115756 v -0.628385 q 0,-0.06615 0.0331,-0.115755 0.0331,-0.04961 0.0827,-0.08268 0.0496,-0.04961 0.11575,-0.06615 0.0662,-0.03307 0.11576,-0.03307 z"
         style="font-size:16.9333px;line-height:125%;font-family:Bitwise;-inkscape-font-specification:'Bitwise, Normal';letter-spacing:0px;word-spacing:0px;fill:#ffffff;fill-opacity:1;stroke:#000000;stroke-width:0.0001;stroke-dasharray:none;stroke-opacity:1"
         id="path5790" /><path
         d="m 308.97353,64.443416 h 8.46667 q 0.1819,0 0.33073,0.06615 0.16536,0.06615 0.28112,0.181901 0.11575,0.115755 0.1819,0.28112 0.0661,0.148828 0.0661,0.330729 v 10.236067 q 0,0.181901 -0.0661,0.347265 -0.0661,0.148829 -0.1819,0.264584 -0.11576,0.115755 -0.28112,0.181901 -0.14883,0.06615 -0.33073,0.06615 h -8.46667 q -0.1819,0 -0.34726,-0.06615 -0.14883,-0.06615 -0.26459,-0.181901 -0.11575,-0.115755 -0.1819,-0.264584 -0.0661,-0.165364 -0.0661,-0.347265 V 65.303312 q 0,-0.181901 0.0661,-0.330729 0.0661,-0.165365 0.1819,-0.28112 0.11576,-0.115755 0.26459,-0.181901 0.16536,-0.06615 0.34726,-0.06615 z m 1.27331,1.240234 q -0.19844,0 -0.31419,0.03307 -0.11576,0.03307 -0.1819,0.115755 -0.0661,0.06615 -0.0827,0.198438 -0.0165,0.132291 -0.0165,0.330729 v 7.970572 q 0,0.248047 0.0165,0.380339 0.0331,0.132292 0.0992,0.198437 0.0827,0.06615 0.1819,0.08268 0.11576,0.01654 0.29766,0.01654 h 5.25859 q 0.13229,0 0.19844,-0.01654 0.0827,-0.01654 0.11576,-0.06615 0.0331,-0.04961 0.0496,-0.132292 0.0165,-0.08268 0.0165,-0.214974 v -3.141927 q 0,-0.132291 0.0331,-0.281119 0.0331,-0.165365 0.0992,-0.314193 0.0661,-0.148828 0.13229,-0.297656 0.0827,-0.165365 0.14883,-0.314193 0.0827,-0.148828 0.16537,-0.28112 0.0827,-0.132291 0.13229,-0.23151 0.0661,-0.09922 0.0992,-0.181901 0.0331,-0.08268 0.0331,-0.115755 v -3.059235 q 0,-0.214974 -0.0165,-0.347266 0,-0.132291 -0.0496,-0.198437 -0.0496,-0.08268 -0.1819,-0.09922 -0.11575,-0.03307 -0.34726,-0.03307 z"
         style="font-size:16.9333px;line-height:125%;font-family:Bitwise;-inkscape-font-specification:'Bitwise, Normal';letter-spacing:0px;word-spacing:0px;fill:#ffffff;fill-opacity:1;stroke:#000000;stroke-width:0.0001;stroke-dasharray:none;stroke-opacity:1"
         id="path5792" /><path
         d="m 308.14671,79.535782 q 0,-0.115755 0.0496,-0.23151 0.0661,-0.115756 0.14883,-0.198438 0.0992,-0.09922 0.21497,-0.148828 0.11576,-0.06615 0.23151,-0.06615 h 8.78086 q 0.11575,0 0.23151,0.04961 0.11576,0.04961 0.19844,0.132291 0.0992,0.08268 0.14883,0.198438 0.0661,0.115755 0.0661,0.214974 v 5.457033 q 0,0.11576 -0.0661,0.24805 -0.0496,0.11575 -0.14883,0.21497 -0.0827,0.0827 -0.19844,0.14883 -0.11576,0.0496 -0.23151,0.0496 h -6.7138 q -0.0496,0 -0.11576,0.0331 -0.0496,0.0165 -0.0992,0.0662 -0.0331,0.0496 -0.0661,0.0992 -0.0165,0.0496 -0.0165,0.0992 v 4.431769 q 0,0.0827 -0.0496,0.1819 -0.0331,0.0827 -0.0992,0.16536 -0.0496,0.0827 -0.13229,0.13229 -0.0661,0.0496 -0.14883,0.0496 h -1.4552 q -0.0992,0 -0.19844,-0.0496 -0.0992,-0.0661 -0.1819,-0.14882 -0.0661,-0.0827 -0.11576,-0.18191 -0.0331,-0.0992 -0.0331,-0.19843 z m 1.80247,0.711068 q -0.0331,0 -0.0827,0.03307 -0.0496,0.01654 -0.0827,0.04961 -0.0331,0.01654 -0.0661,0.06615 -0.0165,0.03307 -0.0165,0.08268 v 3.654562 q 0,0.0827 0.0661,0.13229 0.0827,0.0496 0.16537,0.0496 h 6.63112 q 0.0661,0 0.13229,-0.0662 0.0661,-0.0661 0.0661,-0.13229 V 80.4783 q 0,-0.04961 -0.0165,-0.08268 -0.0165,-0.03307 -0.0496,-0.06615 -0.0331,-0.03307 -0.0827,-0.04961 -0.0331,-0.03307 -0.0827,-0.03307 z"
         style="font-size:16.9333px;line-height:125%;font-family:Bitwise;-inkscape-font-specification:'Bitwise, Normal';letter-spacing:0px;word-spacing:0px;fill:#ffffff;fill-opacity:1;stroke:#000000;stroke-width:0.0001;stroke-dasharray:none;stroke-opacity:1"
         id="path5794" /></g><g
       id="g7553"
       style="stroke-width:0.0001;stroke-dasharray:none;stroke:#000000;stroke-opacity:1"><path
         d="m 419.10362,36.16038 q 0,-0.115755 0.0496,-0.231511 0.0661,-0.115755 0.14883,-0.198437 0.0992,-0.09922 0.21497,-0.148828 0.11576,-0.04961 0.23151,-0.04961 h 6.59805 q 0.0496,0 0.11575,0.01654 0.0827,0.01654 0.14883,0.04961 0.0661,0.01654 0.0992,0.06615 0.0496,0.04961 0.0496,0.115755 v 0.727605 q 0,0.06614 -0.0331,0.132291 -0.0331,0.06615 -0.0992,0.115755 -0.0496,0.04961 -0.13229,0.08268 -0.0662,0.03307 -0.1323,0.03307 h -5.60585 q -0.0496,0 -0.0992,0.01654 -0.0331,0.01654 -0.0661,0.06615 -0.0331,0.03307 -0.0661,0.08268 -0.0165,0.03307 -0.0165,0.08268 v 3.505729 q 0,0.04961 0.0165,0.09922 0.0331,0.04961 0.0661,0.09922 0.0496,0.03307 0.0992,0.06615 0.0496,0.01654 0.0992,0.01654 h 5.57278 q 0.0661,0 0.1323,0.03307 0.0661,0.01654 0.11575,0.04961 0.0496,0.03307 0.0827,0.08268 0.0496,0.04961 0.0496,0.115755 v 0.628385 q 0,0.06615 -0.0331,0.148828 -0.0331,0.06615 -0.0992,0.132292 -0.0496,0.04961 -0.11575,0.09922 -0.0662,0.03307 -0.1323,0.03307 h -4.72942 q -0.0496,0 -0.11576,0.03307 -0.0496,0.01654 -0.0992,0.06615 -0.0331,0.03307 -0.0661,0.09922 -0.0165,0.04961 -0.0165,0.09922 v 4.448307 q 0,0.08268 -0.0496,0.181901 -0.0331,0.08268 -0.0992,0.165365 -0.0496,0.08268 -0.13229,0.132291 -0.0827,0.04961 -0.16536,0.04961 h -1.14102 q -0.0992,0 -0.21497,-0.03307 -0.11576,-0.04961 -0.21498,-0.115755 -0.0992,-0.06615 -0.16536,-0.148829 -0.0496,-0.09922 -0.0496,-0.214973 z"
         id="path5873"
         style="font-size:16.9333px;font-family:Bitwise;-inkscape-font-specification:'Bitwise, Normal';letter-spacing:0px;word-spacing:0px;fill:#ffffff;fill-opacity:1;stroke:#000000;stroke-width:0.0001;stroke-dasharray:none;stroke-opacity:1" /><path
         d="m 419.64932,49.996043 h 0.90951 q 0.0496,0 0.0992,0.03307 0.0661,0.01654 0.0992,0.06614 0.0496,0.04961 0.0661,0.09922 0.0331,0.04961 0.0331,0.09922 v 4.382161 q 0,0.198438 0.0331,0.363802 0.0331,0.165365 0.0992,0.314193 0.0661,0.132292 0.13229,0.264583 0.0827,0.132292 0.16536,0.264584 0.0827,0.115755 0.14883,0.23151 0.0827,0.115755 0.13229,0.248047 0.0661,0.115755 0.0992,0.248047 0.0496,0.132291 0.0496,0.281119 v 4.696354 q 0,0.06615 -0.0331,0.132292 -0.0331,0.06615 -0.0827,0.115755 -0.0496,0.04961 -0.11576,0.08268 -0.0661,0.03307 -0.11576,0.03307 h -1.71979 q -0.0496,0 -0.11575,-0.01654 -0.0661,-0.03307 -0.13229,-0.06615 -0.0496,-0.03307 -0.0992,-0.08268 -0.0331,-0.04961 -0.0331,-0.115755 v -11.31092 q 0,-0.06615 0.0331,-0.132292 0.0496,-0.06615 0.0992,-0.115755 0.0496,-0.04961 0.11575,-0.08268 0.0662,-0.03307 0.13229,-0.03307 z"
         id="path5875"
         style="font-size:16.9333px;font-family:Bitwise;-inkscape-font-specification:'Bitwise, Normal';letter-spacing:0px;word-spacing:0px;fill:#ffffff;fill-opacity:1;stroke:#000000;stroke-width:0.0001;stroke-dasharray:none;stroke-opacity:1" /><path
         d="M 419.07055,75.985983 V 65.071921 q 0,-0.09922 0.0496,-0.214974 0.0496,-0.115755 0.13229,-0.198438 0.0827,-0.09922 0.1819,-0.148828 0.11575,-0.06615 0.21497,-0.06615 h 7.44141 q 0.11575,0 0.24805,0.06615 0.13229,0.04961 0.23151,0.148828 0.11575,0.08268 0.1819,0.214974 0.0661,0.115755 0.0661,0.231511 v 4.167187 q 0,0.115755 0.0661,0.198437 0.0661,0.06615 0.16536,0.115756 0.11576,0.04961 0.24805,0.08268 0.13229,0.03307 0.26458,0.08268 0.14883,0.03307 0.28112,0.08268 0.1323,0.04961 0.23151,0.148828 0.0992,0.08268 0.16537,0.214974 0.0661,0.115755 0.0661,0.314192 v 5.55625 q 0,0.04961 -0.0165,0.115755 -0.0165,0.04961 -0.0496,0.09922 -0.0165,0.04961 -0.0496,0.08268 -0.0331,0.03307 -0.0827,0.03307 h -0.77722 q -0.0661,0 -0.13229,-0.01654 -0.0496,-0.03307 -0.11575,-0.06615 -0.0496,-0.04961 -0.0827,-0.09922 -0.0331,-0.06615 -0.0331,-0.115755 v -4.663281 q 0,-0.06615 -0.0496,-0.132292 -0.0496,-0.08268 -0.13229,-0.132291 -0.0661,-0.04961 -0.14882,-0.06615 -0.0827,-0.03307 -0.16537,-0.03307 h -5.49011 q -0.0661,0 -0.14882,0.03307 -0.0827,0.03307 -0.16537,0.08268 -0.0661,0.04961 -0.11575,0.132292 -0.0331,0.06615 -0.0331,0.148828 v 4.564062 q 0,0.06615 -0.0496,0.132292 -0.0331,0.06615 -0.0992,0.115755 -0.0496,0.04961 -0.13229,0.08268 -0.0661,0.03307 -0.13229,0.03307 h -1.60403 q -0.0661,0 -0.14883,-0.03307 -0.0827,-0.03307 -0.14883,-0.08268 -0.0496,-0.06615 -0.0992,-0.132292 -0.0331,-0.08268 -0.0331,-0.165364 z m 1.71979,-10.070703 q -0.0992,0 -0.16537,0.06615 -0.0661,0.06615 -0.0661,0.148828 v 3.224609 q 0,0.08268 0.0661,0.148828 0.0661,0.06615 0.16537,0.06615 h 5.34127 q 0.0992,0 0.16537,-0.06615 0.0661,-0.06614 0.0661,-0.148828 v -3.224609 q 0,-0.08268 -0.0661,-0.148828 -0.0661,-0.06615 -0.16537,-0.06615 z"
         id="path5877"
         style="font-size:16.9333px;font-family:Bitwise;-inkscape-font-specification:'Bitwise, Normal';letter-spacing:0px;word-spacing:0px;fill:#ffffff;fill-opacity:1;stroke:#000000;stroke-width:0.0001;stroke-dasharray:none;stroke-opacity:1" /><path
         d="m 419.10362,79.519409 q 0,-0.115755 0.0496,-0.23151 0.0661,-0.115756 0.14883,-0.198438 0.0992,-0.09922 0.21497,-0.148828 0.11576,-0.04961 0.23151,-0.04961 h 6.59805 q 0.0496,0 0.11575,0.01654 0.0827,0.01654 0.14883,0.04961 0.0661,0.01654 0.0992,0.06615 0.0496,0.04961 0.0496,0.115756 v 0.727604 q 0,0.06615 -0.0331,0.132291 -0.0331,0.06615 -0.0992,0.115756 -0.0496,0.04961 -0.13229,0.08268 -0.0662,0.03307 -0.1323,0.03307 h -5.60585 q -0.0496,0 -0.0992,0.01654 -0.0331,0.01654 -0.0661,0.06615 -0.0331,0.03307 -0.0661,0.08268 -0.0165,0.03307 -0.0165,0.08268 v 3.505734 q 0,0.0496 0.0165,0.0992 0.0331,0.0496 0.0661,0.0992 0.0496,0.0331 0.0992,0.0661 0.0496,0.0165 0.0992,0.0165 h 5.57278 q 0.0661,0 0.1323,0.0331 0.0661,0.0165 0.11575,0.0496 0.0496,0.0331 0.0827,0.0827 0.0496,0.0496 0.0496,0.11576 v 0.62838 q 0,0.0661 -0.0331,0.14883 -0.0331,0.0661 -0.0992,0.13229 -0.0496,0.0496 -0.11575,0.0992 -0.0662,0.0331 -0.1323,0.0331 h -4.72942 q -0.0496,0 -0.11576,0.0331 -0.0496,0.0165 -0.0992,0.0661 -0.0331,0.0331 -0.0661,0.0992 -0.0165,0.0496 -0.0165,0.0992 v 3.307287 q 0,0.0496 0.0165,0.0992 0.0331,0.0496 0.0827,0.0827 0.0496,0.0331 0.0992,0.0496 0.0496,0.0165 0.0992,0.0165 h 4.81211 q 0.0661,0 0.13229,0.0331 0.0827,0.0165 0.14883,0.0496 0.0661,0.0331 0.11575,0.0827 0.0496,0.0496 0.0496,0.11576 v 0.8599 q 0,0.0496 -0.0331,0.0992 -0.0165,0.0496 -0.0496,0.0992 -0.0331,0.0331 -0.0827,0.0662 -0.0331,0.0165 -0.0827,0.0165 h -6.8957 q -0.0992,0 -0.21497,-0.0331 -0.11576,-0.0496 -0.21498,-0.11575 -0.0992,-0.0662 -0.16536,-0.14883 -0.0496,-0.0992 -0.0496,-0.21498 z"
         id="path5879"
         style="font-size:16.9333px;font-family:Bitwise;-inkscape-font-specification:'Bitwise, Normal';letter-spacing:0px;word-spacing:0px;fill:#ffffff;fill-opacity:1;stroke:#000000;stroke-width:0.0001;stroke-dasharray:none;stroke-opacity:1" /></g><path
       id="path1071"
       style="fill:#ffff00;fill-opacity:1;stroke:#000000;stroke-width:0.0001;stroke-dasharray:none;stroke-opacity:1"
       d="m 283.77213,50.06672 -0.35863,0.105936 c -0.3117,0.09238 -0.39521,0.143314 -0.63717,0.389124 -0.33288,0.338193 -0.15121,0.01203 -1.92805,3.470589 -0.79899,1.555188 -2.07074,4.030598 -2.82618,5.500952 -0.75546,1.47037 -1.55726,3.0318 -1.78129,3.47008 -0.22403,0.43828 -0.93727,1.82846 -1.58543,3.08921 -0.93342,1.81558 -1.19499,2.36367 -1.25729,2.63499 -0.0433,0.1884 -0.0944,0.34261 -0.11369,0.34261 -0.0192,0 -0.0351,0.10368 -0.0351,0.23099 0,0.1273 0.02,0.23151 0.0444,0.23151 0.0243,0 0.0439,0.0304 0.0439,0.0677 0,0.2459 0.15472,0.60131 0.39222,0.90072 0.23939,0.30183 0.28434,0.33448 0.60875,0.44442 l 0.35088,0.11834 9.0408,0.006 9.04027,0.006 0.37,-0.12506 c 0.33731,-0.11379 0.39464,-0.15323 0.65009,-0.447 0.23691,-0.27254 0.2883,-0.36392 0.3328,-0.59479 0.029,-0.15001 0.0695,-0.27285 0.0899,-0.27285 0.0475,0 0.0487,-0.65413 0.001,-0.67696 -0.0197,-0.009 -0.0674,-0.14741 -0.10594,-0.30645 -0.0598,-0.24694 -1.07689,-2.29176 -2.36213,-4.74906 -0.10351,-0.19793 -0.7218,-1.4008 -1.37407,-2.67322 -0.65228,-1.27243 -1.80418,-3.516418 -2.55954,-4.986778 -0.75532,-1.470362 -1.67039,-3.252027 -2.03346,-3.958932 -0.53442,-1.040516 -0.71723,-1.352481 -0.96118,-1.637109 -0.28654,-0.334314 -0.31988,-0.357187 -0.67387,-0.466121 z m 0.009,5.494238 c 0.62984,0.0062 1.19077,0.480927 1.35961,1.083138 0.17901,1.645198 -0.0424,3.323955 -0.0434,4.981095 -0.10853,0.9292 0.10812,1.95073 -0.30438,2.81016 -0.48364,0.92269 -1.98474,0.69631 -2.20658,-0.31471 -0.20694,-2.13896 -0.19612,-4.30708 -0.28112,-6.458519 -0.14408,-0.900151 0.32695,-2.039388 1.34927,-2.095996 0.0425,-0.0039 0.0846,-0.0056 0.12661,-0.0052 z m -0.0754,10.935763 c 0.0186,-7e-5 0.0382,-5e-5 0.0589,0 0.33383,9.7e-4 0.37771,0.0143 0.56741,0.16589 0.11299,0.0905 0.26141,0.27517 0.33021,0.41031 0.10652,0.20944 0.12499,0.29952 0.12299,0.61236 -10e-4,0.31394 -0.0204,0.40173 -0.13074,0.60617 -0.23485,0.43502 -0.73263,0.67149 -1.15445,0.54828 -0.22789,-0.0665 -0.45149,-0.25576 -0.60306,-0.51056 -0.13177,-0.22139 -0.14235,-0.2716 -0.14315,-0.65939 -8.4e-4,-0.38486 0.01,-0.43807 0.13333,-0.64131 0.0738,-0.12184 0.22001,-0.2916 0.32504,-0.37723 0.1642,-0.13385 0.21455,-0.15336 0.49351,-0.15452 z" /><path
       style="fill:#fdff00;fill-opacity:1;stroke:#000000;stroke-width:0.0001;stroke-dasharray:none;stroke-opacity:1"
       d="m 453.99628,68.722524 c -1e-5,-0.0185 0.0642,-0.10058 0.14263,-0.18229 0.19948,-0.20772 0.40987,-0.55042 0.53016,-0.86356 0.14175,-0.3691 0.14409,-1.05311 0.004,-1.41841 -0.23265,-0.61007 -0.58022,-0.99864 -1.36805,-1.52945 -0.96146,-0.64779 -1.50157,-1.15827 -1.96314,-1.85543 -0.20278,-0.30628 -0.41502,-0.73658 -0.53229,-1.07918 l -0.0588,-0.17171 -0.22565,0.23957 c -0.56631,0.60126 -1.10073,1.36004 -1.36464,1.93759 -0.26043,0.56992 -0.3264,0.87022 -0.32588,1.4832 3.4e-4,0.34418 0.0226,0.63627 0.0574,0.751 0.23396,0.77253 0.70405,1.4963 1.54825,2.38374 0.1971,0.2072 0.33472,0.5028 0.50322,0.73454 0.96629,0.63631 2.12333,1.12145 3.05247,-0.42961 z"
       id="path6790" /><path
       style="fill:#ff0303;fill-opacity:1;stroke:#000000;stroke-width:0.0001;stroke-dasharray:none;stroke-opacity:1"
       d="m 455.12619,69.924644 c 0.0283,0.0223 1.01089,-0.1277 1.50914,-0.23044 2.32305,-0.47903 4.39883,-1.57923 5.73397,-3.03911 0.68792,-0.75218 0.97342,-1.29959 1.18899,-2.2797 0.1019,-0.46334 0.1019,-1.47794 -1.6e-4,-2.01481 -0.27652,-1.4556 -1.04311,-3.05738 -2.13237,-4.45555 l -0.31142,-0.39977 -0.30867,0.0191 c -0.16978,0.0104 -0.59305,0.0355 -0.94059,0.0555 l -0.63192,0.0365 -0.19162,0.25034 c -0.1054,0.13767 -0.29837,0.35707 -0.42888,0.48745 -0.27046,0.27029 -0.65126,0.55102 -0.61228,0.4513 0.0131,-0.0344 0.0642,-0.21307 0.11299,-0.39701 0.51941,-1.96163 0.2618,-3.94884 -0.7474,-5.765799 -0.96917,-1.744908 -2.58519,-3.267488 -4.66128,-4.391793 l -0.41064,-0.222388 -0.18249,0.115779 c -0.10044,0.06371 -0.44986,0.291051 -0.77665,0.505205 l -0.59415,0.389368 0.0669,0.111252 c 0.29154,0.485525 0.38147,0.856336 0.3495,1.441199 -0.0131,0.249559 -0.0556,0.55232 -0.0931,0.67277 -0.49268,1.581487 -2.30325,3.534417 -4.79112,5.167787 -0.87884,0.57698 -1.51141,1.0722 -2.15259,1.68512 -0.56341,0.53858 -0.87744,0.8951 -1.22195,1.38722 -0.58331,0.83327 -0.93202,1.59462 -1.09343,2.38745 -0.0791,0.38873 -0.0921,1.57374 -0.0222,2.0143 0.37585,2.36617 2.38135,4.40917 5.34164,5.44151 0.68653,0.23942 1.04232,0.33322 1.79795,0.47403 l -4.3e-4,9e-5 c 0.31231,0.0582 0.58166,0.10639 0.87314,0.0727 -2.10884,-1.31507 -2.49043,-2.39822 -2.56021,-2.52258 -0.19365,-0.3452 -0.41207,-0.95141 -0.49687,-1.37903 -0.11007,-0.55506 -0.0725,-1.40575 0.0857,-1.94216 0.35814,-1.21416 1.15189,-2.37696 2.53417,-3.71239 0.29613,-0.28609 0.652,-0.5999 1.35546,-1.19526 l 0.0873,-0.0739 0.91724,0.29571 0.91725,0.29571 -0.0149,0.30759 c -0.0689,1.41995 0.81565,2.85421 2.29765,3.72524 1.33712,0.7859 2.10334,1.95044 2.10584,3.20056 4.9e-4,0.2657 0.0117,1.75051 -1.9063,2.96805 z"
       id="path11560" /></g></svg>
