<?xml version="1.0" encoding="UTF-8" standalone="no"?>
<!-- Created with Inkscape (http://www.inkscape.org/) -->

<svg
   xml:space="preserve"
   width="8in"
   height="8in"
   viewBox="0 0 203.2 203.2"
   version="1.1"
   id="svg43966"
   inkscape:version="1.2.2 (b0a8486541, 2022-12-01)"
   sodipodi:docname="panel.svg"
   xmlns:inkscape="http://www.inkscape.org/namespaces/inkscape"
   xmlns:sodipodi="http://sodipodi.sourceforge.net/DTD/sodipodi-0.dtd"
   xmlns="http://www.w3.org/2000/svg"
   xmlns:svg="http://www.w3.org/2000/svg"><sodipodi:namedview
     id="namedview43968"
     pagecolor="#ffffff"
     bordercolor="#000000"
     borderopacity="0.25"
     inkscape:showpageshadow="2"
     inkscape:pageopacity="0.0"
     inkscape:pagecheckerboard="0"
     inkscape:deskcolor="#d1d1d1"
     inkscape:document-units="mm"
     showgrid="false"
     inkscape:zoom="1.4142136"
     inkscape:cx="330.21887"
     inkscape:cy="377.59502"
     inkscape:window-width="1920"
     inkscape:window-height="1019"
     inkscape:window-x="0"
     inkscape:window-y="0"
     inkscape:window-maximized="1"
     inkscape:current-layer="layer1" /><defs
     id="defs43963"><rect
       x="67.096764"
       y="211.56648"
       width="142.78036"
       height="156.61008"
       id="rect44870" /></defs><g
     inkscape:label="Layer 1"
     inkscape:groupmode="layer"
     id="layer1"
     transform="translate(-266.842,40.9934)"><text
       xml:space="preserve"
       transform="scale(0.26458333)"
       id="text44868"
       style="font-style:normal;font-variant:normal;font-weight:normal;font-stretch:normal;font-size:16px;font-family:'Abyssinica SIL';-inkscape-font-specification:'Abyssinica SIL, Normal';font-variant-ligatures:normal;font-variant-caps:normal;font-variant-numeric:normal;font-variant-east-asian:normal;white-space:pre;shape-inside:url(#rect44870);display:inline;fill:#000000;fill-opacity:1;stroke:none" /><text
       xml:space="preserve"
       style="font-size:4.23333px;line-height:125%;font-family:Bravura;-inkscape-font-specification:Bravura;letter-spacing:0px;word-spacing:0px;fill:none;stroke:#000000;stroke-width:0.264583px;stroke-linecap:butt;stroke-linejoin:miter;stroke-opacity:1"
       x="41.288353"
       y="15.023044"
       id="text3677"><tspan
         sodipodi:role="line"
         id="tspan3675"
         style="stroke-width:0.264583px"
         x="41.288353"
         y="15.023044" /></text><path
       id="path44203"
       style="fill:#000000;stroke:none;stroke-width:0.264583;fill-opacity:1"
       d="m 289.26708,-18.936439 a 14.867708,14.867708 0 0 0 -12.9496,7.581449 V 3.2177635 a 14.867708,14.867708 0 0 0 12.9496,7.5814495 14.867708,14.867708 0 0 0 12.95011,-7.5819663 V -11.356024 a 14.867708,14.867708 0 0 0 -12.95011,-7.580415 z" /><path
       id="path44193"
       style="fill:#000000;stroke:none;stroke-width:0.264584;fill-opacity:1"
       d="m 354.99603,-14.936168 v 0.67645 a 10.367708,10.367709 0 0 0 -8.32352,8.3235197 h -0.67644 v 3.73517 h 0.67644 a 10.367708,10.367709 0 0 0 8.32352,8.3235301 v 0.67644 h 3.73517 v -0.67644 a 10.367708,10.367709 0 0 0 8.32352,-8.3235301 h 0.67645 v -3.73517 h -0.66921 a 10.367708,10.367709 0 0 0 -8.33076,-8.3307597 v -0.66921 z" /><path
       id="path44193-7"
       style="fill:#000000;stroke:none;stroke-width:0.264584;fill-opacity:1"
       d="m 325.09222,-14.936168 v 0.67645 a 10.367708,10.367709 0 0 0 -8.32353,8.3235197 h -0.67644 v 3.73517 h 0.67644 a 10.367708,10.367709 0 0 0 8.32353,8.3235301 v 0.67644 h 3.73517 v -0.67644 a 10.367708,10.367709 0 0 0 8.32352,-8.3235301 h 0.67645 v -3.73517 h -0.66921 a 10.367708,10.367709 0 0 0 -8.33076,-8.3307597 v -0.66921 z" /><path
       id="path44193-8"
       style="fill:#000000;stroke:none;stroke-width:0.264584;fill-opacity:1"
       d="m 384.89985,-14.936168 v 0.67645 a 10.367708,10.367709 0 0 0 -8.32352,8.3235197 h -0.67644 v 3.73517 h 0.67644 a 10.367708,10.367709 0 0 0 8.32352,8.3235301 v 0.67644 h 3.73517 v -0.67644 a 10.367708,10.367709 0 0 0 8.32352,-8.3235301 h 0.67644 v -3.73517 h -0.66921 a 10.367708,10.367709 0 0 0 -8.33075,-8.3307597 v -0.66921 z" /><path
       id="path44193-4"
       style="fill:#000000;stroke:none;stroke-width:0.264584;fill-opacity:1"
       d="m 414.80367,-14.936168 v 0.67645 a 10.367708,10.367709 0 0 0 -8.32353,8.3235197 h -0.67644 v 3.73517 h 0.67644 a 10.367708,10.367709 0 0 0 8.32353,8.3235301 v 0.67644 h 3.73517 v -0.67644 a 10.367708,10.367709 0 0 0 8.32352,-8.3235301 h 0.67645 v -3.73517 h -0.66921 a 10.367708,10.367709 0 0 0 -8.33076,-8.3307597 v -0.66921 z" /><path
       id="path44193-5"
       style="fill:#000000;stroke:none;stroke-width:0.264584;fill-opacity:1"
       d="m 444.70749,-14.936168 v 0.67645 a 10.367708,10.367709 0 0 0 -8.32352,8.3235197 h -0.67645 v 3.73517 h 0.67645 a 10.367708,10.367709 0 0 0 8.32352,8.3235301 v 0.67644 h 3.73517 v -0.67644 a 10.367708,10.367709 0 0 0 8.32353,-8.3235301 h 0.67644 v -3.73517 h -0.66921 a 10.367708,10.367709 0 0 0 -8.33076,-8.3307597 v -0.66921 z" /><path
       style="fill:none;stroke:#000000;stroke-width:0.1;stroke-dasharray:none;stroke-dashoffset:0"
       d="m 266.842,27.0526 h 203.2"
       id="path1673" /><path
       style="fill:none;stroke:#000000;stroke-width:0.1;stroke-dasharray:none;stroke-dashoffset:0"
       d="m 266.842,94.4386 h 203.2"
       id="path1673-7" /><g
       id="g3184"
       transform="translate(-101.59997)"
       style="fill:#000000;fill-opacity:1;stroke:none"><circle
         style="fill:#000000;stroke:none;stroke-width:0.1;stroke-dasharray:none;stroke-dashoffset:0;fill-opacity:1"
         id="path4059"
         cx="564.02197"
         cy="-29.5634"
         r="1.855" /><circle
         style="fill:#000000;stroke:none;stroke-width:0.1;stroke-dasharray:none;stroke-dashoffset:0;fill-opacity:1"
         id="path4059-5"
         cx="564.02197"
         cy="19.119934"
         r="1.855" /></g><circle
       style="fill:#000000;stroke:none;stroke-width:0.1;stroke-dasharray:none;stroke-dashoffset:0;fill-opacity:1"
       id="path4059-3"
       cx="278.272"
       cy="-29.5634"
       r="1.855" /><circle
       style="fill:#000000;stroke:none;stroke-width:0.1;stroke-dasharray:none;stroke-dashoffset:0;fill-opacity:1"
       id="path4059-56"
       cx="278.272"
       cy="19.119934"
       r="1.855" /><g
       id="g3125"
       transform="translate(-101.59997)"
       style="fill:#000000;fill-opacity:1;stroke:none"><circle
         style="fill:#000000;stroke:none;stroke-width:0.1;stroke-dasharray:none;stroke-dashoffset:0;fill-opacity:1"
         id="path4059-9"
         cx="564.02197"
         cy="38.169933"
         r="1.855" /><circle
         style="fill:#000000;stroke:none;stroke-width:0.1;stroke-dasharray:none;stroke-dashoffset:0;fill-opacity:1"
         id="path4059-5-1"
         cx="564.02197"
         cy="86.853271"
         r="1.855" /></g><circle
       style="fill:#000000;stroke:none;stroke-width:0.1;stroke-dasharray:none;stroke-dashoffset:0;fill-opacity:1"
       id="path4059-3-2"
       cx="278.272"
       cy="38.169933"
       r="1.855" /><circle
       style="fill:#000000;stroke:none;stroke-width:0.1;stroke-dasharray:none;stroke-dashoffset:0;fill-opacity:1"
       id="path4059-56-7"
       cx="278.272"
       cy="86.853271"
       r="1.855" /><path
       style="fill:#000000;stroke:none;stroke-width:0.999997"
       d="m 415.65882,-19.911069 c -0.55315,-0.05576 -1.15016,-0.259851 -1.47704,-0.504923 -0.4825,-0.361745 -0.71312,-0.795717 -0.71182,-1.339501 9.7e-4,-0.40707 0.13534,-0.764698 0.41968,-1.11695 0.16757,-0.207591 0.33136,-0.344061 0.62289,-0.518978 0.27966,-0.167799 0.42583,-0.283052 0.62847,-0.495565 0.33739,-0.353811 0.59153,-0.841307 0.67079,-1.286704 l 0.021,-0.11804 -0.12479,-0.05713 c -0.20618,-0.0944 -0.49446,-0.299605 -0.66176,-0.471071 l -0.15756,-0.161484 -0.24005,0.116992 c -1.38255,0.673793 -2.77595,0.852755 -3.84511,0.493849 -0.59933,-0.201189 -1.09803,-0.614448 -1.35398,-1.12202 -0.19673,-0.390137 -0.27818,-0.781792 -0.27832,-1.338315 -3.4e-4,-1.386162 0.49742,-2.371617 1.35523,-2.683054 0.15038,-0.0546 0.19458,-0.05999 0.49186,-0.06004 0.29593,-4.5e-5 0.34358,0.0057 0.50685,0.06102 0.45156,0.153015 0.84193,0.489724 1.12634,0.971506 0.26219,0.444151 0.53894,0.731056 0.92359,0.957498 0.24517,0.144332 0.41376,0.216172 0.6656,0.283641 0.30666,0.08216 0.31828,0.08035 0.38367,-0.05939 0.11391,-0.243432 0.30435,-0.492318 0.53669,-0.701377 l 0.0954,-0.08581 -0.14567,-0.297142 c -0.43114,-0.879404 -0.64604,-1.745251 -0.64571,-2.601648 2.5e-4,-0.710414 0.15534,-1.311111 0.46132,-1.786932 0.1298,-0.201856 0.51692,-0.588899 0.6918,-0.691662 0.43128,-0.253429 0.8756,-0.362345 1.48236,-0.363364 0.63547,-0.0011 1.21286,0.111135 1.68517,0.32747 1.05152,0.481632 1.39142,1.568255 0.77926,2.491247 -0.19922,0.300388 -0.39008,0.463276 -0.95822,0.817805 -0.17412,0.108655 -0.47863,0.396879 -0.63062,0.596898 -0.20369,0.268047 -0.40903,0.753209 -0.45855,1.083438 -0.0148,0.09879 -0.0136,0.101403 0.0599,0.127968 0.1568,0.0567 0.45725,0.265012 0.6537,0.453235 l 0.2042,0.195636 0.23447,-0.120285 c 0.67521,-0.346381 1.46458,-0.584183 2.19037,-0.659861 0.31424,-0.03277 0.9063,-0.01575 1.17951,0.03389 1.04665,0.190182 1.78962,0.820665 2.0313,1.723754 0.0856,0.319935 0.11075,0.589481 0.0965,1.034796 -0.0201,0.628028 -0.12545,1.104088 -0.34198,1.545805 -0.26457,0.539712 -0.65669,0.879465 -1.16053,1.005542 -0.15738,0.03938 -0.23297,0.04568 -0.42801,0.03566 -0.59768,-0.0307 -1.14487,-0.368008 -1.48711,-0.916702 -0.26401,-0.423282 -0.33696,-0.521363 -0.52823,-0.710192 -0.23179,-0.228837 -0.44478,-0.379489 -0.71665,-0.506889 -0.19408,-0.09095 -0.49668,-0.186519 -0.66988,-0.211565 l -0.10137,-0.01466 -0.05,0.109171 c -0.0866,0.189197 -0.26857,0.447028 -0.44792,0.634752 l -0.17313,0.181208 0.12963,0.273999 c 0.16663,0.35223 0.31022,0.710191 0.39466,0.983909 0.43686,1.416021 0.32968,2.722517 -0.292,3.559405 -0.28095,0.378199 -0.73264,0.687963 -1.19951,0.822604 -0.33354,0.09619 -0.93529,0.129092 -1.43663,0.07855 z"
       id="path2037"
       sodipodi:nodetypes="ssssssscsscsssssssssssscsssssssssssscsssssssssssscsscssssss" /><path
       style="fill:#000000;stroke:none;stroke-width:1"
       d="m 383.00751,-19.948265 c 0,-0.03337 0.14475,-1.072658 0.32167,-2.309532 0.17692,-1.236874 0.32167,-2.267206 0.32167,-2.289626 0,-0.02242 -0.0648,-0.05141 -0.1439,-0.06442 -0.0791,-0.01301 -0.25521,-0.06177 -0.39125,-0.108347 -0.13603,-0.04658 -0.25398,-0.07805 -0.2621,-0.06993 -0.008,0.0081 -0.25845,0.512648 -0.55629,1.121172 -0.29784,0.608524 -0.55187,1.106407 -0.56451,1.106407 -0.0597,0 -0.75475,-0.416244 -0.73864,-0.442321 0.0101,-0.01636 0.32927,-0.490372 0.70924,-1.053366 l 0.69085,-1.023625 -0.14126,-0.120141 c -0.0777,-0.06608 -0.21016,-0.192484 -0.29438,-0.280904 l -0.15313,-0.160763 -1.85848,1.456909 c -1.02217,0.8013 -1.86265,1.45265 -1.86775,1.447445 -0.005,-0.0052 -0.24617,-0.420011 -0.53572,-0.921791 l -0.52646,-0.912327 2.19104,-0.878119 c 1.20508,-0.482966 2.19609,-0.882485 2.20226,-0.88782 0.006,-0.0053 -0.007,-0.04346 -0.0289,-0.08471 -0.0221,-0.04126 -0.0682,-0.211869 -0.10245,-0.379135 -0.0343,-0.167266 -0.0687,-0.310524 -0.0765,-0.318351 -0.0132,-0.01321 -1.75194,0.09679 -2.2666,0.143394 l -0.22855,0.0207 v -0.443617 c 0,-0.399949 0.006,-0.443609 0.0593,-0.443537 0.0326,3.4e-5 0.59113,0.03829 1.2412,0.08499 0.65007,0.0467 1.18801,0.07884 1.19543,0.07141 0.007,-0.0074 0.0415,-0.150349 0.0758,-0.317615 0.0343,-0.167267 0.0804,-0.337877 0.10245,-0.379135 0.0221,-0.04126 0.0351,-0.0799 0.0289,-0.08587 -0.006,-0.006 -0.9902,-0.40237 -2.18675,-0.880887 l -2.17554,-0.87003 0.11008,-0.192899 c 0.68372,-1.198173 0.96034,-1.653962 0.98998,-1.631216 0.0189,0.01448 0.84452,0.660926 1.83477,1.436548 0.99025,0.775621 1.81243,1.410221 1.82707,1.410221 0.0146,0 0.0882,-0.06541 0.16343,-0.145358 0.0753,-0.07995 0.20216,-0.198365 0.28202,-0.263152 l 0.14521,-0.117794 -0.68238,-1.013945 c -0.37532,-0.557671 -0.6882,-1.029687 -0.6953,-1.048925 -0.0117,-0.03158 0.72592,-0.477759 0.74737,-0.452106 0.005,0.0059 0.24935,0.506009 0.54305,1.111257 0.29371,0.605248 0.5386,1.105834 0.5442,1.112412 0.006,0.0066 0.12925,-0.02697 0.27476,-0.07455 0.14551,-0.04758 0.3217,-0.09656 0.39154,-0.108844 0.0698,-0.01228 0.12697,-0.0327 0.12697,-0.04538 0,-0.01267 -0.14475,-1.03503 -0.32167,-2.271904 -0.17692,-1.236873 -0.32167,-2.276163 -0.32167,-2.309532 0,-0.05702 0.0632,-0.06067 1.04966,-0.06067 0.98644,0 1.04967,0.0037 1.04967,0.06067 0,0.03337 -0.14476,1.072659 -0.32167,2.309532 -0.17692,1.236874 -0.32168,2.259587 -0.32168,2.272696 0,0.01311 0.0635,0.03456 0.14105,0.04766 0.0776,0.01311 0.24785,0.06016 0.37839,0.104556 0.13054,0.0444 0.24215,0.08073 0.24802,0.08073 0.006,0 0.25705,-0.502822 0.55818,-1.117382 0.30113,-0.61456 0.55945,-1.117381 0.57404,-1.117381 0.0275,0 0.66807,0.36401 0.72012,0.409227 0.0162,0.0141 -0.0994,0.213483 -0.25687,0.443078 -0.1575,0.229596 -0.47278,0.695709 -0.70061,1.035809 l -0.41423,0.618362 0.27759,0.261999 c 0.15267,0.144099 0.29059,0.266986 0.30649,0.273082 0.0159,0.0061 0.84056,-0.625012 1.83257,-1.402462 0.99202,-0.77745 1.82099,-1.426645 1.84218,-1.442656 0.0264,-0.01996 0.20498,0.260024 0.56812,0.890771 0.29129,0.505935 0.52536,0.923803 0.52018,0.928596 -0.005,0.0048 -0.98461,0.400558 -2.17648,0.879479 -1.19187,0.478921 -2.17041,0.873692 -2.17452,0.877268 -0.004,0.0036 0.0179,0.08567 0.0488,0.182437 l 0.0563,0.175935 h 4.85246 4.85245 v 0.711061 0.711061 h -4.85245 -4.85246 l -0.0547,0.171103 c -0.0539,0.168538 -0.0536,0.171527 0.0189,0.199441 0.25199,0.09696 4.27458,1.707416 4.28454,1.715323 0.012,0.0096 -0.94398,1.681868 -1.02427,1.791663 -0.0363,0.04959 -0.26061,-0.115911 -1.88189,-1.388246 l -1.84072,-1.444552 -0.17219,0.182411 c -0.0947,0.100326 -0.23118,0.229619 -0.30328,0.287317 l -0.13111,0.104905 0.70111,1.039613 c 0.38561,0.571787 0.6884,1.051872 0.67286,1.066856 -0.0155,0.01498 -0.18555,0.119811 -0.37782,0.23295 l -0.34957,0.205707 -0.55667,-1.137598 c -0.47266,-0.965904 -0.56555,-1.13388 -0.61544,-1.112957 -0.1666,0.06986 -0.56273,0.185387 -0.63568,0.185387 -0.0458,0 -0.0834,0.01206 -0.0834,0.02681 0,0.01475 0.14476,1.038798 0.32168,2.275672 0.17691,1.236875 0.32167,2.283783 0.32167,2.326462 v 0.0776 h -1.04967 c -0.98643,0 -1.04966,-0.0037 -1.04966,-0.06067 z"
       id="path2365" /><path
       style="fill:#000000;stroke:none;stroke-width:1"
       d="m 352.4246,-19.903126 c -0.53021,-0.06182 -1.0652,-0.260981 -1.53265,-0.57054 -0.26189,-0.173439 -0.72,-0.620642 -0.89735,-0.875995 -0.74561,-1.073526 -0.84235,-2.446036 -0.25449,-3.610576 0.22882,-0.45329 0.71051,-0.99704 1.12881,-1.27424 0.35626,-0.23609 0.76356,-0.42011 1.10969,-0.50136 l 0.16556,-0.0389 0.0243,-0.11963 c 0.0475,-0.23386 0.21771,-0.70337 0.3624,-0.9994 0.51929,-1.0625 1.3859,-1.88124 2.47357,-2.33693 0.39641,-0.16608 0.75893,-0.2639 1.25038,-0.33739 0.25083,-0.0375 0.97076,-0.0376 1.22309,-2.5e-4 1.08172,0.16035 1.97494,0.58864 2.71216,1.30047 0.65513,0.63255 1.08754,1.35742 1.32364,2.21887 0.0403,0.14707 0.0757,0.26928 0.0787,0.27159 0.003,0.002 0.0778,0.0215 0.16632,0.0426 0.47234,0.11265 1.01802,0.39842 1.41324,0.74011 0.34891,0.30165 0.62497,0.6649 0.83982,1.10504 0.28014,0.5739 0.39597,1.17677 0.34521,1.79681 -0.028,0.34243 -0.0656,0.52985 -0.16869,0.84248 -0.16661,0.505006 -0.43612,0.934844 -0.84171,1.342417 -0.50461,0.507081 -1.03739,0.794519 -1.79399,0.967867 l -0.2123,0.04864 -4.37737,0.0035 c -2.40755,0.0019 -4.44978,-0.0049 -4.5383,-0.01523 z m 9.50576,-9.646411 c -0.50106,-0.0789 -0.86174,-0.25187 -1.19795,-0.57442 -0.29265,-0.28076 -0.47875,-0.59847 -0.58612,-1.00063 -0.0658,-0.24655 -0.0664,-0.64236 -0.001,-0.88206 0.0951,-0.35031 0.16179,-0.46655 0.90209,-1.57337 0.39469,-0.59009 0.74764,-1.10512 0.78435,-1.14451 0.11116,-0.11927 0.216,-0.16204 0.39952,-0.163 0.13657,-7.3e-4 0.17578,0.008 0.25749,0.056 0.053,0.0312 0.12153,0.0842 0.15227,0.11774 0.11346,0.1237 1.46672,2.16928 1.53792,2.32471 0.3435,0.74993 0.20043,1.57936 -0.37835,2.19348 -0.41379,0.43905 -0.97017,0.66645 -1.60861,0.65747 -0.11421,-0.002 -0.2318,-0.007 -0.2613,-0.0114 z"
       id="path3015"
       sodipodi:nodetypes="cssssccscsscssccssccsscccccsccssscccsccc" /><text
       xml:space="preserve"
       style="font-style:normal;font-variant:normal;font-weight:normal;font-stretch:normal;font-size:8.46667px;line-height:125%;font-family:Bitwise;-inkscape-font-specification:'Bitwise, Normal';font-variant-ligatures:normal;font-variant-caps:normal;font-variant-numeric:normal;font-variant-east-asian:normal;letter-spacing:0px;word-spacing:0px;fill:#000000;fill-opacity:1;stroke:none;stroke-width:0.264583px;stroke-linecap:butt;stroke-linejoin:miter;stroke-opacity:1"
       x="313.16425"
       y="19.543566"
       id="text3899"><tspan
         sodipodi:role="line"
         id="tspan3897"
         style="font-style:normal;font-variant:normal;font-weight:normal;font-stretch:normal;font-size:8.46667px;font-family:Bitwise;-inkscape-font-specification:'Bitwise, Normal';font-variant-ligatures:normal;font-variant-caps:normal;font-variant-numeric:normal;font-variant-east-asian:normal;fill:#000000;fill-opacity:1;stroke:none;stroke-width:0.264583px"
         x="313.16425"
         y="19.543566">Control</tspan></text><text
       xml:space="preserve"
       style="font-style:normal;font-variant:normal;font-weight:normal;font-stretch:normal;font-size:8.46667px;line-height:125%;font-family:Bitwise;-inkscape-font-specification:'Bitwise, Normal';font-variant-ligatures:normal;font-variant-caps:normal;font-variant-numeric:normal;font-variant-east-asian:normal;letter-spacing:0px;word-spacing:0px;fill:#000000;fill-opacity:1;stroke:none;stroke-width:0.264583px;stroke-linecap:butt;stroke-linejoin:miter;stroke-opacity:1"
       x="349.88522"
       y="19.543566"
       id="text3903"><tspan
         sodipodi:role="line"
         id="tspan3901"
         style="font-style:normal;font-variant:normal;font-weight:normal;font-stretch:normal;font-size:8.46667px;font-family:Bitwise;-inkscape-font-specification:'Bitwise, Normal';font-variant-ligatures:normal;font-variant-caps:normal;font-variant-numeric:normal;font-variant-east-asian:normal;fill:#000000;fill-opacity:1;stroke:none;stroke-width:0.264583px"
         x="349.88522"
         y="19.543566">Dry</tspan></text><text
       xml:space="preserve"
       style="font-style:normal;font-variant:normal;font-weight:normal;font-stretch:normal;font-size:8.46667px;line-height:125%;font-family:Bitwise;-inkscape-font-specification:'Bitwise, Normal';font-variant-ligatures:normal;font-variant-caps:normal;font-variant-numeric:normal;font-variant-east-asian:normal;letter-spacing:0px;word-spacing:0px;fill:#000000;fill-opacity:1;stroke:none;stroke-width:0.264583px;stroke-linecap:butt;stroke-linejoin:miter;stroke-opacity:1"
       x="375.81613"
       y="19.543566"
       id="text3907"><tspan
         sodipodi:role="line"
         id="tspan3905"
         style="font-style:normal;font-variant:normal;font-weight:normal;font-stretch:normal;font-size:8.46667px;font-family:Bitwise;-inkscape-font-specification:'Bitwise, Normal';font-variant-ligatures:normal;font-variant-caps:normal;font-variant-numeric:normal;font-variant-east-asian:normal;fill:#000000;fill-opacity:1;stroke:none;stroke-width:0.264583px"
         x="375.81613"
         y="19.543566">Laser</tspan></text><text
       xml:space="preserve"
       style="font-style:normal;font-variant:normal;font-weight:normal;font-stretch:normal;font-size:8.46667px;line-height:125%;font-family:Bitwise;-inkscape-font-specification:'Bitwise, Normal';font-variant-ligatures:normal;font-variant-caps:normal;font-variant-numeric:normal;font-variant-east-asian:normal;letter-spacing:0px;word-spacing:0px;fill:#000000;fill-opacity:1;stroke:none;stroke-width:0.264583px;stroke-linecap:butt;stroke-linejoin:miter;stroke-opacity:1"
       x="410.0029"
       y="19.543566"
       id="text3911"><tspan
         sodipodi:role="line"
         id="tspan3909"
         style="font-style:normal;font-variant:normal;font-weight:normal;font-stretch:normal;font-size:8.46667px;font-family:Bitwise;-inkscape-font-specification:'Bitwise, Normal';font-variant-ligatures:normal;font-variant-caps:normal;font-variant-numeric:normal;font-variant-east-asian:normal;fill:#000000;fill-opacity:1;stroke:none;stroke-width:0.264583px"
         x="410.0029"
         y="19.543566">Fan</tspan></text><text
       xml:space="preserve"
       style="font-style:normal;font-variant:normal;font-weight:normal;font-stretch:normal;font-size:8.46667px;line-height:125%;font-family:Bitwise;-inkscape-font-specification:'Bitwise, Normal';font-variant-ligatures:normal;font-variant-caps:normal;font-variant-numeric:normal;font-variant-east-asian:normal;letter-spacing:0px;word-spacing:0px;fill:#000000;fill-opacity:1;stroke:none;stroke-width:0.264583px;stroke-linecap:butt;stroke-linejoin:miter;stroke-opacity:1"
       x="437.32291"
       y="19.543566"
       id="text3915"><tspan
         sodipodi:role="line"
         id="tspan3913"
         style="font-style:normal;font-variant:normal;font-weight:normal;font-stretch:normal;font-size:8.46667px;font-family:Bitwise;-inkscape-font-specification:'Bitwise, Normal';font-variant-ligatures:normal;font-variant-caps:normal;font-variant-numeric:normal;font-variant-east-asian:normal;fill:#000000;fill-opacity:1;stroke:none;stroke-width:0.264583px"
         x="437.32291"
         y="19.543566">Light</tspan></text><path
       style="fill:#000000;stroke-width:1"
       d="m 446.434,-19.89426 c -0.44243,-0.10446 -0.73102,-0.40264 -0.77235,-0.798 l -0.0115,-0.11052 h 0.9246 0.92459 l -0.0115,0.11052 c -0.0347,0.33231 -0.27244,0.62697 -0.60665,0.75202 -0.10432,0.039 -0.3636,0.0657 -0.44709,0.046 z m -1.59462,-1.58796 c -0.24409,-0.0862 -0.38628,-0.33514 -0.33143,-0.58023 0.0298,-0.13318 0.1348,-0.26951 0.25639,-0.33292 l 0.0938,-0.0489 h 1.71656 1.71655 l 0.0938,0.0489 c 0.1216,0.0634 0.22659,0.19974 0.25639,0.33292 0.0559,0.24988 -0.0965,0.50889 -0.3429,0.58272 -0.0935,0.028 -3.37951,0.0256 -3.45916,-0.002 z m -0.0573,-1.63507 c -0.37367,-0.174 -0.38036,-0.70701 -0.0112,-0.88832 l 0.106,-0.0521 h 1.6978 1.69779 l 0.106,0.0521 c 0.15563,0.0764 0.2549,0.22097 0.27314,0.39773 0.0204,0.19758 -0.0996,0.40457 -0.28429,0.49059 l -0.0949,0.0442 h -1.69779 -1.6978 z m 0.20562,-1.70894 c -0.13951,-0.0307 -0.2914,-0.0933 -0.3936,-0.16215 -0.12639,-0.0851 -0.28368,-0.27036 -0.35322,-0.41597 -0.0967,-0.2024 -0.12286,-0.32799 -0.14221,-0.68174 -0.0214,-0.39059 -0.0509,-0.54067 -0.14633,-0.74298 -0.0963,-0.20416 -0.19062,-0.33935 -0.56651,-0.81179 -0.33065,-0.41559 -0.44682,-0.57926 -0.58731,-0.82746 -0.25519,-0.45082 -0.44077,-1.01529 -0.51004,-1.55135 -0.0371,-0.28703 -0.0369,-0.81076 3.6e-4,-1.09555 0.16549,-1.26406 0.85275,-2.36465 1.91269,-3.06304 1.07407,-0.70769 2.41384,-0.89747 3.64885,-0.51687 0.93326,0.28761 1.76993,0.90839 2.30432,1.70973 0.49273,0.73886 0.73518,1.5452 0.73468,2.44339 -3.6e-4,0.65482 -0.14897,1.286 -0.44211,1.87784 -0.17073,0.34471 -0.31995,0.5681 -0.68355,1.02331 -0.36276,0.45417 -0.46952,0.60599 -0.5626,0.8001 -0.0989,0.20629 -0.1281,0.3523 -0.14944,0.74761 -0.0207,0.38449 -0.0574,0.54094 -0.17518,0.74823 -0.0927,0.16317 -0.27952,0.34563 -0.42835,0.41843 -0.24764,0.12114 -0.17607,0.11642 -1.83594,0.12115 -1.20733,0.003 -1.53312,-7.5e-4 -1.62454,-0.0209 z"
       id="path6453"
       sodipodi:nodetypes="scccccssscsscccssscccsccccsscccccssssssscssssssscssccc" /><path
       style="fill:#000000;stroke-width:1"
       d="m 322.6143,-19.906259 c -0.20755,-0.02 -0.32859,-0.0654 -0.43914,-0.16471 -0.12762,-0.11463 -0.19247,-0.25847 -0.19339,-0.42895 -10e-4,-0.22992 0.0124,-0.24858 0.65857,-0.89791 0.48572,-0.48811 0.58243,-0.59441 0.62462,-0.68657 0.0433,-0.0946 0.0561,-0.17069 0.0967,-0.57545 0.0257,-0.25653 0.0432,-0.52651 0.0389,-0.59995 -0.0125,-0.21289 -0.12376,-0.38233 -0.31517,-0.47998 -0.14815,-0.0756 -0.21431,-0.0788 -0.79224,-0.0391 -0.45451,0.0312 -0.55959,0.0439 -0.63637,0.0768 -0.0732,0.0314 -0.21376,0.16027 -0.68789,0.63076 -0.65863,0.65357 -0.65873,0.65364 -0.89823,0.65364 -0.17436,0 -0.28458,-0.0456 -0.40763,-0.16865 -0.12418,-0.12419 -0.15975,-0.21243 -0.19041,-0.47237 -0.0259,-0.21931 -0.0106,-0.72807 0.0282,-0.93667 0.10922,-0.58825 0.30468,-1.044 0.65234,-1.52102 0.45241,-0.62076 1.22884,-1.07787 2.07148,-1.21955 0.6311,-0.10611 1.38882,-0.009 1.96169,0.25189 l 0.14784,0.0673 1.77479,-1.77464 c 0.97614,-0.97605 1.77079,-1.78314 1.7659,-1.79353 -0.22526,-0.47819 -0.35079,-1.03586 -0.35004,-1.55505 0.002,-1.2544 0.71944,-2.43016 1.82089,-2.98336 0.49889,-0.25056 0.98519,-0.36473 1.55138,-0.36424 0.48692,4.3e-4 0.68092,0.0411 0.83252,0.17454 0.12799,0.11266 0.19724,0.26699 0.19702,0.43904 -2.8e-4,0.23695 -0.0186,0.26182 -0.68962,0.93528 -0.47061,0.47236 -0.60169,0.61468 -0.63516,0.68966 -0.0371,0.083 -0.0467,0.16417 -0.0793,0.67075 l -0.0371,0.57628 0.043,0.11184 c 0.0454,0.1179 0.15283,0.25 0.25435,0.31274 0.0334,0.0206 0.11121,0.0504 0.17299,0.0663 0.10538,0.027 0.14555,0.0255 0.6503,-0.0251 0.45272,-0.0453 0.55146,-0.0607 0.62301,-0.0967 0.0567,-0.0285 0.28968,-0.24581 0.69909,-0.65198 0.68217,-0.67677 0.6746,-0.67128 0.92616,-0.67128 0.21578,0 0.40853,0.1227 0.5123,0.32611 0.0826,0.16187 0.11932,0.72293 0.0727,1.11037 -0.16541,1.37489 -1.14966,2.50776 -2.47786,2.85201 -0.3598,0.0933 -0.60337,0.12036 -0.96997,0.10796 -0.48777,-0.0165 -0.92324,-0.11354 -1.32193,-0.29457 l -0.13159,-0.0598 -1.77459,1.77462 -1.77458,1.77461 0.0782,0.18223 c 0.48311,1.12634 0.33405,2.42895 -0.38955,3.40407 -0.335,0.45143 -0.79741,0.80078 -1.35788,1.02585 -0.56626,0.22739 -1.10133,0.30474 -1.70524,0.24649 z"
       id="path5203" /><text
       xml:space="preserve"
       style="font-style:normal;font-variant:normal;font-weight:normal;font-stretch:normal;font-size:10.5833px;line-height:125%;font-family:Bitwise;-inkscape-font-specification:'Bitwise, Normal';font-variant-ligatures:normal;font-variant-caps:normal;font-variant-numeric:normal;font-variant-east-asian:normal;letter-spacing:0px;word-spacing:0px;fill:#000000;fill-opacity:1;stroke:none;stroke-width:0.264583px;stroke-linecap:butt;stroke-linejoin:miter;stroke-opacity:1"
       x="391.6525"
       y="44.31683"
       id="text3973"><tspan
         sodipodi:role="line"
         id="tspan3971"
         style="font-style:normal;font-variant:normal;font-weight:normal;font-stretch:normal;font-size:10.5833px;font-family:Bitwise;-inkscape-font-specification:'Bitwise, Normal';font-variant-ligatures:normal;font-variant-caps:normal;font-variant-numeric:normal;font-variant-east-asian:normal;fill:#000000;fill-opacity:1;stroke:none;stroke-width:0.264583px"
         x="391.6525"
         y="44.31683">FIRE</tspan></text><path
       id="path45203"
       style="fill:#000000;fill-opacity:1;stroke:none;stroke-width:0.264583;stroke-opacity:1"
       d="m 335.2157,59.388896 a 11.117709,11.117709 0 0 0 -11.11767,11.11767 11.117709,11.117709 0 0 0 11.11767,11.11766 11.117709,11.117709 0 0 0 11.11818,-11.11766 11.117709,11.117709 0 0 0 -11.11818,-11.11767 z" /><path
       id="rect45015-9"
       style="fill:#000000;fill-opacity:1;stroke:none;stroke-width:0.264583;stroke-opacity:1"
       d="m 403.72049,55.591695 v 1.79007 h -3.00033 v -1.78955 c -5.6334,0.56638 -10.46791,4.25646 -12.50002,9.54101 v 10.74715 c 2.03211,5.28456 6.86662,8.97464 12.50002,9.54102 v -1.78955 h 3.00033 v 1.78955 c 5.6334,-0.56638 10.4679,-4.25647 12.50001,-9.54102 v -10.75593 c -2.03459,-5.28132 -6.8686,-8.96783 -12.50001,-9.53275 z"
       sodipodi:nodetypes="ccccccccccccccc" /><text
       xml:space="preserve"
       style="font-style:normal;font-variant:normal;font-weight:normal;font-stretch:normal;font-size:10.5833px;line-height:125%;font-family:Bitwise;-inkscape-font-specification:'Bitwise, Normal';font-variant-ligatures:normal;font-variant-caps:normal;font-variant-numeric:normal;font-variant-east-asian:normal;letter-spacing:0px;word-spacing:0px;fill:#000000;fill-opacity:1;stroke:none;stroke-width:0.264583px;stroke-linecap:butt;stroke-linejoin:miter;stroke-opacity:1"
       x="315.69257"
       y="44.31683"
       id="text3919"><tspan
         sodipodi:role="line"
         id="tspan3917"
         style="font-style:normal;font-variant:normal;font-weight:normal;font-stretch:normal;font-size:10.5833px;font-family:Bitwise;-inkscape-font-specification:'Bitwise, Normal';font-variant-ligatures:normal;font-variant-caps:normal;font-variant-numeric:normal;font-variant-east-asian:normal;fill:#000000;fill-opacity:1;stroke:none;stroke-width:0.264583px"
         x="315.69257"
         y="44.31683">E-STOP</tspan></text><path
       style="fill:none;fill-opacity:1;stroke:#000000;stroke-width:0.2;stroke-linejoin:bevel;stroke-dasharray:2.4, 2.4;stroke-dashoffset:2;stroke-opacity:1;stop-color:#000000"
       id="path5094"
       sodipodi:type="arc"
       sodipodi:cx="335.21582"
       sodipodi:cy="70.507141"
       sodipodi:rx="20"
       sodipodi:ry="20"
       sodipodi:start="0.00043633231"
       sodipodi:end="6.2831853"
       sodipodi:open="true"
       sodipodi:arc-type="arc"
       d="M 355.21582,70.515868 A 20,20 0 0 1 335.20928,90.50714 20,20 0 0 1 315.21582,70.502778 20,20 0 0 1 335.218,50.507141 a 20,20 0 0 1 19.99782,20" /><path
       style="fill:none;fill-opacity:1;stroke:#000000;stroke-width:0.2;stroke-linejoin:bevel;stroke-dasharray:2.4, 2.4;stroke-dashoffset:2;stroke-opacity:1;stop-color:#000000"
       id="path5094-1"
       sodipodi:type="arc"
       sodipodi:cx="402.22021"
       sodipodi:cy="70.507141"
       sodipodi:rx="20"
       sodipodi:ry="20"
       sodipodi:start="0.00043633231"
       sodipodi:end="6.2831853"
       sodipodi:open="true"
       sodipodi:arc-type="arc"
       d="M 422.22021,70.515868 A 20,20 0 0 1 402.21367,90.50714 20,20 0 0 1 382.22022,70.502778 20,20 0 0 1 402.2224,50.507141 a 20,20 0 0 1 19.99781,20" /><path
       style="fill:none;stroke:#000000;stroke-width:1;stroke-opacity:1"
       d="m 284.66698,72.681031 c -0.32441,-0.109944 -0.36936,-0.142717 -0.60875,-0.444539 -0.2375,-0.299412 -0.39228,-0.654847 -0.39228,-0.900744 0,-0.03726 -0.0199,-0.06779 -0.0442,-0.06779 -0.0244,0 -0.0442,-0.104062 -0.0442,-0.231359 0,-0.127312 0.0158,-0.231345 0.035,-0.231345 0.0193,0 0.0704,-0.154147 0.11368,-0.34255 0.0623,-0.271318 0.32373,-0.81926 1.25715,-2.634839 0.64816,-1.260755 1.36178,-2.650877 1.58581,-3.08916 0.22403,-0.438282 1.02543,-1.999904 1.78089,-3.47027 0.75544,-1.470366 2.02726,-3.945826 2.82625,-5.501022 1.77684,-3.458577 1.59542,-3.132073 1.9283,-3.47027 0.24196,-0.24581 0.32517,-0.29665 0.63687,-0.389032 l 0.35854,-0.106274 0.37229,0.114566 c 0.35399,0.108936 0.3871,0.131835 0.67364,0.466149 0.24395,0.284628 0.42706,0.596348 0.96148,1.636868 0.36307,0.706907 1.27815,2.488312 2.03351,3.958678 0.75536,1.470368 1.90706,3.714475 2.55934,4.986908 0.65227,1.272432 1.27066,2.47546 1.37417,2.673393 1.28524,2.45731 2.3023,4.502217 2.36206,4.749164 0.0385,0.159034 0.0861,0.296864 0.10584,0.30629 0.0477,0.02283 0.0465,0.67692 -0.001,0.67692 -0.0204,0 -0.0609,0.12283 -0.0899,0.272844 -0.0445,0.230869 -0.0958,0.322438 -0.33271,0.594987 -0.25545,0.293769 -0.31266,0.33311 -0.64997,0.446906 l -0.36987,0.12479 -9.04059,-0.0056 -9.0406,-0.0056 z m 9.16079,-2.796659 c -0.22789,-0.06653 -0.45109,-0.255617 -0.60266,-0.510421 -0.13174,-0.221388 -0.14257,-0.271402 -0.14337,-0.65919 -8.4e-4,-0.384861 0.01,-0.43797 0.13328,-0.641206 0.0738,-0.121849 0.22008,-0.291625 0.32511,-0.377256 0.17514,-0.142773 0.22091,-0.155588 0.55258,-0.15465 0.33383,9.67e-4 0.37741,0.01401 0.56711,0.165589 0.11299,0.09048 0.26175,0.275141 0.3305,0.410281 0.10654,0.20944 0.12474,0.299861 0.12292,0.612705 -0.001,0.313936 -0.0207,0.401583 -0.13104,0.606023 -0.23485,0.435029 -0.73252,0.671333 -1.15434,0.548125 z m -0.0381,-3.675893 c -0.17731,-0.09144 -0.32411,-0.283315 -0.38071,-0.497571 -0.0255,-0.09643 -0.0736,-0.98505 -0.10696,-1.974719 -0.0333,-0.98967 -0.0837,-2.447184 -0.11186,-3.23892 -0.0564,-1.58708 -0.0431,-1.848116 0.1085,-2.126783 0.45115,-0.829289 1.54963,-0.586639 1.70471,0.376562 0.0202,0.125169 0.0112,1.005672 -0.0213,1.989887 -0.17547,5.396697 -0.14663,4.906697 -0.30533,5.189056 -0.1799,0.320138 -0.57198,0.444994 -0.88708,0.282488 z"
       id="path20731"
       sodipodi:nodetypes="csssssssssssscssssscscsccsccccscccsscsccsssssscscsss" /><path
       style="fill:none;stroke:#000000;stroke-width:0.1;stroke-dasharray:none;stroke-opacity:1"
       d="m 445.24693,73.691437 c 0.0283,0.02234 1.01089,-0.127706 1.50914,-0.230445 2.32305,-0.479028 4.39883,-1.579229 5.73397,-3.039103 0.68792,-0.752187 0.97342,-1.299593 1.18899,-2.279708 0.1019,-0.463333 0.1019,-1.47794 -1.6e-4,-2.014804 -0.27652,-1.455597 -1.04311,-3.057382 -2.13237,-4.455555 l -0.31142,-0.399763 -0.30867,0.01913 c -0.16978,0.01037 -0.59305,0.03548 -0.94059,0.05548 l -0.63192,0.0365 -0.19162,0.250332 c -0.1054,0.137679 -0.29837,0.357073 -0.42888,0.487452 -0.27046,0.27029 -0.65126,0.55102 -0.61228,0.451301 0.0131,-0.03443 0.0642,-0.213073 0.11299,-0.397004 0.51941,-1.961632 0.2618,-3.948843 -0.7474,-5.765803 -0.96917,-1.744908 -2.58519,-3.267488 -4.66128,-4.391793 l -0.41064,-0.222388 -0.18249,0.115779 c -0.10044,0.06371 -0.44986,0.291051 -0.77665,0.505205 l -0.59415,0.389368 0.0669,0.111252 c 0.29154,0.485525 0.38147,0.856336 0.3495,1.441199 -0.0131,0.249559 -0.0556,0.55232 -0.0931,0.67277 -0.49268,1.581491 -2.30325,3.534421 -4.79112,5.167785 -0.87884,0.576979 -1.51141,1.072198 -2.15259,1.685122 -0.56341,0.538581 -0.87744,0.895099 -1.22195,1.387222 -0.58331,0.833268 -0.93202,1.594616 -1.09343,2.38745 -0.0791,0.388727 -0.0921,1.573738 -0.0222,2.014302 0.37585,2.366164 2.38135,4.409162 5.34164,5.44151 0.68653,0.239416 1.04232,0.333212 1.79795,0.47403 l -4.3e-4,8.3e-5 c 0.31231,0.0582 0.58166,0.10639 0.87314,0.07268 -2.10884,-1.315065 -2.49043,-2.398218 -2.56021,-2.522577 -0.19365,-0.345202 -0.41207,-0.951407 -0.49687,-1.379029 -0.11007,-0.555063 -0.0725,-1.405756 0.0857,-1.942163 0.35814,-1.214163 1.15189,-2.376954 2.53417,-3.71239 0.29613,-0.286088 0.652,-0.599901 1.35546,-1.195262 l 0.0873,-0.07388 0.91724,0.295709 0.91725,0.29571 -0.0149,0.307593 c -0.0689,1.419956 0.81565,2.85421 2.29765,3.725245 1.33712,0.785895 2.10334,1.950435 2.10584,3.200557 4.9e-4,0.265703 0.0117,1.750512 -1.9063,2.968045 z m -1.12991,-1.202126 c -1e-5,-0.01854 0.0642,-0.10058 0.14263,-0.182286 0.19948,-0.207722 0.40987,-0.550424 0.53016,-0.863561 0.14175,-0.369097 0.14409,-1.053107 0.004,-1.418412 -0.23265,-0.610071 -0.58022,-0.998639 -1.36805,-1.529448 -0.96146,-0.647792 -1.50157,-1.158272 -1.96314,-1.855428 -0.20278,-0.306284 -0.41502,-0.736584 -0.53229,-1.079181 l -0.0588,-0.171711 -0.22565,0.239572 c -0.56631,0.601257 -1.10073,1.36004 -1.36464,1.937593 -0.26043,0.569921 -0.3264,0.870216 -0.32588,1.483194 3.4e-4,0.344178 0.0226,0.636277 0.0574,0.751003 0.23396,0.77253 0.70405,1.496297 1.54825,2.38374 0.1971,0.207195 0.33472,0.502804 0.50322,0.734538 0.96629,0.636308 2.12333,1.121455 3.05247,-0.429613 z"
       id="path11560"
       sodipodi:nodetypes="csssssccccsscsssccscscssssscscccssssscccsssccccscssscssssscc" /></g></svg>
