<?xml version="1.0" encoding="UTF-8" standalone="no"?>
<!-- Created with Inkscape (http://www.inkscape.org/) -->

<svg
   xml:space="preserve"
   width="42in"
   height="5in"
   viewBox="0 0 1066.8 127"
   version="1.1"
   id="svg43966"
   inkscape:version="1.2.2 (b0a8486541, 2022-12-01)"
   sodipodi:docname="panel-split.svg"
   inkscape:export-filename="panel.png"
   inkscape:export-xdpi="96"
   inkscape:export-ydpi="96"
   xmlns:inkscape="http://www.inkscape.org/namespaces/inkscape"
   xmlns:sodipodi="http://sodipodi.sourceforge.net/DTD/sodipodi-0.dtd"
   xmlns="http://www.w3.org/2000/svg"
   xmlns:svg="http://www.w3.org/2000/svg"><sodipodi:namedview
     id="namedview43968"
     pagecolor="#ffffff"
     bordercolor="#000000"
     borderopacity="0.25"
     inkscape:showpageshadow="2"
     inkscape:pageopacity="0.0"
     inkscape:pagecheckerboard="0"
     inkscape:deskcolor="#d1d1d1"
     inkscape:document-units="mm"
     showgrid="false"
     inkscape:zoom="0.54558482"
     inkscape:cx="847.7142"
     inkscape:cy="260.27117"
     inkscape:window-width="1920"
     inkscape:window-height="1019"
     inkscape:window-x="0"
     inkscape:window-y="0"
     inkscape:window-maximized="1"
     inkscape:current-layer="layer1"
     showguides="false" /><defs
     id="defs43963"><rect
       x="67.096764"
       y="211.56648"
       width="142.78036"
       height="156.61008"
       id="rect44870" /></defs><g
     inkscape:label="Layer 1"
     inkscape:groupmode="layer"
     id="layer1"
     transform="translate(-266.842,40.9934)"><path
       id="rect3991-6-0-1-2"
       style="fill:#000000;fill-opacity:1;stroke:#ffffff;stroke-width:0.0999991;stroke-dasharray:none;stroke-opacity:1"
       d="M 266.89213 -40.943274 L 266.89213 85.956474 L 800.19187 85.956474 L 800.19187 -40.943274 L 266.89213 -40.943274 z M 276.74682 -32.943245 A 1.855 1.855 0 0 1 278.60201 -31.088061 A 1.855 1.855 0 0 1 276.74682 -29.232878 A 1.855 1.855 0 0 1 274.89215 -31.088061 A 1.855 1.855 0 0 1 276.74682 -32.943245 z M 533.542 -31.089095 A 1.855 1.855 0 0 1 535.39718 -29.233911 A 1.855 1.855 0 0 1 533.542 -27.378727 A 1.855 1.855 0 0 1 531.68733 -29.233911 A 1.855 1.855 0 0 1 533.542 -31.089095 z M 790.33666 -31.089095 A 1.855 1.855 0 0 1 792.19185 -29.233911 A 1.855 1.855 0 0 1 790.33666 -27.378727 A 1.855 1.855 0 0 1 788.48199 -29.233911 A 1.855 1.855 0 0 1 790.33666 -31.089095 z M 728.59883 -1.0935099 A 1.750008 1.75 0 0 1 730.34911 0.65522061 L 730.34911 0.65728766 A 1.750008 1.75 0 1 1 728.59883 -1.0935099 z M 728.70166 4.2069418 A 20.933762 20.929169 0 0 1 749.46629 25.115743 L 749.46629 25.136414 A 20.933762 20.929169 0 1 1 727.30072 4.2436321 A 20.933762 20.929169 0 0 1 728.70166 4.2069418 z M 579.78259 16.886271 A 8.25 8.25 0 0 1 588.03273 25.135897 A 8.25 8.25 0 0 1 579.78259 33.386039 A 8.25 8.25 0 0 1 571.53296 25.135897 A 8.25 8.25 0 0 1 579.78259 16.886271 z M 678.82202 18.594177 A 5.9999794 5.9997136 0 0 1 684.82165 24.593811 L 684.82165 24.597428 A 5.9999794 5.9997136 0 0 1 678.81944 30.594478 A 5.9999794 5.9997136 0 0 1 672.82135 24.593294 A 5.9999794 5.9997136 0 0 1 678.82202 18.594694 L 678.82202 18.594177 z M 626.49602 19.101123 A 5.9999794 5.9997136 0 0 1 632.49565 25.100757 L 632.49565 25.103857 A 5.9999794 5.9997136 0 0 1 626.49343 31.100907 A 5.9999794 5.9997136 0 0 1 620.49587 25.10024 A 5.9999794 5.9997136 0 0 1 626.49602 19.10164 L 626.49602 19.101123 z M 706.60172 37.00649 A 1.750008 1.75 0 0 1 708.35252 38.755221 L 708.35252 38.757288 A 1.750008 1.75 0 1 1 706.60172 37.00649 z M 750.59593 37.00649 A 1.750008 1.75 0 0 1 752.34622 38.755221 L 752.34622 38.757288 A 1.750008 1.75 0 1 1 750.59593 37.00649 z M 276.74682 70.53881 A 1.855 1.855 0 0 1 278.60201 72.392961 A 1.855 1.855 0 0 1 276.74682 74.248661 A 1.855 1.855 0 0 1 274.89215 72.392961 A 1.855 1.855 0 0 1 276.74682 70.53881 z M 533.542 72.392444 A 1.855 1.855 0 0 1 535.39718 74.246594 A 1.855 1.855 0 0 1 533.542 76.102295 A 1.855 1.855 0 0 1 531.68733 74.246594 A 1.855 1.855 0 0 1 533.542 72.392444 z M 790.33666 72.392444 A 1.855 1.855 0 0 1 792.19185 74.246594 A 1.855 1.855 0 0 1 790.33666 76.102295 A 1.855 1.855 0 0 1 788.48199 74.246594 A 1.855 1.855 0 0 1 790.33666 72.392444 z " /><path
       id="path1147"
       style="fill:#000000;fill-opacity:1;stroke:#ffffff;stroke-width:0.0999991;stroke-dasharray:none;stroke-opacity:1"
       d="m 799.76172,-40.943359 c 0,42.4765621 0,84.953125 0,127.429687 178.11979,0 356.23958,0 534.35938,0 0,-42.652995 0,-85.3059895 0,-127.958984 -178.1198,0 -356.23959,0 -534.35938,0 0,0.176432 0,0.352864 0,0.529297 z m 10.54297,10.392578 c 1.2023,0.08135 1.59611,1.853604 0.54687,2.441406 -0.97705,0.661516 -2.36803,-0.425127 -1.95703,-1.537109 0.20597,-0.588854 0.79354,-0.950377 1.41016,-0.904297 z m 72.22851,10.396484 c 1.11866,0.06236 1.47321,1.722438 0.48509,2.238698 -0.96336,0.67244 -2.30041,-0.578673 -1.68738,-1.581023 0.20616,-0.449563 0.72234,-0.68866 1.20229,-0.657675 z m 112.29883,0 c 1.11873,0.06296 1.47506,1.722035 0.48509,2.238698 -0.96336,0.67244 -2.30042,-0.578673 -1.68738,-1.581023 0.20616,-0.449563 0.72234,-0.68866 1.20229,-0.657675 z m 3.88281,4.490235 c 0,25.4472651 0,50.894531 0,76.341796 -40.11393,0 -80.22786,0 -120.34179,0 0,-25.447265 0,-50.8945309 0,-76.341796 40.11393,0 80.22786,-1e-6 120.34179,0 z m -138.97461,0.544921 c 2.72979,0.444256 5.14518,2.421393 6.04914,5.044794 0.60574,1.7291963 0.60722,3.6846591 -0.0493,5.3298928 -0.85535,2.3828301 -3.1064,4.26615744 -5.4823,4.77375108 -3.23793,0.77563315 -6.86696,-0.81624683 -8.44687,-3.75562238 -1.64089,-2.806583 -1.19171,-6.6332825 1.05483,-8.9853695 1.70537,-1.897904 4.36163,-2.784784 6.87446,-2.407446 z m 0,20.0000004 c 2.76599,0.4478264 5.19642,2.4715851 6.08682,5.1354726 0.55989,1.711761 0.56186,3.62149 -0.0869,5.239214 -0.88405,2.382889 -3.02643,4.236194 -5.50769,4.781563 -1.14452,0.272574 -2.58073,0.23883 -3.79296,-0.116949 -3.13798,-0.833495 -5.53297,-3.846647 -5.60647,-7.098733 -0.19232,-3.2499387 1.95251,-6.4563325 5.02152,-7.5379561 1.23062,-0.4825356 2.5818,-0.5664424 3.88572,-0.4026115 z m 388.04887,6.8593746 c 2.8894,0.444517 5.5854,2.073972 7.2231,4.509389 2.2753,3.256957 2.4857,7.824076 0.4546,11.254283 -0.6311,1.091369 -1.4362,2.037553 -2.3095,2.774702 -2.929,2.558224 -7.3095,3.242266 -10.8813,1.715935 -3.3136,-1.320005 -5.8165,-4.444899 -6.3984,-7.96396 -0.6361,-3.475665 0.6397,-7.218811 3.2592,-9.590823 2.2649,-2.110795 5.4847,-3.107332 8.5506,-2.706813 l 0.1,0.0072 z m -101.9043,0.570313 c 2.8896,0.444325 5.5856,2.073411 7.2231,4.509388 2.2588,3.235965 2.4894,7.765024 0.4919,11.186594 -2.0152,3.664712 -6.3571,5.867088 -10.5059,5.281589 -3.0465,-0.366464 -5.8645,-2.133641 -7.5541,-4.691979 -1.6301,-2.503395 -2.1546,-5.692173 -1.3567,-8.577254 0.7929,-2.956942 2.9363,-5.495847 5.7042,-6.800606 1.8691,-0.866582 3.9552,-1.1694 5.9975,-0.907732 z M 858.96484,24.798828 c 3.54283,0.135844 6.71494,3.019115 7.19188,6.530636 0.49176,3.093195 -1.09037,6.397632 -3.85705,7.889868 -2.80925,1.64536 -6.63918,1.193447 -8.99471,-1.054718 -2.42661,-2.16216 -3.18653,-5.939584 -1.77593,-8.870682 1.26274,-2.851046 4.33185,-4.671538 7.43581,-4.495104 z m 0,20 c 3.35566,0.135844 6.40069,2.721005 7.09375,6.003906 0.2725,1.140296 0.23789,2.571089 -0.11541,3.779653 -0.82156,3.152165 -3.85351,5.547449 -7.11194,5.618503 -3.24605,0.184521 -6.44671,-1.952853 -7.52628,-5.02024 -1.18343,-3.031259 -0.13893,-6.742743 2.4497,-8.716342 1.45368,-1.175633 3.349,-1.7466 5.21018,-1.66548 z m 23.58789,17.947266 c 1.10779,0.08232 1.445,1.72588 0.46556,2.238698 -0.96392,0.672044 -2.30121,-0.577239 -1.68738,-1.581024 0.20954,-0.458184 0.73481,-0.690661 1.22182,-0.657674 z m 112.29883,0 c 1.10764,0.08297 1.44693,1.725551 0.46556,2.238698 -0.96393,0.672044 -2.30121,-0.577239 -1.68738,-1.581024 0.20954,-0.458184 0.7348,-0.690661 1.22182,-0.657674 z M 810.55859,72.994141 c 1.12747,0.325014 1.21345,2.101591 0.0798,2.48037 -1.0511,0.476463 -2.25295,-0.81262 -1.65323,-1.818824 0.26145,-0.58295 0.97693,-0.842778 1.57345,-0.661546 z" /><g
       id="g1241"
       style="fill:#ffffff;fill-opacity:1"><path
         style="fill:#ffffff;fill-opacity:1;stroke:#ffffff;stroke-width:0.0999991;stroke-dasharray:none;stroke-opacity:1"
         d="m 1323.7367,72.392444 a 1.855,1.855 0 0 1 1.8551,1.85415 1.855,1.855 0 0 1 -1.8551,1.855701 1.855,1.855 0 0 1 -1.8547,-1.855701 1.855,1.855 0 0 1 1.8547,-1.85415 z"
         id="path1230" /><path
         style="fill:#ffffff;fill-opacity:1;stroke:#ffffff;stroke-width:0.0999991;stroke-dasharray:none;stroke-opacity:1"
         d="m 1323.7367,-31.089095 a 1.855,1.855 0 0 1 1.8551,1.855184 1.855,1.855 0 0 1 -1.8551,1.855184 1.855,1.855 0 0 1 -1.8547,-1.855184 1.855,1.855 0 0 1 1.8547,-1.855184 z"
         id="path1214" /><g
         id="g1234"
         style="fill:#ffffff;fill-opacity:1"><path
           style="fill:#ffffff;fill-opacity:1;stroke:#ffffff;stroke-width:0.0999991;stroke-dasharray:none;stroke-opacity:1"
           d="m 1066.9415,72.392444 a 1.855,1.855 0 0 1 1.8547,1.85415 1.855,1.855 0 0 1 -1.8547,1.855701 1.855,1.855 0 0 1 -1.8547,-1.855701 1.855,1.855 0 0 1 1.8547,-1.85415 z"
           id="path1228" /><path
           style="fill:#ffffff;fill-opacity:1;stroke:#ffffff;stroke-width:0.0999991;stroke-dasharray:none;stroke-opacity:1"
           d="m 1066.9415,-31.089095 a 1.855,1.855 0 0 1 1.8547,1.855184 1.855,1.855 0 0 1 -1.8547,1.855184 1.855,1.855 0 0 1 -1.8547,-1.855184 1.855,1.855 0 0 1 1.8547,-1.855184 z"
           id="path1212" /></g></g><text
       xml:space="preserve"
       transform="scale(0.26458333)"
       id="text44868"
       style="font-style:normal;font-variant:normal;font-weight:normal;font-stretch:normal;font-size:16px;font-family:'Abyssinica SIL';-inkscape-font-specification:'Abyssinica SIL, Normal';font-variant-ligatures:normal;font-variant-caps:normal;font-variant-numeric:normal;font-variant-east-asian:normal;white-space:pre;shape-inside:url(#rect44870);display:inline;fill:#000000;fill-opacity:1;stroke:none" /><text
       xml:space="preserve"
       style="font-size:4.23333px;line-height:125%;font-family:Bravura;-inkscape-font-specification:Bravura;letter-spacing:0px;word-spacing:0px;fill:none;stroke:#000000;stroke-width:0.264583px;stroke-linecap:butt;stroke-linejoin:miter;stroke-opacity:1"
       x="41.288353"
       y="15.023044"
       id="text3677"><tspan
         sodipodi:role="line"
         id="tspan3675"
         style="stroke-width:0.264583px"
         x="41.288353"
         y="15.023044" /></text><path
       style="fill:#fffafa;fill-opacity:1;stroke:none;stroke-width:0.0999991;stroke-dasharray:none;stroke-opacity:1"
       d="m 608.27088,35.874715 h 5.2188 c 0.045,0 0.0932,0.0068 0.14469,0.01964 0.0579,0.0064 0.10897,0.02231 0.154,0.04806 0.0515,0.02572 0.09,0.05805 0.11575,0.09663 0.0257,0.03215 0.0354,0.07361 0.0289,0.125057 -0.007,0.03215 -0.01,0.06787 -0.01,0.106453 v 0.105937 c 0,0.03859 -0.007,0.07378 -0.0196,0.105937 -0.007,0.03215 -0.0192,0.06109 -0.0382,0.08682 l -4.82348,5.479252 h 3.94549 c 0.0257,0 0.0513,-0.01303 0.077,-0.03876 0.0257,-0.02572 0.0388,-0.05466 0.0388,-0.08682 v -0.781347 c 0,-0.01929 0.004,-0.0352 0.0103,-0.04806 0.007,-0.01929 0.0158,-0.0352 0.0284,-0.04806 0.0129,-0.01929 0.0259,-0.03233 0.0387,-0.03876 0.0193,-0.0064 0.0385,-0.0098 0.0579,-0.0098 h 0.50178 c 0.0193,0 0.0352,0.0068 0.0481,0.01964 0.0193,0.0064 0.0323,0.01891 0.0388,0.03824 0.0129,0.01929 0.0225,0.03858 0.0289,0.05788 0.007,0.01929 0.01,0.03858 0.01,0.05788 v 1.369942 c 0,0.03215 -0.006,0.06448 -0.0191,0.09663 -0.0129,0.03215 -0.0321,0.06396 -0.0579,0.09612 -0.0193,0.02573 -0.0453,0.04841 -0.0775,0.0677 -0.0321,0.01929 -0.0639,0.02894 -0.0961,0.02894 h -5.18986 c -0.045,0 -0.0932,-0.0096 -0.14469,-0.02894 -0.0515,-0.01929 -0.0963,-0.04485 -0.13488,-0.077 -0.0386,-0.03215 -0.0709,-0.07074 -0.0966,-0.115755 -0.0257,-0.04501 -0.0387,-0.09037 -0.0387,-0.135392 v -0.993221 -0.09663 c 0,-0.03859 0.003,-0.07378 0.01,-0.105937 0.0129,-0.03859 0.0259,-0.0743 0.0387,-0.106453 0.0129,-0.03215 0.0322,-0.06109 0.0579,-0.08682 l 1.97766,-2.150773 c 0.0321,-0.03859 0.0741,-0.0743 0.12557,-0.106453 0.0515,-0.03215 0.10596,-0.06109 0.16382,-0.08682 0.0579,-0.02572 0.11913,-0.04789 0.18345,-0.06718 0.0643,-0.02573 0.12847,-0.04841 0.19275,-0.0677 0.0707,-0.02572 0.13827,-0.05127 0.20257,-0.077 0.0707,-0.02572 0.13826,-0.05466 0.20257,-0.08682 0.0643,-0.03215 0.12222,-0.06787 0.17364,-0.106453 0.0579,-0.03859 0.10948,-0.08343 0.15451,-0.134876 l 1.39836,-1.572513 h -3.93567 c -0.0321,0 -0.0639,0.0096 -0.0961,0.02894 -0.0257,0.01929 -0.0388,0.04536 -0.0388,0.07751 v 0.655774 c 0,0.01929 -0.004,0.04198 -0.0103,0.0677 -0.007,0.02572 -0.0158,0.05127 -0.0284,0.077 -0.007,0.01929 -0.0197,0.03858 -0.0387,0.05788 -0.0193,0.01286 -0.0386,0.01912 -0.0579,0.01912 h -0.5116 c -0.0193,0 -0.0414,-0.0063 -0.0672,-0.01912 -0.0193,-0.01286 -0.0352,-0.0259 -0.0481,-0.03876 l -0.0387,-0.05788 c -0.007,-0.02572 -0.01,-0.04789 -0.01,-0.06718 v -1.321883 c 0,-0.02572 0.006,-0.05127 0.0191,-0.077 0.0193,-0.03215 0.042,-0.0577 0.0677,-0.077 0.0257,-0.02573 0.0547,-0.04502 0.0868,-0.05788 0.0321,-0.01286 0.0611,-0.01964 0.0868,-0.01964 z"
       id="path6785" /><path
       style="fill:#fffafa;fill-opacity:1;stroke:none;stroke-width:0.0999991;stroke-dasharray:none;stroke-opacity:1"
       d="m 608.2037,21.226513 h 0.4439 c 0.0193,0 0.0385,0.0096 0.0579,0.02894 0.0257,0.01286 0.045,0.03215 0.0579,0.05788 0.0129,0.02572 0.0225,0.05466 0.0289,0.08682 0.007,0.02572 0.01,0.05127 0.01,0.077 v 2.575553 c 0,0.01929 0.003,0.04198 0.01,0.0677 l 0.0388,0.05788 c 0.0129,0.01286 0.0288,0.02589 0.0481,0.03876 0.0193,0.01286 0.0385,0.01912 0.0579,0.01912 h 3.90674 c 0.0193,0 0.0386,-0.0034 0.0579,-0.0098 0.0193,-0.01286 0.0357,-0.02537 0.0486,-0.03824 0.0193,-0.01286 0.0318,-0.02928 0.0382,-0.04858 0.0129,-0.01929 0.0196,-0.03859 0.0196,-0.05788 v -2.68149 c 0,-0.01929 0.003,-0.03858 0.01,-0.05788 0.0129,-0.01929 0.0259,-0.0352 0.0388,-0.04806 0.0129,-0.01929 0.0288,-0.03232 0.0481,-0.03876 0.0193,-0.01286 0.0385,-0.01912 0.0579,-0.01912 h 0.45321 c 0.0257,0 0.0484,0.0063 0.0677,0.01912 0.0193,0.01286 0.0352,0.03215 0.0481,0.05788 0.0193,0.01929 0.0323,0.04198 0.0388,0.0677 0.0129,0.02573 0.0191,0.05128 0.0191,0.077 v 3.144511 c 0,0.05145 -0.0125,0.103065 -0.0382,0.154512 -0.0193,0.04501 -0.0516,0.08986 -0.0966,0.134876 -0.0386,0.03859 -0.0834,0.07091 -0.13487,0.09663 -0.045,0.01929 -0.0932,0.02894 -0.1447,0.02894 h -1.64951 c -0.0193,0 -0.0385,0.0063 -0.0579,0.01912 -0.0129,0.01286 -0.0293,0.02928 -0.0486,0.04857 -0.0129,0.01286 -0.0225,0.02877 -0.0289,0.04806 -0.007,0.01286 -0.01,0.02876 -0.01,0.04806 v 2.807063 c 0,0.02573 -0.006,0.05466 -0.0191,0.08682 -0.0129,0.02572 -0.0321,0.0484 -0.0579,0.0677 -0.0193,0.01929 -0.042,0.0352 -0.0677,0.04806 -0.0257,0.01286 -0.0513,0.01964 -0.077,0.01964 h -0.91674 c -0.0321,0 -0.0644,-0.0068 -0.0966,-0.01964 -0.0257,-0.01929 -0.0479,-0.04146 -0.0672,-0.06718 -0.0193,-0.02573 -0.0385,-0.05466 -0.0579,-0.08682 -0.0129,-0.03215 -0.0196,-0.06109 -0.0196,-0.08682 V 25.22991 c 0,-0.02573 -0.006,-0.05179 -0.0191,-0.07751 -0.0129,-0.02573 -0.0288,-0.04789 -0.0481,-0.06718 -0.0193,-0.01929 -0.042,-0.03571 -0.0677,-0.04857 -0.0193,-0.01286 -0.0414,-0.01912 -0.0672,-0.01912 h -1.49552 c -0.0515,0 -0.10934,-0.0096 -0.17363,-0.02894 -0.0579,-0.01929 -0.11236,-0.04823 -0.16382,-0.08682 -0.0515,-0.03859 -0.0934,-0.08056 -0.12557,-0.125574 -0.0321,-0.05145 -0.0481,-0.102549 -0.0481,-0.153995 l -10e-4,-3.145028 c 0,-0.02573 0.003,-0.05466 0.01,-0.08682 0.0129,-0.03215 0.0259,-0.05771 0.0387,-0.077 0.0193,-0.02573 0.042,-0.04502 0.0677,-0.05788 0.0257,-0.01929 0.0513,-0.02894 0.077,-0.02894 z"
       id="path6783" /><path
       style="fill:#fffafa;fill-opacity:1;stroke:none;stroke-width:0.0999991;stroke-dasharray:none;stroke-opacity:1"
       d="m 608.21352,7.056835 h 0.49196 c 0.0193,0 0.0385,0.0068 0.0579,0.01964 0.0193,0.0064 0.0352,0.01892 0.0481,0.03824 0.0193,0.01286 0.0323,0.03215 0.0388,0.05788 0.0129,0.01929 0.0191,0.03858 0.0191,0.05788 v 0.887801 c 0,0.04501 0.013,0.08986 0.0388,0.134876 0.0257,0.03859 0.0547,0.07378 0.0868,0.105937 l 2.02572,1.67845 1.31155,-1.21543 c 0.045,-0.03859 0.087,-0.08004 0.12557,-0.125057 0.0386,-0.04501 0.0709,-0.09324 0.0966,-0.144694 0.0321,-0.05145 0.0577,-0.103065 0.077,-0.154512 0.0193,-0.05788 0.0289,-0.115758 0.0289,-0.173633 V 7.317292 c 0,-0.03215 0.006,-0.06109 0.0191,-0.08682 0.0193,-0.03215 0.042,-0.06109 0.0677,-0.08682 0.0257,-0.02573 0.0513,-0.04502 0.077,-0.05788 0.0321,-0.01929 0.0644,-0.02894 0.0966,-0.02894 h 0.82011 c 0.0321,0 0.0644,0.0068 0.0966,0.01964 0.0386,0.0064 0.0704,0.02231 0.0961,0.04806 0.0321,0.01929 0.0582,0.04484 0.0775,0.077 0.0257,0.02573 0.0383,0.05466 0.0383,0.08682 v 0.743107 c 0,0.06431 -0.0125,0.128443 -0.0383,0.192753 -0.0193,0.06431 -0.0516,0.118796 -0.0966,0.163814 l -2.30529,2.170411 2.24741,1.87172 c 0.0193,0.01286 0.0386,0.03215 0.0579,0.05788 0.0257,0.01929 0.0484,0.04146 0.0677,0.06718 0.0193,0.02572 0.0352,0.05466 0.048,0.08682 0.0129,0.02572 0.0191,0.05179 0.0191,0.07751 v 1.118795 c 0,0.01929 -0.006,0.04198 -0.0191,0.0677 -0.007,0.02573 -0.0197,0.04789 -0.0387,0.06718 -0.0129,0.01929 -0.0322,0.03572 -0.0579,0.04858 -0.0193,0.01286 -0.042,0.01912 -0.0677,0.01912 h -0.5302 c -0.0257,0 -0.0518,-0.0063 -0.0775,-0.01912 l -0.077,-0.05788 c -0.0193,-0.02572 -0.0352,-0.05466 -0.0481,-0.08682 -0.0129,-0.03215 -0.0196,-0.06109 -0.0196,-0.08682 v -0.800985 c 0,-0.03859 -0.009,-0.07717 -0.0284,-0.115755 -0.0193,-0.04501 -0.042,-0.08021 -0.0677,-0.105937 l -1.99678,-1.697571 -1.39888,1.360124 c -0.045,0.03859 -0.0836,0.08682 -0.11576,0.144694 -0.0257,0.05145 -0.0382,0.105937 -0.0382,0.163814 v 1.099675 c 0,0.02572 -0.007,0.05127 -0.0196,0.077 -0.0129,0.01929 -0.0322,0.04198 -0.0579,0.0677 -0.0193,0.01929 -0.0414,0.0352 -0.0672,0.04806 -0.0257,0.0064 -0.0518,0.0098 -0.0775,0.0098 h -0.9741 c -0.0257,0 -0.0547,-0.0068 -0.0868,-0.01964 -0.0321,-0.01286 -0.0611,-0.02876 -0.0868,-0.04806 -0.0257,-0.02572 -0.0484,-0.05127 -0.0677,-0.077 -0.0129,-0.03215 -0.0191,-0.06109 -0.0191,-0.08682 v -0.714168 c 0,-0.05788 0.013,-0.115759 0.0388,-0.173633 0.0257,-0.06431 0.0609,-0.115409 0.10594,-0.153996 l 2.27635,-2.17041 -2.28617,-1.987476 c -0.0321,-0.02572 -0.0644,-0.05466 -0.0966,-0.08682 -0.0257,-0.03215 -0.0382,-0.06735 -0.0382,-0.105937 l -5.1e-4,-1.128613 c 0,-0.02572 0.003,-0.05127 0.01,-0.077 0.0129,-0.03215 0.0293,-0.05771 0.0486,-0.077 0.0193,-0.02573 0.0414,-0.04502 0.0672,-0.05788 0.0257,-0.01286 0.0518,-0.01964 0.0775,-0.01964 z"
       id="path6759" /><path
       style="fill:#ffffff;fill-opacity:1;stroke:#ffffff;stroke-width:0.0999991;stroke-dasharray:none;stroke-opacity:1"
       d="m 665.83308,41.305622 c 0.0772,0 0.14808,0.0159 0.21239,0.04806 0.0643,0.02573 0.11882,0.06431 0.16381,0.115755 0.0515,0.04501 0.09,0.10002 0.11575,0.164331 0.0257,0.06431 0.0388,0.131831 0.0388,0.202571 0,0.07717 -0.013,0.147565 -0.0388,0.211874 -0.0257,0.06431 -0.0643,0.119314 -0.11575,0.164331 -0.045,0.04501 -0.0995,0.08021 -0.16381,0.105937 -0.0643,0.03215 -0.13525,0.04806 -0.21239,0.04806 -0.0707,0 -0.13826,-0.01591 -0.20258,-0.04806 -0.0643,-0.02572 -0.12221,-0.06092 -0.17363,-0.105937 -0.045,-0.04501 -0.0836,-0.100021 -0.11575,-0.164331 -0.0257,-0.06431 -0.0382,-0.134702 -0.0382,-0.211874 0,-0.07074 0.0125,-0.138263 0.0382,-0.202571 0.0321,-0.06431 0.0707,-0.119313 0.11575,-0.164331 0.0515,-0.05145 0.10935,-0.09003 0.17363,-0.115755 0.0643,-0.03215 0.13186,-0.04806 0.20258,-0.04806 z"
       id="path1019" /><text
       xml:space="preserve"
       style="font-style:normal;font-variant:normal;font-weight:normal;font-stretch:normal;font-size:9.87778px;line-height:125%;font-family:Bitwise;-inkscape-font-specification:'Bitwise, Normal';font-variant-ligatures:normal;font-variant-caps:normal;font-variant-numeric:normal;font-variant-east-asian:normal;letter-spacing:0px;word-spacing:0px;fill:#fffafa;fill-opacity:1;stroke:none;stroke-width:0.264583px;stroke-linecap:butt;stroke-linejoin:miter;stroke-opacity:1"
       x="659.44733"
       y="27.885448"
       id="text6413-9-0-1"><tspan
         sodipodi:role="line"
         id="tspan6411-2-4-8"
         style="font-style:normal;font-variant:normal;font-weight:normal;font-stretch:normal;font-size:9.87778px;font-family:Bitwise;-inkscape-font-specification:'Bitwise, Normal';font-variant-ligatures:normal;font-variant-caps:normal;font-variant-numeric:normal;font-variant-east-asian:normal;fill:#fffafa;fill-opacity:1;stroke:none;stroke-width:0.264583px"
         x="659.44733"
         y="27.885448">&gt;</tspan></text><text
       xml:space="preserve"
       style="font-style:normal;font-variant:normal;font-weight:normal;font-stretch:normal;font-size:9.87778px;line-height:125%;font-family:Bitwise;-inkscape-font-specification:'Bitwise, Normal';font-variant-ligatures:normal;font-variant-caps:normal;font-variant-numeric:normal;font-variant-east-asian:normal;letter-spacing:0px;word-spacing:0px;fill:#fffafa;fill-opacity:1;stroke:none;stroke-width:0.264583px;stroke-linecap:butt;stroke-linejoin:miter;stroke-opacity:1"
       x="651.21906"
       y="13.490629"
       id="text6409-0-4-9"><tspan
         sodipodi:role="line"
         id="tspan6407-6-4-2"
         style="font-style:normal;font-variant:normal;font-weight:normal;font-stretch:normal;font-size:9.87778px;font-family:Bitwise;-inkscape-font-specification:'Bitwise, Normal';font-variant-ligatures:normal;font-variant-caps:normal;font-variant-numeric:normal;font-variant-east-asian:normal;fill:#fffafa;fill-opacity:1;stroke:none;stroke-width:0.264583px"
         x="651.21906"
         y="13.490629">&gt;&gt;</tspan></text><text
       xml:space="preserve"
       style="font-style:normal;font-variant:normal;font-weight:normal;font-stretch:normal;font-size:9.87778px;font-family:Bitwise;-inkscape-font-specification:'Bitwise, Normal';font-variant-ligatures:normal;font-variant-caps:normal;font-variant-numeric:normal;font-variant-east-asian:normal;fill:#ffffff;fill-opacity:1;stroke:none;stroke-width:0.499999"
       x="572.64465"
       y="11.771624"
       id="text9560"><tspan
         sodipodi:role="line"
         id="tspan9558"
         style="font-style:normal;font-variant:normal;font-weight:normal;font-stretch:normal;font-size:9.87778px;font-family:Bitwise;-inkscape-font-specification:'Bitwise, Normal';font-variant-ligatures:normal;font-variant-caps:normal;font-variant-numeric:normal;font-variant-east-asian:normal;stroke-width:0.5"
         x="572.64465"
         y="11.771624">Rel</tspan></text><text
       xml:space="preserve"
       style="font-style:normal;font-variant:normal;font-weight:normal;font-stretch:normal;font-size:16.9333px;font-family:Bitwise;-inkscape-font-specification:'Bitwise, Normal';font-variant-ligatures:normal;font-variant-caps:normal;font-variant-numeric:normal;font-variant-east-asian:normal;fill:#ffffff;fill-opacity:1;stroke:none;stroke-width:0.4;stroke-dasharray:0.799999, 0.4;stroke-dashoffset:0;stroke-opacity:1"
       x="284.85794"
       y="-10.786163"
       id="text5467"><tspan
         sodipodi:role="line"
         style="font-style:normal;font-variant:normal;font-weight:normal;font-stretch:normal;font-size:16.9333px;font-family:Bitwise;-inkscape-font-specification:'Bitwise, Normal';font-variant-ligatures:normal;font-variant-caps:normal;font-variant-numeric:normal;font-variant-east-asian:normal;stroke-width:0.4"
         x="284.85794"
         y="-10.786163"
         id="tspan13060">Makeomatic 750</tspan></text><path
       style="fill:#ffffff;fill-opacity:1;stroke-width:0.999999"
       d="m 428.55647,-7.4953466 c 0.14318,-0.11332 0.1705,-0.26298 0.24835,-1.36042 0.0481,-0.6782 0.10493,-1.2593504 0.12626,-1.2914504 0.0979,-0.14737 0.32098,0.0214 1.55759,1.1785304 1.15836,1.08391 1.35262,1.23687 1.57076,1.23687 0.25037,0 0.34391,-0.0971 0.34391,-0.35714 0,-0.0698 -0.52667,-0.66469 -1.17038,-1.32188 -1.26745,-1.2940204 -1.41293,-1.4774804 -1.27403,-1.6066404 0.0578,-0.0537 0.81592,-0.0965 2.23212,-0.12586 2.31567,-0.048 2.4031,-0.064 2.4031,-0.439 0,-0.36328 -0.0381,-0.36943 -2.28471,-0.36943 -1.1533,0 -2.09691,-0.0255 -2.09691,-0.0565 0,-0.13971 0.31455,-0.43643 1.27573,-1.20337 3.40833,-2.71961 14.26512,-12.085069 14.60868,-12.601989 0.17231,-0.25925 0.20991,-0.82288 0.071,-1.06425 -0.1105,-0.192 -0.82093,-0.49688 -1.15996,-0.49778 -0.30484,-8.3e-4 -0.44875,0.13032 -8.70326,7.92989 -2.51987,2.38101 -5.12909,4.812869 -5.79826,5.404149 -1.16982,1.03365 -1.22451,1.07172 -1.42036,0.98874 -0.15506,-0.0657 -0.20392,-0.13998 -0.20461,-0.31109 -5.9e-4,-0.12363 -0.0527,-1.07605 -0.11608,-2.11649 -0.0633,-1.040439 -0.11575,-2.044879 -0.11646,-2.232109 -0.001,-0.39727 -0.15859,-0.5876 -0.45792,-0.55483 -0.26993,0.0296 -0.30851,0.18746 -0.31799,1.30186 -0.004,0.50376 -0.031,1.608769 -0.0594,2.455579 -0.0492,1.46925 -0.0586,1.53964 -0.20632,1.53964 -0.17184,0 -0.72279,-0.44352 -2.38906,-1.92323 -1.18498,-1.05231 -1.35684,-1.13804 -1.55137,-0.77385 -0.13931,0.2608 -0.0143,0.42882 1.03203,1.38745 1.3898,1.27327 2.25645,2.1935 2.13387,2.26579 -0.0562,0.0331 -1.04628,0.0607 -2.20026,0.0614 -1.29431,5.5e-4 -2.15614,0.0299 -2.2495,0.0764 -0.18633,0.0927 -0.20286,0.44844 -0.0284,0.61068 0.10104,0.094 0.3359,0.11434 1.31785,0.11434 1.89755,0 3.0973,0.0761 3.0973,0.19642 0,0.0557 -0.56569,0.63874 -1.25708,1.2955904 -1.1642,1.10604 -1.25525,1.21196 -1.23233,1.43362 0.0219,0.21215 0.0542,0.24197 0.28382,0.26247 0.22514,0.0201 0.33684,-0.0418 0.853,-0.47293 0.32667,-0.27283 0.96344,-0.79619 1.41504,-1.16304 1.12237,-0.9117104 1.1112,-0.9196504 1.1112,0.79001 0,1.15041 0.0147,1.29648 0.13693,1.36269 0.19546,0.10586 0.2934,0.0958 0.47607,-0.0487 z"
       id="path5332" /><path
       style="fill:#000000;fill-opacity:1;stroke:#ffffff;stroke-width:0.0999991;stroke-dasharray:none;stroke-opacity:1"
       d="m 1195.3393,72.392444 a 1.855,1.855 0 0 1 1.8552,1.85415 1.855,1.855 0 0 1 -1.8552,1.855701 1.855,1.855 0 0 1 -1.8547,-1.855701 1.855,1.855 0 0 1 1.8547,-1.85415 z"
       id="path370" /><path
       style="fill:#000000;fill-opacity:1;stroke:#ffffff;stroke-width:0.0999991;stroke-dasharray:none;stroke-opacity:1"
       d="m 1195.3393,-31.089095 a 1.855,1.855 0 0 1 1.8552,1.855184 1.855,1.855 0 0 1 -1.8552,1.855184 1.855,1.855 0 0 1 -1.8547,-1.855184 1.855,1.855 0 0 1 1.8547,-1.855184 z"
       id="path344" /><path
       id="path1071-5"
       style="fill:#ffff00;fill-opacity:1;stroke:#000000;stroke-width:0.0001;stroke-dasharray:none;stroke-opacity:1"
       d="m 1144.1809,49.258914 -0.3586,0.10593 c -0.3117,0.0924 -0.3953,0.14332 -0.6372,0.38913 -0.3329,0.33819 -0.1512,0.012 -1.9281,3.47059 -0.799,1.55518 -2.0707,4.03059 -2.8261,5.50095 -0.7555,1.47037 -1.5573,3.0318 -1.7813,3.47008 -0.2241,0.43828 -0.9373,1.82846 -1.5855,3.08921 -0.9334,1.81558 -1.195,2.36367 -1.2573,2.63499 -0.043,0.1884 -0.094,0.34261 -0.1136,0.34261 -0.019,0 -0.035,0.10368 -0.035,0.23099 0,0.1273 0.02,0.23151 0.044,0.23151 0.024,0 0.044,0.0304 0.044,0.0677 0,0.2459 0.1547,0.60131 0.3922,0.90072 0.2394,0.30183 0.2843,0.33448 0.6087,0.44442 l 0.3509,0.11834 9.0408,0.006 9.0403,0.006 0.37,-0.12506 c 0.3373,-0.11379 0.3946,-0.15323 0.6501,-0.447 0.2369,-0.27254 0.2883,-0.36392 0.3327,-0.59479 0.029,-0.15001 0.07,-0.27285 0.09,-0.27285 0.048,0 0.049,-0.65413 0,-0.67696 -0.02,-0.009 -0.067,-0.14741 -0.106,-0.30645 -0.06,-0.24694 -1.0769,-2.29176 -2.3621,-4.74906 -0.1035,-0.19793 -0.7218,-1.4008 -1.3741,-2.67322 -0.6523,-1.27243 -1.8042,-3.51642 -2.5595,-4.98678 -0.7554,-1.47036 -1.6704,-3.25203 -2.0335,-3.95893 -0.5344,-1.04052 -0.7172,-1.35248 -0.9612,-1.63711 -0.2865,-0.33432 -0.3198,-0.35719 -0.6738,-0.46612 z m 0.01,5.49423 c 0.6298,0.006 1.1908,0.48093 1.3596,1.08314 0.179,1.6452 -0.042,3.32396 -0.043,4.9811 -0.1085,0.9292 0.1081,1.95073 -0.3044,2.81016 -0.4836,0.92269 -1.9847,0.69631 -2.2066,-0.31471 -0.2069,-2.13896 -0.1961,-4.30708 -0.2811,-6.45852 -0.1441,-0.90015 0.327,-2.03939 1.3493,-2.096 0.043,-0.004 0.085,-0.006 0.1266,-0.005 z m -0.075,10.93577 c 0.019,-7e-5 0.038,-5e-5 0.059,0 0.3338,9.7e-4 0.3777,0.0143 0.5674,0.16589 0.113,0.0905 0.2614,0.27517 0.3302,0.41031 0.1065,0.20944 0.125,0.29952 0.123,0.61236 0,0.31394 -0.02,0.40173 -0.1307,0.60617 -0.2349,0.43502 -0.7327,0.67149 -1.1545,0.54828 -0.2279,-0.0665 -0.4515,-0.25576 -0.6031,-0.51056 -0.1317,-0.22139 -0.1423,-0.2716 -0.1431,-0.65939 -9e-4,-0.38486 0.01,-0.43807 0.1333,-0.64131 0.074,-0.12184 0.22,-0.2916 0.3251,-0.37723 0.1642,-0.13385 0.2145,-0.15336 0.4935,-0.15452 z" /><text
       xml:space="preserve"
       style="font-style:normal;font-variant:normal;font-weight:normal;font-stretch:normal;font-size:16.9333px;font-family:Bitwise;-inkscape-font-specification:'Bitwise, Normal';font-variant-ligatures:normal;font-variant-caps:normal;font-variant-numeric:normal;font-variant-east-asian:normal;fill:#ffffff;fill-opacity:1;stroke:none;stroke-width:0.1;stroke-opacity:1"
       x="1121.6415"
       y="-12.711873"
       id="text13503"><tspan
         sodipodi:role="line"
         id="tspan13501"
         style="font-style:normal;font-variant:normal;font-weight:normal;font-stretch:normal;font-size:16.9333px;font-family:Bitwise;-inkscape-font-specification:'Bitwise, Normal';font-variant-ligatures:normal;font-variant-caps:normal;font-variant-numeric:normal;font-variant-east-asian:normal;fill:#ffffff;fill-opacity:1;stroke:none;stroke-width:0.1;stroke-opacity:1"
         x="1121.6415"
         y="-12.711873">STOP</tspan></text><path
       id="rect5015"
       style="fill:#ff0000;fill-opacity:1;stroke:none;stroke-width:0.4;stroke-dasharray:0.799999, 0.4;stroke-dashoffset:0;stroke-opacity:1"
       d="m 1106.3934,-37.533057 c -3.5766,0 -6.4559,2.879256 -6.4559,6.455941 v 107.7376 c 0,3.57668 2.8793,6.45646 6.4559,6.45646 h 75.9876 c 3.5767,0 6.4565,-2.87978 6.4565,-6.45646 v -107.7376 c 0,-3.576685 -2.8798,-6.455941 -6.4565,-6.455941 z m 5.6705,6.350001 h 64.6467 c 3.2001,0 5.7769,2.5762 5.7769,5.77639 v 96.3967 c 0,3.20019 -2.5768,5.77639 -5.7769,5.77639 h -64.6467 c -3.2002,0 -5.7764,-2.5762 -5.7764,-5.77639 v -96.3967 c 0,-3.20019 2.5762,-5.77639 5.7764,-5.77639 z" /><g
       id="g15729"
       transform="translate(462.07189,-95.913348)"><g
         id="g15724"><path
           style="fill:#fdff00;fill-opacity:1;stroke:#000000;stroke-width:0.0001;stroke-dasharray:none;stroke-opacity:1"
           d="m 785.52959,164.97708 c -10e-6,-0.0185 0.0642,-0.10058 0.14264,-0.18229 0.19948,-0.20772 0.40986,-0.55042 0.53016,-0.86356 0.14175,-0.3691 0.14409,-1.05311 0.004,-1.41841 -0.23265,-0.61007 -0.58022,-0.99864 -1.36805,-1.52945 -0.96146,-0.64779 -1.50157,-1.15827 -1.96314,-1.85543 -0.20278,-0.30628 -0.41502,-0.73658 -0.53229,-1.07918 l -0.0588,-0.17171 -0.22565,0.23957 c -0.56631,0.60126 -1.10073,1.36004 -1.36464,1.93759 -0.26043,0.56992 -0.3264,0.87022 -0.32588,1.4832 3.4e-4,0.34418 0.0226,0.63627 0.0574,0.751 0.23396,0.77253 0.70405,1.4963 1.54825,2.38374 0.1971,0.2072 0.33472,0.5028 0.50322,0.73454 0.96629,0.63631 2.12333,1.12145 3.05247,-0.42961 z"
           id="path6790-7" /><path
           style="fill:#ff0303;fill-opacity:1;stroke:#000000;stroke-width:0.0001;stroke-dasharray:none;stroke-opacity:1"
           d="m 786.6595,166.1792 c 0.0283,0.0223 1.01089,-0.1277 1.50914,-0.23044 2.32305,-0.47903 4.39883,-1.57923 5.73397,-3.03911 0.68792,-0.75218 0.97342,-1.29959 1.18899,-2.2797 0.1019,-0.46334 0.1019,-1.47794 -1.6e-4,-2.01481 -0.27652,-1.4556 -1.04311,-3.05738 -2.13237,-4.45555 l -0.31142,-0.39977 -0.30867,0.0191 c -0.16978,0.0104 -0.59305,0.0355 -0.94059,0.0555 l -0.63192,0.0365 -0.19162,0.25034 c -0.1054,0.13767 -0.29837,0.35707 -0.42888,0.48745 -0.27046,0.27029 -0.65126,0.55102 -0.61228,0.4513 0.0131,-0.0344 0.0642,-0.21307 0.11299,-0.39701 0.51941,-1.96163 0.2618,-3.94884 -0.7474,-5.7658 -0.96917,-1.74491 -2.58519,-3.26749 -4.66128,-4.39179 l -0.41064,-0.22239 -0.18249,0.11578 c -0.10044,0.0637 -0.44986,0.29105 -0.77665,0.50521 l -0.59415,0.38936 0.0669,0.11126 c 0.29154,0.48552 0.38147,0.85633 0.3495,1.44119 -0.0131,0.24956 -0.0556,0.55232 -0.0931,0.67277 -0.49268,1.58149 -2.30325,3.53442 -4.79112,5.16779 -0.87884,0.57698 -1.51141,1.0722 -2.15259,1.68512 -0.56341,0.53858 -0.87744,0.8951 -1.22195,1.38722 -0.58331,0.83327 -0.93202,1.59462 -1.09343,2.38745 -0.0791,0.38873 -0.0921,1.57374 -0.0222,2.0143 0.37585,2.36617 2.38135,4.40917 5.34164,5.44151 0.68653,0.23942 1.04232,0.33322 1.79795,0.47403 l -4.3e-4,9e-5 c 0.31231,0.0582 0.58166,0.10639 0.87314,0.0727 -2.10884,-1.31507 -2.49043,-2.39822 -2.56021,-2.52258 -0.19365,-0.3452 -0.41207,-0.95141 -0.49687,-1.37903 -0.11007,-0.55506 -0.0725,-1.40575 0.0857,-1.94216 0.35814,-1.21416 1.15189,-2.37696 2.53417,-3.71239 0.29613,-0.28609 0.652,-0.5999 1.35546,-1.19526 l 0.0873,-0.0739 0.91724,0.29571 0.91725,0.29571 -0.0149,0.30759 c -0.0689,1.41995 0.81565,2.85421 2.29765,3.72524 1.33712,0.7859 2.10334,1.95044 2.10584,3.20056 4.9e-4,0.2657 0.0117,1.75051 -1.9063,2.96805 z"
           id="path11560-4" /></g></g><text
       xml:space="preserve"
       style="font-style:normal;font-variant:normal;font-weight:normal;font-stretch:normal;font-size:16.9333px;font-family:Bitwise;-inkscape-font-specification:'Bitwise, Normal';font-variant-ligatures:normal;font-variant-caps:normal;font-variant-numeric:normal;font-variant-east-asian:normal;fill:#ffffff;fill-opacity:1;stroke-width:0.1"
       x="1229.3827"
       y="-9.9158602"
       id="text14544"><tspan
         sodipodi:role="line"
         id="tspan14542"
         style="stroke-width:0.1"
         x="1229.3827"
         y="-9.9158602">FIRE</tspan></text><path
       id="rect5015-5"
       style="fill:#ff0000;fill-opacity:1;stroke:none;stroke-width:0.4;stroke-dasharray:0.799999, 0.4;stroke-dashoffset:0;stroke-opacity:1"
       d="m 1208.2971,-38.103727 c -3.5767,0 -6.456,2.879256 -6.456,6.455941 v 107.7376 c 0,3.57668 2.8793,6.45646 6.456,6.45646 h 75.9876 c 3.5767,0 6.4564,-2.87978 6.4564,-6.45646 v -107.7376 c 0,-3.576685 -2.8797,-6.455941 -6.4564,-6.455941 z m 5.6704,6.350001 h 64.6467 c 3.2002,0 5.7769,2.5762 5.7769,5.77639 v 96.3967 c 0,3.20019 -2.5767,5.77639 -5.7769,5.77639 h -64.6467 c -3.2002,0 -5.7764,-2.5762 -5.7764,-5.77639 v -96.3967 c 0,-3.20019 2.5762,-5.77639 5.7764,-5.77639 z" /><g
       id="g7721"
       style="fill:#ffffff;fill-opacity:1"
       transform="translate(556.75984,-151.88968)" /></g></svg>
