<?xml version="1.0" encoding="UTF-8" standalone="no"?>
<!-- Created with Inkscape (http://www.inkscape.org/) -->

<svg
   sodipodi:docname="panel.svg"
   inkscape:version="1.2.2 (b0a8486541, 2022-12-01)"
   id="svg43966"
   version="1.1"
   viewBox="0 0 375 75"
   height="75mm"
   width="375mm"
   xmlns:inkscape="http://www.inkscape.org/namespaces/inkscape"
   xmlns:sodipodi="http://sodipodi.sourceforge.net/DTD/sodipodi-0.dtd"
   xmlns="http://www.w3.org/2000/svg"
   xmlns:svg="http://www.w3.org/2000/svg">
  <sodipodi:namedview
     id="namedview43968"
     pagecolor="#ffffff"
     bordercolor="#000000"
     borderopacity="0.25"
     inkscape:showpageshadow="2"
     inkscape:pageopacity="0.0"
     inkscape:pagecheckerboard="0"
     inkscape:deskcolor="#d1d1d1"
     inkscape:document-units="mm"
     showgrid="false"
     inkscape:zoom="3.0823511"
     inkscape:cx="382.98686"
     inkscape:cy="82.404628"
     inkscape:window-width="1920"
     inkscape:window-height="1019"
     inkscape:window-x="0"
     inkscape:window-y="0"
     inkscape:window-maximized="1"
     inkscape:current-layer="layer1" />
  <defs
     id="defs43963">
    <rect
       x="67.096764"
       y="211.56648"
       width="142.78036"
       height="156.61008"
       id="rect44870" />
  </defs>
  <g
     inkscape:label="Layer 1"
     inkscape:groupmode="layer"
     id="layer1">
    <text
       xml:space="preserve"
       transform="scale(0.26458333)"
       id="text44868"
       style="font-style:normal;font-variant:normal;font-weight:normal;font-stretch:normal;font-size:16px;font-family:'Abyssinica SIL';-inkscape-font-specification:'Abyssinica SIL, Normal';font-variant-ligatures:normal;font-variant-caps:normal;font-variant-numeric:normal;font-variant-east-asian:normal;white-space:pre;shape-inside:url(#rect44870);display:inline;fill:#000000;fill-opacity:1;stroke:none" />
    <path
       id="path44203"
       style="fill:#ffffff;stroke:#000000;stroke-width:0.264583"
       d="m 34.263271,22.632175 a 14.867708,14.867708 0 0 0 -13.36766,8.36538 v 13.00489 a 14.867708,14.867708 0 0 0 13.36766,8.36538 14.867708,14.867708 0 0 0 13.36766,-8.36434 v -13.00851 a 14.867708,14.867708 0 0 0 -13.36766,-8.3628 z" />
    <path
       id="path44193"
       style="fill:#ffffff;stroke:#000000;stroke-width:0.264584"
       d="m 103.61986,26.632445 v 0.67645 a 10.367708,10.367709 0 0 0 -8.323519,8.32352 h -0.676445 v 3.73517 h 0.676445 a 10.367708,10.367709 0 0 0 8.323519,8.32353 v 0.67644 h 3.73517 v -0.67644 a 10.367708,10.367709 0 0 0 8.32352,-8.32353 h 0.67645 v -3.73517 h -0.66921 a 10.367708,10.367709 0 0 0 -8.33076,-8.33076 v -0.66921 z" />
    <path
       id="path44193-7"
       style="fill:#ffffff;stroke:#000000;stroke-width:0.264584"
       d="m 73.716043,26.632445 v 0.67645 a 10.367708,10.367709 0 0 0 -8.323523,8.32352 h -0.676445 v 3.73517 h 0.676445 a 10.367708,10.367709 0 0 0 8.323523,8.32353 v 0.67644 h 3.735172 v -0.67644 a 10.367708,10.367709 0 0 0 8.323523,-8.32353 h 0.676445 v -3.73517 h -0.66921 a 10.367708,10.367709 0 0 0 -8.330758,-8.33076 v -0.66921 z" />
    <path
       id="path44193-8"
       style="fill:#ffffff;stroke:#000000;stroke-width:0.264584"
       d="m 133.52368,26.632445 v 0.67645 a 10.367708,10.367709 0 0 0 -8.32352,8.32352 h -0.67644 v 3.73517 h 0.67644 a 10.367708,10.367709 0 0 0 8.32352,8.32353 v 0.67644 h 3.73517 v -0.67644 a 10.367708,10.367709 0 0 0 8.32352,-8.32353 h 0.67644 v -3.73517 h -0.66921 a 10.367708,10.367709 0 0 0 -8.33075,-8.33076 v -0.66921 z" />
    <path
       id="path44193-4"
       style="fill:#ffffff;stroke:#000000;stroke-width:0.264584"
       d="m 163.4275,26.632445 v 0.67645 a 10.367708,10.367709 0 0 0 -8.32353,8.32352 h -0.67644 v 3.73517 h 0.67644 a 10.367708,10.367709 0 0 0 8.32353,8.32353 v 0.67644 h 3.73517 v -0.67644 a 10.367708,10.367709 0 0 0 8.32352,-8.32353 h 0.67645 v -3.73517 h -0.66921 a 10.367708,10.367709 0 0 0 -8.33076,-8.33076 v -0.66921 z" />
    <path
       id="path44193-5"
       style="fill:#ffffff;stroke:#000000;stroke-width:0.264584"
       d="m 193.33132,26.632445 v 0.67645 a 10.367708,10.367709 0 0 0 -8.32352,8.32352 h -0.67645 v 3.73517 h 0.67645 a 10.367708,10.367709 0 0 0 8.32352,8.32353 v 0.67644 h 3.73517 v -0.67644 a 10.367708,10.367709 0 0 0 8.32353,-8.32353 h 0.67644 v -3.73517 h -0.66921 a 10.367708,10.367709 0 0 0 -8.33076,-8.33076 v -0.66921 z" />
    <g
       aria-label="Laser"
       id="text45714-2"
       style="font-weight:bold;font-size:5.64444px;font-family:'Arundina Sans';-inkscape-font-specification:'Arundina Sans, Bold';stroke-width:1.265">
      <path
         d="m 128.09182,15.485828 v 3.293508 h 1.84381 v 0.79375 h -2.9049 v -4.087258 z"
         id="path735" />
      <path
         d="m 131.93654,18.189536 q -0.60633,0 -0.60633,0.413412 0,0.184657 0.11575,0.292144 0.11851,0.107486 0.34451,0.107486 0.28663,0 0.4768,-0.198437 0.19293,-0.201193 0.19293,-0.504362 v -0.110243 z m -1.33394,-1.606791 q 0.68627,-0.143316 1.2678,-0.143316 0.83233,0 1.19889,0.327973 0.36656,0.327973 0.36656,1.058333 v 1.747351 h -0.97565 v -0.44924 q -0.20671,0.272851 -0.45751,0.39963 -0.2508,0.12678 -0.60634,0.12678 -0.46853,0 -0.76894,-0.278364 -0.29766,-0.278363 -0.29766,-0.722091 0,-0.534679 0.37207,-0.785481 0.37483,-0.253559 1.16858,-0.253559 h 0.5898 v -0.07717 q 0,-0.234267 -0.18742,-0.336241 -0.18741,-0.101975 -0.57877,-0.101975 -0.66973,0 -1.09141,0.242535 z"
         id="path737" />
      <path
         d="m 135.50015,19.650256 q -0.71383,0 -1.28158,-0.195681 v -0.733116 q 0.5898,0.281119 1.19614,0.281119 0.60633,0 0.60633,-0.30868 0,-0.129535 -0.10197,-0.203949 -0.10197,-0.07717 -0.4079,-0.104731 l -0.17914,-0.01654 q -0.64768,-0.06063 -0.91226,-0.303168 -0.26459,-0.242534 -0.26459,-0.677994 0,-0.94809 1.36426,-0.94809 0.53192,0 1.21543,0.151584 v 0.757921 q -0.56775,-0.253559 -1.1355,-0.253559 -0.56776,0 -0.56776,0.272851 0,0.234267 0.46854,0.286632 l 0.16812,0.01929 q 0.75792,0.08544 1.01423,0.305924 0.25907,0.21773 0.25907,0.694531 0,0.97565 -1.44142,0.97565 z"
         id="path739" />
      <path
         d="m 140.59613,19.385673 q -0.66973,0.264583 -1.39182,0.264583 -0.83233,0 -1.30087,-0.42168 -0.46577,-0.421679 -0.46577,-1.182355 0,-0.766189 0.45751,-1.185112 0.4575,-0.42168 1.25125,-0.42168 0.71107,0 1.14653,0.429948 0.43546,0.429947 0.43546,1.163063 v 0.278364 h -2.28203 q 0.0579,0.691774 0.84336,0.691774 0.60634,0 1.30638,-0.37207 z m -0.87643,-1.672937 q 0,-0.286632 -0.1571,-0.451997 -0.15434,-0.165364 -0.41617,-0.165364 -0.6146,0 -0.68902,0.617361 z"
         id="path741" />
      <path
         d="m 143.47071,16.439429 q 0.0827,0 0.28112,0.01929 v 0.879188 q -0.27009,-0.118512 -0.51538,-0.118512 -0.3831,0 -0.58153,0.248047 -0.19569,0.245291 -0.19569,0.683506 v 1.422135 h -0.98943 v -3.067511 h 0.98943 v 0.507118 q 0.34451,-0.573264 1.01148,-0.573264 z"
         id="path743" />
    </g>
    <g
       aria-label="Fan"
       id="text45745"
       style="font-weight:bold;font-size:5.64444px;font-family:'Arundina Sans';-inkscape-font-specification:'Arundina Sans, Bold';stroke-width:1.265">
      <path
         d="m 162.84495,15.485828 v 0.796505 h -1.80523 v 0.774457 h 1.68396 v 0.785481 h -1.68396 v 1.730815 h -1.06109 v -4.087258 z"
         id="path728" />
      <path
         d="m 165.12973,18.189536 q -0.60633,0 -0.60633,0.413412 0,0.184657 0.11575,0.292144 0.11851,0.107486 0.34451,0.107486 0.28663,0 0.4768,-0.198437 0.19293,-0.201193 0.19293,-0.504362 v -0.110243 z m -1.33394,-1.606791 q 0.68627,-0.143316 1.2678,-0.143316 0.83233,0 1.19889,0.327973 0.36656,0.327973 0.36656,1.058333 v 1.747351 h -0.97565 v -0.44924 q -0.20671,0.272851 -0.45751,0.39963 -0.2508,0.12678 -0.60634,0.12678 -0.46853,0 -0.76894,-0.278364 -0.29766,-0.278363 -0.29766,-0.722091 0,-0.534679 0.37207,-0.785481 0.37483,-0.253559 1.16858,-0.253559 h 0.5898 v -0.07717 q 0,-0.234267 -0.18742,-0.336241 -0.18741,-0.101975 -0.57877,-0.101975 -0.66973,0 -1.09141,0.242535 z"
         id="path730" />
      <path
         d="m 169.5367,16.439429 q 0.54294,0 0.80752,0.336241 0.26734,0.336241 0.26734,0.937066 v 1.86035 h -0.97565 v -1.4745 q 0,-0.578776 -0.10473,-0.752408 -0.10197,-0.173633 -0.35829,-0.173633 -0.32246,0 -0.48507,0.253559 -0.1626,0.253559 -0.1626,0.650433 v 1.496549 h -0.98943 v -3.067511 h 0.98943 v 0.44924 q 0.39963,-0.515386 1.01148,-0.515386 z"
         id="path732" />
    </g>
    <path
       id="path45203"
       style="fill:none;fill-opacity:1;stroke:#000000;stroke-width:0.264583;stroke-opacity:1"
       d="M 255.64592,26.382369 A 11.117709,11.117709 0 0 0 244.52825,37.500037 11.117709,11.117709 0 0 0 255.64592,48.617704 11.117709,11.117709 0 0 0 266.7641,37.500037 11.117709,11.117709 0 0 0 255.64592,26.382369 Z" />
    <g
       aria-label="Emergency"
       id="text46160"
       style="font-weight:bold;font-size:7.05556px;font-family:'DejaVu Sans';-inkscape-font-specification:'DejaVu Sans, Bold';stroke-width:0.6">
      <path
         d="m 233.99547,8.7414055 h 3.57946 v 1.0025234 h -2.2531 v 0.9577371 h 2.11874 v 1.002523 h -2.11874 v 1.178224 h 2.32889 v 1.002523 h -3.65525 z"
         id="path664" />
      <path
         d="m 242.33605,10.667215 q 0.23427,-0.35829 0.55466,-0.544325 0.32384,-0.1894807 0.70969,-0.1894807 0.66491,0 1.01286,0.4099667 0.34796,0.409967 0.34796,1.192004 v 2.349556 h -1.24024 v -2.011937 q 0.003,-0.04479 0.003,-0.09302 0.003,-0.04823 0.003,-0.137804 0,-0.409967 -0.12058,-0.592557 -0.12057,-0.186035 -0.38929,-0.186035 -0.3514,0 -0.54433,0.289388 -0.18948,0.289388 -0.19637,0.837159 v 1.894803 h -1.24023 v -2.011937 q 0,-0.640788 -0.11025,-0.823378 -0.11024,-0.186035 -0.39274,-0.186035 -0.35484,0 -0.54777,0.292833 -0.19292,0.289388 -0.19292,0.830268 v 1.898249 h -1.24024 v -3.858509 h 1.24024 v 0.564996 q 0.22737,-0.327284 0.52021,-0.492649 0.29628,-0.1653647 0.65112,-0.1653647 0.39963,0 0.70625,0.1929257 0.30661,0.192925 0.46508,0.54088 z"
         id="path666" />
      <path
         d="m 249.9635,11.945346 v 0.3514 h -2.88355 q 0.0448,0.434083 0.31351,0.651124 0.26871,0.217041 0.75103,0.217041 0.38929,0 0.79582,-0.113688 0.40996,-0.117134 0.8406,-0.3514 v 0.950847 q -0.43753,0.165364 -0.87506,0.248047 -0.43752,0.08613 -0.87505,0.08613 -1.04731,0 -1.62953,-0.530545 -0.57878,-0.53399 -0.57878,-1.495172 0,-0.943957 0.56844,-1.484837 0.57189,-0.5408807 1.57097,-0.5408807 0.9095,0 1.45383,0.5477707 0.54777,0.54777 0.54777,1.464166 z m -1.2678,-0.409966 q 0,-0.3514 -0.2067,-0.564996 -0.20326,-0.217041 -0.53399,-0.217041 -0.35829,0 -0.58222,0.20326 -0.22394,0.199816 -0.27906,0.578777 z"
         id="path668" />
      <path
         d="m 253.76344,11.077182 q -0.16192,-0.07579 -0.32384,-0.110243 -0.15847,-0.0379 -0.32039,-0.0379 -0.47542,0 -0.73381,0.306614 -0.25493,0.303169 -0.25493,0.87161 v 1.77767 h -1.23335 v -3.858509 h 1.23335 v 0.633898 q 0.23771,-0.378961 0.54432,-0.551216 0.31006,-0.1756997 0.7407,-0.1756997 0.062,0 0.13436,0.00689 0.0723,0.00345 0.21015,0.02067 z"
         id="path670" />
      <path
         d="m 257.00183,13.230368 q -0.25493,0.337619 -0.56155,0.496094 -0.30661,0.158474 -0.70969,0.158474 -0.70624,0 -1.16788,-0.55466 -0.46165,-0.558106 -0.46165,-1.419381 0,-0.864719 0.46165,-1.415935 0.46164,-0.5546605 1.16788,-0.5546605 0.40308,0 0.70969,0.1584745 0.30662,0.158474 0.56155,0.499539 v -0.571886 h 1.24024 v 3.469213 q 0,0.930177 -0.58911,1.419381 -0.58567,0.492649 -1.70188,0.492649 -0.36174,0 -0.69936,-0.05512 -0.33762,-0.05512 -0.67868,-0.16881 v -0.961182 q 0.32384,0.186035 0.6339,0.275608 0.31006,0.09302 0.62356,0.09302 0.60634,0 0.88884,-0.265272 0.28249,-0.265273 0.28249,-0.830269 z m -0.81304,-2.401233 q -0.3824,0 -0.596,0.282498 -0.2136,0.282498 -0.2136,0.799262 0,0.530545 0.20671,0.806153 0.2067,0.272163 0.60289,0.272163 0.38585,0 0.59945,-0.282498 0.21359,-0.282498 0.21359,-0.795818 0,-0.516764 -0.21359,-0.799262 -0.2136,-0.282498 -0.59945,-0.282498 z"
         id="path672" />
      <path
         d="m 263.2788,11.945346 v 0.3514 h -2.88354 q 0.0448,0.434083 0.3135,0.651124 0.26872,0.217041 0.75103,0.217041 0.3893,0 0.79582,-0.113688 0.40997,-0.117134 0.8406,-0.3514 v 0.950847 q -0.43752,0.165364 -0.87505,0.248047 -0.43753,0.08613 -0.87506,0.08613 -1.04731,0 -1.62953,-0.530545 -0.57877,-0.53399 -0.57877,-1.495172 0,-0.943957 0.56844,-1.484837 0.57188,-0.5408807 1.57096,-0.5408807 0.90951,0 1.45383,0.5477707 0.54777,0.54777 0.54777,1.464166 z m -1.26779,-0.409966 q 0,-0.3514 -0.20671,-0.564996 -0.20326,-0.217041 -0.53399,-0.217041 -0.35829,0 -0.58222,0.20326 -0.22393,0.199816 -0.27905,0.578777 z"
         id="path674" />
      <path
         d="m 268.0916,11.53538 v 2.349556 h -1.24023 V 13.50253 12.086595 q 0,-0.499539 -0.0241,-0.689019 -0.0207,-0.189481 -0.0758,-0.279053 -0.0724,-0.120579 -0.19637,-0.186035 -0.12402,-0.0689 -0.2825,-0.0689 -0.38585,0 -0.60633,0.299723 -0.22049,0.296279 -0.22049,0.823378 v 1.898249 h -1.23335 v -3.858509 h 1.23335 v 0.564996 q 0.27905,-0.33762 0.59256,-0.496094 0.3135,-0.1619197 0.69246,-0.1619197 0.66835,0 1.01286,0.4099667 0.34795,0.409967 0.34795,1.192004 z"
         id="path676" />
      <path
         d="m 272.35319,10.147005 v 1.005969 q -0.25149,-0.172255 -0.50643,-0.254937 -0.25149,-0.08268 -0.52366,-0.08268 -0.51676,0 -0.80615,0.303169 -0.28594,0.299723 -0.28594,0.840604 0,0.54088 0.28594,0.844049 0.28939,0.299723 0.80615,0.299723 0.28939,0 0.54778,-0.08613 0.26182,-0.08613 0.48231,-0.254938 v 1.009414 q -0.28939,0.106798 -0.58911,0.158475 -0.29628,0.05512 -0.596,0.05512 -1.04387,0 -1.63298,-0.53399 -0.58911,-0.537435 -0.58911,-1.491727 0,-0.954292 0.58911,-1.488282 0.58911,-0.5374357 1.63298,-0.5374357 0.30316,0 0.596,0.055122 0.29628,0.051676 0.58911,0.1584742 z"
         id="path678" />
      <path
         d="m 272.9113,10.026427 h 1.23334 l 1.03698,2.618274 0.88194,-2.618274 h 1.23335 l -1.62265,4.22369 q -0.2446,0.644233 -0.57188,0.89917 -0.32384,0.258383 -0.85783,0.258383 h -0.71314 v -0.809598 h 0.38585 q 0.31351,0 0.45476,-0.09991 0.14469,-0.09991 0.22393,-0.35829 l 0.0344,-0.106798 z"
         id="path680" />
    </g>
    <g
       aria-label="STOP"
       id="text46320"
       style="font-weight:bold;font-size:7.05556px;font-family:'DejaVu Sans';-inkscape-font-specification:'DejaVu Sans, Bold';stroke-width:0.600001">
      <path
         d="m 250.60256,61.33156 v 1.088651 q -0.42374,-0.18948 -0.82682,-0.285943 -0.40308,-0.09646 -0.76137,-0.09646 -0.47542,0 -0.7028,0.130914 -0.22737,0.130914 -0.22737,0.406521 0,0.206706 0.15158,0.32384 0.15503,0.113688 0.55811,0.19637 l 0.56499,0.113688 q 0.85783,0.172255 1.21957,0.523655 0.36173,0.3514 0.36173,0.999079 0,0.850939 -0.50643,1.267795 -0.50298,0.413412 -1.53996,0.413412 -0.4892,0 -0.98185,-0.09302 -0.49265,-0.09302 -0.9853,-0.275608 v -1.119657 q 0.49265,0.261827 0.95085,0.396186 0.46164,0.130914 0.88884,0.130914 0.43408,0 0.6649,-0.144694 0.23082,-0.144694 0.23082,-0.413412 0,-0.241157 -0.15847,-0.37207 -0.15503,-0.130914 -0.62357,-0.234267 l -0.51332,-0.113688 q -0.7717,-0.165365 -1.12999,-0.5271 -0.35484,-0.361736 -0.35484,-0.974963 0,-0.768257 0.49609,-1.181668 0.49609,-0.413412 1.42627,-0.413412 0.42375,0 0.87161,0.06546 0.44786,0.06201 0.92673,0.18948 z"
         style="stroke-width:0.6"
         id="path683" />
      <path
         d="m 251.4914,61.169641 h 4.74045 v 1.002523 h -1.70532 v 4.141007 h -1.32636 v -4.141007 h -1.70877 z"
         style="stroke-width:0.6"
         id="path685" />
      <path
         d="m 259.26698,62.037805 q -0.60633,0 -0.94051,0.447863 -0.33417,0.447863 -0.33417,1.260906 0,0.809598 0.33417,1.25746 0.33418,0.447863 0.94051,0.447863 0.60979,0 0.94396,-0.447863 0.33417,-0.447862 0.33417,-1.25746 0,-0.813043 -0.33417,-1.260906 -0.33417,-0.447863 -0.94396,-0.447863 z m 0,-0.961182 q 1.24024,0 1.94304,0.70969 0.7028,0.70969 0.7028,1.960261 0,1.247125 -0.7028,1.956815 -0.7028,0.70969 -1.94304,0.70969 -1.23679,0 -1.94303,-0.70969 -0.7028,-0.70969 -0.7028,-1.956815 0,-1.250571 0.7028,-1.960261 0.70624,-0.70969 1.94303,-0.70969 z"
         style="stroke-width:0.6"
         id="path687" />
      <path
         d="m 262.91534,61.169641 h 2.20142 q 0.98185,0 1.50551,0.437527 0.5271,0.434082 0.5271,1.240235 0,0.809598 -0.5271,1.247125 -0.52366,0.434083 -1.50551,0.434083 h -0.87506 v 1.78456 h -1.32636 z m 1.32636,0.961182 v 1.436606 h 0.73381 q 0.38585,0 0.596,-0.186036 0.21015,-0.18948 0.21015,-0.53399 0,-0.34451 -0.21015,-0.530545 -0.21015,-0.186035 -0.596,-0.186035 z"
         style="stroke-width:0.6"
         id="path689" />
    </g>
    <rect
       style="fill:none;fill-opacity:1;stroke:#ce0000;stroke-width:3.265;stroke-dasharray:none;stroke-opacity:1"
       id="rect45968-6-3"
       width="57.638153"
       height="69.73542"
       x="226.8271"
       y="2.6323264"
       ry="5.8282342"
       rx="6.7543139" />
    <path
       id="rect45015-9"
       style="fill:none;fill-opacity:1;stroke:#000000;stroke-width:0.264583;stroke-opacity:1"
       d="m 332.05396,22.585132 v 1.790071 h -3.00033 v -1.789554 c -5.6334,0.56638 -10.46791,4.256464 -12.50002,9.541019 v 10.747148 c 2.03211,5.284555 6.86662,8.97464 12.50002,9.54102 v -1.789555 h 3.00033 v 1.789555 c 5.6334,-0.566383 10.4679,-4.256468 12.50001,-9.54102 V 32.117883 c -2.03459,-5.281324 -6.8686,-8.967829 -12.50001,-9.532751 z"
       sodipodi:nodetypes="ccccccccccccccc" />
    <rect
       style="fill:none;fill-opacity:1;stroke:#ce0000;stroke-width:3.265;stroke-dasharray:none;stroke-opacity:1"
       id="rect45968-6"
       width="57.638153"
       height="69.73542"
       x="301.73474"
       y="2.6322899"
       ry="5.8282342"
       rx="6.7543139" />
    <g
       aria-label="FIRE"
       id="text46160-1"
       style="font-weight:bold;font-size:8.46667px;font-family:'DejaVu Sans';-inkscape-font-specification:'DejaVu Sans, Bold';stroke-width:0.6">
      <path
         d="m 320.63399,9.1729421 h 4.29535 V 10.37597 h -2.70371 v 1.149284 h 2.54248 v 1.203028 h -2.54248 v 2.616896 h -1.59164 z"
         id="path655" />
      <path
         d="m 326.41762,9.1729421 h 1.59164 v 6.1722359 h -1.59164 z"
         id="path657" />
      <path
         d="m 331.82918,11.909727 q 0.50023,0 0.7152,-0.186035 0.21911,-0.186035 0.21911,-0.611849 0,-0.42168 -0.21911,-0.603581 -0.21497,-0.181901 -0.7152,-0.181901 h -0.66973 v 1.583366 z m -0.66973,1.099675 v 2.335776 h -1.59163 V 9.1729421 h 2.43086 q 1.21956,0 1.78594,0.4092775 0.57051,0.4092775 0.57051,1.2939784 0,0.611849 -0.29766,1.00459 -0.29352,0.392741 -0.88884,0.578777 0.3266,0.07441 0.58292,0.338997 0.26044,0.260449 0.52503,0.79375 l 0.86403,1.752866 h -1.69499 l -0.75241,-1.533757 q -0.22738,-0.463021 -0.46302,-0.63252 -0.23151,-0.169499 -0.62012,-0.169499 z"
         id="path659" />
      <path
         d="m 336.08732,9.1729421 h 4.29535 V 10.37597 h -2.70371 v 1.149284 h 2.54248 v 1.203028 h -2.54248 v 1.413868 h 2.79466 v 1.203028 h -4.3863 z"
         id="path661" />
    </g>
    <g
       aria-label="Extinguisher"
       id="text46160-5"
       style="font-weight:bold;font-size:6.35px;font-family:'DejaVu Sans';-inkscape-font-specification:'DejaVu Sans, Bold';stroke-width:0.6">
      <path
         d="m 308.28076,59.852988 h 3.2215 v 0.90227 h -2.02778 v 0.861963 h 1.90686 v 0.902271 h -1.90686 v 1.0604 h 2.096 v 0.90227 h -3.28972 z"
         id="path692" />
      <path
         d="m 313.44633,62.705527 -1.25264,-1.696021 h 1.17513 l 0.71003,1.029395 0.71934,-1.029395 h 1.17512 l -1.25264,1.68982 1.31465,1.782836 h -1.17512 l -0.78135,-1.097607 -0.77204,1.097607 h -1.17513 z"
         id="path694" />
      <path
         d="m 317.87707,60.02352 v 0.985986 h 1.14412 v 0.79375 h -1.14412 v 1.472779 q 0,0.241845 0.0961,0.328662 0.0961,0.08371 0.38137,0.08371 h 0.57051 v 0.79375 h -0.95188 q -0.65733,0 -0.93328,-0.272851 -0.27285,-0.275952 -0.27285,-0.933276 v -1.472779 h -0.5519 v -0.79375 h 0.5519 V 60.02352 Z"
         id="path696" />
      <path
         d="m 319.70021,61.009506 h 1.11001 v 3.472656 h -1.11001 z m 0,-1.351855 h 1.11001 v 0.905371 h -1.11001 z"
         id="path698" />
      <path
         d="m 325.36808,62.367563 v 2.114599 h -1.11621 v -0.344165 -1.27434 q 0,-0.449585 -0.0217,-0.620118 -0.0186,-0.170532 -0.0682,-0.251147 -0.0651,-0.108521 -0.17674,-0.167432 -0.11162,-0.06201 -0.25425,-0.06201 -0.34726,0 -0.5457,0.269751 -0.19844,0.26665 -0.19844,0.74104 v 1.708422 h -1.11001 v -3.472656 h 1.11001 v 0.508496 q 0.25115,-0.303857 0.5333,-0.446484 0.28216,-0.145728 0.62322,-0.145728 0.60152,0 0.91157,0.36897 0.31316,0.36897 0.31316,1.072803 z"
         id="path700" />
      <path
         d="m 328.76012,63.893051 q -0.22944,0.303858 -0.50539,0.446485 -0.27595,0.142626 -0.63872,0.142626 -0.63562,0 -1.0511,-0.499194 -0.41548,-0.502295 -0.41548,-1.277441 0,-0.778247 0.41548,-1.274341 0.41548,-0.499194 1.0511,-0.499194 0.36277,0 0.63872,0.142627 0.27595,0.142627 0.50539,0.449585 v -0.514698 h 1.11622 v 3.12229 q 0,0.837158 -0.5302,1.277442 -0.5271,0.443383 -1.53169,0.443383 -0.32557,0 -0.62942,-0.04961 -0.30386,-0.04961 -0.61082,-0.151929 V 64.78602 q 0.29146,0.167432 0.57051,0.248047 0.27905,0.08372 0.56121,0.08372 0.5457,0 0.79995,-0.238746 0.25424,-0.238745 0.25424,-0.747241 z m -0.73173,-2.161108 q -0.34417,0 -0.5364,0.254248 -0.19224,0.254248 -0.19224,0.719336 0,0.47749 0.18603,0.725537 0.18604,0.244946 0.54261,0.244946 0.34726,0 0.5395,-0.254248 0.19223,-0.254248 0.19223,-0.716235 0,-0.465088 -0.19223,-0.719336 -0.19224,-0.254248 -0.5395,-0.254248 z"
         id="path702" />
      <path
         d="m 330.90573,63.130307 v -2.120801 h 1.11621 v 0.347266 q 0,0.282153 -0.003,0.710034 -0.003,0.42478 -0.003,0.567407 0,0.418579 0.0217,0.604615 0.0217,0.182934 0.0744,0.26665 0.0682,0.10852 0.17673,0.167432 0.11162,0.05891 0.25425,0.05891 0.34727,0 0.5457,-0.266651 0.19844,-0.26665 0.19844,-0.74104 v -1.714624 h 1.11001 v 3.472656 h -1.11001 v -0.502294 q -0.25115,0.303857 -0.5333,0.449585 -0.27905,0.142626 -0.61702,0.142626 -0.60151,0 -0.91777,-0.368969 -0.31316,-0.36897 -0.31316,-1.072803 z"
         id="path704" />
      <path
         d="m 335.46359,61.009506 h 1.11001 v 3.472656 h -1.11001 z m 0,-1.351855 h 1.11001 v 0.905371 h -1.11001 z"
         id="path706" />
      <path
         d="m 340.35321,61.118027 v 0.843359 q -0.35656,-0.148828 -0.68833,-0.223242 -0.33176,-0.07441 -0.62631,-0.07441 -0.31626,0 -0.47129,0.08062 -0.15193,0.07751 -0.15193,0.241846 0,0.133325 0.11472,0.204639 0.11782,0.07131 0.41858,0.105419 l 0.19534,0.02791 q 0.85266,0.10852 1.14721,0.356567 0.29456,0.248047 0.29456,0.778247 0,0.555005 -0.40928,0.834058 -0.40928,0.279052 -1.22163,0.279052 -0.34416,0 -0.71313,-0.05581 -0.36587,-0.05271 -0.75345,-0.161231 v -0.843359 q 0.33177,0.161231 0.67903,0.241846 0.35037,0.08061 0.71004,0.08061 0.32556,0 0.48989,-0.08992 0.16433,-0.08992 0.16433,-0.26665 0,-0.148828 -0.11472,-0.220142 -0.11162,-0.07441 -0.44959,-0.114722 l -0.19533,-0.0248 q -0.74104,-0.09302 -1.0387,-0.344165 -0.29766,-0.251148 -0.29766,-0.762744 0,-0.551905 0.37827,-0.818555 0.37828,-0.266651 1.15962,-0.266651 0.30696,0 0.64493,0.04651 0.33796,0.04651 0.73483,0.145728 z"
         id="path708" />
      <path
         d="m 344.91108,62.367563 v 2.114599 h -1.11621 v -0.344165 -1.268139 q 0,-0.455786 -0.0217,-0.626319 -0.0186,-0.170532 -0.0682,-0.251147 -0.0651,-0.108521 -0.17673,-0.167432 -0.11163,-0.06201 -0.25425,-0.06201 -0.34727,0 -0.54571,0.269751 -0.19843,0.26665 -0.19843,0.74104 v 1.708422 h -1.11001 v -4.824511 h 1.11001 v 1.860351 q 0.25114,-0.303857 0.5333,-0.446484 0.28215,-0.145728 0.62322,-0.145728 0.60151,0 0.91157,0.36897 0.31316,0.36897 0.31316,1.072803 z"
         id="path710" />
      <path
         d="m 349.40693,62.736533 v 0.316259 h -2.5952 q 0.0403,0.390674 0.28216,0.586011 0.24184,0.195337 0.67593,0.195337 0.35036,0 0.71623,-0.102319 0.36897,-0.10542 0.75654,-0.31626 v 0.855762 q -0.39377,0.148828 -0.78754,0.223242 -0.39378,0.07751 -0.78755,0.07751 -0.94258,0 -1.46658,-0.47749 -0.5209,-0.480591 -0.5209,-1.345654 0,-0.849561 0.5116,-1.336353 0.51469,-0.486792 1.41386,-0.486792 0.81856,0 1.30845,0.492994 0.493,0.492993 0.493,1.317749 z m -1.14102,-0.36897 q 0,-0.31626 -0.18604,-0.508496 -0.18293,-0.195337 -0.48059,-0.195337 -0.32246,0 -0.524,0.182934 -0.20153,0.179834 -0.25114,0.520899 z"
         id="path712" />
      <path
         d="m 352.82687,61.955185 q -0.14573,-0.06821 -0.29145,-0.09922 -0.14263,-0.03411 -0.28836,-0.03411 -0.42788,0 -0.66042,0.275952 -0.22945,0.272851 -0.22945,0.784448 v 1.599902 h -1.11001 v -3.472656 h 1.11001 v 0.570508 q 0.21394,-0.341064 0.4899,-0.496094 0.27905,-0.15813 0.66662,-0.15813 0.0558,0 0.12092,0.0062 0.0651,0.0031 0.18914,0.0186 z"
         id="path714" />
    </g>
    <rect
       style="fill:none;fill-opacity:1;stroke:#000000;stroke-width:0.2;stroke-dasharray:none;stroke-opacity:1"
       id="rect52147"
       width="374.80002"
       height="74.800003"
       x="0.1"
       y="0.1"
       rx="0"
       ry="0" />
    <g
       aria-label="Master"
       id="text45714-4-0"
       style="font-weight:bold;font-size:5.64444px;font-family:'Arundina Sans';-inkscape-font-specification:'Arundina Sans, Bold';stroke-width:0.1;fill:none;stroke:#000000;stroke-opacity:1;stroke-dasharray:none">
      <path
         d="m 65.956658,15.485828 0.931553,2.188323 0.928797,-2.188323 h 1.353233 v 4.087258 h -0.997699 v -2.990341 l -0.942578,2.20486 h -0.675238 l -0.953602,-2.20486 v 2.990341 h -0.98943 v -4.087258 z"
         id="path753"
         style="fill:none;stroke:#000000;stroke-opacity:1;stroke-width:0.1;stroke-dasharray:none" />
      <path
         d="m 71.507392,18.189536 q -0.606337,0 -0.606337,0.413412 0,0.184657 0.115756,0.292144 0.118511,0.107486 0.344509,0.107486 0.286632,0 0.476801,-0.198437 0.192925,-0.201193 0.192925,-0.504362 v -0.110243 z m -1.33394,-1.606791 q 0.686262,-0.143316 1.267794,-0.143316 0.832334,0 1.198892,0.327973 0.366558,0.327973 0.366558,1.058333 v 1.747351 h -0.97565 v -0.44924 q -0.206706,0.272851 -0.457508,0.39963 -0.250803,0.12678 -0.606337,0.12678 -0.468532,0 -0.768945,-0.278364 -0.297656,-0.278363 -0.297656,-0.722091 0,-0.534679 0.37207,-0.785481 0.374827,-0.253559 1.168576,-0.253559 h 0.5898 v -0.07717 q 0,-0.234267 -0.187413,-0.336241 -0.187413,-0.101975 -0.578776,-0.101975 -0.669726,0 -1.091405,0.242535 z"
         id="path755"
         style="fill:none;stroke:#000000;stroke-opacity:1;stroke-width:0.1;stroke-dasharray:none" />
      <path
         d="m 78.314896,16.505575 h 1.005967 v 0.694531 h -1.005967 v 1.314647 q 0,0.214974 0.07993,0.289388 0.08268,0.07441 0.341753,0.07441 h 0.496093 v 0.694531 h -0.832334 q -0.587044,0 -0.826822,-0.234267 -0.239779,-0.234266 -0.239779,-0.824066 v -1.314647 h -0.493337 v -0.694531 h 0.493337 V 15.64568 h 0.981163 z"
         id="path759"
         style="fill:none;stroke:#000000;stroke-opacity:1;stroke-width:0.1;stroke-dasharray:none" />
      <g
         id="g1755">
        <path
           d="m 75.070996,19.650256 q -0.713823,0 -1.281575,-0.195681 v -0.733116 q 0.5898,0.281119 1.196136,0.281119 0.606337,0 0.606337,-0.30868 0,-0.129535 -0.101975,-0.203949 -0.101975,-0.07717 -0.407899,-0.104731 l -0.179145,-0.01654 q -0.647677,-0.06063 -0.91226,-0.303168 -0.264583,-0.242534 -0.264583,-0.677994 0,-0.94809 1.364256,-0.94809 0.531923,0 1.215429,0.151584 v 0.757921 q -0.567751,-0.253559 -1.135503,-0.253559 -0.567751,0 -0.567751,0.272851 0,0.234267 0.468533,0.286632 l 0.16812,0.01929 q 0.757921,0.08544 1.014236,0.305924 0.259071,0.21773 0.259071,0.694531 0,0.97565 -1.441427,0.97565 z"
           id="path757"
           style="fill:none;stroke:#000000;stroke-opacity:1;stroke-width:0.1;stroke-dasharray:none" />
        <path
           style="fill:none;stroke:#000000;stroke-width:0.1"
           d="M 74.612613,17.574488 l 0.986987,0.986987"
           id="path1753" />
      </g>
      <g
         id="g1760">
        <path
           d="m 82.840369,19.385673 q -0.669726,0.264583 -1.391818,0.264583 -0.832334,0 -1.300867,-0.42168 -0.465776,-0.421679 -0.465776,-1.182355 0,-0.766189 0.457508,-1.185112 0.457508,-0.42168 1.251258,-0.42168 0.711067,0 1.146527,0.429948 0.435459,0.429947 0.435459,1.163063 v 0.278364 h -2.282029 q 0.05788,0.691774 0.843359,0.691774 0.606336,0 1.306379,-0.37207 z m -0.876432,-1.672937 q 0,-0.286632 -0.157096,-0.451997 -0.15434,-0.165364 -0.416167,-0.165364 -0.614605,0 -0.689019,0.617361 z"
           id="path761"
           style="fill:none;stroke:#000000;stroke-opacity:1;stroke-width:0.1;stroke-dasharray:none" />
        <path
           style="fill:none;stroke:#000000;stroke-width:0.1"
           d="M 82.028963,17.330652 l 0.065535,0.065535"
           id="path1758" />
      </g>
      <g
         id="g1765">
        <path
           d="m 85.714955,16.439429 q 0.08268,0 0.281119,0.01929 v 0.879188 q -0.270095,-0.118512 -0.515386,-0.118512 -0.383094,0 -0.581531,0.248047 -0.195682,0.245291 -0.195682,0.683506 v 1.422135 h -0.98943 v -3.067511 h 0.98943 v 0.507118 q 0.34451,-0.573264 1.01148,-0.573264 z"
           id="path763"
           style="fill:none;stroke:#000000;stroke-opacity:1;stroke-width:0.1;stroke-dasharray:none" />
        <path
           style="fill:none;stroke:#000000;stroke-width:0.1"
           d="M 85.031594,17.209922 l -0.317549,0.317549"
           id="path1763" />
      </g>
    </g>
    <g
       aria-label="Dry"
       id="text45714-4-0-8"
       style="font-weight:bold;font-size:5.64444px;font-family:'Arundina Sans';-inkscape-font-specification:'Arundina Sans, Bold';stroke-width:1.265">
      <path
         d="m 103.02903,17.525323 q 0,-0.620117 -0.339,-0.931554 -0.339,-0.311436 -0.98116,-0.311436 h -0.3831 v 2.497003 h 0.3831 q 0.64216,0 0.98116,-0.314192 0.339,-0.316949 0.339,-0.939821 z m -1.64538,-2.039495 q 0.82682,0 1.30638,0.110243 0.48231,0.110243 0.86265,0.479556 0.56224,0.542947 0.56224,1.449696 0,0.942577 -0.56224,1.468987 -0.45751,0.427192 -0.97014,0.504362 -0.50987,0.07441 -1.19889,0.07441 h -1.11896 v -4.087258 z"
         id="path746" />
      <path
         d="m 106.87651,16.439429 q 0.0827,0 0.28112,0.01929 v 0.879188 q -0.2701,-0.118512 -0.51539,-0.118512 -0.38309,0 -0.58153,0.248047 -0.19568,0.245291 -0.19568,0.683506 v 1.422135 h -0.98943 v -3.067511 h 0.98943 v 0.507118 q 0.34451,-0.573264 1.01148,-0.573264 z"
         id="path748" />
      <path
         d="m 108.2132,16.505575 0.82407,2.07808 0.69729,-2.07808 h 0.97565 l -1.28158,3.34863 q -0.23151,0.603581 -0.49058,0.768945 -0.25631,0.165365 -0.63389,0.165365 h -0.57878 v -0.644922 h 0.30041 q 0.24254,0 0.35554,-0.07993 0.11575,-0.07993 0.19568,-0.283876 l 0.0303,-0.07717 -1.37528,-3.197046 z"
         id="path750" />
    </g>
    <g
       aria-label="Light"
       id="text45745-4"
       style="font-weight:bold;font-size:5.64444px;font-family:'Arundina Sans';-inkscape-font-specification:'Arundina Sans, Bold';stroke-width:1.265">
      <path
         d="m 188.49753,15.485828 v 3.293508 h 1.84381 v 0.79375 h -2.9049 v -4.087258 z"
         id="path717" />
      <path
         d="m 191.95916,16.505575 v 3.067511 h -0.98943 v -3.067511 z m 0,-1.196136 v 0.813042 h -0.98943 v -0.813042 z"
         id="path719" />
      <path
         d="m 193.03403,19.834913 q 0.47128,0.297656 1.00045,0.297656 0.47956,0 0.70556,-0.201194 0.22875,-0.201193 0.22875,-0.675238 v -0.203949 q -0.39412,0.520898 -1.01148,0.520898 -0.55948,0 -0.9288,-0.43546 -0.36655,-0.43546 -0.36655,-1.132746 0,-0.694531 0.36655,-1.129991 0.36932,-0.43546 0.9288,-0.43546 0.62839,0 1.01148,0.52641 v -0.460264 h 0.97565 v 2.750562 q 0,0.746896 -0.46578,1.138259 -0.46302,0.394119 -1.35874,0.394119 -0.56224,0 -1.08589,-0.187413 z m 1.28433,-2.692685 q -0.30317,0 -0.47129,0.225998 -0.16537,0.223242 -0.16537,0.636654 0,0.851626 0.63666,0.851626 0.31419,0 0.48231,-0.220485 0.16812,-0.220486 0.16812,-0.631141 0,-0.413412 -0.16812,-0.636654 -0.16812,-0.225998 -0.48231,-0.225998 z"
         id="path721" />
      <path
         d="m 199.96555,19.573086 h -0.97565 v -1.430403 q 0,-0.366558 -0.0193,-0.529166 -0.0165,-0.162608 -0.113,-0.300412 -0.0937,-0.14056 -0.33073,-0.14056 -0.30317,0 -0.4768,0.242535 -0.17088,0.239778 -0.17088,0.661457 v 1.496549 h -0.98943 v -4.263647 h 0.98943 v 1.645376 q 0.40239,-0.515386 1.01148,-0.515386 0.52917,0 0.80202,0.327973 0.27285,0.327973 0.27285,0.945334 z"
         id="path723" />
      <path
         d="m 201.95544,16.505575 h 1.00597 v 0.694531 h -1.00597 v 1.314647 q 0,0.214974 0.0799,0.289388 0.0827,0.07441 0.34176,0.07441 h 0.49609 v 0.694531 h -0.83233 q -0.58705,0 -0.82683,-0.234267 -0.23977,-0.234266 -0.23977,-0.824066 v -1.314647 h -0.49334 v -0.694531 h 0.49334 V 15.64568 h 0.98116 z"
         id="path725" />
    </g>
  </g>
</svg>
