<?xml version="1.0" encoding="UTF-8" standalone="no"?>
<svg
   width="750mm"
   version="1.2"
   viewBox="0 0 7500 4600"
   height="460mm"
   id="svg803"
   sodipodi:docname="panel-support.svg"
   inkscape:version="1.2.2 (b0a8486541, 2022-12-01)"
   xmlns:inkscape="http://www.inkscape.org/namespaces/inkscape"
   xmlns:sodipodi="http://sodipodi.sourceforge.net/DTD/sodipodi-0.dtd"
   xmlns="http://www.w3.org/2000/svg"
   xmlns:svg="http://www.w3.org/2000/svg">
  <sodipodi:namedview
     id="namedview805"
     pagecolor="#ffffff"
     bordercolor="#000000"
     borderopacity="0.25"
     inkscape:showpageshadow="2"
     inkscape:pageopacity="0.0"
     inkscape:pagecheckerboard="0"
     inkscape:deskcolor="#d1d1d1"
     inkscape:document-units="mm"
     showgrid="false"
     inkscape:zoom="0.28811655"
     inkscape:cx="1143.6344"
     inkscape:cy="478.97283"
     inkscape:window-width="1920"
     inkscape:window-height="1019"
     inkscape:window-x="0"
     inkscape:window-y="0"
     inkscape:window-maximized="1"
     inkscape:current-layer="Page001" />
  <title
     id="title2">FreeCAD SVG Export</title>
  <desc
     id="desc4">Drawing page: Page001 exported from FreeCAD document: panel_support</desc>
  <defs
     id="defs6" />
  <g
     inkscape:label="TechDraw"
     id="Page001"
     inkscape:groupmode="layer">
    <g
       id="nejemax4_750x460.svg"
       transform="scale(10.000000, 10.000000)"
       style="stroke: none;">
      <!-- Blank FreeCAD TechDraw template for 750x460mm laser bed -->
    </g>
    <path
       vector-effect="non-scaling-stroke"
       fill-rule="evenodd"
       d="m 5335,1844.5 v 127 H 1 v -127 h 63.5 v -127 H 1 v -127 h 63.5 v -127 H 1 v -127 h 63.5 v -127 H 1 v -127 H 64.5 V 955.49995 h 5207 V 1082.5 h 63.5 v 127 h -63.5 v 127 h 63.5 v 127 h -63.5 v 127 h 63.5 v 127 h -63.5 v 127 h 63.5"
       id="path9"
       style="font-style:normal;font-weight:400;font-size:31.75px;font-family:'Sans Serif';fill:#f1f3f5;fill-opacity:1;stroke:#000000;stroke-width:2;stroke-linecap:square;stroke-linejoin:bevel;stroke-dasharray:none;stroke-opacity:1" />
    <path
       id="path141"
       style="font-style:normal;font-weight:400;font-size:31.75px;font-family:'Sans Serif';fill:#f1f3f5;fill-opacity:1;stroke:#000000;stroke-width:2;stroke-linecap:square;stroke-linejoin:bevel;stroke-dasharray:none;stroke-opacity:1"
       d="m 1,2158.3867 v 190.5 h 63.5 v 127 H 1 v 127 h 63.5 v 127 H 1 v 127.0001 h 63.5 v 126.9998 H 1 v 127 h 127 v 63.5 h 127 v -63.5 h 127 v 63.5 h 127 v -63.5 h 127 v 63.5 h 127 v -63.5 h 127 v 63.5 h 127 v -117.9773 l -44.9016,44.9017 -134.705,-134.6998 44.9017,-44.9016 -628.618,-628.6179 -44.9016,44.9016 -134.705,-134.7049 44.9017,-44.9017 z m 257.235,407.3808 c 15.3907,0.7882 30.3161,7.1701 41.6667,18.5209 l 291.1967,291.1967 c 18.1613,18.1609 23.5948,45.4719 13.7666,69.1998 -9.8286,23.7289 -32.9849,39.2017 -58.6683,39.2017 H 255 c -35.0699,0 -63.5,-28.43 -63.5,-63.4999 V 2629.19 c 0,-25.6833 15.4728,-48.8396 39.2018,-58.6682 8.898,-3.6856 18.2987,-5.2271 27.5332,-4.7543 z" />
    <path
       id="path517"
       style="font-style:normal;font-weight:400;font-size:31.75px;font-family:'Sans Serif';fill:#f1f3f5;fill-opacity:1;stroke:#000000;stroke-width:2;stroke-linecap:square;stroke-linejoin:bevel;stroke-dasharray:none;stroke-opacity:1"
       d="m 126.46,2162.0191 907.5415,907.5415 v -907.5415 z m 425.5037,127 h 291.5378 c 35.0699,0 63.5,28.43 63.5,63.5 v 291.5378 c 0,25.6833 -15.4728,48.8345 -39.2018,58.663 -23.7279,9.8286 -51.0389,4.3995 -69.1999,-13.7614 L 507.0621,2397.4208 c -18.1609,-18.161 -23.5952,-45.4771 -13.7666,-69.2051 9.8286,-23.729 32.9849,-39.1966 58.6682,-39.1966 z" />
    <path
       vector-effect="non-scaling-stroke"
       fill-rule="evenodd"
       d="m 2052.0015,3056.4127 -44.901,44.901 -134.704,-134.704 44.901,-44.901 -628.618,-628.618 -44.901,44.901 -134.704,-134.704 44.901,-44.901 h -117.974 v 190.5 h 63.5 v 127 h -63.5 v 127 h 63.5 v 127 h -63.5 v 127 h 63.5 v 127 h -63.5 v 127 h 127 v 63.5 h 127 v -63.5 h 127 v 63.5 h 127 v -63.5 h 127 v 63.5 h 127 v -63.5 h 127 v 63.5 h 127 v -117.974"
       id="path321"
       style="font-style:normal;font-weight:400;font-size:31.75px;font-family:'Sans Serif';fill:#f1f3f5;fill-opacity:1;stroke:#000000;stroke-width:2;stroke-linecap:square;stroke-linejoin:bevel;stroke-dasharray:none;stroke-opacity:1" />
    <path
       id="path517-6"
       style="font-style:normal;font-weight:400;font-size:31.75px;font-family:'Sans Serif';fill:#f1f3f5;fill-opacity:1;stroke:#000000;stroke-width:2;stroke-linecap:square;stroke-linejoin:bevel;stroke-dasharray:none;stroke-opacity:1"
       d="m 1230.2788,2218.7574 907.5415,907.5416 v -907.5416 z m 425.5037,127 h 291.5378 c 35.0699,0 63.5,28.4301 63.5,63.5 v 291.5378 c 0,25.6834 -15.4728,48.8345 -39.2018,58.6631 -23.7279,9.8286 -51.0389,4.3994 -69.1999,-13.7614 l -291.5377,-291.5378 c -18.1609,-18.161 -23.5952,-45.4771 -13.7666,-69.2051 9.8286,-23.729 32.9849,-39.1966 58.6682,-39.1966 z" />
    <path
       id="path605"
       style="font-style:normal;font-weight:400;font-size:31.75px;font-family:'Sans Serif';fill:#f1f3f5;fill-opacity:1;stroke:#000000;stroke-width:2;stroke-linecap:square;stroke-linejoin:bevel;stroke-dasharray:none;stroke-opacity:1"
       d="M 655.25834,1 V 191.5 H 5989.2584 V 1 Z m 93.9788,76.2021 c 9.82,0 17.7819,7.9571 17.7819,17.776696 0,9.819604 -7.9619,17.781804 -17.7819,17.781804 -9.82,0 -17.7767,-7.9622 -17.7767,-17.781804 0,-9.819596 7.9567,-17.776696 17.7767,-17.776696 z m 2573.02126,0 c 9.8196,0 17.7818,7.9571 17.7818,17.776696 0,9.819604 -7.9622,17.781804 -17.7818,17.781804 -9.8196,0 -17.7767,-7.9622 -17.7767,-17.781804 0,-9.819596 7.9571,-17.776696 17.7767,-17.776696 z m 2573.0212,0 c 9.82,0 17.7819,7.9571 17.7819,17.776696 0,9.819604 -7.9619,17.781804 -17.7819,17.781804 -9.82,0 -17.7819,-7.9622 -17.7819,-17.781804 0,-9.819596 7.9619,-17.776696 17.7819,-17.776696 z" />
    <path
       id="path605-3"
       style="font-style:normal;font-weight:400;font-size:31.75px;font-family:'Sans Serif';fill:#f1f3f5;fill-opacity:1;stroke:#000000;stroke-width:2;stroke-linecap:square;stroke-linejoin:bevel;stroke-dasharray:none;stroke-opacity:1"
       d="M 1,1973.5 V 2164 h 5334 v -190.5 z m 93.9788,76.2021 c 9.82,0 17.7819,7.9571 17.7819,17.7767 0,9.8196 -7.9619,17.7818 -17.7819,17.7818 -9.82,0 -17.7767,-7.9622 -17.7767,-17.7818 0,-9.8196 7.9567,-17.7767 17.7767,-17.7767 z m 2573.0212,0 c 9.8196,0 17.7819,7.9571 17.7819,17.7767 0,9.8196 -7.9622,17.7818 -17.7819,17.7818 -9.8195,0 -17.7766,-7.9622 -17.7766,-17.7818 0,-9.8196 7.9571,-17.7767 17.7766,-17.7767 z m 2573.0212,0 c 9.82,0 17.7819,7.9571 17.7819,17.7767 0,9.8196 -7.9619,17.7818 -17.7819,17.7818 -9.82,0 -17.7819,-7.9622 -17.7819,-17.7818 0,-9.8196 7.9619,-17.7767 17.7819,-17.7767 z" />
    <path
       id="path653"
       style="font-style:normal;font-weight:400;font-size:31.75px;font-family:'Sans Serif';fill:#f1f3f5;fill-opacity:1;stroke:#000000;stroke-width:2;stroke-linecap:square;stroke-linejoin:bevel;stroke-dasharray:none;stroke-opacity:1"
       d="M 64.5,1 V 191.49999 H 1 v 127 h 63.5 v 127 H 1 v 126.99999 h 63.5 v 127 H 1 v 126.99997 h 63.5 v 127 h 5207 v -127 H 5335 V 699.49998 h -63.5 v -127 H 5335 V 445.49999 h -63.5 v -127 h 63.5 v -63.5 H 667.74997 C 650.21004,254.99999 636,240.78491 636,223.24999 V 1 Z M 255,104.50271 c 12.97992,0 23.4921,10.52132 23.4921,23.49728 0,12.97592 -10.51218,23.4921 -23.4921,23.4921 -12.97996,0 -23.48694,-10.51618 -23.48694,-23.4921 0,-12.97596 10.50698,-23.49728 23.48694,-23.49728 z m 4826,254 c 12.98,0 23.4921,10.5213 23.4921,23.49728 0,12.97586 -10.5121,23.4921 -23.4921,23.4921 -12.98,0 -23.487,-10.51624 -23.487,-23.4921 0,-12.97598 10.507,-23.49728 23.487,-23.49728 z M 255,803.00275 c 12.97994,0 23.4921,10.5213 23.4921,23.4972 0,12.976 -10.51216,23.4921 -23.4921,23.4921 -12.97997,0 -23.48694,-10.5161 -23.48694,-23.4921 0,-12.9759 10.50697,-23.4972 23.48694,-23.4972 z m 4826,0 c 12.98,0 23.4921,10.5212 23.4921,23.4972 0,12.976 -10.5121,23.4921 -23.4921,23.4921 -12.98,0 -23.487,-10.5161 -23.487,-23.4921 0,-12.976 10.507,-23.4972 23.487,-23.4972 z" />
  </g>
</svg>
