<?xml version="1.0" encoding="UTF-8" standalone="no"?>
<!-- Created with Inkscape (http://www.inkscape.org/) -->

<svg
   xml:space="preserve"
   width="42in"
   height="5in"
   viewBox="0 0 1066.8 127"
   version="1.1"
   id="svg43966"
   inkscape:version="1.2.2 (b0a8486541, 2022-12-01)"
   sodipodi:docname="panel-split.svg"
   inkscape:export-filename="panel.png"
   inkscape:export-xdpi="96"
   inkscape:export-ydpi="96"
   xmlns:inkscape="http://www.inkscape.org/namespaces/inkscape"
   xmlns:sodipodi="http://sodipodi.sourceforge.net/DTD/sodipodi-0.dtd"
   xmlns="http://www.w3.org/2000/svg"
   xmlns:svg="http://www.w3.org/2000/svg"><sodipodi:namedview
     id="namedview43968"
     pagecolor="#ffffff"
     bordercolor="#000000"
     borderopacity="0.25"
     inkscape:showpageshadow="2"
     inkscape:pageopacity="0.0"
     inkscape:pagecheckerboard="0"
     inkscape:deskcolor="#d1d1d1"
     inkscape:document-units="mm"
     showgrid="false"
     inkscape:zoom="0.40793013"
     inkscape:cx="3291.0048"
     inkscape:cy="129.92421"
     inkscape:window-width="1920"
     inkscape:window-height="1019"
     inkscape:window-x="0"
     inkscape:window-y="0"
     inkscape:window-maximized="1"
     inkscape:current-layer="layer1"
     showguides="false" /><defs
     id="defs43963"><rect
       x="67.096764"
       y="211.56648"
       width="142.78036"
       height="156.61008"
       id="rect44870" /></defs><g
     inkscape:label="Layer 1"
     inkscape:groupmode="layer"
     id="layer1"
     transform="translate(-266.842,40.9934)"><text
       xml:space="preserve"
       transform="scale(0.26458333)"
       id="text44868"
       style="font-style:normal;font-variant:normal;font-weight:normal;font-stretch:normal;font-size:16px;font-family:'Abyssinica SIL';-inkscape-font-specification:'Abyssinica SIL, Normal';font-variant-ligatures:normal;font-variant-caps:normal;font-variant-numeric:normal;font-variant-east-asian:normal;white-space:pre;shape-inside:url(#rect44870);display:inline;fill:#000000;fill-opacity:1;stroke:none" /><path
       id="path1147"
       style="fill:#000000;fill-opacity:1;stroke:#ffffff;stroke-width:0.0999991;stroke-dasharray:none;stroke-opacity:1"
       d="M 800.29161 -40.943274 L 800.29161 85.956474 L 1333.5914 85.956474 L 1333.5914 -40.943274 L 800.29161 -40.943274 z M 810.14682 -31.089095 A 1.855 1.855 0 0 1 812.00201 -29.233911 A 1.855 1.855 0 0 1 810.14682 -27.378727 A 1.855 1.855 0 0 1 808.29215 -29.233911 A 1.855 1.855 0 0 1 810.14682 -31.089095 z M 1066.9415 -31.089095 A 1.855 1.855 0 0 1 1068.7967 -29.233911 A 1.855 1.855 0 0 1 1066.9415 -27.378727 A 1.855 1.855 0 0 1 1065.0868 -29.233911 A 1.855 1.855 0 0 1 1066.9415 -31.089095 z M 1323.7367 -31.089095 A 1.855 1.855 0 0 1 1325.5918 -29.233911 A 1.855 1.855 0 0 1 1323.7367 -27.378727 A 1.855 1.855 0 0 1 1321.882 -29.233911 A 1.855 1.855 0 0 1 1323.7367 -31.089095 z M 830.24224 -21.842631 A 1.75056 1.75 0 0 1 831.99303 -20.09235 A 1.75056 1.75 0 0 1 830.24224 -18.342586 A 1.75056 1.75 0 0 1 828.49196 -20.09235 A 1.75056 1.75 0 0 1 830.24224 -21.842631 z M 942.54132 -21.842631 A 1.75056 1.75 0 0 1 944.29212 -20.09235 A 1.75056 1.75 0 0 1 942.54132 -18.342586 A 1.75056 1.75 0 0 1 940.79104 -20.09235 A 1.75056 1.75 0 0 1 942.54132 -21.842631 z M 825.69213 -17.342647 L 947.09195 -17.342647 L 947.09195 60.05728 L 825.69213 60.05728 L 825.69213 -17.342647 z M 1119.3925 7.3064942 C 1125.0238 7.8714106 1129.8585 11.558026 1131.8931 16.839246 L 1131.8931 27.595695 C 1129.861 32.880125 1125.0258 36.570335 1119.3925 37.136715 L 1119.3925 35.34716 L 1116.3927 35.34716 L 1116.3927 37.136715 C 1110.7594 36.570335 1105.9248 32.880135 1103.8927 27.595695 L 1103.8927 16.848547 C 1105.9248 11.564123 1110.7594 7.8738947 1116.3927 7.3075277 L 1116.3927 9.0965658 L 1119.3925 9.0965658 L 1119.3925 7.3064942 z M 1295.2309 9.8246868 A 14.867708 14.867708 0 0 1 1308.181 17.405103 L 1308.181 31.978373 A 14.867708 14.867708 0 0 1 1295.2309 39.560339 A 14.867708 14.867708 0 0 1 1282.2813 31.97889 L 1282.2813 17.406136 A 14.867708 14.867708 0 0 1 1295.2309 9.8246868 z M 1015.989 11.674186 A 11.117709 11.117709 0 0 1 1027.1072 22.791337 A 11.117709 11.117709 0 0 1 1015.989 33.909522 A 11.117709 11.117709 0 0 1 1004.8714 22.791337 A 11.117709 11.117709 0 0 1 1015.989 11.674186 z M 1220.7233 13.824959 L 1224.4585 13.824959 L 1224.4585 14.494169 A 10.367708 10.367709 0 0 1 1232.7892 22.824927 L 1233.4585 22.824927 L 1233.4585 26.560099 L 1232.782 26.560099 A 10.367708 10.367709 0 0 1 1224.4585 34.883622 L 1224.4585 35.560067 L 1220.7233 35.560067 L 1220.7233 34.883622 A 10.367708 10.367709 0 0 1 1212.3998 26.560099 L 1211.7233 26.560099 L 1211.7233 22.824927 L 1212.3998 22.824927 A 10.367708 10.367709 0 0 1 1220.7233 14.501404 L 1220.7233 13.824959 z M 1256.0023 13.824959 L 1259.7375 13.824959 L 1259.7375 14.494169 A 10.367708 10.367709 0 0 1 1268.0682 22.824927 L 1268.7374 22.824927 L 1268.7374 26.560099 L 1268.061 26.560099 A 10.367708 10.367709 0 0 1 1259.7375 34.883622 L 1259.7375 35.560067 L 1256.0023 35.560067 L 1256.0023 34.883622 A 10.367708 10.367709 0 0 1 1247.6788 26.560099 L 1247.0023 26.560099 L 1247.0023 22.824927 L 1247.6788 22.824927 A 10.367708 10.367709 0 0 1 1256.0023 14.501404 L 1256.0023 13.824959 z M 830.24224 61.057218 A 1.75056 1.75 0 0 1 831.99303 62.807499 A 1.75056 1.75 0 0 1 830.24224 64.557263 A 1.75056 1.75 0 0 1 828.49196 62.807499 A 1.75056 1.75 0 0 1 830.24224 61.057218 z M 942.54132 61.057218 A 1.75056 1.75 0 0 1 944.29212 62.807499 A 1.75056 1.75 0 0 1 942.54132 64.557263 A 1.75056 1.75 0 0 1 940.79104 62.807499 A 1.75056 1.75 0 0 1 942.54132 61.057218 z M 810.14682 72.392444 A 1.855 1.855 0 0 1 812.00201 74.246594 A 1.855 1.855 0 0 1 810.14682 76.102295 A 1.855 1.855 0 0 1 808.29215 74.246594 A 1.855 1.855 0 0 1 810.14682 72.392444 z M 1066.9415 72.392444 A 1.855 1.855 0 0 1 1068.7967 74.246594 A 1.855 1.855 0 0 1 1066.9415 76.102295 A 1.855 1.855 0 0 1 1065.0868 74.246594 A 1.855 1.855 0 0 1 1066.9415 72.392444 z M 1323.7367 72.392444 A 1.855 1.855 0 0 1 1325.5918 74.246594 A 1.855 1.855 0 0 1 1323.7367 76.102295 A 1.855 1.855 0 0 1 1321.882 74.246594 A 1.855 1.855 0 0 1 1323.7367 72.392444 z " /><text
       xml:space="preserve"
       style="font-size:4.23333px;line-height:125%;font-family:Bravura;-inkscape-font-specification:Bravura;letter-spacing:0px;word-spacing:0px;fill:none;stroke:#000000;stroke-width:0.264583px;stroke-linecap:butt;stroke-linejoin:miter;stroke-opacity:1"
       x="41.288353"
       y="15.023044"
       id="text3677"><tspan
         sodipodi:role="line"
         id="tspan3675"
         style="stroke-width:0.264583px"
         x="41.288353"
         y="15.023044" /></text><path
       style="fill:#000000;fill-opacity:1;stroke:#ffffff;stroke-width:0.0999991;stroke-dasharray:none;stroke-opacity:1"
       d="m 681.45855,16.886271 a 8.25,8.25 0 0 1 8.25015,8.249626 8.25,8.25 0 0 1 -8.25015,8.250142 8.25,8.25 0 0 1 -8.24962,-8.250142 8.25,8.25 0 0 1 8.24962,-8.249626 z"
       id="path355" /><path
       id="rect3991-6-0-1-2"
       style="fill:#000000;fill-opacity:1;stroke:#ffffff;stroke-width:0.0999991;stroke-dasharray:none;stroke-opacity:1"
       d="M 266.89213 -40.943274 L 266.89213 85.956474 L 800.19187 85.956474 L 800.19187 -40.943274 L 266.89213 -40.943274 z M 276.74682 -32.943245 A 1.855 1.855 0 0 1 278.60201 -31.088061 A 1.855 1.855 0 0 1 276.74682 -29.232878 A 1.855 1.855 0 0 1 274.89215 -31.088061 A 1.855 1.855 0 0 1 276.74682 -32.943245 z M 533.542 -31.089095 A 1.855 1.855 0 0 1 535.39718 -29.233911 A 1.855 1.855 0 0 1 533.542 -27.378727 A 1.855 1.855 0 0 1 531.68733 -29.233911 A 1.855 1.855 0 0 1 533.542 -31.089095 z M 790.33666 -31.089095 A 1.855 1.855 0 0 1 792.19185 -29.233911 A 1.855 1.855 0 0 1 790.33666 -27.378727 A 1.855 1.855 0 0 1 788.48199 -29.233911 A 1.855 1.855 0 0 1 790.33666 -31.089095 z M 496.04455 -5.0307372 A 8.25 8.25 0 0 1 504.29469 3.2188884 A 8.25 8.25 0 0 1 496.04455 11.469031 A 8.25 8.25 0 0 1 487.79492 3.2188884 A 8.25 8.25 0 0 1 496.04455 -5.0307372 z M 734.15043 -1.0935099 A 1.750008 1.75 0 0 1 735.90071 0.65522061 L 735.90071 0.65728766 A 1.750008 1.75 0 1 1 734.15043 -1.0935099 z M 734.25326 4.2069418 A 20.933762 20.929169 0 0 1 755.01789 25.115743 L 755.01789 25.136414 A 20.933762 20.929169 0 1 1 732.85231 4.2436321 A 20.933762 20.929169 0 0 1 734.25326 4.2069418 z M 496.04455 14.169124 A 8.25 8.25 0 0 1 504.29469 22.41875 A 8.25 8.25 0 0 1 496.04455 30.668892 A 8.25 8.25 0 0 1 487.79492 22.41875 A 8.25 8.25 0 0 1 496.04455 14.169124 z M 652.83343 18.594177 A 5.9999794 5.9997136 0 0 1 658.83306 24.593811 L 658.83306 24.597428 A 5.9999794 5.9997136 0 0 1 652.83084 30.594478 A 5.9999794 5.9997136 0 0 1 646.83276 24.593294 A 5.9999794 5.9997136 0 0 1 652.83343 18.594694 L 652.83343 18.594177 z M 606.10915 19.101123 A 5.9999794 5.9997136 0 0 1 612.10878 25.100757 L 612.10878 25.103857 A 5.9999794 5.9997136 0 0 1 606.10656 31.100907 A 5.9999794 5.9997136 0 0 1 600.109 25.10024 A 5.9999794 5.9997136 0 0 1 606.10915 19.10164 L 606.10915 19.101123 z M 496.04455 33.368986 A 8.25 8.25 0 0 1 504.29469 41.619128 A 8.25 8.25 0 0 1 496.04455 49.868754 A 8.25 8.25 0 0 1 487.79492 41.619128 A 8.25 8.25 0 0 1 496.04455 33.368986 z M 712.15332 37.00649 A 1.750008 1.75 0 0 1 713.90412 38.755221 L 713.90412 38.757288 A 1.750008 1.75 0 1 1 712.15332 37.00649 z M 756.14753 37.00649 A 1.750008 1.75 0 0 1 757.89781 38.755221 L 757.89781 38.757288 A 1.750008 1.75 0 1 1 756.14753 37.00649 z M 639.84456 41.305453 C 639.92172 41.305453 639.99264 41.321358 640.05695 41.353512 C 640.12128 41.379238 640.17577 41.417824 640.22076 41.469267 C 640.27223 41.51428 640.31081 41.569287 640.33651 41.633598 C 640.36225 41.697904 640.37527 41.765429 640.37527 41.836169 C 640.37527 41.913339 640.36225 41.983734 640.33651 42.048043 C 640.31078 42.112349 640.27219 42.167357 640.22076 42.212374 C 640.17576 42.257387 640.12127 42.292585 640.05695 42.318311 C 639.99261 42.350464 639.9217 42.36637 639.84456 42.36637 C 639.77382 42.36637 639.7063 42.350464 639.64198 42.318311 C 639.57765 42.292591 639.51977 42.257393 639.46835 42.212374 C 639.42335 42.167361 639.38476 42.112353 639.3526 42.048043 C 639.32686 41.983736 639.31436 41.913341 639.31436 41.836169 C 639.31436 41.765431 639.32686 41.697906 639.3526 41.633598 C 639.38473 41.569291 639.42332 41.514285 639.46835 41.469267 C 639.51982 41.41782 639.5777 41.379235 639.64198 41.353512 C 639.70632 41.321358 639.77384 41.305453 639.84456 41.305453 z M 276.74682 70.53881 A 1.855 1.855 0 0 1 278.60201 72.392961 A 1.855 1.855 0 0 1 276.74682 74.248661 A 1.855 1.855 0 0 1 274.89215 72.392961 A 1.855 1.855 0 0 1 276.74682 70.53881 z M 533.542 72.392444 A 1.855 1.855 0 0 1 535.39718 74.246594 A 1.855 1.855 0 0 1 533.542 76.102295 A 1.855 1.855 0 0 1 531.68733 74.246594 A 1.855 1.855 0 0 1 533.542 72.392444 z M 790.33666 72.392444 A 1.855 1.855 0 0 1 792.19185 74.246594 A 1.855 1.855 0 0 1 790.33666 76.102295 A 1.855 1.855 0 0 1 788.48199 74.246594 A 1.855 1.855 0 0 1 790.33666 72.392444 z " /><path
       style="fill:#fffafa;fill-opacity:1;stroke:none;stroke-width:0.0999991;stroke-dasharray:none;stroke-opacity:1"
       d="m 587.88419,35.874546 h 5.2188 c 0.045,0 0.0932,0.0068 0.14469,0.01964 0.0579,0.0064 0.10897,0.02231 0.154,0.04806 0.0515,0.02572 0.09,0.05805 0.11575,0.09663 0.0257,0.03215 0.0354,0.07361 0.0289,0.125057 -0.007,0.03215 -0.01,0.06787 -0.01,0.106453 v 0.105937 c 0,0.03859 -0.007,0.07378 -0.0196,0.105937 -0.007,0.03215 -0.0192,0.06109 -0.0382,0.08682 l -4.82348,5.479252 h 3.94549 c 0.0257,0 0.0513,-0.01303 0.077,-0.03876 0.0257,-0.02572 0.0388,-0.05466 0.0388,-0.08682 v -0.781347 c 0,-0.01929 0.004,-0.0352 0.0103,-0.04806 0.007,-0.01929 0.0158,-0.0352 0.0284,-0.04806 0.0129,-0.01929 0.0259,-0.03233 0.0387,-0.03876 0.0193,-0.0064 0.0385,-0.0098 0.0579,-0.0098 h 0.50178 c 0.0193,0 0.0352,0.0068 0.0481,0.01964 0.0193,0.0064 0.0323,0.01891 0.0388,0.03824 0.0129,0.01929 0.0225,0.03858 0.0289,0.05788 0.007,0.01929 0.01,0.03858 0.01,0.05788 v 1.369942 c 0,0.03215 -0.006,0.06448 -0.0191,0.09663 -0.0129,0.03215 -0.0321,0.06396 -0.0579,0.09612 -0.0193,0.02573 -0.0453,0.04841 -0.0775,0.0677 -0.0321,0.01929 -0.0639,0.02894 -0.0961,0.02894 h -5.18986 c -0.045,0 -0.0932,-0.0096 -0.14469,-0.02894 -0.0515,-0.01929 -0.0963,-0.04485 -0.13488,-0.077 -0.0386,-0.03215 -0.0709,-0.07074 -0.0966,-0.115755 -0.0257,-0.04501 -0.0387,-0.09037 -0.0387,-0.135392 v -0.993221 -0.09663 c 0,-0.03859 0.003,-0.07378 0.01,-0.105937 0.0129,-0.03859 0.0259,-0.0743 0.0387,-0.106453 0.0129,-0.03215 0.0322,-0.06109 0.0579,-0.08682 l 1.97766,-2.150773 c 0.0321,-0.03859 0.0741,-0.0743 0.12557,-0.106453 0.0515,-0.03215 0.10596,-0.06109 0.16382,-0.08682 0.0579,-0.02572 0.11913,-0.04789 0.18345,-0.06718 0.0643,-0.02573 0.12847,-0.04841 0.19275,-0.0677 0.0707,-0.02572 0.13827,-0.05127 0.20257,-0.077 0.0707,-0.02572 0.13826,-0.05466 0.20257,-0.08682 0.0643,-0.03215 0.12222,-0.06787 0.17364,-0.106453 0.0579,-0.03859 0.10948,-0.08343 0.15451,-0.134876 l 1.39836,-1.572513 h -3.93567 c -0.0321,0 -0.0639,0.0096 -0.0961,0.02894 -0.0257,0.01929 -0.0388,0.04536 -0.0388,0.07751 v 0.655774 c 0,0.01929 -0.004,0.04198 -0.0103,0.0677 -0.007,0.02572 -0.0158,0.05127 -0.0284,0.077 -0.007,0.01929 -0.0197,0.03858 -0.0387,0.05788 -0.0193,0.01286 -0.0386,0.01912 -0.0579,0.01912 h -0.5116 c -0.0193,0 -0.0414,-0.0063 -0.0672,-0.01912 -0.0193,-0.01286 -0.0352,-0.0259 -0.0481,-0.03876 l -0.0387,-0.05788 c -0.007,-0.02572 -0.01,-0.04789 -0.01,-0.06718 v -1.321883 c 0,-0.02572 0.006,-0.05127 0.0191,-0.077 0.0193,-0.03215 0.042,-0.0577 0.0677,-0.077 0.0257,-0.02573 0.0547,-0.04502 0.0868,-0.05788 0.0321,-0.01286 0.0611,-0.01964 0.0868,-0.01964 z"
       id="path6785" /><path
       style="fill:#fffafa;fill-opacity:1;stroke:none;stroke-width:0.0999991;stroke-dasharray:none;stroke-opacity:1"
       d="m 587.81701,21.226344 h 0.4439 c 0.0193,0 0.0385,0.0096 0.0579,0.02894 0.0257,0.01286 0.045,0.03215 0.0579,0.05788 0.0129,0.02572 0.0225,0.05466 0.0289,0.08682 0.007,0.02572 0.01,0.05127 0.01,0.077 v 2.575553 c 0,0.01929 0.003,0.04198 0.01,0.0677 l 0.0388,0.05788 c 0.0129,0.01286 0.0288,0.02589 0.0481,0.03876 0.0193,0.01286 0.0385,0.01912 0.0579,0.01912 h 3.90674 c 0.0193,0 0.0386,-0.0034 0.0579,-0.0098 0.0193,-0.01286 0.0357,-0.02537 0.0486,-0.03824 0.0193,-0.01286 0.0318,-0.02928 0.0382,-0.04858 0.0129,-0.01929 0.0196,-0.03859 0.0196,-0.05788 v -2.68149 c 0,-0.01929 0.003,-0.03858 0.01,-0.05788 0.0129,-0.01929 0.0259,-0.0352 0.0388,-0.04806 0.0129,-0.01929 0.0288,-0.03232 0.0481,-0.03876 0.0193,-0.01286 0.0385,-0.01912 0.0579,-0.01912 h 0.45321 c 0.0257,0 0.0484,0.0063 0.0677,0.01912 0.0193,0.01286 0.0352,0.03215 0.0481,0.05788 0.0193,0.01929 0.0323,0.04198 0.0388,0.0677 0.0129,0.02573 0.0191,0.05128 0.0191,0.077 v 3.144511 c 0,0.05145 -0.0125,0.103065 -0.0382,0.154512 -0.0193,0.04501 -0.0516,0.08986 -0.0966,0.134876 -0.0386,0.03859 -0.0834,0.07091 -0.13487,0.09663 -0.045,0.01929 -0.0932,0.02894 -0.1447,0.02894 h -1.64951 c -0.0193,0 -0.0385,0.0063 -0.0579,0.01912 -0.0129,0.01286 -0.0293,0.02928 -0.0486,0.04857 -0.0129,0.01286 -0.0225,0.02877 -0.0289,0.04806 -0.007,0.01286 -0.01,0.02876 -0.01,0.04806 v 2.807063 c 0,0.02573 -0.006,0.05466 -0.0191,0.08682 -0.0129,0.02572 -0.0321,0.0484 -0.0579,0.0677 -0.0193,0.01929 -0.042,0.0352 -0.0677,0.04806 -0.0257,0.01286 -0.0513,0.01964 -0.077,0.01964 h -0.91674 c -0.0321,0 -0.0644,-0.0068 -0.0966,-0.01964 -0.0257,-0.01929 -0.0479,-0.04146 -0.0672,-0.06718 -0.0193,-0.02573 -0.0385,-0.05466 -0.0579,-0.08682 -0.0129,-0.03215 -0.0196,-0.06109 -0.0196,-0.08682 v -2.720248 c 0,-0.02573 -0.006,-0.05179 -0.0191,-0.07751 -0.0129,-0.02573 -0.0288,-0.04789 -0.0481,-0.06718 -0.0193,-0.01929 -0.042,-0.03571 -0.0677,-0.04857 -0.0193,-0.01286 -0.0414,-0.01912 -0.0672,-0.01912 h -1.49552 c -0.0515,0 -0.10934,-0.0096 -0.17363,-0.02894 -0.0579,-0.01929 -0.11236,-0.04823 -0.16382,-0.08682 -0.0515,-0.03859 -0.0934,-0.08056 -0.12557,-0.125574 -0.0321,-0.05145 -0.0481,-0.102549 -0.0481,-0.153995 l -10e-4,-3.145028 c 0,-0.02573 0.003,-0.05466 0.01,-0.08682 0.0129,-0.03215 0.0259,-0.05771 0.0387,-0.077 0.0193,-0.02573 0.042,-0.04502 0.0677,-0.05788 0.0257,-0.01929 0.0513,-0.02894 0.077,-0.02894 z"
       id="path6783" /><path
       style="fill:#fffafa;fill-opacity:1;stroke:none;stroke-width:0.0999991;stroke-dasharray:none;stroke-opacity:1"
       d="m 587.82683,7.0566655 h 0.49196 c 0.0193,0 0.0385,0.0068 0.0579,0.01964 0.0193,0.0064 0.0352,0.01892 0.0481,0.03824 0.0193,0.01286 0.0323,0.03215 0.0388,0.05788 0.0129,0.01929 0.0191,0.03858 0.0191,0.05788 v 0.887801 c 0,0.04501 0.013,0.08986 0.0388,0.134876 0.0257,0.03859 0.0547,0.07378 0.0868,0.105937 l 2.02572,1.6784505 1.31155,-1.2154305 c 0.045,-0.03859 0.087,-0.08004 0.12557,-0.125057 0.0386,-0.04501 0.0709,-0.09324 0.0966,-0.144694 0.0321,-0.05145 0.0577,-0.103065 0.077,-0.154512 0.0193,-0.05788 0.0289,-0.115758 0.0289,-0.173633 v -0.906921 c 0,-0.03215 0.006,-0.06109 0.0191,-0.08682 0.0193,-0.03215 0.042,-0.06109 0.0677,-0.08682 0.0257,-0.02573 0.0513,-0.04502 0.077,-0.05788 0.0321,-0.01929 0.0644,-0.02894 0.0966,-0.02894 h 0.82011 c 0.0321,0 0.0644,0.0068 0.0966,0.01964 0.0386,0.0064 0.0704,0.02231 0.0961,0.04806 0.0321,0.01929 0.0582,0.04484 0.0775,0.077 0.0257,0.02573 0.0383,0.05466 0.0383,0.08682 v 0.743107 c 0,0.06431 -0.0125,0.128443 -0.0383,0.192753 -0.0193,0.06431 -0.0516,0.118796 -0.0966,0.163814 l -2.30529,2.1704115 2.24741,1.87172 c 0.0193,0.01286 0.0386,0.03215 0.0579,0.05788 0.0257,0.01929 0.0484,0.04146 0.0677,0.06718 0.0193,0.02572 0.0352,0.05466 0.048,0.08682 0.0129,0.02572 0.0191,0.05179 0.0191,0.07751 v 1.118795 c 0,0.01929 -0.006,0.04198 -0.0191,0.0677 -0.007,0.02573 -0.0197,0.04789 -0.0387,0.06718 -0.0129,0.01929 -0.0322,0.03572 -0.0579,0.04858 -0.0193,0.01286 -0.042,0.01912 -0.0677,0.01912 h -0.5302 c -0.0257,0 -0.0518,-0.0063 -0.0775,-0.01912 l -0.077,-0.05788 c -0.0193,-0.02572 -0.0352,-0.05466 -0.0481,-0.08682 -0.0129,-0.03215 -0.0196,-0.06109 -0.0196,-0.08682 v -0.800985 c 0,-0.03859 -0.009,-0.07717 -0.0284,-0.115755 -0.0193,-0.04501 -0.042,-0.08021 -0.0677,-0.105937 l -1.99678,-1.697571 -1.39888,1.360124 c -0.045,0.03859 -0.0836,0.08682 -0.11576,0.144694 -0.0257,0.05145 -0.0382,0.105937 -0.0382,0.163814 v 1.099675 c 0,0.02572 -0.007,0.05127 -0.0196,0.077 -0.0129,0.01929 -0.0322,0.04198 -0.0579,0.0677 -0.0193,0.01929 -0.0414,0.0352 -0.0672,0.04806 -0.0257,0.0064 -0.0518,0.0098 -0.0775,0.0098 h -0.9741 c -0.0257,0 -0.0547,-0.0068 -0.0868,-0.01964 -0.0321,-0.01286 -0.0611,-0.02876 -0.0868,-0.04806 -0.0257,-0.02572 -0.0484,-0.05127 -0.0677,-0.077 -0.0129,-0.03215 -0.0191,-0.06109 -0.0191,-0.08682 v -0.714168 c 0,-0.05788 0.013,-0.115759 0.0388,-0.173633 0.0257,-0.06431 0.0609,-0.115409 0.10594,-0.153996 l 2.27635,-2.17041 -2.28617,-1.9874765 c -0.0321,-0.02572 -0.0644,-0.05466 -0.0966,-0.08682 -0.0257,-0.03215 -0.0382,-0.06735 -0.0382,-0.105937 l -5.1e-4,-1.128613 c 0,-0.02572 0.003,-0.05127 0.01,-0.077 0.0129,-0.03215 0.0293,-0.05771 0.0486,-0.077 0.0193,-0.02573 0.0414,-0.04502 0.0672,-0.05788 0.0257,-0.01286 0.0518,-0.01964 0.0775,-0.01964 z"
       id="path6759" /><text
       xml:space="preserve"
       style="font-style:normal;font-variant:normal;font-weight:normal;font-stretch:normal;font-size:9.87778px;line-height:125%;font-family:Bitwise;-inkscape-font-specification:'Bitwise, Normal';font-variant-ligatures:normal;font-variant-caps:normal;font-variant-numeric:normal;font-variant-east-asian:normal;letter-spacing:0px;word-spacing:0px;fill:#fffafa;fill-opacity:1;stroke:none;stroke-width:0.264583px;stroke-linecap:butt;stroke-linejoin:miter;stroke-opacity:1"
       x="633.45886"
       y="27.885279"
       id="text6413-9-0-1"><tspan
         sodipodi:role="line"
         id="tspan6411-2-4-8"
         style="font-style:normal;font-variant:normal;font-weight:normal;font-stretch:normal;font-size:9.87778px;font-family:Bitwise;-inkscape-font-specification:'Bitwise, Normal';font-variant-ligatures:normal;font-variant-caps:normal;font-variant-numeric:normal;font-variant-east-asian:normal;fill:#fffafa;fill-opacity:1;stroke:none;stroke-width:0.264583px"
         x="633.45886"
         y="27.885279">&gt;</tspan></text><text
       xml:space="preserve"
       style="font-style:normal;font-variant:normal;font-weight:normal;font-stretch:normal;font-size:9.87778px;line-height:125%;font-family:Bitwise;-inkscape-font-specification:'Bitwise, Normal';font-variant-ligatures:normal;font-variant-caps:normal;font-variant-numeric:normal;font-variant-east-asian:normal;letter-spacing:0px;word-spacing:0px;fill:#fffafa;fill-opacity:1;stroke:none;stroke-width:0.264583px;stroke-linecap:butt;stroke-linejoin:miter;stroke-opacity:1"
       x="625.23059"
       y="13.490459"
       id="text6409-0-4-9"><tspan
         sodipodi:role="line"
         id="tspan6407-6-4-2"
         style="font-style:normal;font-variant:normal;font-weight:normal;font-stretch:normal;font-size:9.87778px;font-family:Bitwise;-inkscape-font-specification:'Bitwise, Normal';font-variant-ligatures:normal;font-variant-caps:normal;font-variant-numeric:normal;font-variant-east-asian:normal;fill:#fffafa;fill-opacity:1;stroke:none;stroke-width:0.264583px"
         x="625.23059"
         y="13.490459">&gt;&gt;</tspan></text><rect
       style="fill:none;fill-opacity:1;stroke:#ffffff;stroke-width:2;stroke-dasharray:none;stroke-opacity:1"
       id="rect6248"
       width="194.34323"
       height="66"
       x="579.5"
       y="-10.493526"
       ry="5.9670057" /><text
       xml:space="preserve"
       style="font-style:normal;font-variant:normal;font-weight:normal;font-stretch:normal;font-size:9.87778px;font-family:Bitwise;-inkscape-font-specification:'Bitwise, Normal';font-variant-ligatures:normal;font-variant-caps:normal;font-variant-numeric:normal;font-variant-east-asian:normal;fill:#ffffff;fill-opacity:1;stroke:none;stroke-width:0.499999"
       x="674.32043"
       y="11.771454"
       id="text9560"><tspan
         sodipodi:role="line"
         id="tspan9558"
         style="font-style:normal;font-variant:normal;font-weight:normal;font-stretch:normal;font-size:9.87778px;font-family:Bitwise;-inkscape-font-specification:'Bitwise, Normal';font-variant-ligatures:normal;font-variant-caps:normal;font-variant-numeric:normal;font-variant-east-asian:normal;stroke-width:0.5"
         x="674.32043"
         y="11.771454">Rel</tspan></text><path
       id="path11223-8"
       style="color:#000000;fill:none;stroke:#ffffff;stroke-width:1;stroke-dasharray:none;stroke-opacity:1"
       d="m 470.58758,33.693929 c -1.51623,0 -2.8899,0.191294 -3.9043,0.509765 -0.5072,0.159236 -0.92542,0.348795 -1.23438,0.578125 -0.33573,0.243686 -0.47671,0.440175 -0.53252,0.830128 l -0.002,5.66211 c -3.2e-4,0.318681 0.24673,0.571356 0.55208,0.757762 0.30535,0.186406 0.71821,0.348384 1.22266,0.490235 1.0089,0.283701 2.38167,0.476583 3.89844,0.476562 1.51675,1.9e-5 2.88978,-0.191126 3.90429,-0.509765 0.50726,-0.15932 0.92551,-0.348659 1.23438,-0.578125 0.30886,-0.229467 0.52588,-0.520897 0.52539,-0.863282 v -0.002 -0.002 c -0.0309,-1.73348 0,-3.61147 0,-5.400391 0,-0.342268 -0.21839,-0.631998 -0.52735,-0.861328 -0.30896,-0.229329 -0.72717,-0.418888 -1.23437,-0.578125 -1.0144,-0.318471 -2.38612,-0.509765 -3.90234,-0.509765 z m 5.41343,1.94934 c 0,0.938721 -2.4239,1.699704 -5.41393,1.699704 -2.99003,0 -5.41393,-0.760983 -5.41393,-1.699704 0,-0.938721 2.4239,-1.699705 5.41393,-1.699705 2.99003,0 5.41393,0.760984 5.41393,1.699705 z m -11.09969,4.615268 c -1.18808,0.05572 -2.25496,0.230605 -3.0825,0.490409 -0.5072,0.159236 -0.92507,0.348931 -1.23403,0.57826 -0.33573,0.243685 -0.47698,0.439972 -0.53279,0.829923 l -0.002,5.662187 c -3.2e-4,0.318681 0.24707,0.571687 0.55242,0.758093 0.30535,0.186406 0.7177,0.348042 1.22215,0.489893 1.00889,0.2837 2.3817,0.476477 3.89847,0.476456 1.51674,1.9e-5 2.89016,-0.190891 3.90467,-0.509529 0.50726,-0.15932 0.92516,-0.348794 1.23403,-0.578259 0.30886,-0.229467 0.52604,-0.520612 0.52555,-0.862997 v -0.0021 -0.0021 c -0.0262,-1.470361 -0.008,-3.044325 -0.002,-4.580082 -0.26504,0.01226 -0.536,0.01912 -0.81184,0.01912 -0.0477,10e-7 -0.0947,-0.0012 -0.14211,-0.0016 -0.13995,0.07789 -0.29926,0.152189 -0.47645,0.222208 -0.16842,0.06623 -0.35239,0.128418 -0.55036,0.186036 -1.00111,0.29162 -2.31628,0.453686 -3.68194,0.453719 -0.13519,3.8e-5 -0.27033,-0.0015 -0.40515,-0.0047 -0.40424,-0.0095 -0.80379,-0.03327 -1.19114,-0.0708 -0.25802,-0.02507 -0.50969,-0.05616 -0.75293,-0.09302 -0.4873,-0.07364 -0.93671,-0.169796 -1.33325,-0.285254 h -5.1e-4 c -0.0988,-0.02884 -0.19412,-0.05884 -0.28577,-0.08992 h -5.2e-4 c -0.0916,-0.031 -0.17954,-0.06306 -0.26355,-0.09612 h -5.2e-4 c -0.1682,-0.06628 -0.32038,-0.136405 -0.45527,-0.209806 h -5.1e-4 c -0.0675,-0.0368 -0.1306,-0.07437 -0.18914,-0.112654 -0.35278,-0.230051 -0.53594,-0.482099 -0.53588,-0.737423 8.5e-4,-0.838934 1.95123,-1.552193 4.59248,-1.679484 z" /><path
       id="rect11978"
       style="fill:none;stroke:#ffffff;stroke-width:0.999995"
       d="m 465.39826,0.56763185 h 1.92481 V 3.0919472 h -1.92481 z m 2.51303,4.97768865 h 1.95982 v 2.93933 h -1.95982 z m 7.32699,-3.9750708 -7.22406,-3.7692046 -7.22405,3.7692046 M 472.24879,0.17515795 V 8.7010675 h -8.46913 V 0.17515795" /><path
       style="fill:#ffffff;fill-opacity:1;stroke:none;stroke-width:0.999994;stroke-opacity:1"
       d="m 467.31479,26.325894 c -0.96356,-0.06773 -2.03206,-0.33614 -2.93106,-0.736303 -1.08787,-0.484236 -1.9406,-1.066822 -2.7626,-1.887406 -0.43785,-0.43709 -1.11285,-1.246687 -1.0901,-1.307462 0.0154,-0.04121 0.35715,-0.478802 0.53934,-0.69064 0.76413,-0.888497 1.52598,-1.517587 2.5343,-2.092655 0.94922,-0.54137 2.26716,-0.967167 3.38727,-1.094352 0.36512,-0.04146 1.66595,-0.04154 2.04468,-1.29e-4 1.03877,0.113586 2.16519,0.452711 3.11839,0.938837 1.0326,0.526628 1.94953,1.241702 2.72945,2.128585 0.17775,0.202132 0.64516,0.802948 0.64516,0.829303 0,0.01106 -0.14396,0.20161 -0.31992,0.423454 -1.04598,1.318797 -2.27633,2.238769 -3.87293,2.895909 -0.25782,0.106117 -0.63501,0.226716 -0.99892,0.319383 -1.03802,0.264327 -1.96289,0.347994 -3.02306,0.273479 z m 1.27862,-1.073008 c 0.6209,-0.129098 1.11623,-0.403214 1.54257,-0.853665 0.63846,-0.67457 0.91022,-1.613248 0.73887,-2.552175 -0.16088,-0.881596 -0.75393,-1.646563 -1.5885,-2.049003 -0.79075,-0.381308 -1.68979,-0.390558 -2.47758,-0.02549 -0.83492,0.386902 -1.46688,1.191905 -1.63905,2.087835 -0.0422,0.219444 -0.0424,0.882819 -4e-4,1.104074 0.0982,0.516863 0.36571,1.025386 0.76281,1.449821 0.39866,0.426101 0.90959,0.709289 1.51409,0.839214 0.30339,0.06521 0.83197,0.06493 1.14718,-6.07e-4 z m -0.96317,-0.879652 c -0.8422,-0.164413 -1.49102,-0.875097 -1.59202,-1.743823 -0.0258,-0.22168 0.007,-0.679755 0.0518,-0.724591 0.0121,-0.0121 0.0474,0.01913 0.0785,0.0694 0.0825,0.133556 0.2517,0.276779 0.42021,0.355792 0.13155,0.06169 0.1794,0.06928 0.43689,0.06928 0.26652,0 0.3005,-0.0059 0.43375,-0.07489 0.19138,-0.09912 0.37151,-0.277909 0.4783,-0.474744 0.0833,-0.15362 0.0869,-0.171906 0.0869,-0.449299 0,-0.279293 -0.003,-0.294816 -0.0898,-0.454842 -0.0817,-0.150746 -0.33921,-0.425788 -0.39859,-0.425788 -0.0133,0 -0.0242,-0.01043 -0.0242,-0.02317 0,-0.0881 0.68667,-0.111128 0.98577,-0.03305 0.396,0.103377 0.76467,0.324005 1.02472,0.613252 0.11963,0.133056 0.3552,0.503854 0.35553,0.559628 8e-5,0.01476 0.0174,0.05991 0.0385,0.100319 0.084,0.161041 0.12872,0.595771 0.0934,0.907543 -0.0466,0.411073 -0.20347,0.762581 -0.48986,1.097787 -0.23772,0.278271 -0.60857,0.505805 -0.98161,0.602282 -0.23074,0.05968 -0.67764,0.0739 -0.90812,0.02891 z m -2.93882,0.08644 c -0.27659,-0.432994 -0.47973,-0.99288 -0.54283,-1.49614 -0.0359,-0.286046 -0.0355,-0.858846 7e-4,-1.120966 0.0691,-0.50042 0.27362,-1.053214 0.56394,-1.52423 0.0371,-0.06016 0.0576,-0.115448 0.0456,-0.122868 -0.0304,-0.01879 -0.38558,0.151679 -0.72993,0.350351 -0.35348,0.203935 -0.76313,0.486834 -1.12279,0.77537 -0.32116,0.257645 -1.07221,1.017926 -1.07221,1.085375 0,0.06313 0.53513,0.624381 0.88744,0.930763 0.4023,0.349865 0.81728,0.652348 1.20241,0.876454 0.3138,0.182605 0.81669,0.42831 0.83648,0.408693 0.0119,-0.01176 -0.0191,-0.08503 -0.0688,-0.162802 z m 6.92137,0.03298 c 0.486,-0.248357 1.00872,-0.573066 1.31419,-0.816372 0.45688,-0.363887 0.70451,-0.592861 1.06216,-0.982107 l 0.26021,-0.283197 -0.0631,-0.07106 c -0.60307,-0.679631 -1.08382,-1.100969 -1.77915,-1.559299 -0.38466,-0.253547 -1.07844,-0.618345 -1.11185,-0.584627 -0.0117,0.01178 0.0313,0.104224 0.0954,0.20543 0.23408,0.369306 0.44292,0.960393 0.50919,1.441141 0.0352,0.255268 0.036,0.889046 0.001,1.13503 -0.0689,0.490748 -0.25445,1.013672 -0.50791,1.431453 -0.10361,0.170788 -0.13172,0.259173 -0.074,0.232618 0.01,-0.0044 0.14152,-0.07144 0.29333,-0.149012 z"
       id="path12063" /><g
       id="g7365"
       transform="translate(776.76838,43.791574)"
       style="fill:#ffffff;fill-opacity:1;stroke:#000000;stroke-width:0.0001;stroke-dasharray:none;stroke-opacity:1"><path
         d="m 435.37503,11.881229 h 0.51125 q 0.0289,0 0.0579,0.01929 0.0289,0.0096 0.0579,0.03858 0.0289,0.01929 0.0386,0.04823 0.0193,0.02894 0.0193,0.05788 v 5.864932 q 0,0.02894 0.01,0.05788 0.0193,0.01929 0.0386,0.04823 0.0193,0.01929 0.0482,0.02894 0.0289,0.0096 0.0482,0.0096 h 3.31831 q 0.0386,0 0.0772,0.01929 0.0386,0.01929 0.0675,0.04823 0.0289,0.02894 0.0482,0.06752 0.0289,0.03859 0.0289,0.07717 v 0.424436 q 0,0.02894 -0.0193,0.05788 -0.01,0.02894 -0.0386,0.05788 -0.0193,0.01929 -0.0482,0.03858 -0.0289,0.0096 -0.0579,0.0096 h -4.67844 q -0.0482,0 -0.0965,-0.0096 -0.0482,-0.01929 -0.0868,-0.04823 -0.0386,-0.02894 -0.0675,-0.06752 -0.0289,-0.03858 -0.0289,-0.08682 v -2.691309 q 0,-0.08682 0.0193,-0.173633 0.0289,-0.09646 0.0675,-0.183279 0.0386,-0.09646 0.0868,-0.183279 0.0579,-0.08682 0.10611,-0.173633 0.0579,-0.08682 0.10611,-0.163987 0.0579,-0.07717 0.0965,-0.144694 0.0386,-0.07717 0.0579,-0.144694 0.0289,-0.06752 0.0289,-0.115755 v -2.594846 q 0,-0.02894 0.0193,-0.05788 0.0193,-0.03859 0.0386,-0.06752 0.0289,-0.02894 0.0579,-0.04823 0.0289,-0.01929 0.0675,-0.01929 z"
         id="path7323"
         style="font-size:9.87778px;line-height:125%;font-family:Bitwise;-inkscape-font-specification:'Bitwise, Normal';letter-spacing:0px;word-spacing:0px;fill:#ffffff;fill-opacity:1;stroke:#000000;stroke-width:0.0001;stroke-dasharray:none;stroke-opacity:1" /><path
         d="m 441.01341,14.061286 h 0.56913 q 0.0289,0 0.0579,0.01929 0.0289,0.0096 0.0482,0.03858 0.0193,0.01929 0.0289,0.04823 0.0193,0.02894 0.0193,0.05788 v 1.360124 q 0,0.04823 0.0193,0.125401 0.0289,0.06752 0.0675,0.154341 0.0386,0.07717 0.0868,0.173632 0.0482,0.08682 0.0965,0.173633 0.0579,0.08682 0.10611,0.173633 0.0579,0.08682 0.0965,0.163987 0.0386,0.07717 0.0579,0.144694 0.0289,0.05788 0.0289,0.09646 v 1.842438 q 0,0.03859 -0.0193,0.07717 -0.0193,0.03858 -0.0482,0.07717 -0.0289,0.02894 -0.0675,0.04823 -0.0289,0.01929 -0.0675,0.01929 h -0.94533 q -0.0386,0 -0.0965,-0.0096 -0.0482,-0.01929 -0.0868,-0.04823 -0.0386,-0.03859 -0.0675,-0.07717 -0.0289,-0.03859 -0.0289,-0.08682 V 14.23495 q 0,-0.02894 0.01,-0.05788 0.01,-0.02894 0.0289,-0.05788 0.0289,-0.02894 0.0482,-0.03858 0.0289,-0.01929 0.0579,-0.01929 z m 0.27974,-0.655946 q -0.10611,0 -0.20257,-0.03859 -0.0965,-0.04823 -0.16399,-0.115755 -0.0675,-0.06752 -0.11575,-0.163987 -0.0386,-0.09646 -0.0386,-0.192925 0,-0.106109 0.0386,-0.202572 0.0482,-0.09646 0.11575,-0.163987 0.0675,-0.06752 0.16399,-0.106109 0.0965,-0.04823 0.20257,-0.04823 0.0965,0 0.19293,0.04823 0.0965,0.03859 0.16398,0.106109 0.0675,0.06752 0.10611,0.163987 0.0482,0.09646 0.0482,0.202572 0,0.09646 -0.0482,0.192925 -0.0386,0.09646 -0.10611,0.163987 -0.0675,0.06752 -0.16398,0.115755 -0.0965,0.03859 -0.19293,0.03859 z"
         id="path7325"
         style="font-size:9.87778px;line-height:125%;font-family:Bitwise;-inkscape-font-specification:'Bitwise, Normal';letter-spacing:0px;word-spacing:0px;fill:#ffffff;fill-opacity:1;stroke:#000000;stroke-width:0.0001;stroke-dasharray:none;stroke-opacity:1" /><path
         d="m 443.32363,14.369967 q 0,-0.05788 0.0289,-0.115755 0.0386,-0.05788 0.0868,-0.09646 0.0579,-0.04823 0.1254,-0.06752 0.0675,-0.02894 0.12541,-0.02894 h 4.10931 q 0.0289,0 0.0579,0.01929 0.0289,0.0096 0.0482,0.03858 0.0193,0.02894 0.0289,0.05788 0.01,0.02894 0.01,0.05788 v 0.424436 q 0,0.02894 -0.01,0.05788 -0.01,0.02894 -0.0289,0.05788 -0.01,0.01929 -0.0386,0.03858 -0.0193,0.0096 -0.0386,0.0096 h -0.57878 v 2.440507 q 0,0.03859 -0.0193,0.07717 -0.01,0.03859 -0.0482,0.07717 -0.0289,0.02894 -0.0675,0.04823 -0.0289,0.01929 -0.0675,0.01929 h -2.16077 v 0.762055 h 2.29582 q 0.0482,0 0.0965,0.02894 0.0579,0.01929 0.0965,0.06752 0.0386,0.03859 0.0579,0.09646 0.0289,0.04823 0.0289,0.09646 v 2.160765 q 0,0.04823 -0.0193,0.106109 -0.0193,0.05788 -0.0579,0.09646 -0.0386,0.04823 -0.0965,0.07717 -0.0482,0.02894 -0.0965,0.02894 h -3.54983 q -0.0482,0 -0.1061,-0.01929 -0.0579,-0.01929 -0.10611,-0.05788 -0.0482,-0.03859 -0.0772,-0.08682 -0.0289,-0.04823 -0.0289,-0.09646 v -2.218642 q 0,-0.05788 0.0289,-0.106109 0.0386,-0.04823 0.0868,-0.08682 0.0482,-0.03859 0.10611,-0.05788 0.0675,-0.02894 0.1254,-0.02894 h 0.3955 v -0.762055 h -0.43408 q -0.0482,0 -0.10611,-0.0096 -0.0482,-0.01929 -0.0965,-0.04823 -0.0482,-0.03859 -0.0772,-0.07717 -0.0289,-0.03858 -0.0289,-0.08682 z m 1.03215,0.463021 q -0.0579,0 -0.0965,0.03858 -0.0289,0.03858 -0.0289,0.08682 v 1.620574 q 0,0.04823 0.0289,0.08682 0.0386,0.03859 0.0965,0.03859 h 1.90996 q 0.0482,0 0.0772,-0.03859 0.0386,-0.03859 0.0386,-0.08682 v -1.620574 q 0,-0.04823 -0.0386,-0.08682 -0.0289,-0.03858 -0.0772,-0.03858 z m 0.48231,4.109311 q -0.0386,0 -0.0772,0.01929 -0.0289,0.02894 -0.0289,0.06752 v 1.167199 q 0,0.03858 0.0289,0.05788 0.0386,0.02894 0.0772,0.02894 h 1.65916 q 0.0482,0 0.0772,-0.02894 0.0386,-0.01929 0.0386,-0.05788 v -1.167199 q 0,-0.03859 -0.0386,-0.06752 -0.0289,-0.01929 -0.0772,-0.01929 z"
         id="path7327"
         style="font-size:9.87778px;line-height:125%;font-family:Bitwise;-inkscape-font-specification:'Bitwise, Normal';letter-spacing:0px;word-spacing:0px;fill:#ffffff;fill-opacity:1;stroke:#000000;stroke-width:0.0001;stroke-dasharray:none;stroke-opacity:1" /><path
         d="m 448.9716,18.633618 v -6.540171 q 0,-0.03858 0.01,-0.07717 0.0193,-0.03859 0.0386,-0.06752 0.0289,-0.02894 0.0579,-0.04823 0.0386,-0.01929 0.0772,-0.01929 h 0.47267 q 0.0386,0 0.0675,0.01929 0.0289,0.01929 0.0482,0.05788 0.0289,0.02894 0.0386,0.06752 0.0193,0.02894 0.0193,0.06752 v 1.794206 q 0,0.02894 0.01,0.06752 0.0193,0.02894 0.0482,0.05788 0.0289,0.01929 0.0579,0.03859 0.0386,0.0096 0.0675,0.0096 h 2.88424 q 0.0772,0 0.15434,0.03858 0.0772,0.03858 0.13504,0.106109 0.0675,0.05788 0.10611,0.135048 0.0386,0.07717 0.0386,0.15434 v 4.167189 q 0,0.03859 -0.0193,0.07717 -0.0193,0.02894 -0.0579,0.05788 -0.0289,0.02894 -0.0675,0.04823 -0.0386,0.0096 -0.0675,0.0096 h -0.47267 q -0.0386,0 -0.0772,-0.0096 -0.0386,-0.01929 -0.0772,-0.04823 -0.0289,-0.02894 -0.0482,-0.05788 -0.0193,-0.03858 -0.0193,-0.07717 v -3.655936 q 0,-0.02894 -0.0193,-0.04823 -0.01,-0.02894 -0.0386,-0.04823 -0.0193,-0.01929 -0.0482,-0.02894 -0.0193,-0.0096 -0.0482,-0.0096 h -1.70739 q -0.0289,0 -0.0675,0.01929 -0.0289,0.0096 -0.0579,0.03858 -0.0193,0.01929 -0.0386,0.05788 -0.01,0.02894 -0.01,0.05788 v 3.588412 q 0,0.03859 -0.0193,0.08682 -0.0193,0.03858 -0.0579,0.06752 -0.0289,0.02894 -0.0675,0.04823 -0.0386,0.01929 -0.0772,0.01929 h -0.94533 q -0.0386,0 -0.0772,-0.01929 -0.0386,-0.01929 -0.0772,-0.04823 -0.0289,-0.02894 -0.0482,-0.06752 -0.0193,-0.04823 -0.0193,-0.08682 z"
         id="path7329"
         style="font-size:9.87778px;line-height:125%;font-family:Bitwise;-inkscape-font-specification:'Bitwise, Normal';letter-spacing:0px;word-spacing:0px;fill:#ffffff;fill-opacity:1;stroke:#000000;stroke-width:0.0001;stroke-dasharray:none;stroke-opacity:1" /><path
         d="m 455.07345,12.633638 h 0.48232 q 0.0868,0 0.14469,0.05788 0.0579,0.05788 0.0579,0.135048 v 1.234722 h 1.05144 q 0.0386,0 0.0772,0.02894 0.0386,0.01929 0.0675,0.05788 0.0289,0.02894 0.0482,0.06752 0.0193,0.03859 0.0193,0.07717 v 1.012858 q 0,0.02894 -0.0193,0.06752 -0.01,0.02894 -0.0386,0.05788 -0.0193,0.01929 -0.0482,0.03859 -0.0289,0.01929 -0.0579,0.01929 h -1.09967 v 2.459799 q 0,0.01929 0.01,0.04823 0.01,0.02894 0.0289,0.05788 0.0289,0.01929 0.0482,0.03858 0.0289,0.0096 0.0579,0.0096 h 0.5209 q 0.0289,0 0.0579,0.01929 0.0289,0.0096 0.0482,0.03859 0.0289,0.01929 0.0386,0.05788 0.0193,0.02894 0.0193,0.05788 v 0.376204 q 0,0.08682 -0.0482,0.144694 -0.0482,0.05788 -0.12541,0.05788 h -1.34083 q -0.0772,0 -0.13504,-0.05788 -0.0579,-0.05788 -0.0579,-0.135047 V 14.85228 h -0.3955 q -0.0289,0 -0.0579,-0.0096 -0.0193,-0.0096 -0.0482,-0.02894 -0.0193,-0.02894 -0.0386,-0.04823 -0.01,-0.02894 -0.01,-0.05788 v -0.511252 q 0,-0.01929 0.01,-0.03858 0.01,-0.02894 0.0193,-0.04823 0.0193,-0.01929 0.0386,-0.02894 0.0289,-0.01929 0.0482,-0.01929 h 0.43408 v -1.234722 q 0,-0.07717 0.0579,-0.135048 0.0579,-0.05788 0.13504,-0.05788 z"
         id="path7331"
         style="font-size:9.87778px;line-height:125%;font-family:Bitwise;-inkscape-font-specification:'Bitwise, Normal';letter-spacing:0px;word-spacing:0px;fill:#ffffff;fill-opacity:1;stroke:#000000;stroke-width:0.0001;stroke-dasharray:none;stroke-opacity:1" /></g><path
       style="fill:#ffffff;fill-opacity:1;stroke:#000000;stroke-width:0.001;stroke-dasharray:none;stroke-opacity:1"
       d="m 1222.4499,-6.2849965 c -0.4424,-0.10446 -0.731,-0.40264 -0.7723,-0.798 l -0.011,-0.11052 h 0.9246 0.9246 l -0.011,0.11052 c -0.035,0.33231 -0.2725,0.62697 -0.6067,0.75202 -0.1043,0.039 -0.3636,0.0657 -0.4471,0.046 z m -1.5946,-1.58796 c -0.2441,-0.0862 -0.3863,-0.33514 -0.3314,-0.58023 0.03,-0.13318 0.1348,-0.26951 0.2564,-0.33292 l 0.094,-0.0489 h 1.7165 1.7166 l 0.094,0.0489 c 0.1216,0.0634 0.2266,0.19974 0.2564,0.33292 0.056,0.24988 -0.096,0.50889 -0.3429,0.58272 -0.094,0.028 -3.3796,0.0256 -3.4592,-0.002 z m -0.057,-1.63507 c -0.3737,-0.174 -0.3804,-0.7070095 -0.011,-0.8883195 l 0.106,-0.0521 h 1.6978 1.6978 l 0.106,0.0521 c 0.1556,0.0764 0.2549,0.22097 0.2731,0.3977295 0.02,0.19758 -0.1,0.40457 -0.2843,0.49059 l -0.095,0.0442 h -1.6978 -1.6978 z m 0.2056,-1.7089395 c -0.1395,-0.0307 -0.2914,-0.0933 -0.3936,-0.16215 -0.1264,-0.0851 -0.2837,-0.27036 -0.3532,-0.41597 -0.097,-0.2024 -0.1229,-0.32799 -0.1422,-0.68174 -0.021,-0.39059 -0.051,-0.54067 -0.1463,-0.74298 -0.096,-0.20416 -0.1907,-0.33935 -0.5666,-0.81179 -0.3306,-0.41559 -0.4468,-0.57926 -0.5873,-0.82746 -0.2552,-0.45082 -0.4407,-1.01529 -0.51,-1.55135 -0.037,-0.28703 -0.037,-0.81076 4e-4,-1.09555 0.1654,-1.26406 0.8527,-2.36465 1.9127,-3.06304 1.074,-0.70769 2.4138,-0.89747 3.6488,-0.51687 0.9333,0.28761 1.7699,0.90839 2.3043,1.70973 0.4928,0.73886 0.7352,1.5452 0.7347,2.44339 -3e-4,0.65482 -0.149,1.286 -0.4421,1.87784 -0.1707,0.34471 -0.3199,0.5681 -0.6835,1.02331 -0.3628,0.45417 -0.4696,0.60599 -0.5626,0.8001 -0.099,0.20629 -0.1281,0.3523 -0.1495,0.74761 -0.021,0.38449 -0.057,0.54094 -0.1752,0.74823 -0.093,0.16317 -0.2795,0.34563 -0.4283,0.41843 -0.2477,0.12114 -0.1761,0.11642 -1.836,0.12115 -1.2073,0.003 -1.5331,-7.5e-4 -1.6245,-0.0209 z"
       id="path6453"
       sodipodi:nodetypes="scccccssscsscccssscccsccccsscccccssssssscssssssscssccc" /><g
       id="g7455"
       transform="translate(938.75166,43.791574)"
       style="fill:#ffffff;fill-opacity:1;stroke:#000000;stroke-width:0.0001;stroke-dasharray:none;stroke-opacity:1"><path
         d="m 304.4965,12.247787 q 0,-0.06752 0.0289,-0.135047 0.0386,-0.06752 0.0868,-0.115756 0.0579,-0.05788 0.12541,-0.08682 0.0675,-0.03859 0.13504,-0.03859 h 5.12217 q 0.0675,0 0.13505,0.02894 0.0675,0.02894 0.11575,0.07717 0.0579,0.04823 0.0868,0.115755 0.0386,0.06752 0.0386,0.125402 v 3.183269 q 0,0.06752 -0.0386,0.144694 -0.0289,0.06752 -0.0868,0.125401 -0.0482,0.04823 -0.11575,0.08682 -0.0675,0.02894 -0.13505,0.02894 h -3.91638 q -0.0289,0 -0.0675,0.01929 -0.0289,0.0096 -0.0579,0.03858 -0.0193,0.02894 -0.0386,0.05788 -0.01,0.02894 -0.01,0.05788 v 2.5852 q 0,0.04823 -0.0289,0.106109 -0.0193,0.04823 -0.0579,0.09646 -0.0289,0.04823 -0.0772,0.07717 -0.0386,0.02894 -0.0868,0.02894 h -0.84887 q -0.0579,0 -0.11576,-0.02894 -0.0579,-0.03859 -0.10611,-0.08682 -0.0386,-0.04823 -0.0675,-0.106109 -0.0193,-0.05788 -0.0193,-0.115755 z m 1.05144,0.41479 q -0.0193,0 -0.0482,0.01929 -0.0289,0.0096 -0.0482,0.02894 -0.0193,0.0096 -0.0386,0.03859 -0.01,0.01929 -0.01,0.04823 v 2.131825 q 0,0.04823 0.0386,0.07717 0.0482,0.02894 0.0965,0.02894 h 3.86815 q 0.0386,0 0.0772,-0.03858 0.0386,-0.03858 0.0386,-0.07717 v -2.122179 q 0,-0.02894 -0.01,-0.04823 -0.01,-0.01929 -0.0289,-0.03859 -0.0193,-0.01929 -0.0482,-0.02894 -0.0193,-0.01929 -0.0482,-0.01929 z"
         id="path7276"
         style="font-size:9.87778px;line-height:125%;font-family:Bitwise;-inkscape-font-specification:'Bitwise, Normal';letter-spacing:0px;word-spacing:0px;fill:#ffffff;fill-opacity:1;stroke:#000000;stroke-width:0.0001;stroke-dasharray:none;stroke-opacity:1" /><path
         d="m 311.94433,14.05164 h 3.79099 q 0.0579,0 0.0965,0.01929 0.0482,0.01929 0.0868,0.05788 0.0386,0.03859 0.0579,0.08682 0.0193,0.03859 0.0193,0.09646 v 4.282944 q 0,0.05788 -0.0193,0.106109 -0.0193,0.03858 -0.0579,0.07717 -0.0386,0.02894 -0.0868,0.05788 -0.0386,0.01929 -0.0965,0.01929 h -3.79099 q -0.0482,0 -0.0965,-0.01929 -0.0482,-0.02894 -0.0868,-0.05788 -0.0289,-0.03859 -0.0482,-0.07717 -0.0193,-0.04823 -0.0193,-0.106109 V 14.31209 q 0,-0.05788 0.0193,-0.09646 0.0193,-0.04823 0.0482,-0.08682 0.0386,-0.03858 0.0868,-0.05788 0.0482,-0.01929 0.0965,-0.01929 z m 0.68489,0.781348 q -0.0482,0 -0.0772,0.02894 -0.0289,0.02894 -0.0289,0.06752 v 3.038575 q 0,0.03858 0.0289,0.06752 0.0289,0.02894 0.0772,0.02894 h 1.86173 q 0.0386,0 0.0675,-0.02894 0.0386,-0.02894 0.0386,-0.06752 l -0.01,-1.041797 q 0,-0.115755 0.0193,-0.221864 0.0289,-0.115755 0.0675,-0.212218 0.0386,-0.106109 0.0868,-0.202572 0.0579,-0.106109 0.10611,-0.192925 0.0579,-0.08682 0.10611,-0.163987 0.0579,-0.07717 0.0965,-0.144694 0.0386,-0.06752 0.0579,-0.125401 0.0289,-0.05788 0.0289,-0.106109 V 14.92945 q 0,-0.03858 -0.0289,-0.06752 -0.0289,-0.02894 -0.0675,-0.02894 z"
         id="path7278"
         style="font-size:9.87778px;line-height:125%;font-family:Bitwise;-inkscape-font-specification:'Bitwise, Normal';letter-spacing:0px;word-spacing:0px;fill:#ffffff;fill-opacity:1;stroke:#000000;stroke-width:0.0001;stroke-dasharray:none;stroke-opacity:1" /><path
         d="m 317.31834,14.225273 q 0,-0.02894 0.01,-0.05788 0.0193,-0.02894 0.0386,-0.04823 0.0289,-0.02894 0.0579,-0.04823 0.0386,-0.01929 0.0675,-0.01929 h 0.52089 q 0.0289,0 0.0579,0.01929 0.0289,0.0096 0.0482,0.02894 0.0289,0.01929 0.0482,0.04823 0.0193,0.02894 0.0193,0.05788 v 1.591635 q 0,0.02894 0.0193,0.08682 0.0289,0.04823 0.0675,0.125402 0.0386,0.06752 0.0868,0.15434 0.0482,0.08682 0.0965,0.183279 0.0579,0.09646 0.10611,0.192925 0.0482,0.08682 0.0868,0.173633 0.0482,0.08682 0.0675,0.163987 0.0289,0.06752 0.0289,0.125401 v 0.897103 q 0,0.04823 0.0386,0.08682 0.0386,0.03859 0.0868,0.03859 h 0.77171 q 0.0386,0 0.0772,-0.01929 0.0482,-0.01929 0.0482,-0.05788 v -3.762045 q 0,-0.01929 0,-0.03858 0.01,-0.01929 0.0193,-0.03859 0.0193,-0.02894 0.0386,-0.03859 0.0193,-0.0096 0.0386,-0.0096 h 0.6463 q 0.01,0 0.0193,0.01929 0.0193,0.0096 0.0289,0.02894 0.01,0.01929 0.0193,0.04823 0.01,0.01929 0.01,0.02894 v 3.713813 q 0,0.02894 0.01,0.04823 0.01,0.01929 0.0289,0.03858 0.0193,0.01929 0.0386,0.02894 0.0289,0.0096 0.0579,0.0096 h 1.42765 q 0.0289,0 0.0482,-0.01929 0.0289,-0.02894 0.0289,-0.05788 v -3.771692 q 0,-0.01929 0.01,-0.03858 0.0193,-0.02894 0.0386,-0.04823 0.0289,-0.01929 0.0482,-0.02894 0.0289,-0.01929 0.0579,-0.01929 h 0.53054 q 0.0386,0 0.0772,0.03858 0.0482,0.02894 0.0482,0.06752 v 4.360113 q 0,0.05788 -0.0289,0.115756 -0.0193,0.05788 -0.0579,0.115755 -0.0289,0.04823 -0.0772,0.08682 -0.0482,0.02894 -0.10611,0.02894 h -2.07395 q -0.0579,0 -0.1254,-0.0096 -0.0675,-0.01929 -0.1254,-0.03858 -0.0579,-0.02894 -0.10611,-0.07717 -0.0386,-0.04823 -0.0482,-0.125402 -0.0482,0.135048 -0.1447,0.192925 -0.0965,0.05788 -0.20257,0.05788 h -2.24758 q -0.0579,0 -0.1254,-0.02894 -0.0675,-0.03859 -0.1254,-0.08682 -0.0579,-0.04823 -0.0965,-0.106109 -0.0289,-0.05788 -0.0289,-0.125402 z"
         id="path7280"
         style="font-size:9.87778px;line-height:125%;font-family:Bitwise;-inkscape-font-specification:'Bitwise, Normal';letter-spacing:0px;word-spacing:0px;fill:#ffffff;fill-opacity:1;stroke:#000000;stroke-width:0.0001;stroke-dasharray:none;stroke-opacity:1" /><path
         d="m 324.36236,14.360321 q 0,-0.05788 0.0289,-0.115756 0.0386,-0.05788 0.0965,-0.09646 0.0579,-0.04823 0.11576,-0.06752 0.0675,-0.02894 0.13505,-0.02894 h 3.69452 q 0.0579,0 0.1254,0.02894 0.0675,0.02894 0.11575,0.07717 0.0579,0.03858 0.0965,0.106109 0.0386,0.05788 0.0386,0.125401 v 1.881023 q 0,0.04823 -0.0289,0.09646 -0.0289,0.03858 -0.0772,0.07717 -0.0386,0.03859 -0.0868,0.06752 -0.0482,0.01929 -0.0965,0.01929 h -2.65272 q -0.0482,0 -0.0868,0.03859 -0.0386,0.03858 -0.0386,0.08682 v 1.321539 q 0,0.02894 0.0193,0.06752 0.0289,0.02894 0.0675,0.02894 h 1.99678 q 0.0289,0 0.0579,-0.02894 0.0386,-0.03859 0.0386,-0.06752 v -0.482314 q 0,-0.03859 0.0386,-0.07717 0.0386,-0.03859 0.0772,-0.03859 h 0.62701 q 0.0289,0 0.0482,0.0096 0.0289,0.0096 0.0482,0.02894 0.0193,0.01929 0.0289,0.04823 0.0193,0.01929 0.0193,0.04823 v 1.061089 q 0,0.04823 -0.0289,0.09646 -0.0289,0.04823 -0.0675,0.09646 -0.0386,0.03859 -0.0868,0.06752 -0.0482,0.01929 -0.0965,0.01929 h -3.79098 q -0.0675,0 -0.13505,-0.02894 -0.0675,-0.02894 -0.1254,-0.06752 -0.0482,-0.04823 -0.0868,-0.106109 -0.0289,-0.06752 -0.0289,-0.125401 z m 1.46623,0.443728 q -0.0386,0 -0.0675,0.02894 -0.0193,0.02894 -0.0193,0.05788 v 0.800641 q 0,0.03858 0.0193,0.06752 0.0289,0.01929 0.0675,0.01929 h 1.98714 q 0.0289,0 0.0579,-0.01929 0.0289,-0.02894 0.0289,-0.06752 v -0.800641 q 0,-0.02894 -0.0289,-0.05788 -0.0289,-0.02894 -0.0579,-0.02894 z"
         id="path7282"
         style="font-size:9.87778px;line-height:125%;font-family:Bitwise;-inkscape-font-specification:'Bitwise, Normal';letter-spacing:0px;word-spacing:0px;fill:#ffffff;fill-opacity:1;stroke:#000000;stroke-width:0.0001;stroke-dasharray:none;stroke-opacity:1" /><path
         d="m 330.13272,14.427844 q 0,-0.06752 0.0289,-0.125401 0.0386,-0.06752 0.0965,-0.115755 0.0579,-0.05788 0.1254,-0.08682 0.0675,-0.03858 0.13505,-0.03858 h 2.88424 q 0.0579,0 0.11575,0.02894 0.0579,0.02894 0.10611,0.07717 0.0579,0.03858 0.0868,0.09646 0.0289,0.05788 0.0289,0.115755 v 0.916396 q 0,0.03858 -0.01,0.07717 -0.01,0.03858 -0.0289,0.07717 -0.0193,0.02894 -0.0482,0.04823 -0.0289,0.01929 -0.0675,0.01929 h -0.56913 q -0.0289,0 -0.0675,-0.0096 -0.0289,-0.01929 -0.0579,-0.03858 -0.0289,-0.01929 -0.0482,-0.04823 -0.01,-0.02894 -0.01,-0.05788 v -0.453375 q 0,-0.03858 -0.0482,-0.06752 -0.0386,-0.03859 -0.0868,-0.03859 h -1.5627 q -0.0289,0 -0.0482,0.01929 -0.0193,0.0096 -0.0386,0.02894 -0.01,0.01929 -0.0193,0.04823 -0.01,0.02894 -0.01,0.04823 v 0.665593 q 0,0.08682 0.0193,0.173632 0.0193,0.07717 0.0579,0.163987 0.0386,0.07717 0.0868,0.163987 0.0482,0.07717 0.0965,0.163986 0.0482,0.07717 0.0965,0.15434 0.0482,0.07717 0.0772,0.163987 0.0386,0.07717 0.0579,0.163987 0.0289,0.08682 0.0289,0.173632 v 1.678451 q 0,0.03858 -0.0289,0.08682 -0.0193,0.03858 -0.0579,0.07717 -0.0289,0.02894 -0.0772,0.05788 -0.0386,0.01929 -0.0868,0.01929 h -0.91639 q -0.0482,0 -0.0965,-0.02894 -0.0386,-0.02894 -0.0772,-0.06752 -0.0289,-0.03858 -0.0482,-0.08682 -0.0193,-0.04823 -0.0193,-0.09646 z"
         id="path7284"
         style="font-size:9.87778px;line-height:125%;font-family:Bitwise;-inkscape-font-specification:'Bitwise, Normal';letter-spacing:0px;word-spacing:0px;fill:#ffffff;fill-opacity:1;stroke:#000000;stroke-width:0.0001;stroke-dasharray:none;stroke-opacity:1" /></g><g
       id="g5697"
       transform="matrix(1.5515165,0,0,1.5532644,750.55986,28.714734)"
       style="fill:#ffffff;fill-opacity:1;stroke:#000000;stroke-width:6.442e-05;stroke-dasharray:none;stroke-opacity:1"><path
         style="fill:#ffffff;fill-opacity:1;stroke:#000000;stroke-width:6.442e-05;stroke-dasharray:none;stroke-opacity:1"
         d="m 326.7413,-26.78038 c -0.2418,-0.05481 -0.47889,-0.235957 -0.56148,-0.429234 -0.0357,-0.08343 -0.0381,-0.237649 -0.0381,-2.273353 v -2.183851 l 0.0693,-0.119945 c 0.1245,-0.215651 0.34692,-0.35292 0.63324,-0.390769 0.35844,-0.04738 0.7158,0.112147 0.87474,0.390458 l 0.0585,0.102356 v 2.219651 2.219652 l -0.0636,0.103208 c -0.0789,0.128044 -0.2577,0.26918 -0.41625,0.328765 -0.1533,0.05762 -0.38637,0.07148 -0.55599,0.03306 z"
         id="path5673" /><path
         style="fill:#ffffff;fill-opacity:1;stroke:#000000;stroke-width:6.442e-05;stroke-dasharray:none;stroke-opacity:1"
         d="m 326.534,-22.54219 c -2.0937,-0.217657 -3.76774,-1.666818 -4.26367,-3.690968 -0.1044,-0.4255 -0.138,-0.770625 -0.1248,-1.271648 0.021,-0.77983 0.1656,-1.35665 0.51876,-2.063721 0.30864,-0.618041 0.89653,-1.327794 1.26361,-1.525549 0.1374,-0.07405 0.1491,-0.07637 0.38163,-0.07637 0.2214,0 0.2499,0.005 0.37047,0.06414 0.1662,0.0817 0.31251,0.227945 0.39417,0.394342 0.0585,0.119369 0.0642,0.1504 0.0642,0.35974 0,0.318848 -0.0378,0.39399 -0.37677,0.748557 -0.39393,0.412065 -0.61842,0.776937 -0.77739,1.263452 -0.1077,0.329334 -0.1497,0.605964 -0.1491,0.977232 6.6e-4,0.380319 0.0414,0.633453 0.1581,0.984513 0.2673,0.803457 0.81648,1.441579 1.56573,1.818918 0.49608,0.249834 0.99129,0.355401 1.5534,0.331135 0.80872,-0.03491 1.50955,-0.343815 2.08405,-0.918598 0.5745,-0.574784 0.88326,-1.275936 0.91815,-2.085053 0.0411,-0.954125 -0.2892,-1.75008 -1.029,-2.479669 -0.1092,-0.107646 -0.1809,-0.202076 -0.2313,-0.305011 -0.0678,-0.137766 -0.0735,-0.164879 -0.0732,-0.356836 1.5e-4,-0.179129 0.009,-0.224927 0.0585,-0.332506 0.069,-0.147749 0.2241,-0.320629 0.35868,-0.399497 0.1446,-0.08472 0.37956,-0.127737 0.54207,-0.0992 0.2211,0.03884 0.3687,0.128539 0.61986,0.376967 0.77343,0.764963 1.24848,1.702886 1.4124,2.788436 0.0519,0.342827 0.0507,1.009323 -0.002,1.352795 -0.141,0.918295 -0.51174,1.743497 -1.09827,2.443759 -0.74799,0.893013 -1.83105,1.494465 -3.00382,1.668096 -0.294,0.04355 -0.8694,0.06005 -1.13406,0.03254 z"
         id="path5671" /></g><text
       xml:space="preserve"
       style="font-style:normal;font-variant:normal;font-weight:normal;font-stretch:normal;font-size:16.9333px;font-family:Bitwise;-inkscape-font-specification:'Bitwise, Normal';font-variant-ligatures:normal;font-variant-caps:normal;font-variant-numeric:normal;font-variant-east-asian:normal;fill:#ffffff;fill-opacity:1;stroke:none;stroke-width:0.4;stroke-dasharray:0.799999, 0.4;stroke-dashoffset:0;stroke-opacity:1"
       x="284.85794"
       y="-10.786163"
       id="text5467"><tspan
         sodipodi:role="line"
         style="font-style:normal;font-variant:normal;font-weight:normal;font-stretch:normal;font-size:16.9333px;font-family:Bitwise;-inkscape-font-specification:'Bitwise, Normal';font-variant-ligatures:normal;font-variant-caps:normal;font-variant-numeric:normal;font-variant-east-asian:normal;stroke-width:0.4"
         x="284.85794"
         y="-10.786163"
         id="tspan13060">Makeomatic 750</tspan></text><path
       style="fill:#ffffff;fill-opacity:1;stroke-width:0.999999"
       d="m 428.55647,-7.4953466 c 0.14318,-0.11332 0.1705,-0.26298 0.24835,-1.36042 0.0481,-0.6782 0.10493,-1.2593504 0.12626,-1.2914504 0.0979,-0.14737 0.32098,0.0214 1.55759,1.1785304 1.15836,1.08391 1.35262,1.23687 1.57076,1.23687 0.25037,0 0.34391,-0.0971 0.34391,-0.35714 0,-0.0698 -0.52667,-0.66469 -1.17038,-1.32188 -1.26745,-1.2940204 -1.41293,-1.4774804 -1.27403,-1.6066404 0.0578,-0.0537 0.81592,-0.0965 2.23212,-0.12586 2.31567,-0.048 2.4031,-0.064 2.4031,-0.439 0,-0.36328 -0.0381,-0.36943 -2.28471,-0.36943 -1.1533,0 -2.09691,-0.0255 -2.09691,-0.0565 0,-0.13971 0.31455,-0.43643 1.27573,-1.20337 3.40833,-2.71961 14.26512,-12.085069 14.60868,-12.601989 0.17231,-0.25925 0.20991,-0.82288 0.071,-1.06425 -0.1105,-0.192 -0.82093,-0.49688 -1.15996,-0.49778 -0.30484,-8.3e-4 -0.44875,0.13032 -8.70326,7.92989 -2.51987,2.38101 -5.12909,4.812869 -5.79826,5.404149 -1.16982,1.03365 -1.22451,1.07172 -1.42036,0.98874 -0.15506,-0.0657 -0.20392,-0.13998 -0.20461,-0.31109 -5.9e-4,-0.12363 -0.0527,-1.07605 -0.11608,-2.11649 -0.0633,-1.040439 -0.11575,-2.044879 -0.11646,-2.232109 -0.001,-0.39727 -0.15859,-0.5876 -0.45792,-0.55483 -0.26993,0.0296 -0.30851,0.18746 -0.31799,1.30186 -0.004,0.50376 -0.031,1.608769 -0.0594,2.455579 -0.0492,1.46925 -0.0586,1.53964 -0.20632,1.53964 -0.17184,0 -0.72279,-0.44352 -2.38906,-1.92323 -1.18498,-1.05231 -1.35684,-1.13804 -1.55137,-0.77385 -0.13931,0.2608 -0.0143,0.42882 1.03203,1.38745 1.3898,1.27327 2.25645,2.1935 2.13387,2.26579 -0.0562,0.0331 -1.04628,0.0607 -2.20026,0.0614 -1.29431,5.5e-4 -2.15614,0.0299 -2.2495,0.0764 -0.18633,0.0927 -0.20286,0.44844 -0.0284,0.61068 0.10104,0.094 0.3359,0.11434 1.31785,0.11434 1.89755,0 3.0973,0.0761 3.0973,0.19642 0,0.0557 -0.56569,0.63874 -1.25708,1.2955904 -1.1642,1.10604 -1.25525,1.21196 -1.23233,1.43362 0.0219,0.21215 0.0542,0.24197 0.28382,0.26247 0.22514,0.0201 0.33684,-0.0418 0.853,-0.47293 0.32667,-0.27283 0.96344,-0.79619 1.41504,-1.16304 1.12237,-0.9117104 1.1112,-0.9196504 1.1112,0.79001 0,1.15041 0.0147,1.29648 0.13693,1.36269 0.19546,0.10586 0.2934,0.0958 0.47607,-0.0487 z"
       id="path5332" /><path
       id="path1071-5"
       style="fill:#ffff00;fill-opacity:1;stroke:#000000;stroke-width:0.0001;stroke-dasharray:none;stroke-opacity:1"
       d="m 1015.7831,49.258914 -0.3586,0.10593 c -0.3117,0.0924 -0.3953,0.14332 -0.6372,0.38913 -0.3329,0.33819 -0.1512,0.012 -1.9281,3.47059 -0.799,1.55518 -2.0707,4.03059 -2.8261,5.50095 -0.7555,1.47037 -1.5573,3.0318 -1.7813,3.47008 -0.2241,0.43828 -0.9373,1.82846 -1.5855,3.08921 -0.9334,1.81558 -1.195,2.36367 -1.2573,2.63499 -0.043,0.1884 -0.094,0.34261 -0.1136,0.34261 -0.019,0 -0.035,0.10368 -0.035,0.23099 0,0.1273 0.02,0.23151 0.044,0.23151 0.024,0 0.044,0.0304 0.044,0.0677 0,0.2459 0.1547,0.60131 0.3922,0.90072 0.2394,0.30183 0.2843,0.33448 0.6087,0.44442 l 0.3509,0.11834 9.0408,0.006 9.0403,0.006 0.37,-0.12506 c 0.3373,-0.11379 0.3946,-0.15323 0.6501,-0.447 0.2369,-0.27254 0.2883,-0.36392 0.3327,-0.59479 0.029,-0.15001 0.07,-0.27285 0.09,-0.27285 0.048,0 0.049,-0.65413 0,-0.67696 -0.02,-0.009 -0.067,-0.14741 -0.106,-0.30645 -0.06,-0.24694 -1.0769,-2.29176 -2.3621,-4.74906 -0.1035,-0.19793 -0.7218,-1.4008 -1.3741,-2.67322 -0.6523,-1.27243 -1.8042,-3.51642 -2.5595,-4.98678 -0.7554,-1.47036 -1.6704,-3.25203 -2.0335,-3.95893 -0.5344,-1.04052 -0.7172,-1.35248 -0.9612,-1.63711 -0.2865,-0.33432 -0.3198,-0.35719 -0.6738,-0.46612 z m 0.01,5.49423 c 0.6298,0.006 1.1908,0.48093 1.3596,1.08314 0.179,1.6452 -0.042,3.32396 -0.043,4.9811 -0.1085,0.9292 0.1081,1.95073 -0.3044,2.81016 -0.4836,0.92269 -1.9847,0.69631 -2.2066,-0.31471 -0.2069,-2.13896 -0.1961,-4.30708 -0.2811,-6.45852 -0.1441,-0.90015 0.327,-2.03939 1.3493,-2.096 0.043,-0.004 0.085,-0.006 0.1266,-0.005 z m -0.075,10.93577 c 0.019,-7e-5 0.038,-5e-5 0.059,0 0.3338,9.7e-4 0.3777,0.0143 0.5674,0.16589 0.113,0.0905 0.2614,0.27517 0.3302,0.41031 0.1065,0.20944 0.125,0.29952 0.123,0.61236 0,0.31394 -0.02,0.40173 -0.1307,0.60617 -0.2349,0.43502 -0.7327,0.67149 -1.1545,0.54828 -0.2279,-0.0665 -0.4515,-0.25576 -0.6031,-0.51056 -0.1317,-0.22139 -0.1423,-0.2716 -0.1431,-0.65939 -9e-4,-0.38486 0.01,-0.43807 0.1333,-0.64131 0.074,-0.12184 0.22,-0.2916 0.3251,-0.37723 0.1642,-0.13385 0.2145,-0.15336 0.4935,-0.15452 z" /><text
       xml:space="preserve"
       style="font-style:normal;font-variant:normal;font-weight:normal;font-stretch:normal;font-size:16.9333px;font-family:Bitwise;-inkscape-font-specification:'Bitwise, Normal';font-variant-ligatures:normal;font-variant-caps:normal;font-variant-numeric:normal;font-variant-east-asian:normal;fill:#ffffff;fill-opacity:1;stroke:none;stroke-width:0.1;stroke-opacity:1"
       x="993.24371"
       y="-12.711873"
       id="text13503"><tspan
         sodipodi:role="line"
         id="tspan13501"
         style="font-style:normal;font-variant:normal;font-weight:normal;font-stretch:normal;font-size:16.9333px;font-family:Bitwise;-inkscape-font-specification:'Bitwise, Normal';font-variant-ligatures:normal;font-variant-caps:normal;font-variant-numeric:normal;font-variant-east-asian:normal;fill:#ffffff;fill-opacity:1;stroke:none;stroke-width:0.1;stroke-opacity:1"
         x="993.24371"
         y="-12.711873">STOP</tspan></text><circle
       style="fill:none;fill-opacity:1;stroke:#ff0000;stroke-width:0.4;stroke-dasharray:none;stroke-opacity:1"
       id="path14655"
       cx="1015.9896"
       cy="22.791935"
       r="19.800001" /><path
       id="rect5015"
       style="fill:#ff0000;fill-opacity:1;stroke:none;stroke-width:0.4;stroke-dasharray:0.799999, 0.4;stroke-dashoffset:0;stroke-opacity:1"
       d="m 977.99563,-37.533057 c -3.57668,0 -6.45593,2.879256 -6.45593,6.455941 v 107.7376 c 0,3.57668 2.87925,6.45646 6.45593,6.45646 h 75.98757 c 3.5767,0 6.4565,-2.87978 6.4565,-6.45646 v -107.7376 c 0,-3.576685 -2.8798,-6.455941 -6.4565,-6.455941 z m 5.6705,6.350001 h 64.64667 c 3.2001,0 5.7769,2.5762 5.7769,5.77639 v 96.3967 c 0,3.20019 -2.5768,5.77639 -5.7769,5.77639 h -64.64667 c -3.2002,0 -5.7764,-2.5762 -5.7764,-5.77639 v -96.3967 c 0,-3.20019 2.5762,-5.77639 5.7764,-5.77639 z" /><g
       id="g15729"
       transform="translate(333.67409,-95.913348)"><g
         id="g15724"><path
           style="fill:#fdff00;fill-opacity:1;stroke:#000000;stroke-width:0.0001;stroke-dasharray:none;stroke-opacity:1"
           d="m 785.52959,164.97708 c -10e-6,-0.0185 0.0642,-0.10058 0.14264,-0.18229 0.19948,-0.20772 0.40986,-0.55042 0.53016,-0.86356 0.14175,-0.3691 0.14409,-1.05311 0.004,-1.41841 -0.23265,-0.61007 -0.58022,-0.99864 -1.36805,-1.52945 -0.96146,-0.64779 -1.50157,-1.15827 -1.96314,-1.85543 -0.20278,-0.30628 -0.41502,-0.73658 -0.53229,-1.07918 l -0.0588,-0.17171 -0.22565,0.23957 c -0.56631,0.60126 -1.10073,1.36004 -1.36464,1.93759 -0.26043,0.56992 -0.3264,0.87022 -0.32588,1.4832 3.4e-4,0.34418 0.0226,0.63627 0.0574,0.751 0.23396,0.77253 0.70405,1.4963 1.54825,2.38374 0.1971,0.2072 0.33472,0.5028 0.50322,0.73454 0.96629,0.63631 2.12333,1.12145 3.05247,-0.42961 z"
           id="path6790-7" /><path
           style="fill:#ff0303;fill-opacity:1;stroke:#000000;stroke-width:0.0001;stroke-dasharray:none;stroke-opacity:1"
           d="m 786.6595,166.1792 c 0.0283,0.0223 1.01089,-0.1277 1.50914,-0.23044 2.32305,-0.47903 4.39883,-1.57923 5.73397,-3.03911 0.68792,-0.75218 0.97342,-1.29959 1.18899,-2.2797 0.1019,-0.46334 0.1019,-1.47794 -1.6e-4,-2.01481 -0.27652,-1.4556 -1.04311,-3.05738 -2.13237,-4.45555 l -0.31142,-0.39977 -0.30867,0.0191 c -0.16978,0.0104 -0.59305,0.0355 -0.94059,0.0555 l -0.63192,0.0365 -0.19162,0.25034 c -0.1054,0.13767 -0.29837,0.35707 -0.42888,0.48745 -0.27046,0.27029 -0.65126,0.55102 -0.61228,0.4513 0.0131,-0.0344 0.0642,-0.21307 0.11299,-0.39701 0.51941,-1.96163 0.2618,-3.94884 -0.7474,-5.7658 -0.96917,-1.74491 -2.58519,-3.26749 -4.66128,-4.39179 l -0.41064,-0.22239 -0.18249,0.11578 c -0.10044,0.0637 -0.44986,0.29105 -0.77665,0.50521 l -0.59415,0.38936 0.0669,0.11126 c 0.29154,0.48552 0.38147,0.85633 0.3495,1.44119 -0.0131,0.24956 -0.0556,0.55232 -0.0931,0.67277 -0.49268,1.58149 -2.30325,3.53442 -4.79112,5.16779 -0.87884,0.57698 -1.51141,1.0722 -2.15259,1.68512 -0.56341,0.53858 -0.87744,0.8951 -1.22195,1.38722 -0.58331,0.83327 -0.93202,1.59462 -1.09343,2.38745 -0.0791,0.38873 -0.0921,1.57374 -0.0222,2.0143 0.37585,2.36617 2.38135,4.40917 5.34164,5.44151 0.68653,0.23942 1.04232,0.33322 1.79795,0.47403 l -4.3e-4,9e-5 c 0.31231,0.0582 0.58166,0.10639 0.87314,0.0727 -2.10884,-1.31507 -2.49043,-2.39822 -2.56021,-2.52258 -0.19365,-0.3452 -0.41207,-0.95141 -0.49687,-1.37903 -0.11007,-0.55506 -0.0725,-1.40575 0.0857,-1.94216 0.35814,-1.21416 1.15189,-2.37696 2.53417,-3.71239 0.29613,-0.28609 0.652,-0.5999 1.35546,-1.19526 l 0.0873,-0.0739 0.91724,0.29571 0.91725,0.29571 -0.0149,0.30759 c -0.0689,1.41995 0.81565,2.85421 2.29765,3.72524 1.33712,0.7859 2.10334,1.95044 2.10584,3.20056 4.9e-4,0.2657 0.0117,1.75051 -1.9063,2.96805 z"
           id="path11560-4" /></g></g><text
       xml:space="preserve"
       style="font-style:normal;font-variant:normal;font-weight:normal;font-stretch:normal;font-size:16.9333px;font-family:Bitwise;-inkscape-font-specification:'Bitwise, Normal';font-variant-ligatures:normal;font-variant-caps:normal;font-variant-numeric:normal;font-variant-east-asian:normal;fill:#ffffff;fill-opacity:1;stroke-width:0.1"
       x="1100.9849"
       y="-9.9158602"
       id="text14544"><tspan
         sodipodi:role="line"
         id="tspan14542"
         style="stroke-width:0.1"
         x="1100.9849"
         y="-9.9158602">FIRE</tspan></text><circle
       style="fill:none;fill-opacity:1;stroke:#ff0000;stroke-width:0.4;stroke-dasharray:none;stroke-opacity:1"
       id="path14655-6"
       cx="1117.8933"
       cy="22.221272"
       r="19.800001" /><path
       id="rect5015-5"
       style="fill:#ff0000;fill-opacity:1;stroke:none;stroke-width:0.4;stroke-dasharray:0.799999, 0.4;stroke-dashoffset:0;stroke-opacity:1"
       d="m 1079.8993,-38.103727 c -3.5767,0 -6.456,2.879256 -6.456,6.455941 v 107.7376 c 0,3.57668 2.8793,6.45646 6.456,6.45646 h 75.9876 c 3.5767,0 6.4564,-2.87978 6.4564,-6.45646 v -107.7376 c 0,-3.576685 -2.8797,-6.455941 -6.4564,-6.455941 z m 5.6704,6.350001 h 64.6467 c 3.2002,0 5.7769,2.5762 5.7769,5.77639 v 96.3967 c 0,3.20019 -2.5767,5.77639 -5.7769,5.77639 h -64.6467 c -3.2002,0 -5.7764,-2.5762 -5.7764,-5.77639 v -96.3967 c 0,-3.20019 2.5762,-5.77639 5.7764,-5.77639 z" /><g
       id="g7721"
       style="fill:#ffffff;fill-opacity:1"
       transform="translate(556.75984,-151.88968)" /></g></svg>
