<?xml version="1.0" encoding="UTF-8" standalone="no"?>
<svg
   version="1.1"
   width="750.0mm"
   height="460.0mm"
   viewBox="0 0 1935088 1186854"
   id="svg64"
   sodipodi:docname="plug-mount-template.svg"
   inkscape:version="1.2.2 (b0a8486541, 2022-12-01)"
   xmlns:inkscape="http://www.inkscape.org/namespaces/inkscape"
   xmlns:sodipodi="http://sodipodi.sourceforge.net/DTD/sodipodi-0.dtd"
   xmlns="http://www.w3.org/2000/svg"
   xmlns:svg="http://www.w3.org/2000/svg">
  <defs
     id="defs68" />
  <sodipodi:namedview
     id="namedview66"
     pagecolor="#ffffff"
     bordercolor="#000000"
     borderopacity="0.25"
     inkscape:showpageshadow="2"
     inkscape:pageopacity="0.0"
     inkscape:pagecheckerboard="0"
     inkscape:deskcolor="#d1d1d1"
     inkscape:document-units="mm"
     showgrid="false"
     inkscape:zoom="0.84874255"
     inkscape:cx="471.87454"
     inkscape:cy="207.36559"
     inkscape:window-width="1920"
     inkscape:window-height="1019"
     inkscape:window-x="0"
     inkscape:window-y="0"
     inkscape:window-maximized="1"
     inkscape:current-layer="svg64"
     showguides="true">
    <sodipodi:guide
       position="343442.33,1082293.1"
       orientation="1,0"
       id="guide1314"
       inkscape:locked="false" />
  </sodipodi:namedview>
  <path
     id="path1157"
     style="fill:#aad693;fill-opacity:1;stroke:#000000;stroke-opacity:0.21568598"
     d="M 0 0 L 0 141648.46 L 515765.31 141648.46 L 515765.31 0 L 0 0 z M 503502.84 7531.8829 C 504296.67 7531.7629 505076.62 7740.3176 505764.13 8137.2068 C 506451.64 8534.106 507023.21 9105.6624 507420.11 9793.181 C 507817.01 10480.709 508025.56 11260.621 508025.43 12054.479 C 508025.33 12848.177 507817.01 13628.489 507420.11 14315.777 C 507023.16 15003.087 506451.57 15573.67 505764.13 15970.418 C 505076.73 16367.168 504296.51 16575.862 503502.84 16575.742 C 502709.3 16575.622 501930.1 16367.238 501242.87 15970.418 C 500555.66 15573.61 499985.05 15001.662 499588.23 14314.444 C 499191.43 13627.226 498981.67 12848.017 498981.57 12054.479 C 498981.44 11260.771 499190.15 10480.609 499586.9 9793.181 C 499983.64 9105.7524 500554.24 8535.4893 501241.54 8138.5401 C 501928.86 7741.5809 502709.14 7532.0029 503502.84 7531.8829 z M 286422.21 9015.8598 C 287216.06 9015.7398 287995.99 9224.2845 288683.51 9621.1837 C 289371.03 10018.073 289942.59 10589.64 290339.48 11277.158 C 290736.38 11964.656 290944.94 12744.598 290944.81 13538.456 C 290944.71 14332.164 290736.38 15112.436 290339.48 15799.754 C 289942.54 16487.064 289370.96 17057.637 288683.51 17454.395 C 287996.1 17851.145 287215.9 18059.849 286422.21 18059.719 C 285628.67 18059.609 284849.47 17851.205 284162.25 17454.395 C 283475.04 17057.577 282904.43 16485.639 282507.61 15798.421 C 282110.81 15111.193 281901.05 14332.014 281900.95 13538.456 C 281900.82 12744.748 282109.52 11964.566 282506.27 11277.158 C 282903.01 10589.73 283473.61 10019.477 284160.91 9622.517 C 284848.2 9225.5578 285628.51 9015.9798 286422.21 9015.8598 z M 15057.099 10597.169 C 15850.796 10597.289 16629.748 10806.866 17317.064 11203.826 C 17320.385 11205.746 17321.748 11209.906 17325.064 11211.826 C 17352.119 11226.726 17386.287 11220.365 17413.063 11235.825 C 18100.369 11632.775 18670.954 12203.038 19067.703 12890.466 C 19464.451 13577.894 19673.147 14358.056 19673.027 15151.764 C 19672.913 15945.314 19464.511 16724.511 19067.703 17411.729 L 19067.703 17413.063 C 18671.073 18099.631 18099.632 18671.065 17413.063 19067.703 L 17411.729 19067.703 C 16724.51 19464.513 15945.317 19672.917 15151.764 19673.027 C 14358.06 19673.147 13579.225 19464.453 12891.799 19067.703 L 12890.466 19067.703 C 12887.421 19065.943 12886.842 19061.474 12883.8 19059.704 C 12856.738 19044.814 12822.586 19051.164 12795.801 19035.704 C 12108.365 18638.944 11536.785 18068.381 11139.827 17381.063 C 10742.878 16693.755 10534.613 15913.463 10534.503 15119.765 C 10534.383 14325.907 10742.928 13545.985 11139.827 12858.467 C 11536.715 12170.937 12108.285 11599.382 12795.801 11202.492 C 13483.318 10805.604 14263.244 10597.049 15057.099 10597.169 z M 46781.939 32631.492 L 472796.65 32631.492 C 481219.92 32631.492 488000.41 39413.314 488000.41 47836.589 L 488000.41 99733.115 C 488000.41 108156.39 481219.92 114938.21 472796.65 114938.21 L 46781.939 114938.21 C 38358.664 114938.21 31578.176 108156.39 31578.176 99733.115 L 31578.176 47836.589 C 31578.176 39413.314 38358.664 32631.492 46781.939 32631.492 z M 503502.84 124863.39 C 504296.51 124863.26 505076.73 125071.97 505764.13 125468.72 C 506451.57 125865.45 507023.16 126436.03 507420.11 127123.36 C 507817.07 127810.67 508025.33 128590.96 508025.43 129384.65 C 508025.56 130178.51 507817.09 130958.43 507420.11 131645.95 C 507023.21 132333.47 506451.64 132905.04 505764.13 133301.93 C 505076.62 133698.82 504296.67 133907.37 503502.84 133907.25 C 502709.14 133907.13 501928.86 133697.55 501241.54 133300.59 C 500554.24 132903.64 499983.64 132333.37 499586.9 131645.95 C 499190.15 130958.52 498981.44 130178.36 498981.57 129384.65 C 498981.67 128591.12 499191.56 127811.91 499588.23 127124.69 C 499985.05 126437.46 500555.66 125866.86 501242.87 125470.05 C 501930.1 125073.25 502709.3 124863.5 503502.84 124863.39 z M 286422.21 126347.37 C 287215.9 126347.24 287996.1 126555.94 288683.51 126952.69 C 289370.96 127349.44 289942.54 127920 290339.48 128607.33 C 290736.44 129294.64 290944.71 130074.91 290944.81 130868.63 C 290944.94 131662.49 290736.46 132442.4 290339.48 133129.93 C 289942.59 133817.45 289371.03 134389 288683.51 134785.9 C 287995.99 135182.79 287216.06 135391.35 286422.21 135391.23 C 285628.51 135391.11 284848.2 135181.53 284160.91 134784.57 C 283473.61 134387.61 282903.01 133817.35 282506.27 133129.93 C 282109.52 132442.49 281900.82 131662.34 281900.95 130868.63 C 281901.05 130075.07 282110.94 129295.89 282507.61 128608.67 C 282904.43 127921.44 283475.04 127350.84 284162.25 126954.03 C 284849.47 126557.22 285628.67 126347.48 286422.21 126347.37 z M 15057.099 127928.68 C 15850.646 127928.8 16629.848 128138.51 17317.064 128535.33 C 17320.386 128537.25 17321.747 128541.4 17325.064 128543.33 C 17351.252 128557.77 17385.799 128552.36 17411.729 128567.33 L 17413.063 128567.33 C 18100.279 128964.14 18670.894 129534.77 19067.703 130221.97 C 19464.511 130909.19 19672.913 131688.39 19673.027 132481.94 C 19673.146 133275.65 19464.454 134055.81 19067.703 134743.24 C 18670.953 135430.65 18100.369 136000.93 17413.063 136397.88 L 17413.063 136399.21 C 16725.754 136796.16 15945.467 137004.43 15151.764 137004.54 C 14357.909 137004.66 13577.984 136796.11 12890.466 136399.21 C 12886.593 136396.97 12885 136392.12 12881.133 136389.88 C 12854.943 136375.44 12821.731 136382.18 12795.801 136367.21 C 12108.285 135970.32 11536.715 135398.74 11139.827 134711.24 C 10742.928 134023.73 10534.383 133243.79 10534.503 132449.94 C 10534.613 131656.23 10742.878 130877.27 11139.827 130189.98 C 11536.785 129502.66 12108.365 128930.75 12795.801 128534 C 13483.228 128137.25 14263.394 127928.57 15057.099 127928.68 z " />
  <g
     type="op raster"
     speed="75.0"
     dpi="250"
     color="#000000"
     frequency="30.0"
     id="meerk40t:5"
     stopop="False"
     allowed_attributes="[]"
     output="True"
     power="1000"
     dwell_time="50.0"
     hex_color="#000000ff"
     raster_preference_top="False"
     bidirectional="False"
     passes="2"
     passes_custom="True"
     dangerous="False"
     use_grayscale="True"
     consider_laserspot="False"
     lock="False"
     references="path2291 path2811" />
  <g
     type="op cut"
     speed="15.0"
     color="#ff0000"
     frequency="30.0"
     id="meerk40t:13"
     dangerous="False"
     kerf="0.0"
     allowed_attributes="['stroke']"
     lock="False"
     power="1000"
     dwell_time="50.0"
     passes="3"
     passes_custom="True"
     output="True"
     hex_color="#ff0000ff"
     references="path2732 path336" />
</svg>
