<?xml version="1.0" encoding="UTF-8" standalone="no"?>
<!-- Created with Inkscape (http://www.inkscape.org/) -->

<svg
   width="210mm"
   height="297mm"
   viewBox="0 0 210 297"
   version="1.1"
   id="svg5"
   inkscape:version="1.2.2 (b0a8486541, 2022-12-01)"
   sodipodi:docname="sensor-plug-board.svg"
   xmlns:inkscape="http://www.inkscape.org/namespaces/inkscape"
   xmlns:sodipodi="http://sodipodi.sourceforge.net/DTD/sodipodi-0.dtd"
   xmlns="http://www.w3.org/2000/svg"
   xmlns:svg="http://www.w3.org/2000/svg">
  <sodipodi:namedview
     id="namedview7"
     pagecolor="#ffffff"
     bordercolor="#000000"
     borderopacity="0.25"
     inkscape:showpageshadow="2"
     inkscape:pageopacity="0.0"
     inkscape:pagecheckerboard="0"
     inkscape:deskcolor="#d1d1d1"
     inkscape:document-units="mm"
     showgrid="false"
     inkscape:zoom="1.5859436"
     inkscape:cx="182.54117"
     inkscape:cy="9.4580917"
     inkscape:window-width="1920"
     inkscape:window-height="1019"
     inkscape:window-x="0"
     inkscape:window-y="0"
     inkscape:window-maximized="1"
     inkscape:current-layer="layer1" />
  <defs
     id="defs2" />
  <g
     inkscape:label="Layer 1"
     inkscape:groupmode="layer"
     id="layer1">
    <path
       style="fill:none;stroke:#000000;stroke-width:0.0999995"
       d="M 0.05012614,0.05012614 V 34.950125 H 89.950125 V 0.05012614 Z"
       id="path234-4-3" />
    <g
       id="g6436"
       transform="translate(2.5001522)">
      <path
         id="path234"
         style="fill:none;stroke:#000000;stroke-width:0.0999997;stroke-dasharray:0.0999997, 0.299999;stroke-dashoffset:0"
         d="M 12.500298,13.16363 A 7.4499998,7.4499998 0 0 0 5.0506239,20.613304 7.4499998,7.4499998 0 0 0 12.500298,28.063496 7.4499998,7.4499998 0 0 0 19.95049,20.613304 7.4499998,7.4499998 0 0 0 12.500298,13.16363 Z" />
      <path
         style="fill:none;stroke:#000000;stroke-width:0.0999995"
         d="m 72.499967,16.093806 a 4.45004,4.5190019 0 0 1 4.449858,4.518816 4.45004,4.5190019 0 0 1 -4.449858,4.519342 4.45004,4.5190019 0 0 1 -4.449857,-4.519342 4.45004,4.5190019 0 0 1 4.449857,-4.518816 z"
         id="path6334" />
      <path
         style="fill:none;stroke:#000000;stroke-width:0.0999995"
         d="m 52.499638,16.093806 a 4.45004,4.5190019 0 0 1 4.450374,4.518816 4.45004,4.5190019 0 0 1 -4.450374,4.519342 4.45004,4.5190019 0 0 1 -4.449858,-4.519342 4.45004,4.5190019 0 0 1 4.449858,-4.518816 z"
         id="path6332" />
      <path
         style="fill:none;stroke:#000000;stroke-width:0.0999995"
         d="m 32.499825,16.093806 a 4.45004,4.5190019 0 0 1 4.449858,4.518816 4.45004,4.5190019 0 0 1 -4.449858,4.519342 4.45004,4.5190019 0 0 1 -4.449858,-4.519342 4.45004,4.5190019 0 0 1 4.449858,-4.518816 z"
         id="path6330" />
      <path
         style="fill:none;stroke:#000000;stroke-width:0.0999995"
         d="m 12.500012,16.093806 a 4.45004,4.5190019 0 0 1 4.449858,4.518816 4.45004,4.5190019 0 0 1 -4.449858,4.519342 4.45004,4.5190019 0 0 1 -4.4498574,-4.519342 4.45004,4.5190019 0 0 1 4.4498574,-4.518816 z"
         id="path6328" />
      <circle
         style="fill:none;stroke:#000000;stroke-width:0.0999997;stroke-dasharray:0.0999997, 0.299999;stroke-dashoffset:0"
         id="path234-3"
         cx="32.499146"
         cy="20.612349"
         r="7.4499998" />
      <circle
         style="fill:none;stroke:#000000;stroke-width:0.0999997;stroke-dasharray:0.0999997, 0.299999;stroke-dashoffset:0"
         id="path234-6"
         cx="52.499214"
         cy="20.612349"
         r="7.4499998" />
      <circle
         style="fill:none;stroke:#000000;stroke-width:0.0999997;stroke-dasharray:0.0999997, 0.299999;stroke-dashoffset:0"
         id="path234-7"
         cx="72.499283"
         cy="20.612349"
         r="7.4499998" />
      <text
         xml:space="preserve"
         style="font-size:4.23333px;font-family:'DejaVu Sans';-inkscape-font-specification:'DejaVu Sans, Normal';fill:#000000;fill-opacity:1;stroke:none;stroke-width:0.1;stroke-dasharray:0.0999998, 0.299998;stroke-dashoffset:0"
         x="9.0008965"
         y="10.02988"
         id="text6188"><tspan
           sodipodi:role="line"
           id="tspan6186"
           style="fill:#000000;fill-opacity:1;stroke:none;stroke-width:0.1"
           x="9.0008965"
           y="10.02988">AIR</tspan></text>
      <text
         xml:space="preserve"
         style="font-size:4.23333px;font-family:'DejaVu Sans';-inkscape-font-specification:'DejaVu Sans, Normal';fill:#000000;fill-opacity:1;stroke:none;stroke-width:0.1;stroke-dasharray:0.0999998, 0.299998;stroke-dashoffset:0"
         x="28.102894"
         y="10.02988"
         id="text6192"><tspan
           sodipodi:role="line"
           id="tspan6190"
           style="fill:#000000;fill-opacity:1;stroke:none;stroke-width:0.1"
           x="28.102894"
           y="10.02988">CO2</tspan></text>
      <text
         xml:space="preserve"
         style="font-size:4.23333px;font-family:'DejaVu Sans';-inkscape-font-specification:'DejaVu Sans, Normal';fill:#000000;fill-opacity:1;stroke:none;stroke-width:0.1;stroke-dasharray:0.0999998, 0.299998;stroke-dashoffset:0"
         x="46.885399"
         y="10.02988"
         id="text6192-1"><tspan
           sodipodi:role="line"
           id="tspan6190-0"
           style="fill:#000000;fill-opacity:1;stroke:none;stroke-width:0.1"
           x="46.885399"
           y="10.02988">AUX1</tspan></text>
      <text
         xml:space="preserve"
         style="font-size:4.23333px;font-family:'DejaVu Sans';-inkscape-font-specification:'DejaVu Sans, Normal';fill:#000000;fill-opacity:1;stroke:none;stroke-width:0.1;stroke-dasharray:0.0999998, 0.299998;stroke-dashoffset:0"
         x="66.901932"
         y="10.02988"
         id="text6192-6"><tspan
           sodipodi:role="line"
           id="tspan6190-3"
           style="fill:#000000;fill-opacity:1;stroke:none;stroke-width:0.1"
           x="66.901932"
           y="10.02988">AUX2</tspan></text>
    </g>
    <circle
       style="fill:#000000;fill-opacity:1;stroke:none;stroke-width:0.0999998;stroke-dasharray:0.0999998, 0.299998;stroke-dashoffset:0"
       id="path6255"
       cx="4.5"
       cy="31.5"
       r="1.5" />
    <circle
       style="fill:#000000;fill-opacity:1;stroke:none;stroke-width:0.0999998;stroke-dasharray:0.0999998, 0.299998;stroke-dashoffset:0"
       id="path6255-2"
       cx="85.5"
       cy="4.5"
       r="1.5" />
    <circle
       style="fill:#000000;fill-opacity:1;stroke:none;stroke-width:0.0999998;stroke-dasharray:0.0999998, 0.299998;stroke-dashoffset:0"
       id="path6255-0"
       cx="85.5"
       cy="31.5"
       r="1.5" />
    <circle
       style="fill:#000000;fill-opacity:1;stroke:none;stroke-width:0.0999998;stroke-dasharray:0.0999998, 0.299998;stroke-dashoffset:0"
       id="path6255-6"
       cx="4.5"
       cy="4.5"
       r="1.5" />
  </g>
</svg>
