<?xml version="1.0" encoding="UTF-8" standalone="no"?>
<svg
   version="1.1"
   width="65.000168mm"
   height="79.999771mm"
   viewBox="0 0 167708.06 206408.8"
   id="svg888"
   sodipodi:docname="cutouts.svg"
   inkscape:version="1.2.2 (b0a8486541, 2022-12-01)"
   xmlns:inkscape="http://www.inkscape.org/namespaces/inkscape"
   xmlns:sodipodi="http://sodipodi.sourceforge.net/DTD/sodipodi-0.dtd"
   xmlns="http://www.w3.org/2000/svg"
   xmlns:svg="http://www.w3.org/2000/svg">
  <defs
     id="defs892" />
  <sodipodi:namedview
     id="namedview890"
     pagecolor="#ffffff"
     bordercolor="#000000"
     borderopacity="0.25"
     inkscape:showpageshadow="2"
     inkscape:pageopacity="0.0"
     inkscape:pagecheckerboard="0"
     inkscape:deskcolor="#d1d1d1"
     inkscape:document-units="mm"
     showgrid="false"
     inkscape:zoom="1.1675667"
     inkscape:cx="1198.6467"
     inkscape:cy="654.35232"
     inkscape:window-width="1920"
     inkscape:window-height="1019"
     inkscape:window-x="0"
     inkscape:window-y="0"
     inkscape:window-maximized="1"
     inkscape:current-layer="svg888" />
  <path
     id="rect613"
     style="fill:#f1f3f5;stroke-width:516.025"
     d="M -0.04544441,-0.01748686 V 206408.77 H 167708.01 V -0.01748686 Z M 14190.395,67444.263 c 679.39,-0.1 1347.58,178.98 1935.97,518.66 588.38,339.68 1076.3,827.59 1415.98,1415.98 339.67,588.39 518.72,1256.57 518.66,1935.97 -0.17,679.26 -178.93,1346.46 -518.66,1934.64 -339.74,588.18 -829.01,1076.43 -1417.31,1415.98 -588.29,339.54 -1255.4,518.71 -1934.64,518.65 -679.25,0.1 -1346.33,-179.11 -1934.63,-518.65 -588.3,-339.55 -1077.57,-827.79 -1417.31,-1415.98 -339.75,-588.18 -518.5,-1255.38 -518.66,-1934.64 -0.1,-679.4 178.97,-1347.58 518.66,-1935.97 339.68,-588.39 828.92,-1076.3 1417.31,-1415.98 588.39,-339.68 1255.24,-518.73 1934.63,-518.66 z m 139325.835,0 c 679.4,-0.1 1347.58,178.98 1935.97,518.66 588.38,339.68 1076.29,827.59 1415.97,1415.98 339.67,588.39 518.72,1256.57 518.66,1935.97 -0.17,679.26 -178.93,1346.46 -518.66,1934.64 -339.74,588.18 -829.01,1076.43 -1417.31,1415.98 -588.29,339.54 -1255.38,518.71 -1934.63,518.65 -679.25,0.1 -1346.34,-179.11 -1934.64,-518.65 -588.3,-339.55 -1077.57,-827.79 -1417.31,-1415.98 -339.75,-588.18 -518.5,-1255.38 -518.66,-1934.64 -0.1,-679.4 178.97,-1347.58 518.66,-1935.97 339.68,-588.39 828.92,-1076.3 1417.31,-1415.98 588.39,-339.68 1255.25,-518.73 1934.64,-518.66 z M 14190.395,99334.433 c 679.39,-0.1 1347.58,178.97 1935.97,518.66 588.38,339.677 1076.3,827.577 1415.98,1415.977 339.67,588.39 518.72,1256.57 518.66,1935.97 0.1,679.39 -178.99,1346.24 -518.66,1934.64 -339.68,588.39 -827.6,1077.63 -1415.98,1417.31 -588.39,339.69 -1256.58,518.72 -1935.97,518.66 -679.4,0.1 -1346.24,-178.98 -1934.63,-518.66 -588.39,-339.68 -1077.63,-828.92 -1417.31,-1417.31 -339.69,-588.4 -518.73,-1255.25 -518.66,-1934.64 -0.1,-679.4 178.97,-1347.58 518.66,-1935.97 339.68,-588.4 828.92,-1076.3 1417.31,-1415.977 588.39,-339.68 1255.23,-518.72 1934.63,-518.66 z m 139325.835,0 c 679.4,-0.1 1347.58,178.97 1935.97,518.66 588.38,339.677 1076.29,827.577 1415.97,1415.977 339.67,588.39 518.72,1256.57 518.66,1935.97 0.1,679.4 -178.99,1346.24 -518.66,1934.64 -339.68,588.39 -827.59,1077.63 -1415.97,1417.31 -588.39,339.69 -1256.57,518.72 -1935.97,518.66 -679.4,0.1 -1346.25,-178.98 -1934.64,-518.66 -588.39,-339.68 -1077.63,-828.92 -1417.31,-1417.31 -339.69,-588.4 -518.73,-1255.24 -518.66,-1934.64 -0.1,-679.4 178.97,-1347.58 518.66,-1935.97 339.68,-588.4 828.92,-1076.3 1417.31,-1415.977 588.39,-339.68 1255.24,-518.72 1934.64,-518.66 z M 14190.395,131224.61 c 679.39,-0.1 1347.58,178.96 1935.97,518.65 588.38,339.68 1076.3,827.59 1415.98,1415.98 339.67,588.37 518.72,1256.57 518.66,1935.97 0.1,679.38 -178.99,1346.26 -518.66,1934.64 -339.68,588.35 -827.6,1077.61 -1415.98,1417.31 -588.39,339.68 -1256.58,518.72 -1935.97,518.66 -679.39,0.1 -1346.24,-178.98 -1934.63,-518.66 -588.39,-339.69 -1077.63,-828.95 -1417.31,-1417.31 -339.69,-588.38 -518.73,-1255.26 -518.66,-1934.64 -0.1,-679.4 178.97,-1347.6 518.66,-1935.97 339.68,-588.39 828.92,-1076.3 1417.31,-1415.98 588.39,-339.68 1255.23,-518.71 1934.63,-518.65 z m 139325.835,0 c 679.4,-0.1 1347.58,178.96 1935.97,518.65 588.38,339.68 1076.29,827.59 1415.97,1415.98 339.67,588.37 518.72,1256.57 518.66,1935.97 0.1,679.38 -178.99,1346.25 -518.66,1934.64 -339.68,588.35 -827.59,1077.61 -1415.97,1417.31 -588.39,339.68 -1256.57,518.72 -1935.97,518.66 -679.39,0.1 -1346.25,-178.98 -1934.64,-518.66 -588.39,-339.69 -1077.63,-828.95 -1417.31,-1417.31 -339.69,-588.39 -518.73,-1255.26 -518.66,-1934.64 -0.1,-679.4 178.97,-1347.6 518.66,-1935.97 339.68,-588.39 828.92,-1076.3 1417.31,-1415.98 588.39,-339.68 1255.24,-518.71 1934.64,-518.65 z"
     inkscape:export-filename="sensor-board.svg"
     inkscape:export-xdpi="96"
     inkscape:export-ydpi="96" />
  <g
     id="g1168"
     transform="translate(-543903.45,-290004.78)">
    <path
       id="path1136-0-6"
       style="stroke-width:1548.07"
       transform="rotate(90)"
       d="m 434482.69,-632776.25 a 1290.0648,1290.0648 0 0 1 -1290.06,1290.06 1290.0648,1290.0648 0 0 1 -1290.07,-1290.06 1290.0648,1290.0648 0 0 1 1290.07,-1290.06 1290.0648,1290.0648 0 0 1 1290.06,1290.06 z m -13990,0 a 1290.0648,1290.0648 0 0 1 -1290.06,1290.06 1290.0648,1290.0648 0 0 1 -1290.07,-1290.06 1290.0648,1290.0648 0 0 1 1290.07,-1290.06 1290.0648,1290.0648 0 0 1 1290.06,1290.06 z m -27979.94,0 a 1290.0648,1290.0648 0 0 1 -1290.06,1290.06 1290.0648,1290.0648 0 0 1 -1290.07,-1290.06 1290.0648,1290.0648 0 0 1 1290.07,-1290.06 1290.0648,1290.0648 0 0 1 1290.06,1290.06 z m 13990,0 a 1290.0648,1290.0648 0 0 1 -1290.06,1290.06 1290.0648,1290.0648 0 0 1 -1290.07,-1290.06 1290.0648,1290.0648 0 0 1 1290.07,-1290.06 1290.0648,1290.0648 0 0 1 1290.06,1290.06 z m -27979.94,0 a 1290.0618,1290.0618 0 0 1 -1290.06,1290.06 1290.0618,1290.0618 0 0 1 -1290.06,-1290.06 1290.0618,1290.0618 0 0 1 1290.06,-1290.06 1290.0618,1290.0618 0 0 1 1290.06,1290.06 z m 48964.88,0 a 1290.0618,1290.0618 0 0 1 -1290.06,1290.06 1290.0618,1290.0618 0 0 1 -1290.07,-1290.06 1290.0618,1290.0618 0 0 1 1290.07,-1290.06 1290.0618,1290.0618 0 0 1 1290.06,1290.06 z m -13989.94,0 a 1290.0618,1290.0618 0 0 1 -1290.06,1290.06 1290.0618,1290.0618 0 0 1 -1290.06,-1290.06 1290.0618,1290.0618 0 0 1 1290.06,-1290.06 1290.0618,1290.0618 0 0 1 1290.06,1290.06 z m -27979.94,0 a 1290.0618,1290.0618 0 0 1 -1290.06,1290.06 1290.0618,1290.0618 0 0 1 -1290.06,-1290.06 1290.0618,1290.0618 0 0 1 1290.06,-1290.06 1290.0618,1290.0618 0 0 1 1290.06,1290.06 z m 13989.94,0 a 1290.0618,1290.0618 0 0 1 -1290.06,1290.06 1290.0618,1290.0618 0 0 1 -1290.06,-1290.06 1290.0618,1290.0618 0 0 1 1290.06,-1290.06 1290.0618,1290.0618 0 0 1 1290.06,1290.06 z m -27979.94,0 a 1290.0587,1290.0587 0 0 1 -1290.06,1290.06 1290.0587,1290.0587 0 0 1 -1290.06,-1290.06 1290.0587,1290.0587 0 0 1 1290.06,-1290.06 1290.0587,1290.0587 0 0 1 1290.06,1290.06 z" />
    <g
       id="g1129">
      <text
         xml:space="preserve"
         style="font-size:14563.3px;font-family:'DejaVu Sans';-inkscape-font-specification:'DejaVu Sans, Normal';fill:#000000;fill-opacity:1;stroke:none;stroke-width:1548.07"
         x="601830.06"
         y="358616.12"
         id="text1619"><tspan
           sodipodi:role="line"
           id="tspan1617"
           style="fill:#000000;fill-opacity:1;stroke:none;stroke-width:1548.07"
           x="601830.06"
           y="358616.12">ADC </tspan></text>
      <rect
         style="fill:none;fill-opacity:1;stroke:#000000;stroke-width:1548.07;stroke-opacity:1"
         id="rect951"
         width="72243.289"
         height="46442.113"
         x="365593.56"
         y="-640780.62"
         ry="5179.3247"
         transform="rotate(90)" />
      <g
         id="g1103">
        <text
           xml:space="preserve"
           style="font-style:normal;font-variant:normal;font-weight:normal;font-stretch:normal;font-size:5461.25px;font-family:'DejaVu Sans';-inkscape-font-specification:'DejaVu Sans, Normal';font-variant-ligatures:normal;font-variant-caps:normal;font-variant-numeric:normal;font-variant-east-asian:normal;fill:#000000;fill-opacity:1;stroke:none;stroke-width:1548.07;stroke-opacity:1"
           x="646166.62"
           y="372228.38"
           id="text1367"><tspan
             sodipodi:role="line"
             id="tspan1365"
             style="font-style:normal;font-variant:normal;font-weight:normal;font-stretch:normal;font-size:5461.25px;font-family:'DejaVu Sans';-inkscape-font-specification:'DejaVu Sans, Normal';font-variant-ligatures:normal;font-variant-caps:normal;font-variant-numeric:normal;font-variant-east-asian:normal;stroke-width:1548.07"
             x="646166.62"
             y="372228.38">VDD</tspan></text>
        <text
           xml:space="preserve"
           style="font-style:normal;font-variant:normal;font-weight:normal;font-stretch:normal;font-size:5461.25px;font-family:'DejaVu Sans';-inkscape-font-specification:'DejaVu Sans, Normal';font-variant-ligatures:normal;font-variant-caps:normal;font-variant-numeric:normal;font-variant-east-asian:normal;fill:#000000;fill-opacity:1;stroke:none;stroke-width:1548.07;stroke-opacity:1"
           x="646166.62"
           y="379223.38"
           id="text1367-5"><tspan
             sodipodi:role="line"
             id="tspan1365-0"
             style="font-style:normal;font-variant:normal;font-weight:normal;font-stretch:normal;font-size:5461.25px;font-family:'DejaVu Sans';-inkscape-font-specification:'DejaVu Sans, Normal';font-variant-ligatures:normal;font-variant-caps:normal;font-variant-numeric:normal;font-variant-east-asian:normal;stroke-width:1548.07"
             x="646166.62"
             y="379223.38">GND</tspan></text>
        <text
           xml:space="preserve"
           style="font-style:normal;font-variant:normal;font-weight:normal;font-stretch:normal;font-size:5461.25px;font-family:'DejaVu Sans';-inkscape-font-specification:'DejaVu Sans, Normal';font-variant-ligatures:normal;font-variant-caps:normal;font-variant-numeric:normal;font-variant-east-asian:normal;fill:#000000;fill-opacity:1;stroke:none;stroke-width:1548.07;stroke-opacity:1"
           x="646166.62"
           y="386218.34"
           id="text1367-3"><tspan
             sodipodi:role="line"
             id="tspan1365-6"
             style="font-style:normal;font-variant:normal;font-weight:normal;font-stretch:normal;font-size:5461.25px;font-family:'DejaVu Sans';-inkscape-font-specification:'DejaVu Sans, Normal';font-variant-ligatures:normal;font-variant-caps:normal;font-variant-numeric:normal;font-variant-east-asian:normal;stroke-width:1548.07"
             x="646166.62"
             y="386218.34">SCL</tspan></text>
        <text
           xml:space="preserve"
           style="font-style:normal;font-variant:normal;font-weight:normal;font-stretch:normal;font-size:5461.25px;font-family:'DejaVu Sans';-inkscape-font-specification:'DejaVu Sans, Normal';font-variant-ligatures:normal;font-variant-caps:normal;font-variant-numeric:normal;font-variant-east-asian:normal;fill:#000000;fill-opacity:1;stroke:none;stroke-width:1548.07;stroke-opacity:1"
           x="646166.62"
           y="393213.34"
           id="text1367-1"><tspan
             sodipodi:role="line"
             id="tspan1365-06"
             style="font-style:normal;font-variant:normal;font-weight:normal;font-stretch:normal;font-size:5461.25px;font-family:'DejaVu Sans';-inkscape-font-specification:'DejaVu Sans, Normal';font-variant-ligatures:normal;font-variant-caps:normal;font-variant-numeric:normal;font-variant-east-asian:normal;stroke-width:1548.07"
             x="646166.62"
             y="393213.34">SDA</tspan></text>
        <text
           xml:space="preserve"
           style="font-style:normal;font-variant:normal;font-weight:normal;font-stretch:normal;font-size:5461.25px;font-family:'DejaVu Sans';-inkscape-font-specification:'DejaVu Sans, Normal';font-variant-ligatures:normal;font-variant-caps:normal;font-variant-numeric:normal;font-variant-east-asian:normal;fill:#000000;fill-opacity:1;stroke:none;stroke-width:1548.07;stroke-opacity:1"
           x="646166.62"
           y="400208.31"
           id="text1367-32"><tspan
             sodipodi:role="line"
             id="tspan1365-061"
             style="font-style:normal;font-variant:normal;font-weight:normal;font-stretch:normal;font-size:5461.25px;font-family:'DejaVu Sans';-inkscape-font-specification:'DejaVu Sans, Normal';font-variant-ligatures:normal;font-variant-caps:normal;font-variant-numeric:normal;font-variant-east-asian:normal;stroke-width:1548.07"
             x="646166.62"
             y="400208.31">ADDR</tspan></text>
        <text
           xml:space="preserve"
           style="font-style:normal;font-variant:normal;font-weight:normal;font-stretch:normal;font-size:5461.25px;font-family:'DejaVu Sans';-inkscape-font-specification:'DejaVu Sans, Normal';font-variant-ligatures:normal;font-variant-caps:normal;font-variant-numeric:normal;font-variant-east-asian:normal;fill:#000000;fill-opacity:1;stroke:none;stroke-width:1548.07;stroke-opacity:1"
           x="646166.62"
           y="407203.31"
           id="text1367-55"><tspan
             sodipodi:role="line"
             id="tspan1365-4"
             style="font-style:normal;font-variant:normal;font-weight:normal;font-stretch:normal;font-size:5461.25px;font-family:'DejaVu Sans';-inkscape-font-specification:'DejaVu Sans, Normal';font-variant-ligatures:normal;font-variant-caps:normal;font-variant-numeric:normal;font-variant-east-asian:normal;stroke-width:1548.07"
             x="646166.62"
             y="407203.31">ALRT</tspan></text>
        <text
           xml:space="preserve"
           style="font-style:normal;font-variant:normal;font-weight:normal;font-stretch:normal;font-size:5461.25px;font-family:'DejaVu Sans';-inkscape-font-specification:'DejaVu Sans, Normal';font-variant-ligatures:normal;font-variant-caps:normal;font-variant-numeric:normal;font-variant-east-asian:normal;fill:#000000;fill-opacity:1;stroke:none;stroke-width:1548.07;stroke-opacity:1"
           x="646166.62"
           y="414198.28"
           id="text1367-7"><tspan
             sodipodi:role="line"
             id="tspan1365-65"
             style="font-style:normal;font-variant:normal;font-weight:normal;font-stretch:normal;font-size:5461.25px;font-family:'DejaVu Sans';-inkscape-font-specification:'DejaVu Sans, Normal';font-variant-ligatures:normal;font-variant-caps:normal;font-variant-numeric:normal;font-variant-east-asian:normal;stroke-width:1548.07"
             x="646166.62"
             y="414198.28">A0</tspan></text>
        <text
           xml:space="preserve"
           style="font-style:normal;font-variant:normal;font-weight:normal;font-stretch:normal;font-size:5461.25px;font-family:'DejaVu Sans';-inkscape-font-specification:'DejaVu Sans, Normal';font-variant-ligatures:normal;font-variant-caps:normal;font-variant-numeric:normal;font-variant-east-asian:normal;fill:#000000;fill-opacity:1;stroke:none;stroke-width:1548.07;stroke-opacity:1"
           x="646166.62"
           y="421193.28"
           id="text1367-6"><tspan
             sodipodi:role="line"
             id="tspan1365-9"
             style="font-style:normal;font-variant:normal;font-weight:normal;font-stretch:normal;font-size:5461.25px;font-family:'DejaVu Sans';-inkscape-font-specification:'DejaVu Sans, Normal';font-variant-ligatures:normal;font-variant-caps:normal;font-variant-numeric:normal;font-variant-east-asian:normal;stroke-width:1548.07"
             x="646166.62"
             y="421193.28">A1</tspan></text>
        <text
           xml:space="preserve"
           style="font-style:normal;font-variant:normal;font-weight:normal;font-stretch:normal;font-size:5461.25px;font-family:'DejaVu Sans';-inkscape-font-specification:'DejaVu Sans, Normal';font-variant-ligatures:normal;font-variant-caps:normal;font-variant-numeric:normal;font-variant-east-asian:normal;fill:#000000;fill-opacity:1;stroke:none;stroke-width:1548.07;stroke-opacity:1"
           x="646166.62"
           y="428188.25"
           id="text1367-37"><tspan
             sodipodi:role="line"
             id="tspan1365-45"
             style="font-style:normal;font-variant:normal;font-weight:normal;font-stretch:normal;font-size:5461.25px;font-family:'DejaVu Sans';-inkscape-font-specification:'DejaVu Sans, Normal';font-variant-ligatures:normal;font-variant-caps:normal;font-variant-numeric:normal;font-variant-east-asian:normal;stroke-width:1548.07"
             x="646166.62"
             y="428188.25">A2</tspan></text>
        <text
           xml:space="preserve"
           style="font-style:normal;font-variant:normal;font-weight:normal;font-stretch:normal;font-size:5461.25px;font-family:'DejaVu Sans';-inkscape-font-specification:'DejaVu Sans, Normal';font-variant-ligatures:normal;font-variant-caps:normal;font-variant-numeric:normal;font-variant-east-asian:normal;fill:#000000;fill-opacity:1;stroke:none;stroke-width:1548.07;stroke-opacity:1"
           x="646166.62"
           y="435183.25"
           id="text1367-2"><tspan
             sodipodi:role="line"
             id="tspan1365-5"
             style="font-style:normal;font-variant:normal;font-weight:normal;font-stretch:normal;font-size:5461.25px;font-family:'DejaVu Sans';-inkscape-font-specification:'DejaVu Sans, Normal';font-variant-ligatures:normal;font-variant-caps:normal;font-variant-numeric:normal;font-variant-east-asian:normal;stroke-width:1548.07"
             x="646166.62"
             y="435183.25">A3</tspan></text>
      </g>
    </g>
  </g>
</svg>
