<?xml version="1.0" encoding="UTF-8" standalone="no"?>
<!-- Created with Inkscape (http://www.inkscape.org/) -->

<svg
   width="210mm"
   height="297mm"
   viewBox="0 0 210 297"
   version="1.1"
   id="svg5"
   xml:space="preserve"
   inkscape:version="1.2.2 (b0a8486541, 2022-12-01)"
   sodipodi:docname="sender-board.svg"
   xmlns:inkscape="http://www.inkscape.org/namespaces/inkscape"
   xmlns:sodipodi="http://sodipodi.sourceforge.net/DTD/sodipodi-0.dtd"
   xmlns="http://www.w3.org/2000/svg"
   xmlns:svg="http://www.w3.org/2000/svg"><sodipodi:namedview
     id="namedview7"
     pagecolor="#ffffff"
     bordercolor="#000000"
     borderopacity="0.25"
     inkscape:showpageshadow="2"
     inkscape:pageopacity="0.0"
     inkscape:pagecheckerboard="0"
     inkscape:deskcolor="#d1d1d1"
     inkscape:document-units="mm"
     showgrid="false"
     inkscape:zoom="2.1795515"
     inkscape:cx="217.47593"
     inkscape:cy="138.10181"
     inkscape:window-width="2560"
     inkscape:window-height="1368"
     inkscape:window-x="0"
     inkscape:window-y="0"
     inkscape:window-maximized="1"
     inkscape:current-layer="layer1"
     showguides="true" /><defs
     id="defs2" /><g
     inkscape:label="Layer 1"
     inkscape:groupmode="layer"
     id="layer1"><path
       id="path798"
       style="fill:none;stroke:#000000;stroke-width:0.1;stroke-dasharray:none;stroke-opacity:1;fill-opacity:1"
       d="M 0.89503581 0.050126139 C 0.42712394 0.050126139 0.050126139 0.3462032 0.050126139 0.71365153 L 0.050126139 52.448478 C 0.050126139 52.815927 0.42712394 53.112004 0.89503581 53.112004 L 54.105225 53.112004 C 54.573135 53.112004 54.950134 52.815927 54.950134 52.448478 L 54.950134 0.71365153 C 54.950134 0.3462032 54.573135 0.050126139 54.105225 0.050126139 L 0.89503581 0.050126139 z M 39.070483 10.422103 A 0.45521286 0.45800006 0 0 1 39.525753 10.880473 A 0.45521286 0.45800006 0 0 1 39.070483 11.338326 A 0.45521286 0.45800006 0 0 1 38.615214 10.880473 A 0.45521286 0.45800006 0 0 1 39.070483 10.422103 z M 16.029513 10.496517 A 0.45521286 0.45800006 0 0 1 16.484782 10.954887 A 0.45521286 0.45800006 0 0 1 16.029513 11.41274 A 0.45521286 0.45800006 0 0 1 15.57476 10.954887 A 0.45521286 0.45800006 0 0 1 16.029513 10.496517 z M 39.070483 12.962516 A 0.45521286 0.45800006 0 0 1 39.525753 13.420369 A 0.45521286 0.45800006 0 0 1 39.070483 13.878223 A 0.45521286 0.45800006 0 0 1 38.615214 13.420369 A 0.45521286 0.45800006 0 0 1 39.070483 12.962516 z M 16.029513 13.03693 A 0.45521286 0.45800006 0 0 1 16.484782 13.494784 A 0.45521286 0.45800006 0 0 1 16.029513 13.952637 A 0.45521286 0.45800006 0 0 1 15.57476 13.494784 A 0.45521286 0.45800006 0 0 1 16.029513 13.03693 z M 39.070483 15.502413 A 0.45521286 0.45800006 0 0 1 39.525753 15.960266 A 0.45521286 0.45800006 0 0 1 39.070483 16.418119 A 0.45521286 0.45800006 0 0 1 38.615214 15.960266 A 0.45521286 0.45800006 0 0 1 39.070483 15.502413 z M 16.029513 15.576827 A 0.45521286 0.45800006 0 0 1 16.484782 16.03468 A 0.45521286 0.45800006 0 0 1 16.029513 16.492533 A 0.45521286 0.45800006 0 0 1 15.57476 16.03468 A 0.45521286 0.45800006 0 0 1 16.029513 15.576827 z M 7.0502157 17.056323 C 7.3135354 17.056284 7.5725077 17.125693 7.8005575 17.257345 C 8.0285972 17.388995 8.2177113 17.578104 8.3493612 17.806148 C 8.48101 18.034197 8.5504025 18.293168 8.5503825 18.55649 C 8.5503125 18.819758 8.480982 19.078348 8.3493612 19.306315 C 8.2176913 19.534282 8.0280605 19.72352 7.8000407 19.855119 C 7.5720309 19.986718 7.3134754 20.056164 7.0502157 20.05614 C 6.7869459 20.056179 6.5284004 19.98672 6.3003906 19.855119 C 6.0723809 19.72352 5.882749 19.534286 5.7510701 19.306315 C 5.6193903 19.078348 5.5501088 18.819758 5.5500488 18.55649 C 5.5500088 18.293168 5.6194483 18.034197 5.7510701 17.806148 C 5.882719 17.578104 6.0723409 17.388995 6.3003906 17.257345 C 6.5284404 17.125691 6.7868959 17.056296 7.0502157 17.056323 z M 49.549947 17.056323 C 49.813267 17.056284 50.072239 17.125693 50.300289 17.257345 C 50.528329 17.388995 50.717443 17.578104 50.849093 17.806148 C 50.980741 18.034197 51.050134 18.293168 51.050114 18.55649 C 51.050044 18.819758 50.980713 19.078348 50.849093 19.306315 C 50.717423 19.534282 50.527792 19.72352 50.299772 19.855119 C 50.071762 19.986718 49.813207 20.056164 49.549947 20.05614 C 49.286677 20.056179 49.028132 19.98672 48.800122 19.855119 C 48.572112 19.72352 48.38248 19.534286 48.250802 19.306315 C 48.119122 19.078348 48.04984 18.819758 48.04978 18.55649 C 48.04974 18.293168 48.11918 18.034197 48.250802 17.806148 C 48.38245 17.578104 48.572072 17.388995 48.800122 17.257345 C 49.028172 17.125691 49.286627 17.056296 49.549947 17.056323 z M 39.070483 18.04231 A 0.45521286 0.45800006 0 0 1 39.525753 18.500163 A 0.45521286 0.45800006 0 0 1 39.070483 18.958533 A 0.45521286 0.45800006 0 0 1 38.615214 18.500163 A 0.45521286 0.45800006 0 0 1 39.070483 18.04231 z M 16.029513 18.116724 A 0.45521286 0.45800006 0 0 1 16.484782 18.574577 A 0.45521286 0.45800006 0 0 1 16.029513 19.032947 A 0.45521286 0.45800006 0 0 1 15.57476 18.574577 A 0.45521286 0.45800006 0 0 1 16.029513 18.116724 z M 17.348812 22.061702 A 1.7 1.7000002 0 0 1 19.048966 23.761857 A 1.7 1.7000002 0 0 1 17.348812 25.461495 A 1.7 1.7000002 0 0 1 15.648657 23.761857 A 1.7 1.7000002 0 0 1 17.348812 22.061702 z M 37.669019 22.061702 A 1.7 1.7 0 0 1 39.368656 23.761857 A 1.7 1.7 0 0 1 37.669019 25.461495 A 1.7 1.7 0 0 1 35.968864 23.761857 A 1.7 1.7 0 0 1 37.669019 22.061702 z M 7.0502157 29.105717 C 7.3135354 29.105678 7.5725077 29.175086 7.8005575 29.306738 C 8.0285972 29.438391 8.2177113 29.627493 8.3493612 29.855542 C 8.48101 30.08359 8.5504025 30.342563 8.5503825 30.605884 C 8.5504225 30.869206 8.480982 31.127658 8.3493612 31.355709 C 8.2177113 31.583758 8.0285972 31.773376 7.8005575 31.905029 C 7.5725077 32.036686 7.3135354 32.106074 7.0502157 32.106051 C 6.7868859 32.10609 6.5284404 32.03668 6.3003906 31.905029 C 6.0723409 31.773376 5.882719 31.583758 5.7510701 31.355709 C 5.6194103 31.127658 5.5500188 30.869206 5.5500488 30.605884 C 5.5500088 30.342563 5.6194483 30.08359 5.7510701 29.855542 C 5.882719 29.627493 6.0723409 29.438391 6.3003906 29.306738 C 6.5284404 29.175085 6.7868859 29.105693 7.0502157 29.105717 z M 49.549947 29.105717 C 49.813267 29.105678 50.072239 29.175086 50.300289 29.306738 C 50.528329 29.438391 50.717443 29.627493 50.849093 29.855542 C 50.980741 30.08359 51.050134 30.342563 51.050114 30.605884 C 51.050154 30.869206 50.980713 31.127658 50.849093 31.355709 C 50.717443 31.583758 50.528329 31.773376 50.300289 31.905029 C 50.072239 32.036686 49.813267 32.106074 49.549947 32.106051 C 49.286617 32.10609 49.028172 32.03668 48.800122 31.905029 C 48.572072 31.773376 48.38245 31.583758 48.250802 31.355709 C 48.119142 31.127658 48.04975 30.869206 48.04978 30.605884 C 48.04974 30.342563 48.11918 30.08359 48.250802 29.855542 C 48.38245 29.627493 48.572072 29.438391 48.800122 29.306738 C 49.028172 29.175085 49.286617 29.105693 49.549947 29.105717 z M 7.0502157 41.155627 C 7.3135354 41.155588 7.5725077 41.224987 7.8005575 41.356649 C 8.0285972 41.488302 8.2177113 41.677407 8.3493612 41.905452 C 8.48101 42.133491 8.5504025 42.392476 8.5503825 42.655794 C 8.5504225 42.919108 8.480982 43.177574 8.3493612 43.405619 C 8.2177113 43.633651 8.0285972 43.823279 7.8005575 43.95494 C 7.5725077 44.086593 7.3135354 44.155985 7.0502157 44.155961 C 6.7868959 44.156 6.5284404 44.086591 6.3003906 43.95494 C 6.0723409 43.823283 5.882719 43.633655 5.7510701 43.405619 C 5.6194103 43.177574 5.5500188 42.919108 5.5500488 42.655794 C 5.5500088 42.392476 5.6194483 42.133491 5.7510701 41.905452 C 5.882719 41.677407 6.0723409 41.488302 6.3003906 41.356649 C 6.5284404 41.224996 6.7868859 41.155603 7.0502157 41.155627 z M 49.549947 41.155627 C 49.813267 41.155588 50.072239 41.224987 50.300289 41.356649 C 50.528329 41.488302 50.717443 41.677407 50.849093 41.905452 C 50.980741 42.133491 51.050134 42.392476 51.050114 42.655794 C 51.050154 42.919108 50.980713 43.177574 50.849093 43.405619 C 50.717443 43.633651 50.528329 43.823279 50.300289 43.95494 C 50.072239 44.086593 49.813267 44.155985 49.549947 44.155961 C 49.286627 44.156 49.028172 44.086591 48.800122 43.95494 C 48.572072 43.823283 48.38245 43.633655 48.250802 43.405619 C 48.119142 43.177574 48.04975 42.919108 48.04978 42.655794 C 48.04974 42.392476 48.11918 42.133491 48.250802 41.905452 C 48.38245 41.677407 48.572072 41.488302 48.800122 41.356649 C 49.028172 41.224996 49.286617 41.155603 49.549947 41.155627 z M 17.338993 42.665613 A 1.7 1.7000002 0 0 1 19.039148 44.365767 A 1.7 1.7000002 0 0 1 17.338993 46.065405 A 1.7 1.7000002 0 0 1 15.638839 44.365767 A 1.7 1.7000002 0 0 1 17.338993 42.665613 z M 37.6592 42.665613 A 1.7 1.7 0 0 1 39.358838 44.365767 A 1.7 1.7 0 0 1 37.6592 46.065405 A 1.7 1.7 0 0 1 35.959045 44.365767 A 1.7 1.7 0 0 1 37.6592 42.665613 z M 22.387781 45.182772 A 0.45800006 0.45521286 0 0 1 22.845634 45.638041 A 0.45800006 0.45521286 0 0 1 22.387781 46.093311 A 0.45800006 0.45521286 0 0 1 21.929411 45.638041 A 0.45800006 0.45521286 0 0 1 22.387781 45.182772 z M 24.927677 45.182772 A 0.45800006 0.45521286 0 0 1 25.385531 45.638041 A 0.45800006 0.45521286 0 0 1 24.927677 46.093311 A 0.45800006 0.45521286 0 0 1 24.469824 45.638041 A 0.45800006 0.45521286 0 0 1 24.927677 45.182772 z M 27.467574 45.182772 A 0.45800006 0.45521286 0 0 1 27.925427 45.638041 A 0.45800006 0.45521286 0 0 1 27.467574 46.093311 A 0.45800006 0.45521286 0 0 1 27.009721 45.638041 A 0.45800006 0.45521286 0 0 1 27.467574 45.182772 z M 30.007471 45.182772 A 0.45800006 0.45521286 0 0 1 30.465841 45.638041 A 0.45800006 0.45521286 0 0 1 30.007471 46.093311 A 0.45800006 0.45521286 0 0 1 29.549618 45.638041 A 0.45800006 0.45521286 0 0 1 30.007471 45.182772 z M 32.547367 45.182772 A 0.45800006 0.45521286 0 0 1 33.005737 45.638041 A 0.45800006 0.45521286 0 0 1 32.547367 46.093311 A 0.45800006 0.45521286 0 0 1 32.089514 45.638041 A 0.45800006 0.45521286 0 0 1 32.547367 45.182772 z " /></g></svg>
