<?xml version="1.0" encoding="UTF-8" standalone="no"?>
<svg
   version="1.1"
   width="750.0mm"
   height="460.0mm"
   viewBox="0 0 1935088 1186854"
   id="svg9"
   sodipodi:docname="sender-board.svg"
   inkscape:version="1.2.2 (b0a8486541, 2022-12-01)"
   xmlns:inkscape="http://www.inkscape.org/namespaces/inkscape"
   xmlns:sodipodi="http://sodipodi.sourceforge.net/DTD/sodipodi-0.dtd"
   xmlns="http://www.w3.org/2000/svg"
   xmlns:svg="http://www.w3.org/2000/svg">
  <defs
     id="defs13" />
  <sodipodi:namedview
     id="namedview11"
     pagecolor="#ffffff"
     bordercolor="#000000"
     borderopacity="0.25"
     inkscape:showpageshadow="2"
     inkscape:pageopacity="0.0"
     inkscape:pagecheckerboard="0"
     inkscape:deskcolor="#d1d1d1"
     inkscape:document-units="mm"
     showgrid="false"
     inkscape:zoom="4.1607161"
     inkscape:cx="103.94845"
     inkscape:cy="100.46348"
     inkscape:window-width="1920"
     inkscape:window-height="1019"
     inkscape:window-x="0"
     inkscape:window-y="0"
     inkscape:window-maximized="1"
     inkscape:current-layer="svg9" />
  <g
     type="op image"
     label="Image ({percent}, {speed}mm/s)"
     speed="100.0"
     color="#00000000"
     frequency="30.0"
     stopop="True"
     allowed_attributes="[]"
     id="I1"
     power="300"
     hex_color="#00000000"
     output="True"
     dwell_time="50.0"
     raster_preference_top="False"
     dangerous="False"
     overrule_dpi="False"
     consider_laserspot="False"
     lock="False" />
  <g
     type="op raster"
     speed="150.0"
     dpi="500.0"
     color="black"
     frequency="30.0"
     stopop="False"
     allowed_attributes="[]"
     id="meerk40t:5"
     output="False"
     power="1000"
     dwell_time="50.0"
     hex_color="#000000ff"
     dangerous="False"
     use_grayscale="True"
     consider_laserspot="False"
     lock="False" />
  <g
     type="op engrave"
     speed="150.0"
     color="black"
     frequency="30.0"
     dangerous="False"
     allowed_attributes="[]"
     id="meerk40t:3"
     lock="False"
     dpi="500.0"
     stopop="False"
     output="True"
     power="1000"
     dwell_time="50.0"
     raster_preference_top="False"
     hex_color="#000000ff" />
  <g
     type="op cut"
     speed="15.0"
     color="red"
     frequency="30.0"
     dangerous="False"
     kerf="0.0"
     allowed_attributes="['stroke']"
     id="meerk40t:13"
     lock="False"
     power="1000"
     dwell_time="50.0"
     passes="3"
     passes_custom="True"
     output="True"
     hex_color="#ff0000ff"
     references="path798" />
  <g
     inkscape:label="Layer 1"
     label_display="False"
     id="g7">
    <path
       d="M 0.89503581,0.050126139 C 0.42712394,0.050126139 0.050126139,0.3462032 0.050126139,0.71365153 L 0.050126139,52.448478 C 0.050126139,52.815927 0.42712394,53.112004 0.89503581,53.112004 L 54.105225,53.112004 C 54.573135,53.112004 54.950134,52.815927 54.950134,52.448478 L 54.950134,0.71365153 C 54.950134,0.3462032 54.573135,0.050126139 54.105225,0.050126139 L 0.89503581,0.050126139 L 0.89503581,0.050126139 M 39.070483,10.422103 C 39.1504316183,10.4220928769 39.228989658,10.4432738436 39.2982197827,10.4835058205 C 39.3674499074,10.5237377974 39.4249392316,10.5816185748 39.4648791568,10.6513000026 C 39.504819082,10.7209814305 39.5258175775,10.8000348939 39.525753,10.880473 C 39.5257273484,10.9608526951 39.5046707791,11.0398268978 39.4647078037,11.1094274719 C 39.4247448283,11.1790280459 39.3672662493,11.2368327329 39.2980713928,11.2770093038 C 39.2288765363,11.3171858748 39.1503735408,11.3383360937 39.070483,11.338326 C 38.9905925722,11.3383359171 38.9120897299,11.3171855846 38.8428950298,11.2770089685 C 38.7737003297,11.2368323524 38.7162218978,11.1790276864 38.6762590296,11.1094271814 C 38.6362961614,11.0398266764 38.6152396515,10.9608525814 38.615214,10.880473 C 38.6151494226,10.8000350076 38.6361478586,10.720981652 38.6760876767,10.6513002932 C 38.7160274948,10.5816189345 38.7735166718,10.5237381781 38.8427466401,10.4835061561 C 38.9119766083,10.443274134 38.9905344947,10.4220930536 39.070483,10.422103 L 39.070483,10.422103 M 16.029513,10.496517 C 16.1094615053,10.4965070536 16.1880193917,10.517688134 16.2572493599,10.5579201561 C 16.3264793282,10.5981521781 16.3839685052,10.6560329345 16.4239083233,10.7257142932 C 16.4638481414,10.795395652 16.4848465774,10.8744490076 16.484782,10.954887 C 16.4847563485,11.0352665814 16.4636998386,11.1142406764 16.4237369704,11.1838411814 C 16.3837741022,11.2534416864 16.3262956703,11.3112463524 16.2571009702,11.3514229685 C 16.1879062701,11.3915995846 16.1094034278,11.4127499171 16.029513,11.41274 C 15.949680891,11.4126588632 15.8712571266,11.3914499303 15.8021430835,11.3512500506 C 15.7330290404,11.3110501709 15.6756265144,11.2532563383 15.6357189435,11.183691416 C 15.5958113726,11.1141264937 15.5747855927,11.0352079459 15.57476,10.954887 C 15.5746954296,10.8745076445 15.595663175,10.7955098678 15.6355477027,10.7258641238 C 15.6754322303,10.6562183797 15.732845479,10.5983484794 15.8019947584,10.5580931867 C 15.8711440378,10.5178378941 15.9496228149,10.4965981737 16.029513,10.496517 L 16.029513,10.496517 M 39.070483,12.962516 C 39.1503735408,12.9625059063 39.2288765363,12.9836561252 39.2980713928,13.0238326962 C 39.3672662493,13.0640092671 39.4247448283,13.1218139541 39.4647078037,13.1914145281 C 39.5046707791,13.2610151022 39.5257273484,13.3399893049 39.525753,13.420369 C 39.5257275228,13.5007488081 39.5046710658,13.5797231641 39.4647081349,13.6493238945 C 39.424745204,13.7189246249 39.3672666043,13.776729459 39.2980716796,13.8169061371 C 39.228876755,13.8570828153 39.1503736531,13.8782330937 39.070483,13.878223 C 38.9905924599,13.8782329171 38.9120895113,13.857082525 38.842894743,13.8169058018 C 38.7736999747,13.7767290785 38.7162215221,13.7189242654 38.6762586984,13.6493236041 C 38.6362958747,13.5797229427 38.6152394771,13.5007486944 38.615214,13.420369 C 38.6152396515,13.3399894186 38.6362961614,13.2610153236 38.6762590296,13.1914148186 C 38.7162218978,13.1218143136 38.7737003297,13.0640096476 38.8428950298,13.0238330315 C 38.9120897299,12.9836564154 38.9905925722,12.9625060829 39.070483,12.962516 L 39.070483,12.962516 M 16.029513,13.03693 C 16.1094035401,13.0369200829 16.1879064887,13.058070475 16.257101257,13.0982471982 C 16.3262960253,13.1384239215 16.3837744779,13.1962287346 16.4237373016,13.2658293959 C 16.4637001253,13.3354300573 16.4847565229,13.4144043056 16.484782,13.494784 C 16.4847563485,13.5751635814 16.4636998386,13.6541376764 16.4237369704,13.7237381814 C 16.3837741022,13.7933386864 16.3262956703,13.8511433524 16.2571009702,13.8913199685 C 16.1879062701,13.9314965846 16.1094034278,13.9526469171 16.029513,13.952637 C 15.949680891,13.9525558632 15.8712571266,13.9313469303 15.8021430835,13.8911470506 C 15.7330290404,13.8509471709 15.6756265144,13.7931533383 15.6357189435,13.723588416 C 15.5958113726,13.6540234937 15.5747855927,13.5751049459 15.57476,13.494784 C 15.5747854184,13.4144629411 15.5958110862,13.3355442401 15.6357186126,13.2659791615 C 15.6756261389,13.1964140829 15.7330286856,13.1386201033 15.8021427968,13.0984201164 C 15.871256908,13.0582201295 15.9496807787,13.037011137 16.029513,13.03693 L 16.029513,13.03693 M 39.070483,15.502413 C 39.1503735408,15.5024029063 39.2288765363,15.5235531252 39.2980713928,15.5637296962 C 39.3672662493,15.6039062671 39.4247448283,15.6617109541 39.4647078037,15.7313115281 C 39.5046707791,15.8009121022 39.5257273484,15.8798863049 39.525753,15.960266 C 39.5257273484,16.0406456951 39.5046707791,16.1196198978 39.4647078037,16.1892204719 C 39.4247448283,16.2588210459 39.3672662493,16.3166257329 39.2980713928,16.3568023038 C 39.2288765363,16.3969788748 39.1503735408,16.4181290937 39.070483,16.418119 C 38.9905925722,16.4181289171 38.9120897299,16.3969785846 38.8428950298,16.3568019685 C 38.7737003297,16.3166253524 38.7162218978,16.2588206864 38.6762590296,16.1892201814 C 38.6362961614,16.1196196764 38.6152396515,16.0406455814 38.615214,15.960266 C 38.6152396515,15.8798864186 38.6362961614,15.8009123236 38.6762590296,15.7313118186 C 38.7162218978,15.6617113136 38.7737003297,15.6039066476 38.8428950298,15.5637300315 C 38.9120897299,15.5235534154 38.9905925722,15.5024030829 39.070483,15.502413 L 39.070483,15.502413 M 16.029513,15.576827 C 16.1094034278,15.5768170829 16.1879062701,15.5979674154 16.2571009702,15.6381440315 C 16.3262956703,15.6783206476 16.3837741022,15.7361253136 16.4237369704,15.8057258186 C 16.4636998386,15.8753263236 16.4847563485,15.9543004186 16.484782,16.03468 C 16.4847563485,16.1150595814 16.4636998386,16.1940336764 16.4237369704,16.2636341814 C 16.3837741022,16.3332346864 16.3262956703,16.3910393524 16.2571009702,16.4312159685 C 16.1879062701,16.4713925846 16.1094034278,16.4925429171 16.029513,16.492533 C 15.949680891,16.4924518632 15.8712571266,16.4712429303 15.8021430835,16.4310430506 C 15.7330290404,16.3908431709 15.6756265144,16.3330493383 15.6357189435,16.263484416 C 15.5958113726,16.1939194937 15.5747855927,16.1150009459 15.57476,16.03468 C 15.5747855927,15.9543590541 15.5958113726,15.8754405063 15.6357189435,15.805875584 C 15.6756265144,15.7363106617 15.7330290404,15.6785168291 15.8021430835,15.6383169494 C 15.8712571266,15.5981170697 15.949680891,15.5769081368 16.029513,15.576827 L 16.029513,15.576827 M 7.0502157,17.056323 C 7.3135354,17.056284 7.5725077,17.125693 7.8005575,17.257345 C 8.0285972,17.388995 8.2177113,17.578104 8.3493612,17.806148 C 8.48101,18.034197 8.5504025,18.293168 8.5503825,18.55649 C 8.5503125,18.819758 8.480982,19.078348 8.3493612,19.306315 C 8.2176913,19.534282 8.0280605,19.72352 7.8000407,19.855119 C 7.5720309,19.986718 7.3134754,20.056164 7.0502157,20.05614 C 6.7869459,20.056179 6.5284004,19.98672 6.3003906,19.855119 C 6.0723809,19.72352 5.882749,19.534286 5.7510701,19.306315 C 5.6193903,19.078348 5.5501088,18.819758 5.5500488,18.55649 C 5.5500088,18.293168 5.6194483,18.034197 5.7510701,17.806148 C 5.882719,17.578104 6.0723409,17.388995 6.3003906,17.257345 C 6.5284404,17.125691 6.7868959,17.056296 7.0502157,17.056323 L 7.0502157,17.056323 M 49.549947,17.056323 C 49.813267,17.056284 50.072239,17.125693 50.300289,17.257345 C 50.528329,17.388995 50.717443,17.578104 50.849093,17.806148 C 50.980741,18.034197 51.050134,18.293168 51.050114,18.55649 C 51.050044,18.819758 50.980713,19.078348 50.849093,19.306315 C 50.717423,19.534282 50.527792,19.72352 50.299772,19.855119 C 50.071762,19.986718 49.813207,20.056164 49.549947,20.05614 C 49.286677,20.056179 49.028132,19.98672 48.800122,19.855119 C 48.572112,19.72352 48.38248,19.534286 48.250802,19.306315 C 48.119122,19.078348 48.04984,18.819758 48.04978,18.55649 C 48.04974,18.293168 48.11918,18.034197 48.250802,17.806148 C 48.38245,17.578104 48.572072,17.388995 48.800122,17.257345 C 49.028172,17.125691 49.286627,17.056296 49.549947,17.056323 L 49.549947,17.056323 M 39.070483,18.04231 C 39.1503735408,18.0422999063 39.2288765363,18.0634501252 39.2980713928,18.1036266962 C 39.3672662493,18.1438032671 39.4247448283,18.2016079541 39.4647078037,18.2712085281 C 39.5046707791,18.3408091022 39.5257273484,18.4197833049 39.525753,18.500163 C 39.5258175775,18.5806011061 39.504819082,18.6596545695 39.4648791568,18.7293359974 C 39.4249392316,18.7990174252 39.3674499074,18.8568982026 39.2982197827,18.8971301795 C 39.228989658,18.9373621564 39.1504316183,18.9585431231 39.070483,18.958533 C 38.9905344947,18.9585429464 38.9119766083,18.937361866 38.8427466401,18.8971298439 C 38.7735166718,18.8568978219 38.7160274948,18.7990170655 38.6760876767,18.7293357068 C 38.6361478586,18.659654348 38.6151494226,18.5806009924 38.615214,18.500163 C 38.6152396515,18.4197834186 38.6362961614,18.3408093236 38.6762590296,18.2712088186 C 38.7162218978,18.2016083136 38.7737003297,18.1438036476 38.8428950298,18.1036270315 C 38.9120897299,18.0634504154 38.9905925722,18.0423000829 39.070483,18.04231 L 39.070483,18.04231 M 16.029513,18.116724 C 16.1094034278,18.1167140829 16.1879062701,18.1378644154 16.2571009702,18.1780410315 C 16.3262956703,18.2182176476 16.3837741022,18.2760223136 16.4237369704,18.3456228186 C 16.4636998386,18.4152233236 16.4847563485,18.4941974186 16.484782,18.574577 C 16.4848465774,18.6550149924 16.4638481414,18.734068348 16.4239083233,18.8037497068 C 16.3839685052,18.8734310655 16.3264793282,18.9313118219 16.2572493599,18.9715438439 C 16.1880193917,19.011775866 16.1094615053,19.0329569464 16.029513,19.032947 C 15.9496228149,19.0328658263 15.8711440378,19.0116261059 15.8019947584,18.9713708133 C 15.732845479,18.9311155206 15.6754322303,18.8732456203 15.6355477027,18.8035998762 C 15.595663175,18.7339541322 15.5746954296,18.6549563555 15.57476,18.574577 C 15.5747855927,18.4942560541 15.5958113726,18.4153375063 15.6357189435,18.345772584 C 15.6756265144,18.2762076617 15.7330290404,18.2184138291 15.8021430835,18.1782139494 C 15.8712571266,18.1380140697 15.949680891,18.1168051368 16.029513,18.116724 L 16.029513,18.116724 M 17.348812,22.061702 C 17.647237005,22.061674965 17.9404736608,22.1402285427 18.1989217796,22.2894332995 C 18.4573698984,22.4386380563 18.6720305097,22.6532987938 18.8212351273,22.9117470133 C 18.9704397449,23.1701952327 19.0489931755,23.4634319599 19.048966,23.761857 C 19.0489024316,24.0602236196 18.9702905982,24.3533810948 18.8210627991,24.6117484737 C 18.671835,24.8701158527 18.4571851929,25.0847005131 18.1987725409,25.2338498656 C 17.9403598889,25.3829992181 17.6471785901,25.4615220353 17.348812,25.461495 C 17.0504452969,25.4615222108 16.7572638448,25.3829995066 16.4988510365,25.2338501989 C 16.2404382281,25.0847008913 16.0257882739,24.8701162099 15.8765603676,24.6117487624 C 15.7273324613,24.3533813149 15.6487205684,24.0602237326 15.648657,23.761857 C 15.6486298245,23.4634318469 15.7271833146,23.1701950126 15.8763880394,22.9117467245 C 16.0255927641,22.6532984365 16.2402535226,22.4386376781 16.4987017978,22.2894329661 C 16.7571500729,22.1402282542 17.050386882,22.0616747894 17.348812,22.061702 L 17.348812,22.061702 M 37.669019,22.061702 C 37.9673856071,22.0617657088 38.2605430322,22.1403776921 38.5189103243,22.2896056342 C 38.7772776163,22.4388335763 38.9918621547,22.6534835139 39.1410113591,22.9118962673 C 39.2901605634,23.1703090208 39.3686832108,23.4634903873 39.368656,23.761857 C 39.3685924847,24.0601651926 39.2900114451,24.3532673155 39.1408390611,24.6115992371 C 38.9916666772,24.8699311587 38.7770929369,25.0845050252 38.5187611031,25.2336775612 C 38.2604292693,25.3828500971 37.9673271926,25.4614313092 37.669019,25.461495 C 37.3706522743,25.4615222108 37.0774708008,25.3829995039 36.8190579787,25.2338501924 C 36.5606451567,25.0847008809 36.3459951983,24.8701161953 36.196767301,24.6117487469 C 36.0475394037,24.3533812985 35.9689275333,24.0602237201 35.968864,23.761857 C 35.9688367894,23.4634318594 36.0473902569,23.1701950289 36.1965949727,22.91174674 C 36.3457996885,22.6532984511 36.5604604511,22.4386376885 36.81890874,22.2894329727 C 37.0773570289,22.1402282569 37.3705938594,22.0616747894 37.669019,22.061702 L 37.669019,22.061702 M 7.0502157,29.105717 C 7.3135354,29.105678 7.5725077,29.175086 7.8005575,29.306738 C 8.0285972,29.438391 8.2177113,29.627493 8.3493612,29.855542 C 8.48101,30.08359 8.5504025,30.342563 8.5503825,30.605884 C 8.5504225,30.869206 8.480982,31.127658 8.3493612,31.355709 C 8.2177113,31.583758 8.0285972,31.773376 7.8005575,31.905029 C 7.5725077,32.036686 7.3135354,32.106074 7.0502157,32.106051 C 6.7868859,32.10609 6.5284404,32.03668 6.3003906,31.905029 C 6.0723409,31.773376 5.882719,31.583758 5.7510701,31.355709 C 5.6194103,31.127658 5.5500188,30.869206 5.5500488,30.605884 C 5.5500088,30.342563 5.6194483,30.08359 5.7510701,29.855542 C 5.882719,29.627493 6.0723409,29.438391 6.3003906,29.306738 C 6.5284404,29.175085 6.7868859,29.105693 7.0502157,29.105717 L 7.0502157,29.105717 M 49.549947,29.105717 C 49.813267,29.105678 50.072239,29.175086 50.300289,29.306738 C 50.528329,29.438391 50.717443,29.627493 50.849093,29.855542 C 50.980741,30.08359 51.050134,30.342563 51.050114,30.605884 C 51.050154,30.869206 50.980713,31.127658 50.849093,31.355709 C 50.717443,31.583758 50.528329,31.773376 50.300289,31.905029 C 50.072239,32.036686 49.813267,32.106074 49.549947,32.106051 C 49.286617,32.10609 49.028172,32.03668 48.800122,31.905029 C 48.572072,31.773376 48.38245,31.583758 48.250802,31.355709 C 48.119142,31.127658 48.04975,30.869206 48.04978,30.605884 C 48.04974,30.342563 48.11918,30.08359 48.250802,29.855542 C 48.38245,29.627493 48.572072,29.438391 48.800122,29.306738 C 49.028172,29.175085 49.286617,29.105693 49.549947,29.105717 L 49.549947,29.105717 M 7.0502157,41.155627 C 7.3135354,41.155588 7.5725077,41.224987 7.8005575,41.356649 C 8.0285972,41.488302 8.2177113,41.677407 8.3493612,41.905452 C 8.48101,42.133491 8.5504025,42.392476 8.5503825,42.655794 C 8.5504225,42.919108 8.480982,43.177574 8.3493612,43.405619 C 8.2177113,43.633651 8.0285972,43.823279 7.8005575,43.95494 C 7.5725077,44.086593 7.3135354,44.155985 7.0502157,44.155961 C 6.7868959,44.156 6.5284404,44.086591 6.3003906,43.95494 C 6.0723409,43.823283 5.882719,43.633655 5.7510701,43.405619 C 5.6194103,43.177574 5.5500188,42.919108 5.5500488,42.655794 C 5.5500088,42.392476 5.6194483,42.133491 5.7510701,41.905452 C 5.882719,41.677407 6.0723409,41.488302 6.3003906,41.356649 C 6.5284404,41.224996 6.7868859,41.155603 7.0502157,41.155627 L 7.0502157,41.155627 M 49.549947,41.155627 C 49.813267,41.155588 50.072239,41.224987 50.300289,41.356649 C 50.528329,41.488302 50.717443,41.677407 50.849093,41.905452 C 50.980741,42.133491 51.050134,42.392476 51.050114,42.655794 C 51.050154,42.919108 50.980713,43.177574 50.849093,43.405619 C 50.717443,43.633651 50.528329,43.823279 50.300289,43.95494 C 50.072239,44.086593 49.813267,44.155985 49.549947,44.155961 C 49.286627,44.156 49.028172,44.086591 48.800122,43.95494 C 48.572072,43.823283 48.38245,43.633655 48.250802,43.405619 C 48.119142,43.177574 48.04975,42.919108 48.04978,42.655794 C 48.04974,42.392476 48.11918,42.133491 48.250802,41.905452 C 48.38245,41.677407 48.572072,41.488302 48.800122,41.356649 C 49.028172,41.224996 49.286617,41.155603 49.549947,41.155627 L 49.549947,41.155627 M 17.338993,42.665613 C 17.637418005,42.6655857894 17.930654707,42.7441391947 18.1891029135,42.8933437995 C 18.4475511201,43.0425484043 18.6622118576,43.2572090155 18.8114166273,43.5156571472 C 18.9606213969,43.7741052789 19.0391749999,44.0673419599 19.039148,44.365767 C 19.0390844316,44.6641337326 18.9604725387,44.9572913149 18.8112446324,45.2156587624 C 18.6620167261,45.4740262099 18.4473667719,45.6886108913 18.1889539635,45.8377601989 C 17.9305411552,45.9869095066 17.6373597031,46.0654322108 17.338993,46.065405 C 17.0406264099,46.0654320353 16.7474451111,45.9869092181 16.4890324591,45.8377598656 C 16.2306198071,45.6886105131 16.01597,45.4740258527 15.8667422009,45.2156584737 C 15.7175144018,44.9572910948 15.6389025684,44.6641336196 15.638839,44.365767 C 15.6388120001,44.0673420729 15.7173655437,43.774105499 15.8665702061,43.5156574359 C 16.0157748686,43.2572093729 16.230435459,43.0425487825 16.4888835091,42.8933441329 C 16.7473315593,42.7441394833 17.040568108,42.665585965 17.338993,42.665613 L 17.338993,42.665613 M 37.6592,42.665613 C 37.9575666071,42.6656765333 38.2507240784,42.7442883442 38.5090914582,42.8935161343 C 38.767458838,43.0427439244 38.9820435027,43.2573937357 39.1311928591,43.5158064014 C 39.2803422154,43.7742190671 39.3588650353,44.0674003873 39.358838,44.365767 C 39.3587744846,44.6640753056 39.2801933855,44.9571775355 39.1310208943,45.2155095257 C 38.9818484032,45.4738415158 38.7672745158,45.6884154032 38.5089425257,45.8375878943 C 38.2506105355,45.9867603855 37.9575083056,46.0653414846 37.6592,46.065405 C 37.3608332743,46.0654322108 37.0676518008,45.9869095039 36.8092389787,45.8377601924 C 36.5508261567,45.6886108809 36.3361761983,45.4740261953 36.186948301,45.2156587469 C 36.0377204037,44.9572912985 35.9591085333,44.6641337201 35.959045,44.365767 C 35.959017965,44.0673419724 36.0375715454,43.7741052952 36.1867763061,43.5156571627 C 36.3359810667,43.2572090301 36.5506418084,43.0425484147 36.8090900287,42.893343806 C 37.067538249,42.7441391974 37.3607749724,42.6655857894 37.6592,42.665613 L 37.6592,42.665613 M 22.387781,45.182772 C 22.4681605814,45.1827976515 22.5471346764,45.2038541614 22.6167351814,45.2438170296 C 22.6863356864,45.2837798978 22.7441403524,45.3412583297 22.7843169685,45.4104530298 C 22.8244935846,45.4796477299 22.8456439171,45.5581505722 22.845634,45.638041 C 22.8456440937,45.7179315408 22.8244938748,45.7964345363 22.7843173038,45.8656293928 C 22.7441407329,45.9348242493 22.6863360459,45.9923028283 22.6167354719,46.0322658037 C 22.5471348978,46.0722287791 22.4681606951,46.0932853484 22.387781,46.093311 C 22.3073428939,46.0933755775 22.2282894305,46.072377082 22.1586080026,46.0324371568 C 22.0889265748,45.9924972316 22.0310457974,45.9350079074 21.9908138205,45.8657777827 C 21.9505818436,45.796547658 21.9294008769,45.7179896183 21.929411,45.638041 C 21.9294010536,45.5580924947 21.950582134,45.4795346083 21.9908141561,45.4103046401 C 22.0310461781,45.3410746718 22.0889269345,45.2835854948 22.1586082932,45.2436456767 C 22.228289652,45.2037058586 22.3073430076,45.1827074226 22.387781,45.182772 L 22.387781,45.182772 M 24.927677,45.182772 C 25.0080566944,45.1827974771 25.0870309427,45.2038538747 25.1566316041,45.2438166984 C 25.2262322654,45.2837795221 25.2840370785,45.3412579747 25.3242138018,45.410452743 C 25.364390525,45.4796475113 25.3855409171,45.5581504599 25.385531,45.638041 C 25.3855410937,45.7179316531 25.3643908153,45.796434755 25.3242141371,45.8656296796 C 25.284037459,45.9348246043 25.2262326249,45.992303204 25.1566318945,46.0322661349 C 25.0870311641,46.0722290658 25.0080568081,46.0932855228 24.927677,46.093311 C 24.8472973049,46.0932853484 24.7683231022,46.0722287791 24.6987225281,46.0322658037 C 24.6291219541,45.9923028283 24.5713172671,45.9348242493 24.5311406962,45.8656293928 C 24.4909641252,45.7964345363 24.4698139063,45.7179315408 24.469824,45.638041 C 24.4698140829,45.5581505722 24.4909644154,45.4796477299 24.5311410315,45.4104530298 C 24.5713176476,45.3412583297 24.6291223136,45.2837798978 24.6987228186,45.2438170296 C 24.7683233236,45.2038541614 24.8472974186,45.1827976515 24.927677,45.182772 L 24.927677,45.182772 M 27.467574,45.182772 C 27.5479535814,45.1827976515 27.6269276764,45.2038541614 27.6965281814,45.2438170296 C 27.7661286864,45.2837798978 27.8239333524,45.3412583297 27.8641099685,45.4104530298 C 27.9042865846,45.4796477299 27.9254369171,45.5581505722 27.925427,45.638041 C 27.9254370937,45.7179315408 27.9042868748,45.7964345363 27.8641103038,45.8656293928 C 27.8239337329,45.9348242493 27.7661290459,45.9923028283 27.6965284719,46.0322658037 C 27.6269278978,46.0722287791 27.5479536951,46.0932853484 27.467574,46.093311 C 27.3871943049,46.0932853484 27.3082201022,46.0722287791 27.2386195281,46.0322658037 C 27.1690189541,45.9923028283 27.1112142671,45.9348242493 27.0710376962,45.8656293928 C 27.0308611252,45.7964345363 27.0097109063,45.7179315408 27.009721,45.638041 C 27.0097110829,45.5581505722 27.0308614154,45.4796477299 27.0710380315,45.4104530298 C 27.1112146476,45.3412583297 27.1690193136,45.2837798978 27.2386198186,45.2438170296 C 27.3082203236,45.2038541614 27.3871944186,45.1827976515 27.467574,45.182772 L 27.467574,45.182772 M 30.007471,45.182772 C 30.0879089924,45.1827074226 30.166962348,45.2037058586 30.2366437068,45.2436456767 C 30.3063250655,45.2835854948 30.3642058219,45.3410746718 30.4044378439,45.4103046401 C 30.444669866,45.4795346083 30.4658509464,45.5580924947 30.465841,45.638041 C 30.4658511231,45.7179896183 30.4446701564,45.796547658 30.4044381795,45.8657777827 C 30.3642062026,45.9350079074 30.3063254252,45.9924972316 30.2366439974,46.0324371568 C 30.1669625695,46.072377082 30.0879091061,46.0933755775 30.007471,46.093311 C 29.9270913049,46.0932853484 29.8481171022,46.0722287791 29.7785165281,46.0322658037 C 29.7089159541,45.9923028283 29.6511112671,45.9348242493 29.6109346962,45.8656293928 C 29.5707581252,45.7964345363 29.5496079063,45.7179315408 29.549618,45.638041 C 29.5496080829,45.5581505722 29.5707584154,45.4796477299 29.6109350315,45.4104530298 C 29.6511116476,45.3412583297 29.7089163136,45.2837798978 29.7785168186,45.2438170296 C 29.8481173236,45.2038541614 29.9270914186,45.1827976515 30.007471,45.182772 L 30.007471,45.182772 M 32.547367,45.182772 C 32.6278049924,45.1827074226 32.706858348,45.2037058586 32.7765397068,45.2436456767 C 32.8462210655,45.2835854948 32.9041018219,45.3410746718 32.9443338439,45.4103046401 C 32.984565866,45.4795346083 33.0057469464,45.5580924947 33.005737,45.638041 C 33.0057471231,45.7179896183 32.9845661564,45.796547658 32.9443341795,45.8657777827 C 32.9041022026,45.9350079074 32.8462214252,45.9924972316 32.7765399974,46.0324371568 C 32.7068585695,46.072377082 32.6278051061,46.0933755775 32.547367,46.093311 C 32.4669873049,46.0932853484 32.3880131022,46.0722287791 32.3184125281,46.0322658037 C 32.2488119541,45.9923028283 32.1910072671,45.9348242493 32.1508306962,45.8656293928 C 32.1106541252,45.7964345363 32.0895039063,45.7179315408 32.089514,45.638041 C 32.0895040829,45.5581505722 32.1106544154,45.4796477299 32.1508310315,45.4104530298 C 32.1910076476,45.3412583297 32.2488123136,45.2837798978 32.3184128186,45.2438170296 C 32.3880133236,45.2038541614 32.4669874186,45.1827976515 32.547367,45.182772 L 32.547367,45.182772"
       transform="matrix(2580.1195035, 0.0, 0.0, 2580.1195035, 0.0, 0.0)"
       stroke_scale="True"
       mktablength="5160.23622047244"
       mktabpositions=""
       type="elem path"
       id="path798"
       lock="False"
       hidden="False"
       label_display="False"
       stroke-linecap="butt"
       stroke-linejoin="miter"
       fill-rule="nonzero"
       stroke="#000000"
       stroke-width="0.1"
       fill="none"
       bounds="129.331428869052, 129.331428869052, 141777.9124533385, 137035.31739037"
       paint_bounds="0.325453694051987, 0.325453694051987, 141906.9184285135, 137164.32336554502" />
  </g>
  <text
     xml:space="preserve"
     style="font-size:5461.25px;font-family:'DejaVu Sans';-inkscape-font-specification:'DejaVu Sans, Normal';fill:#000000;fill-opacity:1;stroke:none;stroke-width:258.012"
     x="-107161.13"
     y="114710.78"
     id="text296"
     transform="rotate(-90)"><tspan
       sodipodi:role="line"
       id="tspan294"
       style="fill:#000000;fill-opacity:1;stroke:none;stroke-width:258.012"
       x="-107161.13"
       y="114710.78">QWIIC Sender</tspan></text>
</svg>
