<?xml version="1.0" encoding="UTF-8" standalone="no"?>
<!-- Created with Inkscape (http://www.inkscape.org/) -->

<svg
   width="210mm"
   height="297mm"
   viewBox="0 0 210 297"
   version="1.1"
   id="svg5"
   xml:space="preserve"
   inkscape:version="1.2.2 (b0a8486541, 2022-12-01)"
   sodipodi:docname="sender-board.svg"
   xmlns:inkscape="http://www.inkscape.org/namespaces/inkscape"
   xmlns:sodipodi="http://sodipodi.sourceforge.net/DTD/sodipodi-0.dtd"
   xmlns="http://www.w3.org/2000/svg"
   xmlns:svg="http://www.w3.org/2000/svg"><sodipodi:namedview
     id="namedview7"
     pagecolor="#ffffff"
     bordercolor="#000000"
     borderopacity="0.25"
     inkscape:showpageshadow="2"
     inkscape:pageopacity="0.0"
     inkscape:pagecheckerboard="0"
     inkscape:deskcolor="#d1d1d1"
     inkscape:document-units="mm"
     showgrid="false"
     inkscape:zoom="3.0823513"
     inkscape:cx="203.09171"
     inkscape:cy="140.15275"
     inkscape:window-width="2560"
     inkscape:window-height="1368"
     inkscape:window-x="0"
     inkscape:window-y="0"
     inkscape:window-maximized="1"
     inkscape:current-layer="layer1"
     showguides="true" /><defs
     id="defs2" /><g
     inkscape:label="Layer 1"
     inkscape:groupmode="layer"
     id="layer1"><path
       id="path798"
       style="fill:none;stroke:#000000;stroke-width:0.1;stroke-dasharray:none;stroke-opacity:1;fill-opacity:1"
       d="M 0.89503581 0.050126139 C 0.42712347 0.050126139 0.050126139 0.34620283 0.050126139 0.71365153 L 0.050126139 52.448478 C 0.050126139 52.815927 0.42712347 53.112004 0.89503581 53.112004 L 54.105225 53.112004 C 54.573136 53.112004 54.950134 52.815927 54.950134 52.448478 L 54.950134 0.71365153 C 54.950134 0.34620283 54.573136 0.050126139 54.105225 0.050126139 L 0.89503581 0.050126139 z M 39.070483 4.3992147 A 0.45521286 0.45800006 0 0 1 39.525753 4.8575846 A 0.45521286 0.45800006 0 0 1 39.070483 5.3154378 A 0.45521286 0.45800006 0 0 1 38.615214 4.8575846 A 0.45521286 0.45800006 0 0 1 39.070483 4.3992147 z M 16.029513 4.4736287 A 0.45521286 0.45800006 0 0 1 16.484782 4.9319987 A 0.45521286 0.45800006 0 0 1 16.029513 5.3898519 A 0.45521286 0.45800006 0 0 1 15.57476 4.9319987 A 0.45521286 0.45800006 0 0 1 16.029513 4.4736287 z M 39.070483 6.9396281 A 0.45521286 0.45800006 0 0 1 39.525753 7.3974813 A 0.45521286 0.45800006 0 0 1 39.070483 7.8553345 A 0.45521286 0.45800006 0 0 1 38.615214 7.3974813 A 0.45521286 0.45800006 0 0 1 39.070483 6.9396281 z M 16.029513 7.0140422 A 0.45521286 0.45800006 0 0 1 16.484782 7.4718953 A 0.45521286 0.45800006 0 0 1 16.029513 7.9297485 A 0.45521286 0.45800006 0 0 1 15.57476 7.4718953 A 0.45521286 0.45800006 0 0 1 16.029513 7.0140422 z M 39.070483 9.4795247 A 0.45521286 0.45800006 0 0 1 39.525753 9.9373779 A 0.45521286 0.45800006 0 0 1 39.070483 10.395231 A 0.45521286 0.45800006 0 0 1 38.615214 9.9373779 A 0.45521286 0.45800006 0 0 1 39.070483 9.4795247 z M 16.029513 9.5539388 A 0.45521286 0.45800006 0 0 1 16.484782 10.011792 A 0.45521286 0.45800006 0 0 1 16.029513 10.469645 A 0.45521286 0.45800006 0 0 1 15.57476 10.011792 A 0.45521286 0.45800006 0 0 1 16.029513 9.5539388 z M 39.070483 12.019421 A 0.45521286 0.45800006 0 0 1 39.525753 12.477275 A 0.45521286 0.45800006 0 0 1 39.070483 12.935645 A 0.45521286 0.45800006 0 0 1 38.615214 12.477275 A 0.45521286 0.45800006 0 0 1 39.070483 12.019421 z M 16.029513 12.093835 A 0.45521286 0.45800006 0 0 1 16.484782 12.551689 A 0.45521286 0.45800006 0 0 1 16.029513 13.010059 A 0.45521286 0.45800006 0 0 1 15.57476 12.551689 A 0.45521286 0.45800006 0 0 1 16.029513 12.093835 z M 5.5500488 12.721187 C 5.8133676 12.721148 6.0723429 12.790557 6.3003906 12.922209 C 6.5284354 13.05386 6.7175435 13.242967 6.8491943 13.471012 C 6.9808432 13.699061 7.0502387 13.958032 7.0502157 14.221354 C 7.0501497 14.484622 6.9808662 14.743212 6.8491943 14.971179 C 6.7175195 15.199146 6.5278866 15.388384 6.2998739 15.519983 C 6.0718641 15.651582 5.8133086 15.721028 5.5500488 15.721004 C 5.2867861 15.721043 5.0282376 15.651584 4.8002238 15.519983 C 4.572211 15.388384 4.3825802 15.19915 4.2509033 14.971179 C 4.1192255 14.743212 4.049944 14.484622 4.049882 14.221354 C 4.049843 13.958032 4.1192425 13.699061 4.2509033 13.471012 C 4.3825562 13.242967 4.572176 13.05386 4.8002238 12.922209 C 5.0282726 12.790555 5.2867311 12.72116 5.5500488 12.721187 z M 49.549947 12.721187 C 49.813267 12.721148 50.072239 12.790557 50.300289 12.922209 C 50.528329 13.05386 50.717443 13.242967 50.849093 13.471012 C 50.980742 13.699061 51.050134 13.958032 51.050114 14.221354 C 51.050044 14.484622 50.980712 14.743212 50.849093 14.971179 C 50.717423 15.199146 50.527792 15.388384 50.299772 15.519983 C 50.071762 15.651582 49.813207 15.721028 49.549947 15.721004 C 49.286677 15.721043 49.028132 15.651584 48.800122 15.519983 C 48.572112 15.388384 48.382481 15.19915 48.250802 14.971179 C 48.119122 14.743212 48.04984 14.484622 48.04978 14.221354 C 48.04974 13.958032 48.119182 13.699061 48.250802 13.471012 C 48.382451 13.242967 48.572072 13.05386 48.800122 12.922209 C 49.028172 12.790555 49.286627 12.72116 49.549947 12.721187 z M 17.348812 16.038814 A 1.7 1.7000002 0 0 1 19.048966 17.738969 A 1.7 1.7000002 0 0 1 17.348812 19.438607 A 1.7 1.7000002 0 0 1 15.648657 17.738969 A 1.7 1.7000002 0 0 1 17.348812 16.038814 z M 37.669019 16.038814 A 1.7 1.7 0 0 1 39.368656 17.738969 A 1.7 1.7 0 0 1 37.669019 19.438607 A 1.7 1.7 0 0 1 35.968864 17.738969 A 1.7 1.7 0 0 1 37.669019 16.038814 z M 5.5500488 25.081156 C 5.8133676 25.081117 6.0723429 25.150526 6.3003906 25.282178 C 6.5284354 25.413831 6.7175435 25.602932 6.8491943 25.830981 C 6.9808432 26.059029 7.0502387 26.318002 7.0502157 26.581323 C 7.0502547 26.844641 6.9808462 27.103097 6.8491943 27.331148 C 6.7175435 27.559197 6.5284354 27.748816 6.3003906 27.880469 C 6.0723429 28.012126 5.8133676 28.081513 5.5500488 28.08149 C 5.2867271 28.081529 5.0282726 28.01212 4.8002238 27.880469 C 4.572176 27.748816 4.3825562 27.559197 4.2509033 27.331148 C 4.1192485 27.103097 4.049855 26.844641 4.049882 26.581323 C 4.049843 26.318002 4.1192425 26.059029 4.2509033 25.830981 C 4.3825562 25.602932 4.572176 25.413831 4.8002238 25.282178 C 5.0282726 25.150525 5.2867271 25.081132 5.5500488 25.081156 z M 49.549947 25.081156 C 49.813267 25.081117 50.072239 25.150526 50.300289 25.282178 C 50.528329 25.413831 50.717443 25.602932 50.849093 25.830981 C 50.980742 26.059029 51.050134 26.318002 51.050114 26.581323 C 51.050154 26.844645 50.980712 27.103097 50.849093 27.331148 C 50.717443 27.559197 50.528329 27.748816 50.300289 27.880469 C 50.072239 28.012126 49.813267 28.081513 49.549947 28.08149 C 49.286617 28.081529 49.028172 28.01212 48.800122 27.880469 C 48.572072 27.748816 48.382451 27.559197 48.250802 27.331148 C 48.119142 27.103097 48.04975 26.844645 48.04978 26.581323 C 48.04974 26.318002 48.119182 26.059029 48.250802 25.830981 C 48.382451 25.602932 48.572072 25.413831 48.800122 25.282178 C 49.028172 25.150525 49.286617 25.081132 49.549947 25.081156 z M 17.338993 36.642725 A 1.7 1.7000002 0 0 1 19.039148 38.342879 A 1.7 1.7000002 0 0 1 17.338993 40.042517 A 1.7 1.7000002 0 0 1 15.638839 38.342879 A 1.7 1.7000002 0 0 1 17.338993 36.642725 z M 37.6592 36.642725 A 1.7 1.7 0 0 1 39.358838 38.342879 A 1.7 1.7 0 0 1 37.6592 40.042517 A 1.7 1.7 0 0 1 35.959045 38.342879 A 1.7 1.7 0 0 1 37.6592 36.642725 z M 5.5500488 37.441125 C 5.8133676 37.441086 6.0723429 37.510485 6.3003906 37.642147 C 6.5284354 37.7738 6.7175435 37.962905 6.8491943 38.190951 C 6.9808432 38.41899 7.0502387 38.677973 7.0502157 38.941292 C 7.0502547 39.204606 6.9808462 39.463075 6.8491943 39.691117 C 6.7175435 39.919149 6.5284354 40.108777 6.3003906 40.240438 C 6.0723429 40.372091 5.8133676 40.441483 5.5500488 40.441459 C 5.2867311 40.441498 5.0282726 40.372089 4.8002238 40.240438 C 4.572176 40.108781 4.3825562 39.919153 4.2509033 39.691117 C 4.1192485 39.463075 4.049855 39.204606 4.049882 38.941292 C 4.049843 38.677973 4.1192425 38.41899 4.2509033 38.190951 C 4.3825562 37.962905 4.572176 37.7738 4.8002238 37.642147 C 5.0282726 37.510494 5.2867271 37.441101 5.5500488 37.441125 z M 49.549947 37.441125 C 49.813267 37.441086 50.072239 37.510485 50.300289 37.642147 C 50.528329 37.7738 50.717443 37.962905 50.849093 38.190951 C 50.980742 38.41899 51.050134 38.677973 51.050114 38.941292 C 51.050154 39.204606 50.980712 39.463071 50.849093 39.691117 C 50.717443 39.919149 50.528329 40.108777 50.300289 40.240438 C 50.072239 40.372091 49.813267 40.441483 49.549947 40.441459 C 49.286627 40.441498 49.028172 40.372089 48.800122 40.240438 C 48.572072 40.108781 48.382451 39.919153 48.250802 39.691117 C 48.119142 39.463071 48.04975 39.204606 48.04978 38.941292 C 48.04974 38.677973 48.119182 38.41899 48.250802 38.190951 C 48.382451 37.962905 48.572072 37.7738 48.800122 37.642147 C 49.028172 37.510494 49.286617 37.441101 49.549947 37.441125 z M 22.387781 39.159884 A 0.45800006 0.45521286 0 0 1 22.845634 39.615153 A 0.45800006 0.45521286 0 0 1 22.387781 40.070422 A 0.45800006 0.45521286 0 0 1 21.929411 39.615153 A 0.45800006 0.45521286 0 0 1 22.387781 39.159884 z M 24.927677 39.159884 A 0.45800006 0.45521286 0 0 1 25.385531 39.615153 A 0.45800006 0.45521286 0 0 1 24.927677 40.070422 A 0.45800006 0.45521286 0 0 1 24.469824 39.615153 A 0.45800006 0.45521286 0 0 1 24.927677 39.159884 z M 27.467574 39.159884 A 0.45800006 0.45521286 0 0 1 27.925427 39.615153 A 0.45800006 0.45521286 0 0 1 27.467574 40.070422 A 0.45800006 0.45521286 0 0 1 27.009721 39.615153 A 0.45800006 0.45521286 0 0 1 27.467574 39.159884 z M 30.007471 39.159884 A 0.45800006 0.45521286 0 0 1 30.465841 39.615153 A 0.45800006 0.45521286 0 0 1 30.007471 40.070422 A 0.45800006 0.45521286 0 0 1 29.549618 39.615153 A 0.45800006 0.45521286 0 0 1 30.007471 39.159884 z M 32.547367 39.159884 A 0.45800006 0.45521286 0 0 1 33.005737 39.615153 A 0.45800006 0.45521286 0 0 1 32.547367 40.070422 A 0.45800006 0.45521286 0 0 1 32.089514 39.615153 A 0.45800006 0.45521286 0 0 1 32.547367 39.159884 z M 19.93005 47.881315 A 0.45789918 0.44083139 0 0 1 20.387903 48.322115 A 0.45789918 0.44083139 0 0 1 19.93005 48.762915 A 0.45789918 0.44083139 0 0 1 19.472196 48.322115 A 0.45789918 0.44083139 0 0 1 19.93005 47.881315 z M 25.008809 47.881315 A 0.45789918 0.44083139 0 0 1 25.466663 48.322115 A 0.45789918 0.44083139 0 0 1 25.008809 48.762915 A 0.45789918 0.44083139 0 0 1 24.550956 48.322115 A 0.45789918 0.44083139 0 0 1 25.008809 47.881315 z M 30.087569 47.881315 A 0.45789918 0.44083139 0 0 1 30.545939 48.322115 A 0.45789918 0.44083139 0 0 1 30.087569 48.762915 A 0.45789918 0.44083139 0 0 1 29.629716 48.322115 A 0.45789918 0.44083139 0 0 1 30.087569 47.881315 z M 35.169946 47.881315 A 0.45789918 0.44083139 0 0 1 35.627799 48.322115 A 0.45789918 0.44083139 0 0 1 35.169946 48.762915 A 0.45789918 0.44083139 0 0 1 34.712093 48.322115 A 0.45789918 0.44083139 0 0 1 35.169946 47.881315 z " /></g></svg>
