<?xml version="1.0" encoding="UTF-8" standalone="no"?>
<!-- Created with Inkscape (http://www.inkscape.org/) -->

<svg
   width="210mm"
   height="297mm"
   viewBox="0 0 210 297"
   version="1.1"
   id="svg5"
   xml:space="preserve"
   inkscape:version="1.2.2 (b0a8486541, 2022-12-01)"
   sodipodi:docname="sensor-board.svg"
   xmlns:inkscape="http://www.inkscape.org/namespaces/inkscape"
   xmlns:sodipodi="http://sodipodi.sourceforge.net/DTD/sodipodi-0.dtd"
   xmlns="http://www.w3.org/2000/svg"
   xmlns:svg="http://www.w3.org/2000/svg"><sodipodi:namedview
     id="namedview7"
     pagecolor="#ffffff"
     bordercolor="#000000"
     borderopacity="0.25"
     inkscape:showpageshadow="2"
     inkscape:pageopacity="0.0"
     inkscape:pagecheckerboard="0"
     inkscape:deskcolor="#d1d1d1"
     inkscape:document-units="mm"
     showgrid="false"
     inkscape:zoom="3.0823513"
     inkscape:cx="30.820627"
     inkscape:cy="151.50771"
     inkscape:window-width="2560"
     inkscape:window-height="1368"
     inkscape:window-x="0"
     inkscape:window-y="0"
     inkscape:window-maximized="1"
     inkscape:current-layer="layer1"
     showguides="true" /><defs
     id="defs2" /><g
     inkscape:label="Layer 1"
     inkscape:groupmode="layer"
     id="layer1"><path
       id="path1136-0-6"
       style="fill:#84d421;fill-opacity:1;stroke:#000000;stroke-width:0.1;stroke-dasharray:none;stroke-opacity:1"
       d="M 1.1487671 0.081648763 C 0.59476675 0.081648763 0.14831136 0.52759117 0.14831136 1.0815877 L 0.14831136 79.081478 C 0.14831136 79.635475 0.59476675 80.081417 1.1487671 80.081417 L 64.148539 80.081417 C 64.702537 80.081417 65.148478 79.635475 65.148478 79.081478 L 65.148478 1.0815877 C 65.148478 0.52759117 64.702537 0.081648763 64.148539 0.081648763 L 1.1487671 0.081648763 z M 44.168363 12.349117 A 0.45521286 0.45800006 0 0 1 44.623633 12.807487 A 0.45521286 0.45800006 0 0 1 44.168363 13.26534 A 0.45521286 0.45800006 0 0 1 43.713094 12.807487 A 0.45521286 0.45800006 0 0 1 44.168363 12.349117 z M 21.127393 12.423531 A 0.45521286 0.45800006 0 0 1 21.582662 12.881901 A 0.45521286 0.45800006 0 0 1 21.127393 13.339754 A 0.45521286 0.45800006 0 0 1 20.67264 12.881901 A 0.45521286 0.45800006 0 0 1 21.127393 12.423531 z M 44.168363 14.88953 A 0.45521286 0.45800006 0 0 1 44.623633 15.347384 A 0.45521286 0.45800006 0 0 1 44.168363 15.805237 A 0.45521286 0.45800006 0 0 1 43.713094 15.347384 A 0.45521286 0.45800006 0 0 1 44.168363 14.88953 z M 21.127393 14.963944 A 0.45521286 0.45800006 0 0 1 21.582662 15.421798 A 0.45521286 0.45800006 0 0 1 21.127393 15.879651 A 0.45521286 0.45800006 0 0 1 20.67264 15.421798 A 0.45521286 0.45800006 0 0 1 21.127393 14.963944 z M 44.168363 17.429427 A 0.45521286 0.45800006 0 0 1 44.623633 17.88728 A 0.45521286 0.45800006 0 0 1 44.168363 18.345133 A 0.45521286 0.45800006 0 0 1 43.713094 17.88728 A 0.45521286 0.45800006 0 0 1 44.168363 17.429427 z M 21.127393 17.503841 A 0.45521286 0.45800006 0 0 1 21.582662 17.961694 A 0.45521286 0.45800006 0 0 1 21.127393 18.419548 A 0.45521286 0.45800006 0 0 1 20.67264 17.961694 A 0.45521286 0.45800006 0 0 1 21.127393 17.503841 z M 44.168363 19.969324 A 0.45521286 0.45800006 0 0 1 44.623633 20.427177 A 0.45521286 0.45800006 0 0 1 44.168363 20.885547 A 0.45521286 0.45800006 0 0 1 43.713094 20.427177 A 0.45521286 0.45800006 0 0 1 44.168363 19.969324 z M 21.127393 20.043738 A 0.45521286 0.45800006 0 0 1 21.582662 20.501591 A 0.45521286 0.45800006 0 0 1 21.127393 20.959961 A 0.45521286 0.45800006 0 0 1 20.67264 20.501591 A 0.45521286 0.45800006 0 0 1 21.127393 20.043738 z M 22.446692 23.988717 A 1.7 1.7000002 0 0 1 24.146847 25.688871 A 1.7 1.7000002 0 0 1 22.446692 27.388509 A 1.7 1.7000002 0 0 1 20.746537 25.688871 A 1.7 1.7000002 0 0 1 22.446692 23.988717 z M 42.766899 23.988717 A 1.7 1.7 0 0 1 44.466536 25.688871 A 1.7 1.7 0 0 1 42.766899 27.388509 A 1.7 1.7 0 0 1 41.066744 25.688871 A 1.7 1.7 0 0 1 42.766899 23.988717 z M 5.648234 26.221655 C 5.911551 26.221617 6.1705283 26.291025 6.3985758 26.422677 C 6.6266188 26.554327 6.8157273 26.743434 6.9473796 26.97148 C 7.0790288 27.199526 7.1484239 27.458502 7.1484009 27.721822 C 7.1483349 27.98509 7.0790517 28.24368 6.9473796 28.471647 C 6.8157043 28.699612 6.6260719 28.888852 6.3980591 29.020451 C 6.1700511 29.152052 5.911493 29.221495 5.648234 29.221472 C 5.3849715 29.22151 5.126421 29.152054 4.898409 29.020451 C 4.670396 28.888852 4.480764 28.699616 4.3490885 28.471647 C 4.2174086 28.24368 4.1481292 27.98509 4.1480672 27.721822 C 4.1480282 27.458502 4.2174264 27.199526 4.3490885 26.97148 C 4.480741 26.743434 4.670362 26.554327 4.898409 26.422677 C 5.126456 26.291025 5.3849175 26.221628 5.648234 26.221655 z M 59.648039 26.221655 C 59.911364 26.221617 60.170333 26.291025 60.398381 26.422677 C 60.626418 26.554327 60.815534 26.743434 60.947184 26.97148 C 61.078836 27.199526 61.148226 27.458502 61.148206 27.721822 C 61.148136 27.98509 61.078816 28.24368 60.947184 28.471647 C 60.815514 28.699612 60.625882 28.888852 60.397864 29.020451 C 60.169854 29.152052 59.911304 29.221495 59.648039 29.221472 C 59.384779 29.22151 59.126221 29.152052 58.898214 29.020451 C 58.670206 28.888852 58.480573 28.699616 58.348893 28.471647 C 58.217212 28.24368 58.147932 27.98509 58.147872 27.721822 C 58.147832 27.458502 58.217272 27.199526 58.348893 26.97148 C 58.480543 26.743434 58.670166 26.554327 58.898214 26.422677 C 59.126261 26.291025 59.384729 26.221628 59.648039 26.221655 z M 5.648234 38.581624 C 5.911551 38.581585 6.1705283 38.650984 6.3985758 38.782646 C 6.6266188 38.914299 6.8157273 39.1034 6.9473796 39.331449 C 7.0790285 39.559497 7.1484239 39.818469 7.1484009 40.081791 C 7.1484399 40.345107 7.0790317 40.603564 6.9473796 40.831616 C 6.8157273 41.059663 6.6266188 41.249284 6.3985758 41.380937 C 6.1705283 41.512598 5.911551 41.581981 5.648234 41.581958 C 5.3849135 41.581997 5.126456 41.512589 4.898409 41.380937 C 4.670362 41.249284 4.480741 41.059663 4.3490885 40.831616 C 4.2174316 40.603564 4.1480402 40.345107 4.1480672 40.081791 C 4.1480282 39.818469 4.2174264 39.559497 4.3490885 39.331449 C 4.480741 39.1034 4.670362 38.914299 4.898409 38.782646 C 5.126456 38.650994 5.3849135 38.5816 5.648234 38.581624 z M 59.648039 38.581624 C 59.911364 38.581585 60.170333 38.650984 60.398381 38.782646 C 60.626418 38.914299 60.815534 39.1034 60.947184 39.331449 C 61.078836 39.559497 61.148226 39.818469 61.148206 40.081791 C 61.148236 40.345111 61.078816 40.603564 60.947184 40.831616 C 60.815534 41.059663 60.626418 41.249284 60.398381 41.380937 C 60.170333 41.512598 59.911364 41.581981 59.648039 41.581958 C 59.384719 41.581997 59.126261 41.512588 58.898214 41.380937 C 58.670166 41.249284 58.480543 41.059663 58.348893 40.831616 C 58.217232 40.603564 58.147842 40.345111 58.147872 40.081791 C 58.147832 39.818469 58.217272 39.559497 58.348893 39.331449 C 58.480543 39.1034 58.670166 38.914299 58.898214 38.782646 C 59.126261 38.650994 59.384719 38.5816 59.648039 38.581624 z M 22.436873 44.592627 A 1.7 1.7000002 0 0 1 24.137028 46.292782 A 1.7 1.7000002 0 0 1 22.436873 47.992419 A 1.7 1.7000002 0 0 1 20.736719 46.292782 A 1.7 1.7000002 0 0 1 22.436873 44.592627 z M 42.75708 44.592627 A 1.7 1.7 0 0 1 44.456718 46.292782 A 1.7 1.7 0 0 1 42.75708 47.992419 A 1.7 1.7 0 0 1 41.056925 46.292782 A 1.7 1.7 0 0 1 42.75708 44.592627 z M 27.485661 47.109786 A 0.45800006 0.45521286 0 0 1 27.943514 47.565055 A 0.45800006 0.45521286 0 0 1 27.485661 48.020325 A 0.45800006 0.45521286 0 0 1 27.027291 47.565055 A 0.45800006 0.45521286 0 0 1 27.485661 47.109786 z M 30.025557 47.109786 A 0.45800006 0.45521286 0 0 1 30.483411 47.565055 A 0.45800006 0.45521286 0 0 1 30.025557 48.020325 A 0.45800006 0.45521286 0 0 1 29.567704 47.565055 A 0.45800006 0.45521286 0 0 1 30.025557 47.109786 z M 32.565454 47.109786 A 0.45800006 0.45521286 0 0 1 33.023307 47.565055 A 0.45800006 0.45521286 0 0 1 32.565454 48.020325 A 0.45800006 0.45521286 0 0 1 32.107601 47.565055 A 0.45800006 0.45521286 0 0 1 32.565454 47.109786 z M 35.105351 47.109786 A 0.45800006 0.45521286 0 0 1 35.563721 47.565055 A 0.45800006 0.45521286 0 0 1 35.105351 48.020325 A 0.45800006 0.45521286 0 0 1 34.647498 47.565055 A 0.45800006 0.45521286 0 0 1 35.105351 47.109786 z M 37.645247 47.109786 A 0.45800006 0.45521286 0 0 1 38.103617 47.565055 A 0.45800006 0.45521286 0 0 1 37.645247 48.020325 A 0.45800006 0.45521286 0 0 1 37.187394 47.565055 A 0.45800006 0.45521286 0 0 1 37.645247 47.109786 z M 5.648234 50.941593 C 5.9115512 50.941554 6.170528 51.010953 6.3985758 51.142615 C 6.626619 51.274268 6.8157272 51.463372 6.9473796 51.691418 C 7.079029 51.919458 7.1484239 52.17844 7.1484009 52.44176 C 7.1484399 52.705072 7.0790317 52.963542 6.9473796 53.191585 C 6.8157272 53.419615 6.626619 53.609245 6.3985758 53.740906 C 6.170528 53.872559 5.9115512 53.941951 5.648234 53.941927 C 5.3849172 53.941966 5.1264562 53.872558 4.898409 53.740906 C 4.6703618 53.609249 4.4807411 53.419619 4.3490885 53.191585 C 4.2174313 52.963542 4.1480402 52.705072 4.1480672 52.44176 C 4.1480282 52.17844 4.2174264 51.919458 4.3490885 51.691418 C 4.4807411 51.463372 4.6703618 51.274268 4.898409 51.142615 C 5.1264562 51.010962 5.3849132 50.941569 5.648234 50.941593 z M 59.648039 50.941593 C 59.911365 50.941554 60.170333 51.010953 60.398381 51.142615 C 60.626419 51.274268 60.815534 51.463372 60.947184 51.691418 C 61.078834 51.919458 61.148226 52.17844 61.148206 52.44176 C 61.148236 52.705072 61.078816 52.963538 60.947184 53.191585 C 60.815534 53.419615 60.626419 53.609245 60.398381 53.740906 C 60.170333 53.872559 59.911365 53.941951 59.648039 53.941927 C 59.384729 53.941966 59.126262 53.872557 58.898214 53.740906 C 58.670166 53.609249 58.480543 53.419619 58.348893 53.191585 C 58.217233 52.963538 58.147842 52.705072 58.147872 52.44176 C 58.147832 52.17844 58.217272 51.919458 58.348893 51.691418 C 58.480543 51.463372 58.670166 51.274268 58.898214 51.142615 C 59.126262 51.010962 59.384719 50.941569 59.648039 50.941593 z M 32.96853 57.571163 A 0.45800006 0.45521286 0 0 1 33.426383 58.026432 A 0.45800006 0.45521286 0 0 1 32.96853 58.481702 A 0.45800006 0.45521286 0 0 1 32.51016 58.026432 A 0.45800006 0.45521286 0 0 1 32.96853 57.571163 z M 38.048324 57.571163 A 0.45800006 0.45521286 0 0 1 38.506177 58.026432 A 0.45800006 0.45521286 0 0 1 38.048324 58.481702 A 0.45800006 0.45521286 0 0 1 37.59047 58.026432 A 0.45800006 0.45521286 0 0 1 38.048324 57.571163 z M 43.1276 57.571163 A 0.45800006 0.45521286 0 0 1 43.585453 58.026432 A 0.45800006 0.45521286 0 0 1 43.1276 58.481702 A 0.45800006 0.45521286 0 0 1 42.669747 58.026432 A 0.45800006 0.45521286 0 0 1 43.1276 57.571163 z M 47.968648 57.571163 A 0.45800006 0.45521286 0 0 1 48.426501 58.026432 A 0.45800006 0.45521286 0 0 1 47.968648 58.481702 A 0.45800006 0.45521286 0 0 1 47.510278 58.026432 A 0.45800006 0.45521286 0 0 1 47.968648 57.571163 z M 53.048442 57.571163 A 0.45800006 0.45521286 0 0 1 53.506295 58.026432 A 0.45800006 0.45521286 0 0 1 53.048442 58.481702 A 0.45800006 0.45521286 0 0 1 52.590588 58.026432 A 0.45800006 0.45521286 0 0 1 53.048442 57.571163 z M 58.127718 57.571163 A 0.45800006 0.45521286 0 0 1 58.585571 58.026432 A 0.45800006 0.45521286 0 0 1 58.127718 58.481702 A 0.45800006 0.45521286 0 0 1 57.669865 58.026432 A 0.45800006 0.45521286 0 0 1 58.127718 57.571163 z M 2.1977987 64.433793 A 0.5000012 0.5000012 0 0 1 2.6980265 64.933504 A 0.5000012 0.5000012 0 0 1 2.1977987 65.433732 A 0.5000012 0.5000012 0 0 1 1.6980876 64.933504 A 0.5000012 0.5000012 0 0 1 2.1977987 64.433793 z M 4.9092611 64.433793 A 0.5000024 0.5000024 0 0 1 5.4089722 64.933504 A 0.5000024 0.5000024 0 0 1 4.9092611 65.433732 A 0.5000024 0.5000024 0 0 1 4.4090332 64.933504 A 0.5000024 0.5000024 0 0 1 4.9092611 64.433793 z M 7.6202067 64.433793 A 0.5000024 0.5000024 0 0 1 8.1204346 64.933504 A 0.5000024 0.5000024 0 0 1 7.6202067 65.433732 A 0.5000024 0.5000024 0 0 1 7.1204956 64.933504 A 0.5000024 0.5000024 0 0 1 7.6202067 64.433793 z M 10.331152 64.433793 A 0.50000356 0.50000356 0 0 1 10.83138 64.933504 A 0.50000356 0.50000356 0 0 1 10.331152 65.433732 A 0.50000356 0.50000356 0 0 1 9.8314412 64.933504 A 0.50000356 0.50000356 0 0 1 10.331152 64.433793 z M 13.042615 64.433793 A 0.5000024 0.5000024 0 0 1 13.542326 64.933504 A 0.5000024 0.5000024 0 0 1 13.042615 65.433732 A 0.5000024 0.5000024 0 0 1 12.542387 64.933504 A 0.5000024 0.5000024 0 0 1 13.042615 64.433793 z M 15.75356 64.433793 A 0.50000356 0.50000356 0 0 1 16.253788 64.933504 A 0.50000356 0.50000356 0 0 1 15.75356 65.433732 A 0.50000356 0.50000356 0 0 1 15.253333 64.933504 A 0.50000356 0.50000356 0 0 1 15.75356 64.433793 z M 18.464506 64.433793 A 0.5000024 0.5000024 0 0 1 18.964734 64.933504 A 0.5000024 0.5000024 0 0 1 18.464506 65.433732 A 0.5000024 0.5000024 0 0 1 17.964795 64.933504 A 0.5000024 0.5000024 0 0 1 18.464506 64.433793 z M 21.175968 64.433793 A 0.50000356 0.50000356 0 0 1 21.67568 64.933504 A 0.50000356 0.50000356 0 0 1 21.175968 65.433732 A 0.50000356 0.50000356 0 0 1 20.675741 64.933504 A 0.50000356 0.50000356 0 0 1 21.175968 64.433793 z M 23.886914 64.433793 A 0.5000024 0.5000024 0 0 1 24.387142 64.933504 A 0.5000024 0.5000024 0 0 1 23.886914 65.433732 A 0.5000024 0.5000024 0 0 1 23.386686 64.933504 A 0.5000024 0.5000024 0 0 1 23.886914 64.433793 z M 26.59786 64.433793 A 0.50000356 0.50000356 0 0 1 27.098088 64.933504 A 0.50000356 0.50000356 0 0 1 26.59786 65.433732 A 0.50000356 0.50000356 0 0 1 26.098149 64.933504 A 0.50000356 0.50000356 0 0 1 26.59786 64.433793 z M 32.96853 69.965755 A 0.45800006 0.45521286 0 0 1 33.426383 70.421025 A 0.45800006 0.45521286 0 0 1 32.96853 70.876294 A 0.45800006 0.45521286 0 0 1 32.51016 70.421025 A 0.45800006 0.45521286 0 0 1 32.96853 69.965755 z M 38.048324 69.965755 A 0.45800006 0.45521286 0 0 1 38.506177 70.421025 A 0.45800006 0.45521286 0 0 1 38.048324 70.876294 A 0.45800006 0.45521286 0 0 1 37.59047 70.421025 A 0.45800006 0.45521286 0 0 1 38.048324 69.965755 z M 43.1276 69.965755 A 0.45800006 0.45521286 0 0 1 43.585453 70.421025 A 0.45800006 0.45521286 0 0 1 43.1276 70.876294 A 0.45800006 0.45521286 0 0 1 42.669747 70.421025 A 0.45800006 0.45521286 0 0 1 43.1276 69.965755 z M 47.968648 69.965755 A 0.45800006 0.45521286 0 0 1 48.426501 70.421025 A 0.45800006 0.45521286 0 0 1 47.968648 70.876294 A 0.45800006 0.45521286 0 0 1 47.510278 70.421025 A 0.45800006 0.45521286 0 0 1 47.968648 69.965755 z M 53.048442 69.965755 A 0.45800006 0.45521286 0 0 1 53.506295 70.421025 A 0.45800006 0.45521286 0 0 1 53.048442 70.876294 A 0.45800006 0.45521286 0 0 1 52.590588 70.421025 A 0.45800006 0.45521286 0 0 1 53.048442 69.965755 z M 58.127718 69.965755 A 0.45800006 0.45521286 0 0 1 58.585571 70.421025 A 0.45800006 0.45521286 0 0 1 58.127718 70.876294 A 0.45800006 0.45521286 0 0 1 57.669865 70.421025 A 0.45800006 0.45521286 0 0 1 58.127718 69.965755 z M 2.1988322 75.934383 A 1.7001123 1.7001123 0 0 1 3.8979533 77.635571 A 1.7001123 1.7001123 0 0 1 2.1988322 79.334692 A 1.7001123 1.7001123 0 0 1 0.49816081 77.635571 A 1.7001123 1.7001123 0 0 1 2.1988322 75.934383 z M 26.598893 75.934383 A 1.7001123 1.7001123 0 0 1 28.298014 77.635571 A 1.7001123 1.7001123 0 0 1 26.598893 79.334692 A 1.7001123 1.7001123 0 0 1 24.898222 77.635571 A 1.7001123 1.7001123 0 0 1 26.598893 75.934383 z " /><rect
       style="fill:none;fill-opacity:1;stroke:#000000;stroke-width:0.600001;stroke-opacity:1"
       id="rect951"
       width="28.000067"
       height="18.000044"
       x="0.30000094"
       y="61.799915"
       ry="2.0074036" /><text
       xml:space="preserve"
       style="font-style:normal;font-variant:normal;font-weight:normal;font-stretch:normal;font-size:4.23333px;font-family:'DejaVu Sans';-inkscape-font-specification:'DejaVu Sans, Normal';font-variant-ligatures:normal;font-variant-caps:normal;font-variant-numeric:normal;font-variant-east-asian:normal;fill:#000000;fill-opacity:1;stroke:none;stroke-width:0.600001"
       x="9.727704"
       y="72.340927"
       id="text1619"><tspan
         sodipodi:role="line"
         id="tspan1617"
         style="font-style:normal;font-variant:normal;font-weight:normal;font-stretch:normal;font-size:4.23333px;font-family:'DejaVu Sans';-inkscape-font-specification:'DejaVu Sans, Normal';font-variant-ligatures:normal;font-variant-caps:normal;font-variant-numeric:normal;font-variant-east-asian:normal;fill:#000000;fill-opacity:1;stroke:none;stroke-width:0.600001"
         x="9.727704"
         y="72.340927">ADC </tspan></text><text
       xml:space="preserve"
       style="font-style:normal;font-variant:normal;font-weight:normal;font-stretch:normal;font-size:4.23333px;font-family:'DejaVu Sans';-inkscape-font-specification:'DejaVu Sans, Normal';font-variant-ligatures:normal;font-variant-caps:normal;font-variant-numeric:normal;font-variant-east-asian:normal;fill:#000000;fill-opacity:1;stroke:none;stroke-width:0.600001"
       x="-25.160685"
       y="31.303017"
       id="text1619-7"
       transform="rotate(-90)"><tspan
         sodipodi:role="line"
         id="tspan1617-8"
         style="font-style:normal;font-variant:normal;font-weight:normal;font-stretch:normal;font-size:4.23333px;font-family:'DejaVu Sans';-inkscape-font-specification:'DejaVu Sans, Normal';font-variant-ligatures:normal;font-variant-caps:normal;font-variant-numeric:normal;font-variant-east-asian:normal;fill:#000000;fill-opacity:1;stroke:none;stroke-width:0.600001"
         x="-25.160685"
         y="31.303017">Qwiic</tspan><tspan
         sodipodi:role="line"
         style="font-style:normal;font-variant:normal;font-weight:normal;font-stretch:normal;font-size:4.23333px;font-family:'DejaVu Sans';-inkscape-font-specification:'DejaVu Sans, Normal';font-variant-ligatures:normal;font-variant-caps:normal;font-variant-numeric:normal;font-variant-east-asian:normal;fill:#000000;fill-opacity:1;stroke:none;stroke-width:0.600001"
         x="-25.160685"
         y="36.594677"
         id="tspan8955">Endpoint</tspan></text><text
       xml:space="preserve"
       style="font-style:normal;font-variant:normal;font-weight:normal;font-stretch:normal;font-size:2.11667px;font-family:'DejaVu Sans';-inkscape-font-specification:'DejaVu Sans, Normal';font-variant-ligatures:normal;font-variant-caps:normal;font-variant-numeric:normal;font-variant-east-asian:normal;fill:#000000;fill-opacity:1;stroke:none;stroke-width:0.600001;stroke-opacity:1"
       x="-59.712406"
       y="2.8715243"
       id="text1367"
       transform="rotate(-90)"><tspan
         sodipodi:role="line"
         id="tspan1365"
         style="font-style:normal;font-variant:normal;font-weight:normal;font-stretch:normal;font-size:2.11667px;font-family:'DejaVu Sans';-inkscape-font-specification:'DejaVu Sans, Normal';font-variant-ligatures:normal;font-variant-caps:normal;font-variant-numeric:normal;font-variant-east-asian:normal;stroke-width:0.600001"
         x="-59.712406"
         y="2.8715243">VDD</tspan></text><text
       xml:space="preserve"
       style="font-style:normal;font-variant:normal;font-weight:normal;font-stretch:normal;font-size:2.11667px;font-family:'DejaVu Sans';-inkscape-font-specification:'DejaVu Sans, Normal';font-variant-ligatures:normal;font-variant-caps:normal;font-variant-numeric:normal;font-variant-east-asian:normal;fill:#000000;fill-opacity:1;stroke:none;stroke-width:0.600001;stroke-opacity:1"
       x="-59.712406"
       y="5.5826478"
       id="text1367-5"
       transform="rotate(-90)"><tspan
         sodipodi:role="line"
         id="tspan1365-0"
         style="font-style:normal;font-variant:normal;font-weight:normal;font-stretch:normal;font-size:2.11667px;font-family:'DejaVu Sans';-inkscape-font-specification:'DejaVu Sans, Normal';font-variant-ligatures:normal;font-variant-caps:normal;font-variant-numeric:normal;font-variant-east-asian:normal;stroke-width:0.600001"
         x="-59.712406"
         y="5.5826478">GND</tspan></text><text
       xml:space="preserve"
       style="font-style:normal;font-variant:normal;font-weight:normal;font-stretch:normal;font-size:2.11667px;font-family:'DejaVu Sans';-inkscape-font-specification:'DejaVu Sans, Normal';font-variant-ligatures:normal;font-variant-caps:normal;font-variant-numeric:normal;font-variant-east-asian:normal;fill:#000000;fill-opacity:1;stroke:none;stroke-width:0.600001;stroke-opacity:1"
       x="-59.712406"
       y="8.2937593"
       id="text1367-3"
       transform="rotate(-90)"><tspan
         sodipodi:role="line"
         id="tspan1365-6"
         style="font-style:normal;font-variant:normal;font-weight:normal;font-stretch:normal;font-size:2.11667px;font-family:'DejaVu Sans';-inkscape-font-specification:'DejaVu Sans, Normal';font-variant-ligatures:normal;font-variant-caps:normal;font-variant-numeric:normal;font-variant-east-asian:normal;stroke-width:0.600001"
         x="-59.712406"
         y="8.2937593">SCL</tspan></text><text
       xml:space="preserve"
       style="font-style:normal;font-variant:normal;font-weight:normal;font-stretch:normal;font-size:2.11667px;font-family:'DejaVu Sans';-inkscape-font-specification:'DejaVu Sans, Normal';font-variant-ligatures:normal;font-variant-caps:normal;font-variant-numeric:normal;font-variant-east-asian:normal;fill:#000000;fill-opacity:1;stroke:none;stroke-width:0.600001;stroke-opacity:1"
       x="-59.712406"
       y="11.004883"
       id="text1367-1"
       transform="rotate(-90)"><tspan
         sodipodi:role="line"
         id="tspan1365-06"
         style="font-style:normal;font-variant:normal;font-weight:normal;font-stretch:normal;font-size:2.11667px;font-family:'DejaVu Sans';-inkscape-font-specification:'DejaVu Sans, Normal';font-variant-ligatures:normal;font-variant-caps:normal;font-variant-numeric:normal;font-variant-east-asian:normal;stroke-width:0.600001"
         x="-59.712406"
         y="11.004883">SDA</tspan></text><text
       xml:space="preserve"
       style="font-style:normal;font-variant:normal;font-weight:normal;font-stretch:normal;font-size:2.11667px;font-family:'DejaVu Sans';-inkscape-font-specification:'DejaVu Sans, Normal';font-variant-ligatures:normal;font-variant-caps:normal;font-variant-numeric:normal;font-variant-east-asian:normal;fill:#000000;fill-opacity:1;stroke:none;stroke-width:0.600001;stroke-opacity:1"
       x="-59.712406"
       y="13.715994"
       id="text1367-32"
       transform="rotate(-90)"><tspan
         sodipodi:role="line"
         id="tspan1365-061"
         style="font-style:normal;font-variant:normal;font-weight:normal;font-stretch:normal;font-size:2.11667px;font-family:'DejaVu Sans';-inkscape-font-specification:'DejaVu Sans, Normal';font-variant-ligatures:normal;font-variant-caps:normal;font-variant-numeric:normal;font-variant-east-asian:normal;stroke-width:0.600001"
         x="-59.712406"
         y="13.715994">ADDR</tspan></text><text
       xml:space="preserve"
       style="font-style:normal;font-variant:normal;font-weight:normal;font-stretch:normal;font-size:2.11667px;font-family:'DejaVu Sans';-inkscape-font-specification:'DejaVu Sans, Normal';font-variant-ligatures:normal;font-variant-caps:normal;font-variant-numeric:normal;font-variant-east-asian:normal;fill:#000000;fill-opacity:1;stroke:none;stroke-width:0.600001;stroke-opacity:1"
       x="-59.712406"
       y="16.427116"
       id="text1367-55"
       transform="rotate(-90)"><tspan
         sodipodi:role="line"
         id="tspan1365-4"
         style="font-style:normal;font-variant:normal;font-weight:normal;font-stretch:normal;font-size:2.11667px;font-family:'DejaVu Sans';-inkscape-font-specification:'DejaVu Sans, Normal';font-variant-ligatures:normal;font-variant-caps:normal;font-variant-numeric:normal;font-variant-east-asian:normal;stroke-width:0.600001"
         x="-59.712406"
         y="16.427116">ALRT</tspan></text><text
       xml:space="preserve"
       style="font-style:normal;font-variant:normal;font-weight:normal;font-stretch:normal;font-size:2.11667px;font-family:'DejaVu Sans';-inkscape-font-specification:'DejaVu Sans, Normal';font-variant-ligatures:normal;font-variant-caps:normal;font-variant-numeric:normal;font-variant-east-asian:normal;fill:#000000;fill-opacity:1;stroke:none;stroke-width:0.600001;stroke-opacity:1"
       x="-59.712406"
       y="19.138229"
       id="text1367-7"
       transform="rotate(-90)"><tspan
         sodipodi:role="line"
         id="tspan1365-65"
         style="font-style:normal;font-variant:normal;font-weight:normal;font-stretch:normal;font-size:2.11667px;font-family:'DejaVu Sans';-inkscape-font-specification:'DejaVu Sans, Normal';font-variant-ligatures:normal;font-variant-caps:normal;font-variant-numeric:normal;font-variant-east-asian:normal;stroke-width:0.600001"
         x="-59.712406"
         y="19.138229">A0</tspan></text><text
       xml:space="preserve"
       style="font-style:normal;font-variant:normal;font-weight:normal;font-stretch:normal;font-size:2.11667px;font-family:'DejaVu Sans';-inkscape-font-specification:'DejaVu Sans, Normal';font-variant-ligatures:normal;font-variant-caps:normal;font-variant-numeric:normal;font-variant-east-asian:normal;fill:#000000;fill-opacity:1;stroke:none;stroke-width:0.600001;stroke-opacity:1"
       x="-79.219879"
       y="33.738686"
       id="text1367-61"
       transform="rotate(-90)"><tspan
         sodipodi:role="line"
         id="tspan1365-55"
         style="font-style:normal;font-variant:normal;font-weight:normal;font-stretch:normal;font-size:2.11667px;font-family:'DejaVu Sans';-inkscape-font-specification:'DejaVu Sans, Normal';font-variant-ligatures:normal;font-variant-caps:normal;font-variant-numeric:normal;font-variant-east-asian:normal;stroke-width:0.600001"
         x="-79.219879"
         y="33.738686">3.3V</tspan></text><text
       xml:space="preserve"
       style="font-style:normal;font-variant:normal;font-weight:normal;font-stretch:normal;font-size:2.11667px;font-family:'DejaVu Sans';-inkscape-font-specification:'DejaVu Sans, Normal';font-variant-ligatures:normal;font-variant-caps:normal;font-variant-numeric:normal;font-variant-east-asian:normal;fill:#000000;fill-opacity:1;stroke:none;stroke-width:0.600001;stroke-opacity:1"
       x="-79.322197"
       y="43.898323"
       id="text1367-5-4"
       transform="rotate(-90)"><tspan
         sodipodi:role="line"
         id="tspan1365-0-7"
         style="font-style:normal;font-variant:normal;font-weight:normal;font-stretch:normal;font-size:2.11667px;font-family:'DejaVu Sans';-inkscape-font-specification:'DejaVu Sans, Normal';font-variant-ligatures:normal;font-variant-caps:normal;font-variant-numeric:normal;font-variant-east-asian:normal;stroke-width:0.600001"
         x="-79.322197"
         y="43.898323">GND</tspan></text><text
       xml:space="preserve"
       style="font-style:normal;font-variant:normal;font-weight:normal;font-stretch:normal;font-size:2.11667px;font-family:'DejaVu Sans';-inkscape-font-specification:'DejaVu Sans, Normal';font-variant-ligatures:normal;font-variant-caps:normal;font-variant-numeric:normal;font-variant-east-asian:normal;fill:#000000;fill-opacity:1;stroke:none;stroke-width:0.600001;stroke-opacity:1"
       x="-79.219879"
       y="38.818737"
       id="text1367-7-6"
       transform="rotate(-90)"><tspan
         sodipodi:role="line"
         id="tspan1365-65-5"
         style="font-style:normal;font-variant:normal;font-weight:normal;font-stretch:normal;font-size:2.11667px;font-family:'DejaVu Sans';-inkscape-font-specification:'DejaVu Sans, Normal';font-variant-ligatures:normal;font-variant-caps:normal;font-variant-numeric:normal;font-variant-east-asian:normal;stroke-width:0.600001"
         x="-79.219879"
         y="38.818737">A0</tspan></text><text
       xml:space="preserve"
       style="font-style:normal;font-variant:normal;font-weight:normal;font-stretch:normal;font-size:2.11667px;font-family:'DejaVu Sans';-inkscape-font-specification:'DejaVu Sans, Normal';font-variant-ligatures:normal;font-variant-caps:normal;font-variant-numeric:normal;font-variant-east-asian:normal;fill:#000000;fill-opacity:1;stroke:none;stroke-width:0.600001;stroke-opacity:1"
       x="-79.219879"
       y="48.738686"
       id="text1367-61-3"
       transform="rotate(-90)"><tspan
         sodipodi:role="line"
         id="tspan1365-55-1"
         style="font-style:normal;font-variant:normal;font-weight:normal;font-stretch:normal;font-size:2.11667px;font-family:'DejaVu Sans';-inkscape-font-specification:'DejaVu Sans, Normal';font-variant-ligatures:normal;font-variant-caps:normal;font-variant-numeric:normal;font-variant-east-asian:normal;stroke-width:0.600001"
         x="-79.219879"
         y="48.738686">3.3V</tspan></text><text
       xml:space="preserve"
       style="font-style:normal;font-variant:normal;font-weight:normal;font-stretch:normal;font-size:2.11667px;font-family:'DejaVu Sans';-inkscape-font-specification:'DejaVu Sans, Normal';font-variant-ligatures:normal;font-variant-caps:normal;font-variant-numeric:normal;font-variant-east-asian:normal;fill:#000000;fill-opacity:1;stroke:none;stroke-width:0.600001;stroke-opacity:1"
       x="-79.322197"
       y="58.898323"
       id="text1367-5-4-2"
       transform="rotate(-90)"><tspan
         sodipodi:role="line"
         id="tspan1365-0-7-0"
         style="font-style:normal;font-variant:normal;font-weight:normal;font-stretch:normal;font-size:2.11667px;font-family:'DejaVu Sans';-inkscape-font-specification:'DejaVu Sans, Normal';font-variant-ligatures:normal;font-variant-caps:normal;font-variant-numeric:normal;font-variant-east-asian:normal;stroke-width:0.600001"
         x="-79.322197"
         y="58.898323">GND</tspan></text><text
       xml:space="preserve"
       style="font-style:normal;font-variant:normal;font-weight:normal;font-stretch:normal;font-size:2.11667px;font-family:'DejaVu Sans';-inkscape-font-specification:'DejaVu Sans, Normal';font-variant-ligatures:normal;font-variant-caps:normal;font-variant-numeric:normal;font-variant-east-asian:normal;fill:#000000;fill-opacity:1;stroke:none;stroke-width:0.600001;stroke-opacity:1"
       x="-79.219879"
       y="53.818737"
       id="text1367-7-6-6"
       transform="rotate(-90)"><tspan
         sodipodi:role="line"
         id="tspan1365-65-5-8"
         style="font-style:normal;font-variant:normal;font-weight:normal;font-stretch:normal;font-size:2.11667px;font-family:'DejaVu Sans';-inkscape-font-specification:'DejaVu Sans, Normal';font-variant-ligatures:normal;font-variant-caps:normal;font-variant-numeric:normal;font-variant-east-asian:normal;stroke-width:0.600001"
         x="-79.219879"
         y="53.818737">A0</tspan></text><text
       xml:space="preserve"
       style="font-style:normal;font-variant:normal;font-weight:normal;font-stretch:normal;font-size:2.11667px;font-family:'DejaVu Sans';-inkscape-font-specification:'DejaVu Sans, Normal';font-variant-ligatures:normal;font-variant-caps:normal;font-variant-numeric:normal;font-variant-east-asian:normal;fill:#000000;fill-opacity:1;stroke:none;stroke-width:0.600001;stroke-opacity:1"
       x="-59.712406"
       y="21.849352"
       id="text1367-6"
       transform="rotate(-90)"><tspan
         sodipodi:role="line"
         id="tspan1365-9"
         style="font-style:normal;font-variant:normal;font-weight:normal;font-stretch:normal;font-size:2.11667px;font-family:'DejaVu Sans';-inkscape-font-specification:'DejaVu Sans, Normal';font-variant-ligatures:normal;font-variant-caps:normal;font-variant-numeric:normal;font-variant-east-asian:normal;stroke-width:0.600001"
         x="-59.712406"
         y="21.849352">A1</tspan></text><text
       xml:space="preserve"
       style="font-style:normal;font-variant:normal;font-weight:normal;font-stretch:normal;font-size:2.11667px;font-family:'DejaVu Sans';-inkscape-font-specification:'DejaVu Sans, Normal';font-variant-ligatures:normal;font-variant-caps:normal;font-variant-numeric:normal;font-variant-east-asian:normal;fill:#000000;fill-opacity:1;stroke:none;stroke-width:0.600001;stroke-opacity:1"
       x="-59.712406"
       y="24.560463"
       id="text1367-37"
       transform="rotate(-90)"><tspan
         sodipodi:role="line"
         id="tspan1365-45"
         style="font-style:normal;font-variant:normal;font-weight:normal;font-stretch:normal;font-size:2.11667px;font-family:'DejaVu Sans';-inkscape-font-specification:'DejaVu Sans, Normal';font-variant-ligatures:normal;font-variant-caps:normal;font-variant-numeric:normal;font-variant-east-asian:normal;stroke-width:0.600001"
         x="-59.712406"
         y="24.560463">A2</tspan></text><text
       xml:space="preserve"
       style="font-style:normal;font-variant:normal;font-weight:normal;font-stretch:normal;font-size:2.11667px;font-family:'DejaVu Sans';-inkscape-font-specification:'DejaVu Sans, Normal';font-variant-ligatures:normal;font-variant-caps:normal;font-variant-numeric:normal;font-variant-east-asian:normal;fill:#000000;fill-opacity:1;stroke:none;stroke-width:0.600001;stroke-opacity:1"
       x="-59.712406"
       y="27.271587"
       id="text1367-2"
       transform="rotate(-90)"><tspan
         sodipodi:role="line"
         id="tspan1365-5"
         style="font-style:normal;font-variant:normal;font-weight:normal;font-stretch:normal;font-size:2.11667px;font-family:'DejaVu Sans';-inkscape-font-specification:'DejaVu Sans, Normal';font-variant-ligatures:normal;font-variant-caps:normal;font-variant-numeric:normal;font-variant-east-asian:normal;stroke-width:0.600001"
         x="-59.712406"
         y="27.271587">A3</tspan></text><text
       xml:space="preserve"
       style="font-style:normal;font-variant:normal;font-weight:normal;font-stretch:normal;font-size:4.93889px;line-height:125%;font-family:'DejaVu Sans';-inkscape-font-specification:'DejaVu Sans, Normal';font-variant-ligatures:normal;font-variant-caps:normal;font-variant-numeric:normal;font-variant-east-asian:normal;letter-spacing:0px;word-spacing:0px;fill:#000000;fill-opacity:1;stroke:none;stroke-width:0.264583px;stroke-linecap:butt;stroke-linejoin:miter;stroke-opacity:1"
       x="34.63805"
       y="66.712601"
       id="text8092"><tspan
         sodipodi:role="line"
         id="tspan8090"
         style="font-style:normal;font-variant:normal;font-weight:normal;font-stretch:normal;font-size:4.93889px;font-family:'DejaVu Sans';-inkscape-font-specification:'DejaVu Sans, Normal';font-variant-ligatures:normal;font-variant-caps:normal;font-variant-numeric:normal;font-variant-east-asian:normal;fill:#000000;fill-opacity:1;stroke:none;stroke-width:0.264583px"
         x="34.63805"
         y="66.712601">Air</tspan></text><text
       xml:space="preserve"
       style="font-style:normal;font-variant:normal;font-weight:normal;font-stretch:normal;font-size:4.93889px;line-height:125%;font-family:'DejaVu Sans';-inkscape-font-specification:'DejaVu Sans, Normal';font-variant-ligatures:normal;font-variant-caps:normal;font-variant-numeric:normal;font-variant-east-asian:normal;letter-spacing:0px;word-spacing:0px;fill:#000000;fill-opacity:1;stroke:none;stroke-width:0.264583px;stroke-linecap:butt;stroke-linejoin:miter;stroke-opacity:1"
       x="47.917397"
       y="66.642662"
       id="text8092-1"><tspan
         sodipodi:role="line"
         id="tspan8090-2"
         style="font-style:normal;font-variant:normal;font-weight:normal;font-stretch:normal;font-size:4.93889px;font-family:'DejaVu Sans';-inkscape-font-specification:'DejaVu Sans, Normal';font-variant-ligatures:normal;font-variant-caps:normal;font-variant-numeric:normal;font-variant-east-asian:normal;fill:#000000;fill-opacity:1;stroke:none;stroke-width:0.264583px"
         x="47.917397"
         y="66.642662">CO2</tspan></text></g></svg>
